<svg width="56" height="75" viewBox="0 0 56 75" fill="none" xmlns="http://www.w3.org/2000/svg">
<circle cx="28" cy="47" r="25" fill="#9E5703"/>
<path fill-rule="evenodd" clip-rule="evenodd" d="M15.1635 68.4541C11.6237 66.341 8.55828 63.3215 6.35055 59.4978C4.14456 55.6775 3.06187 51.5166 3 47.398L3.36138 47.4693C10.7336 48.921 19.1206 46.2962 26.0145 42.0642C26.9209 41.5075 27.8099 40.9181 28.6748 40.3003C29.7078 41.59 30.6327 42.898 31.378 44.1886C32.3122 45.8066 33.1574 47.7312 33.9126 49.7874C32.6191 50.4133 31.3582 51.1024 30.1433 51.8418C23.1639 56.0881 17.2098 62.2819 15.1646 68.4509L15.1635 68.4541ZM38.6496 69.6157C32.1377 72.6904 24.8545 72.7097 18.5538 70.1439L18.724 69.6307C20.3827 64.627 25.5223 59.0422 32.0924 55.0448C33.0794 54.4441 34.0876 53.8862 35.109 53.3763C35.7395 55.4505 36.2857 57.5546 36.7467 59.5306C37.3449 62.0939 37.7889 64.3915 38.0831 66.0478C38.2301 66.8754 38.3396 67.5413 38.4118 67.9982C38.4481 68.2269 38.4751 68.4031 38.4928 68.5211L38.5123 68.6536L38.5171 68.6858L38.5183 68.6948L38.6496 69.6157Z" fill="#CF7000"/>
<path d="M38.5654 51.8565C43.2839 50.0596 48.0937 49.3689 52.2567 50.2823L52.7684 50.3945C52.4639 52.6046 51.8657 54.7675 50.9903 56.821C49.1794 61.0683 46.1828 64.8472 42.1467 67.6105L42.1157 67.4127C42.04 66.9348 41.9267 66.2454 41.7753 65.3926C41.4723 63.6876 41.0155 61.3225 40.3986 58.6792C39.9011 56.5475 39.2924 54.2006 38.5654 51.8565Z" fill="#CF7000"/>
<path d="M31.6323 37.9958C35.9538 34.3233 39.3497 29.9698 40.8123 25.6247L40.8383 25.5469C44.3774 27.66 47.4422 30.6792 49.6496 34.5021C51.8565 38.324 52.9392 42.4865 53.0002 46.6066C48.0115 45.5283 42.5352 46.3539 37.3615 48.3038C36.5596 46.1452 35.6494 44.0875 34.6254 42.314C33.785 40.8586 32.7598 39.4069 31.6323 37.9958Z" fill="#CF7000"/>
<path d="M18.7981 25.6394C18.1681 25.1412 17.655 24.7481 17.2976 24.4781L17.2417 24.4359C21.6476 22.3299 26.412 21.6273 30.9895 22.182C33.2076 22.4509 35.382 23.015 37.4504 23.8578L37.2582 24.4288C36.0652 27.9731 33.1331 31.8042 29.1876 35.1538C27.3619 33.1665 25.436 31.3254 23.6816 29.7519C21.7887 28.0543 20.0573 26.6351 18.7981 25.6394Z" fill="#CF7000"/>
<path d="M24.0523 38.8691C17.5862 42.8388 10.1771 44.9902 4.08592 43.7906L3.22949 43.6222C4.15264 36.8897 7.80073 30.5971 13.7054 26.4922L14.5252 27.0881L14.5303 27.0918L14.5536 27.1089L14.6512 27.1809C14.7383 27.2454 14.8686 27.3424 15.0373 27.4699C15.3749 27.7248 15.8659 28.101 16.472 28.5803C17.6854 29.5398 19.3553 30.9086 21.1778 32.5431C22.8272 34.0224 24.5718 35.6931 26.2074 37.4538C25.5095 37.9435 24.79 38.4163 24.0523 38.8691Z" fill="#CF7000"/>
<circle cx="28" cy="47" r="26.5" stroke="#9E5703" stroke-width="3"/>
<path d="M40.1961 6.44861C39.7317 6.00316 39.486 5.43288 39.4941 4.81897C39.5033 4.11592 39.6779 3.68805 40.2053 3.00095C40.3841 2.76812 40.7529 2.6366 41.0579 2.69693C41.958 2.87496 42.4057 3.08092 42.9375 3.59105C43.4019 4.0365 43.6476 4.60678 43.6395 5.22069C43.6298 5.96813 43.433 6.40455 42.8241 7.17213C42.7017 7.32638 42.4568 7.41372 42.2518 7.3762C41.2318 7.18949 40.7615 6.99095 40.1961 6.44861Z" fill="#E74343"/>
<path d="M44.7283 8.51013C44.2639 8.06468 44.0183 7.4944 44.0263 6.88049C44.0355 6.17745 44.2101 5.74957 44.7376 5.06247C44.9163 4.82964 45.2851 4.69812 45.5901 4.75845C46.4903 4.93649 46.9379 5.14245 47.4697 5.65257C47.9341 6.09802 48.1798 6.6683 48.1718 7.28221C48.162 8.02966 47.9652 8.46607 47.3563 9.23365C47.2339 9.3879 46.989 9.47524 46.784 9.43772C45.764 9.25102 45.2937 9.05248 44.7283 8.51013Z" fill="#E74343"/>
<path d="M43.325 15.5394C43.9797 15.3907 44.5237 15.0299 44.8795 14.5082C45.287 13.9108 45.3924 13.4646 45.3534 12.6273C45.3402 12.3435 45.1068 12.0523 44.814 11.954C43.9497 11.6641 43.4505 11.6189 42.7007 11.7891C42.046 11.9378 41.502 12.2986 41.1462 12.8203C40.7129 13.4554 40.6211 13.9197 40.6813 14.8647C40.6934 15.0546 40.8484 15.248 41.0434 15.3166C42.0139 15.6578 42.5278 15.7203 43.325 15.5394Z" fill="#E74343"/>
<path d="M34.7571 4.3866C34.2927 3.94114 34.0471 3.37086 34.0551 2.75695C34.0643 2.05391 34.2389 1.62604 34.7664 0.938934C34.9451 0.706105 35.3139 0.574585 35.6189 0.634914C36.5191 0.81295 36.9667 1.01891 37.4985 1.52904C37.9629 1.97449 38.2086 2.54477 38.2006 3.15868C38.1908 3.90612 37.994 4.34254 37.3851 5.11012C37.2627 5.26437 37.0178 5.3517 36.8128 5.31418C35.7928 5.12748 35.3225 4.92894 34.7571 4.3866Z" fill="#E74343"/>
<path d="M37.826 10.0643C37.16 10.1632 36.5851 10.4819 36.1831 10.975C35.7228 11.5397 35.5771 11.9765 35.5399 12.8139C35.5273 13.0977 35.7334 13.4055 36.0164 13.5254C36.8513 13.8793 37.3447 13.9619 38.1074 13.8487C38.7734 13.7498 39.3483 13.4311 39.7503 12.938C40.2398 12.3376 40.3734 11.8819 40.3993 10.9355C40.4045 10.7453 40.2676 10.5409 40.0795 10.4579C39.1433 10.0449 38.6369 9.94394 37.826 10.0643Z" fill="#E74343"/>
<path d="M32.853 12.0186C33.5273 11.9936 34.1403 11.7403 34.6047 11.2949C35.1366 10.7849 35.3391 10.3673 35.4871 9.54008C35.5372 9.25978 35.3734 8.93161 35.1085 8.78149C34.3265 8.33846 33.8477 8.20234 33.0756 8.23103C32.4013 8.25608 31.7883 8.50931 31.3239 8.9547C30.7584 9.49696 30.5653 9.93473 30.4141 10.8713C30.3837 11.0595 30.4925 11.2774 30.6682 11.3805C31.5428 11.8933 32.0321 12.0491 32.853 12.0186Z" fill="#E74343"/>
<path d="M15.8039 6.44861C16.2683 6.00316 16.514 5.43288 16.5059 4.81897C16.4967 4.11592 16.3221 3.68805 15.7947 3.00095C15.6159 2.76812 15.2471 2.6366 14.9421 2.69693C14.042 2.87496 13.5943 3.08092 13.0625 3.59105C12.5981 4.0365 12.3524 4.60678 12.3605 5.22069C12.3702 5.96813 12.567 6.40455 13.1759 7.17213C13.2983 7.32638 13.5432 7.41372 13.7482 7.3762C14.7682 7.18949 15.2385 6.99095 15.8039 6.44861Z" fill="#E74343"/>
<path d="M11.2717 8.51013C11.7361 8.06468 11.9817 7.4944 11.9737 6.88049C11.9645 6.17745 11.7899 5.74957 11.2624 5.06247C11.0837 4.82964 10.7149 4.69812 10.4099 4.75845C9.50974 4.93649 9.06207 5.14245 8.53027 5.65257C8.06589 6.09802 7.82022 6.6683 7.82824 7.28221C7.83801 8.02966 8.03479 8.46607 8.64372 9.23365C8.76609 9.3879 9.01101 9.47524 9.21598 9.43772C10.236 9.25102 10.7063 9.05248 11.2717 8.51013Z" fill="#E74343"/>
<path d="M12.6755 15.5394C12.0208 15.3907 11.4768 15.0299 11.121 14.5082C10.7135 13.9108 10.6081 13.4646 10.6471 12.6273C10.6603 12.3435 10.8937 12.0523 11.1865 11.954C12.0508 11.6641 12.55 11.6189 13.2998 11.7891C13.9545 11.9378 14.4985 12.2986 14.8543 12.8203C15.2875 13.4554 15.3794 13.9197 15.3192 14.8647C15.3071 15.0546 15.1521 15.248 14.9571 15.3166C13.9866 15.6578 13.4727 15.7203 12.6755 15.5394Z" fill="#E74343"/>
<path d="M21.2429 4.3866C21.7073 3.94114 21.9529 3.37086 21.9449 2.75695C21.9357 2.05391 21.7611 1.62604 21.2336 0.938934C21.0549 0.706105 20.6861 0.574585 20.3811 0.634914C19.4809 0.81295 19.0333 1.01891 18.5015 1.52904C18.0371 1.97449 17.7914 2.54477 17.7994 3.15868C17.8092 3.90612 18.006 4.34254 18.6149 5.11012C18.7373 5.26437 18.9822 5.3517 19.1872 5.31418C20.2072 5.12748 20.6775 4.92894 21.2429 4.3866Z" fill="#E74343"/>
<path d="M18.174 10.0643C18.84 10.1632 19.4149 10.4819 19.8169 10.975C20.2772 11.5397 20.4229 11.9765 20.4601 12.8139C20.4727 13.0977 20.2666 13.4055 19.9836 13.5254C19.1487 13.8793 18.6553 13.9619 17.8926 13.8487C17.2266 13.7498 16.6517 13.4311 16.2497 12.938C15.7602 12.3376 15.6266 11.8819 15.6007 10.9355C15.5955 10.7453 15.7324 10.5409 15.9205 10.4579C16.8567 10.0449 17.3631 9.94394 18.174 10.0643Z" fill="#E74343"/>
<path d="M23.147 12.0186C22.4727 11.9936 21.8597 11.7403 21.3953 11.2949C20.8634 10.7849 20.6609 10.3673 20.5129 9.54008C20.4628 9.25978 20.6266 8.93161 20.8915 8.78149C21.6735 8.33846 22.1523 8.20234 22.9244 8.23103C23.5987 8.25608 24.2117 8.50931 24.6761 8.9547C25.2416 9.49696 25.4347 9.93473 25.5859 10.8713C25.6163 11.0595 25.5075 11.2774 25.3318 11.3805C24.4572 11.8933 23.9679 12.0491 23.147 12.0186Z" fill="#E74343"/>
<path d="M32.7139 6.73078C32.4322 6.62523 32.2352 6.36844 32.2062 6.06901C32.1996 6.00045 32.202 5.93132 32.2133 5.86338L32.2273 5.77997C32.2631 5.5659 32.3482 5.3631 32.4759 5.18763L32.5127 5.13713C32.5405 5.09888 32.572 5.06337 32.6065 5.03108C32.8131 4.83825 33.1111 4.77902 33.3757 4.87818L47.9865 10.3529C48.4951 10.5435 48.753 11.1103 48.5624 11.619C48.3718 12.1276 47.8049 12.3854 47.2963 12.1949L32.7139 6.73078Z" fill="#E74343"/>
<path d="M8.77046 10.2969C8.49274 10.4125 8.30512 10.6762 8.28695 10.9765C8.28279 11.0452 8.28767 11.1142 8.30145 11.1817L8.31838 11.2646C8.36183 11.4772 8.45418 11.6768 8.58814 11.8476L8.62669 11.8967C8.6559 11.9339 8.68859 11.9683 8.72431 11.9993C8.93768 12.1846 9.23756 12.2331 9.49844 12.1245L23.903 6.12814C24.4045 5.91938 24.6418 5.34364 24.433 4.84217C24.2243 4.34071 23.6485 4.10341 23.1471 4.31217L8.77046 10.2969Z" fill="#E74343"/>
</svg>
