<svg width="312" height="315" viewBox="0 0 312 315" fill="none" xmlns="http://www.w3.org/2000/svg">
<g clip-path="url(#clip0_219_3019)">
<path fill-rule="evenodd" clip-rule="evenodd" d="M172.501 82.9909C172.528 82.4418 172.461 81.8802 172.302 81.3062C172.37 80.977 172.512 80.6833 172.727 80.425C171.721 79.7511 170.978 78.7944 170.5 77.5552C169.392 74.9601 168.344 72.3399 167.356 69.6954C167.394 68.9529 167.132 68.2979 166.57 67.7304C165.218 64.5398 163.968 61.3415 162.818 58.1352C162.742 57.6875 162.628 57.2238 162.477 56.7443C162.027 57.1057 162.004 57.5526 162.409 58.0846C163.29 63.9064 164.345 69.7088 165.574 75.4921C165.546 76.9288 165.78 78.341 166.276 79.7292C167.418 87.0998 168.651 94.4808 169.975 101.872C167.912 103.481 165.608 104.717 163.063 105.58C156.979 98.3685 150.881 91.1455 144.77 83.9113C142.914 81.3625 140.936 78.9733 138.839 76.7434C137.497 75.3321 137.343 75.4513 138.378 77.1013C139.439 78.9609 140.592 80.7639 141.836 82.51C142.399 83.7213 143.077 84.9119 143.869 86.0821C144.801 87.9838 145.877 89.8462 147.097 91.6698C148.428 94.4657 150.021 97.1532 151.876 99.7322C153.541 103.013 155.413 106.219 157.493 109.351C154.611 111.681 151.809 114.101 149.088 116.609C148.869 116.763 148.656 116.806 148.449 116.738C146.578 115.232 144.597 113.949 142.506 112.889C141.891 112.109 141.126 111.6 140.211 111.359C138.863 110.188 137.392 109.245 135.799 108.53C135.389 107.845 134.819 107.428 134.091 107.28C133.385 106.634 132.62 106.125 131.795 105.751C131.424 105.157 130.914 104.817 130.265 104.731C129.67 104.075 128.964 103.641 128.148 103.431C126.124 102.008 124.083 100.649 122.028 99.3527C121.573 98.937 121.064 98.597 120.498 98.333C120.94 99.4131 121.67 100.195 122.688 100.68C124.779 102.927 126.928 105.061 129.133 107.081C132.071 109.935 134.95 112.851 137.769 115.829C138.513 116.952 139.439 117.827 140.546 118.456C142.036 119.562 143.242 120.956 144.162 122.639C142.629 124.701 141.213 126.842 139.912 129.064C139.427 129.712 138.872 130.266 138.246 130.725C131.857 128.932 125.469 127.207 119.083 125.548C116.287 124.454 113.419 123.614 110.478 123.029C109.93 122.913 109.402 122.709 108.896 122.418C108.504 122.231 108.351 122.35 108.435 122.776C109.244 123.162 110.027 123.536 110.782 123.897C113.931 125.5 117.043 127.131 120.12 128.789C125.043 131.441 130.005 134.028 135.007 136.548C134.343 139.884 133.37 143.153 132.088 146.354C130.509 146.4 128.937 146.516 127.372 146.703C124.33 146.5 121.268 146.363 118.186 146.291C113.914 146.354 109.65 146.413 105.395 146.469C104.619 146.125 103.89 146.139 103.21 146.51C103.941 146.621 104.652 146.744 105.343 146.878C108.27 147.656 111.233 148.3 114.23 148.81C119.576 150.201 124.994 151.391 130.485 152.381C130.923 152.698 131.144 153.141 131.145 153.707C131.062 156.778 130.911 159.837 130.694 162.885C125.103 163.949 119.545 165.197 114.02 166.629C110.068 167.332 106.185 168.2 102.371 169.231C106.855 169.062 111.332 168.96 115.802 168.925C120.957 168.699 126.115 168.681 131.276 168.871C132.005 171.616 132.618 174.39 133.115 177.192C133.232 177.577 133.432 177.913 133.712 178.2C129.369 180.316 125.128 182.626 120.989 185.13C116.055 187.569 111.187 190.182 106.385 192.969C110.991 191.736 115.506 190.256 119.931 188.527C124.879 187.012 129.85 185.484 134.844 183.943C136.075 186.39 137.392 188.802 138.795 191.176C139.037 191.716 139.005 192.231 138.701 192.721C132.952 197.999 127.16 203.229 121.324 208.412C119.328 210.124 117.342 211.849 115.366 213.588C116.303 213.244 117.16 212.763 117.939 212.143C126.133 207.204 134.377 202.277 142.673 197.363C144.978 200.235 147.311 203.084 149.673 205.909C141.656 215.534 133.575 225.115 125.432 234.652C118.294 225.785 112.289 216.222 107.417 205.962C99.1355 184.145 96.7619 161.648 100.296 138.471C107.186 103.915 125.646 77.0837 155.676 57.9762C164.947 51.9621 174.868 47.4511 185.44 44.4427C187.804 43.9238 190.178 43.492 192.561 43.1466C191.032 61.2675 189.437 79.3646 187.776 97.4382C187.397 97.9659 186.876 98.2471 186.215 98.2821C183.88 98.529 181.554 98.8631 179.235 99.2845C179.014 99.2491 178.819 99.1555 178.648 99.0043C176.569 93.6595 174.521 88.3217 172.501 82.9909Z" fill="#929500"/>
<path fill-rule="evenodd" clip-rule="evenodd" d="M189.333 118.485C189.441 120.17 189.465 121.867 189.406 123.578C176.976 125.115 165.734 129.67 155.68 137.243C147.937 143.839 143.209 152.106 141.495 162.045C141.25 166.3 141.65 170.465 142.694 174.54C142.656 175.283 142.919 175.938 143.48 176.505C143.403 177.155 143.605 177.733 144.088 178.241C144.191 179.144 144.572 179.952 145.231 180.665C148.36 185.959 152.101 190.781 156.455 195.129C156.675 195.571 156.895 196.013 157.115 196.456C156.213 198.429 154.955 200.141 153.342 201.591C152.812 201.961 152.232 202.166 151.602 202.205C147.108 196.971 143.045 191.418 139.414 185.547C136.131 177.655 134.457 169.39 134.394 160.75C134.944 156.461 135.495 152.171 136.045 147.882C137.313 143.65 138.749 139.47 140.353 135.343C150.498 116.269 166.262 105.323 187.645 102.506C188.125 107.855 188.688 113.182 189.333 118.485Z" fill="#929500"/>
<path fill-rule="evenodd" clip-rule="evenodd" d="M192.403 125.298C194.456 125.419 196.493 125.187 198.513 124.603C199.095 120.606 199.678 116.597 200.263 112.577C200.923 112.916 201.338 113.451 201.51 114.184C204.577 123.335 205.148 132.64 203.223 142.099C202.109 145.927 200.862 149.715 199.482 153.462C192.451 167.532 183.543 180.33 172.756 191.858C170.954 193.502 169.032 194.993 166.992 196.331C164.848 197.032 162.739 197.013 160.667 196.274C159.266 194.786 157.866 193.298 156.465 191.81C154.089 189.123 151.815 186.351 149.642 183.494C148.535 181.54 147.399 179.601 146.236 177.677C144.87 173.444 144.011 169.083 143.658 164.596C144.519 154.072 149.116 145.477 157.451 138.811C160.921 136.273 164.511 133.917 168.219 131.742C176.028 128.544 184.089 126.396 192.403 125.298Z" fill="#929500"/>
<path fill-rule="evenodd" clip-rule="evenodd" d="M205.284 117.142C206.043 117.973 206.849 118.696 207.705 119.31C209.446 121.09 211.238 122.764 213.081 124.334C216.342 127.67 219.748 130.79 223.299 133.693C234.505 144.28 245.789 154.774 257.15 165.175C258.208 166.063 259.116 167.074 259.875 168.211C257.524 167.906 255.243 167.346 253.031 166.532C248.894 161.625 244.59 156.872 240.12 152.274C236.329 151.776 232.572 151.933 228.848 152.745C227.364 153.131 225.944 153.681 224.588 154.395C223.851 154.84 223.491 155.487 223.509 156.337C223.561 157.821 223.543 159.306 223.456 160.792C223.635 161.811 223.853 162.807 224.111 163.778C225.052 164.126 226.024 164.108 227.025 163.724C232.341 162.325 237.695 161.052 243.086 159.905C249.717 167.299 256.543 174.509 263.564 181.533C268.838 186.596 274.48 191.168 280.489 195.251C281.214 195.742 282.014 195.979 282.889 195.964C283.294 196.25 283.63 196.603 283.895 197.022C282.989 197.897 281.918 198.421 280.683 198.595C268.248 199.75 255.801 200.213 243.342 199.984C238.004 199.876 232.759 199.226 227.606 198.034C227.359 197.796 227.113 197.558 226.867 197.32C225.244 194.12 223.537 190.969 221.747 187.866C219.74 185.34 215.412 189.069 212.619 187.472C209.003 186.47 209.157 186.893 205.482 187.545C204.563 188.048 198.323 188.306 197.942 189.302C190.225 203.295 186.395 211.472 179.013 225.627C178.273 228.461 177.136 231.121 175.602 233.608C175.321 233.321 175.122 232.984 175.005 232.6C175.508 225.441 176.552 218.377 178.138 211.408C176.125 209.272 173.827 207.5 171.242 206.092C169.858 205.222 168.524 204.296 167.239 203.313C165.997 202.218 164.662 201.292 163.236 200.534C162.522 199.505 161.579 198.765 160.406 198.316C160.423 198.18 160.441 198.044 160.458 197.908C161.951 198.335 163.462 198.695 164.991 198.988C165.626 198.795 166.265 198.667 166.909 198.603C169.18 197.087 171.332 195.417 173.365 193.593C185.949 181.2 195.671 166.912 202.532 150.728C204.475 145.035 205.78 139.179 206.447 133.16C206.277 127.352 205.418 121.643 203.869 116.033C204.306 116.506 204.778 116.875 205.284 117.142Z" fill="#929500"/>
</g>
<path fill-rule="evenodd" clip-rule="evenodd" d="M233.958 180.893C235.827 180.743 237.676 180.838 239.504 181.177C240.168 181.301 240.474 182.054 240.091 182.61C238.856 184.398 237.405 186.016 235.738 187.463C235.698 187.497 235.655 187.529 235.609 187.557C226.366 193.254 217.028 198.805 207.597 204.213C193.407 214.973 184.898 229.074 182.07 246.516C181.903 247.549 180.474 247.713 180.153 246.717C177.923 239.808 176.851 232.704 176.935 225.405C176.937 225.289 176.958 225.175 176.999 225.068C183.909 206.682 192.21 187.169 210.259 179.713C216.678 177.335 227.388 182.162 233.958 180.893Z" fill="#929500"/>
<path fill-rule="evenodd" clip-rule="evenodd" d="M245.739 180.938C245.897 180.566 246.258 180.317 246.662 180.317V180.317C247.23 180.317 247.681 180.797 247.625 181.362C247.115 186.471 245.329 191.113 242.267 195.288C232.907 206.42 223.547 217.553 214.187 228.685C209.513 234.813 205.883 241.531 203.298 248.838C202.505 251.867 201.931 254.938 201.579 258.051C201.019 268.8 200.446 279.549 199.86 290.296V290.296C199.678 291.565 197.824 291.401 197.655 290.13C196.921 284.628 195.364 279.309 192.983 274.174C191.004 270.034 188.921 265.96 186.733 261.951C185.952 260.521 185.501 258.924 185.516 257.295C185.68 239.454 192.097 224.239 204.767 211.651C205.122 211.299 205.508 210.976 205.914 210.685C208.385 208.911 210.856 207.138 213.327 205.365C221.921 200.664 230.326 195.674 238.542 190.394C241.762 187.826 244.161 184.674 245.739 180.938Z" fill="#929500"/>
<path fill-rule="evenodd" clip-rule="evenodd" d="M257.25 182.441C257.058 181.907 257.326 181.302 257.884 181.198C259.123 180.968 260.401 181.11 261.718 181.624C261.927 181.706 262.097 181.865 262.202 182.064C266.517 190.263 267.663 198.864 265.64 207.868C265.465 208.648 264.491 208.871 264.004 208.237C259.871 202.853 258.161 196.654 258.875 189.64C258.883 189.567 258.882 189.494 258.874 189.421C258.586 186.978 258.045 184.651 257.25 182.441Z" fill="#929500"/>
<path fill-rule="evenodd" clip-rule="evenodd" d="M251.152 202.198C251.98 202.839 252.936 202.935 254.017 202.486C254.762 201.555 254.762 200.692 254.017 199.895C252.11 198.198 249.817 197.334 247.14 197.303C246.878 197.065 246.687 196.777 246.567 196.44C249.298 191.299 249.871 191.476 251.152 186.637C251.901 188.497 253.907 185.248 254.303 187.227C254.748 192.847 255.512 198.414 256.596 203.925C259.294 209.349 263.615 214.056 268.263 217.957C268.716 218.338 268.753 219.026 268.317 219.427C266.417 221.176 264.077 222.895 262.326 224.654C262.399 226.314 262.781 227.85 263.473 229.261C262.426 230.167 261.184 230.647 259.748 230.7C258.543 231.698 258.352 232.85 259.175 234.155C260.537 234.449 261.875 234.833 263.186 235.307C262.943 239.197 262.847 243.131 262.899 247.111C262.032 248.416 260.79 249.087 259.175 249.126C242.256 249.716 232.894 258.928 228.8 275.421C228.227 275.421 225.541 274.458 224.968 274.458C225.064 267.353 225.936 260.544 225.65 253.445C224.155 247.086 223.104 240.656 222.498 234.155C223.047 226.738 225.817 220.308 230.808 214.866C234.915 210.355 239.021 205.844 243.129 201.334C245.797 201.429 248.472 201.717 251.152 202.198Z" fill="#929500"/>
<path fill-rule="evenodd" clip-rule="evenodd" d="M251.189 206.746C252.269 206.047 253.801 205.544 254.631 206.526C254.908 206.853 255.056 207.26 255.078 207.747C255.119 208.65 254.534 209.445 253.816 209.994C250.54 212.499 246.786 213.259 242.554 212.275C240.953 211.962 240.071 211.402 239.907 210.592C239.583 208.994 241.804 208.318 243.434 208.354C244.808 208.384 246.186 208.37 247.567 208.312C248.414 208.276 249.233 208.005 249.947 207.547C250.364 207.278 250.778 207.011 251.189 206.746Z" fill="#F4F4F4"/>
<path fill-rule="evenodd" clip-rule="evenodd" d="M216.412 232.425C216.938 231.69 218.074 232.01 218.17 232.909C219.007 240.681 220.163 248.486 221.637 256.324C223.757 268.72 221.274 280.044 214.187 290.296C210.978 294.135 207.524 297.729 203.825 301.076C203.066 301.764 201.873 300.962 202.149 299.976C203.022 296.851 203.597 293.625 203.872 290.296C204.204 277.601 205.155 264.96 206.727 252.374C206.734 252.32 206.745 252.267 206.761 252.215C208.9 245.013 212.117 238.416 216.412 232.425Z" fill="#929500"/>
<path fill-rule="evenodd" clip-rule="evenodd" d="M259.151 254.467C259.955 254.467 260.758 254.467 261.562 254.467C262.125 254.467 262.58 254.932 262.528 255.493C262.268 258.287 261.255 260.803 259.49 263.038C259.455 263.082 259.417 263.122 259.375 263.159C252.684 269.146 245.733 274.789 238.521 280.09C236.784 281.696 235.157 283.392 233.64 285.177C233.038 285.886 231.864 285.496 231.864 284.566C231.876 266.78 240.972 256.747 259.151 254.467Z" fill="#929500"/>
<path d="M247.78 287.833C246.911 288.671 246.451 289.743 246.466 290.897C246.484 292.219 246.81 293.024 247.797 294.315C248.131 294.753 248.821 295.001 249.392 294.887C251.075 294.552 251.913 294.165 252.907 293.206C253.776 292.368 254.235 291.296 254.22 290.142C254.202 288.736 253.834 287.916 252.695 286.473C252.466 286.183 252.008 286.018 251.625 286.089C249.717 286.44 248.837 286.813 247.78 287.833Z" fill="#E74343"/>
<path d="M256.257 283.956C255.389 284.794 254.929 285.866 254.944 287.021C254.961 288.343 255.288 289.147 256.274 290.439C256.609 290.877 257.299 291.124 257.869 291.011C259.553 290.676 260.39 290.289 261.385 289.329C262.253 288.492 262.713 287.42 262.698 286.265C262.68 284.86 262.312 284.039 261.173 282.596C260.944 282.306 260.486 282.142 260.102 282.212C258.194 282.563 257.315 282.937 256.257 283.956Z" fill="#E74343"/>
<path d="M253.631 270.741C254.856 271.02 255.873 271.699 256.539 272.679C257.301 273.803 257.498 274.642 257.425 276.216C257.401 276.75 256.964 277.297 256.416 277.482C254.8 278.027 253.866 278.112 252.464 277.792C251.239 277.513 250.221 276.834 249.556 275.853C248.746 274.659 248.574 273.786 248.686 272.009C248.709 271.652 248.999 271.288 249.364 271.16C251.179 270.518 252.14 270.4 253.631 270.741Z" fill="#E74343"/>
<path d="M237.608 291.71C236.739 292.547 236.28 293.62 236.295 294.774C236.312 296.096 236.638 296.9 237.625 298.192C237.959 298.63 238.649 298.877 239.22 298.764C240.903 298.429 241.741 298.042 242.735 297.083C243.604 296.245 244.063 295.173 244.048 294.019C244.03 292.613 243.662 291.793 242.523 290.349C242.294 290.059 241.836 289.895 241.453 289.966C239.545 290.317 238.665 290.69 237.608 291.71Z" fill="#E74343"/>
<path d="M243.347 281.034C242.101 280.848 241.026 280.249 240.274 279.322C239.413 278.26 239.141 277.439 239.071 275.864C239.047 275.331 239.433 274.752 239.962 274.526C241.524 273.861 242.447 273.706 243.873 273.919C245.119 274.105 246.194 274.704 246.946 275.631C247.862 276.76 248.112 277.617 248.16 279.396C248.17 279.754 247.914 280.138 247.562 280.294C245.811 281.071 244.864 281.261 243.347 281.034Z" fill="#E74343"/>
<path d="M234.045 277.36C235.306 277.407 236.453 277.883 237.322 278.72C238.316 279.679 238.695 280.465 238.972 282.02C239.066 282.547 238.759 283.164 238.264 283.446C236.801 284.279 235.906 284.535 234.461 284.481C233.2 284.434 232.054 283.958 231.185 283.121C230.127 282.101 229.766 281.278 229.483 279.517C229.426 279.163 229.63 278.753 229.959 278.559C231.594 277.595 232.51 277.302 234.045 277.36Z" fill="#E74343"/>
<path d="M202.155 287.833C203.024 288.67 203.483 289.743 203.468 290.897C203.451 292.219 203.124 293.023 202.138 294.315C201.803 294.753 201.114 295 200.543 294.887C198.859 294.552 198.022 294.165 197.027 293.206C196.159 292.368 195.699 291.296 195.714 290.142C195.733 288.736 196.101 287.916 197.24 286.473C197.468 286.182 197.927 286.018 198.31 286.089C200.218 286.44 201.097 286.813 202.155 287.833Z" fill="#E74343"/>
<path d="M193.677 283.956C194.546 284.794 195.006 285.866 194.991 287.021C194.973 288.343 194.647 289.147 193.66 290.439C193.326 290.877 192.636 291.124 192.065 291.011C190.382 290.676 189.544 290.289 188.55 289.329C187.681 288.492 187.222 287.42 187.237 286.265C187.255 284.86 187.623 284.039 188.762 282.596C188.991 282.306 189.449 282.142 189.832 282.212C191.74 282.563 192.62 282.937 193.677 283.956Z" fill="#E74343"/>
<path d="M196.303 270.741C195.079 271.02 194.061 271.699 193.396 272.679C192.634 273.803 192.436 274.642 192.509 276.216C192.534 276.75 192.971 277.297 193.518 277.482C195.135 278.027 196.069 278.112 197.471 277.792C198.696 277.513 199.713 276.834 200.379 275.853C201.189 274.659 201.361 273.786 201.248 272.009C201.226 271.652 200.936 271.288 200.571 271.159C198.756 270.518 197.794 270.4 196.303 270.741Z" fill="#E74343"/>
<path d="M212.329 291.71C213.197 292.547 213.657 293.62 213.642 294.774C213.625 296.096 213.298 296.9 212.312 298.192C211.977 298.63 211.287 298.877 210.717 298.764C209.033 298.429 208.196 298.042 207.201 297.083C206.333 296.245 205.873 295.173 205.888 294.019C205.906 292.613 206.274 291.793 207.413 290.349C207.642 290.059 208.1 289.895 208.484 289.966C210.392 290.317 211.271 290.69 212.329 291.71Z" fill="#E74343"/>
<path d="M206.588 281.034C207.833 280.848 208.909 280.249 209.661 279.322C210.522 278.26 210.794 277.439 210.864 275.864C210.887 275.331 210.502 274.752 209.973 274.526C208.411 273.861 207.488 273.706 206.061 273.919C204.816 274.105 203.74 274.704 202.988 275.631C202.073 276.76 201.823 277.617 201.774 279.396C201.765 279.754 202.021 280.138 202.373 280.294C204.124 281.071 205.071 281.261 206.588 281.034Z" fill="#E74343"/>
<path d="M215.888 277.36C214.627 277.407 213.481 277.883 212.612 278.72C211.617 279.679 211.238 280.465 210.962 282.02C210.868 282.547 211.174 283.164 211.67 283.446C213.132 284.279 214.028 284.535 215.472 284.481C216.733 284.434 217.88 283.958 218.749 283.121C219.806 282.101 220.168 281.278 220.45 279.517C220.507 279.163 220.304 278.753 219.975 278.559C218.339 277.595 217.424 277.302 215.888 277.36Z" fill="#E74343"/>
<path d="M233.788 287.301C233.259 287.5 232.889 287.984 232.835 288.547V288.547C232.822 288.676 232.827 288.805 232.848 288.932L232.874 289.09C232.941 289.493 233.1 289.874 233.339 290.203L233.408 290.299C233.46 290.371 233.519 290.437 233.583 290.498V290.498C233.97 290.86 234.529 290.971 235.025 290.784L262.344 280.494C263.299 280.134 263.785 279.067 263.428 278.111V278.111C263.072 277.155 262.008 276.671 261.053 277.031L233.788 287.301Z" fill="#E74343"/>
<path d="M189.002 280.599C188.48 280.38 188.128 279.884 188.094 279.319V279.319C188.086 279.19 188.095 279.061 188.121 278.934L188.153 278.778C188.234 278.378 188.407 278.003 188.657 277.682L188.73 277.589C188.784 277.519 188.845 277.455 188.912 277.397V277.397C189.311 277.048 189.873 276.957 190.363 277.162L217.297 288.433C218.238 288.827 218.685 289.911 218.295 290.853V290.853C217.904 291.796 216.824 292.241 215.883 291.847L189.002 280.599Z" fill="#E74343"/>
<path d="M238.789 215.936C238.789 215.228 239.505 214.744 240.162 215.009L249.216 218.648C249.687 218.837 250.224 218.644 250.467 218.199L255.607 208.788C255.908 208.238 256.636 208.097 257.12 208.496L262.665 213.058L265.441 215.331L267.199 216.904L267.908 217.722C267.99 217.816 268.054 217.926 268.095 218.044L268.16 218.228C268.198 218.335 268.217 218.447 268.217 218.561V218.914C268.217 218.972 268.212 219.03 268.202 219.087L268.144 219.414C268.131 219.488 268.11 219.561 268.08 219.63L267.94 219.963L267.739 220.341C267.688 220.438 267.621 220.525 267.542 220.6L267.074 221.042C267.034 221.08 266.991 221.114 266.946 221.144L266.43 221.493C266.388 221.521 266.343 221.547 266.297 221.568L265.713 221.844C265.655 221.871 265.6 221.904 265.548 221.942L264.954 222.379C264.848 222.457 264.758 222.555 264.69 222.667L264.488 223.001C264.445 223.073 264.411 223.149 264.387 223.229L264.333 223.407C264.271 223.611 264.276 223.829 264.347 224.029L264.466 224.368C264.499 224.46 264.545 224.547 264.603 224.626L265.348 225.643L266.274 226.692L266.9 227.612C267.034 227.808 267.093 228.045 267.068 228.28L267.034 228.597C267.021 228.724 266.984 228.847 266.924 228.96L266.814 229.168C266.763 229.264 266.696 229.352 266.617 229.427L266.181 229.838L265.513 230.312C265.465 230.345 265.414 230.375 265.362 230.4L264.516 230.799L262.982 231.737C262.956 231.753 262.931 231.771 262.909 231.792L262.763 231.93C262.705 231.985 262.69 232.072 262.728 232.142V232.142C262.747 232.178 262.778 232.206 262.816 232.222L264.335 232.86C264.394 232.884 264.45 232.914 264.502 232.95L265.415 233.557C265.55 233.647 265.661 233.768 265.739 233.911L265.938 234.276C265.977 234.347 266.007 234.422 266.027 234.499L266.148 234.956C266.17 235.039 266.181 235.125 266.181 235.212V235.558C266.181 235.64 266.171 235.72 266.152 235.799L266.098 236.018C266.033 236.279 265.866 236.502 265.634 236.639L264.755 237.156L264.145 237.529L263.537 237.894C263.278 238.05 263.103 238.315 263.062 238.614L263.024 238.887V240.428C263.024 240.553 263.048 240.677 263.093 240.794L264.145 243.471L264.516 244.345L264.761 245.118C264.782 245.185 264.797 245.255 264.803 245.325L264.876 246.08C264.882 246.147 264.882 246.214 264.875 246.281L264.81 246.899C264.799 247.002 264.772 247.103 264.73 247.198L264.361 248.034C264.341 248.08 264.317 248.125 264.29 248.167L263.842 248.872C263.798 248.942 263.745 249.006 263.685 249.063L263.035 249.676L262.192 250.313C262.137 250.355 262.078 250.39 262.016 250.42L260.886 250.953C260.838 250.976 260.788 250.995 260.738 251.009L259.611 251.337L258.593 251.599L256.65 251.949L253.873 252.298L250.634 252.56L247.766 252.735H245.545H244.809C244.624 252.735 244.443 252.786 244.286 252.883L243.117 253.601L240.359 255.515C239.696 255.975 238.789 255.501 238.789 254.693V215.936Z" fill="#929500"/>
<defs>
<clipPath id="clip0_219_3019">
<rect width="214.218" height="232.485" fill="white" transform="translate(0 131.331) rotate(-37.8119)"/>
</clipPath>
</defs>
</svg>
