<svg width="51" height="55" viewBox="0 0 51 55" fill="none" xmlns="http://www.w3.org/2000/svg">
<path fill-rule="evenodd" clip-rule="evenodd" d="M38.654 15.8334C38.7348 15.7353 38.8001 15.622 38.85 15.4936C38.9081 15.442 38.9749 15.4072 39.0504 15.389C38.9571 15.1251 38.9518 14.8451 39.0343 14.5493C39.1877 13.9152 39.3556 13.2847 39.5378 12.6579C39.6475 12.5256 39.6894 12.3679 39.6637 12.1851C39.8542 11.4069 40.0644 10.6413 40.2944 9.88809C40.3422 9.79457 40.3852 9.69294 40.4236 9.5832C40.2902 9.58798 40.2242 9.66767 40.2257 9.82221C39.5844 11.0231 38.978 12.2444 38.4064 13.4861C38.2027 13.7485 38.0509 14.0427 37.951 14.3685C37.1439 15.8924 36.3524 17.4309 35.5764 18.9839C34.9716 18.9969 34.3736 18.9076 33.7827 18.716C33.6516 16.5383 33.5197 14.3568 33.3869 12.1714C33.395 11.4424 33.3587 10.7262 33.2781 10.023C33.2245 9.57601 33.1796 9.57688 33.1432 10.0256C33.0829 10.517 33.0474 11.0106 33.0367 11.5061C32.9736 11.8084 32.9347 12.1228 32.9198 12.4492C32.8297 12.9304 32.7717 13.4243 32.7458 13.931C32.6061 14.6332 32.53 15.3515 32.5173 16.0858C32.3726 16.924 32.2765 17.7771 32.2291 18.645C31.3728 18.6786 30.5191 18.7399 29.668 18.8287C29.6062 18.827 29.5607 18.8055 29.5318 18.7641C29.3932 18.2265 29.2034 17.715 28.9624 17.2294C28.9561 17 28.8847 16.7998 28.7483 16.6287C28.6602 16.2253 28.518 15.8472 28.3216 15.4945C28.3403 15.3108 28.2923 15.1549 28.1776 15.0269C28.1361 14.8095 28.0647 14.6093 27.9636 14.4261C27.9768 14.2647 27.9292 14.1313 27.8209 14.0257C27.8013 13.8216 27.7304 13.6438 27.6082 13.4922C27.4296 12.9485 27.2394 12.4145 27.0375 11.8903C27.0107 11.7504 26.9632 11.6169 26.8948 11.4898C26.8274 11.751 26.8547 11.997 26.9765 12.2275C27.0535 12.9331 27.1568 13.6255 27.2864 14.3048C27.4365 15.2398 27.567 16.1781 27.6779 17.1197C27.6607 17.4307 27.7113 17.7209 27.8297 17.9904C27.953 18.4014 27.9836 18.8264 27.9217 19.2655C27.3526 19.4358 26.7941 19.6369 26.246 19.8689C26.0665 19.9221 25.887 19.9479 25.7076 19.9465C24.7711 18.7313 23.8256 17.5287 22.8712 16.3385C22.5043 15.7494 22.0887 15.1974 21.6245 14.6825C21.5389 14.5851 21.4693 14.4744 21.4156 14.3505C21.3689 14.2618 21.324 14.2626 21.2807 14.3531C21.3773 14.5366 21.4707 14.714 21.5609 14.8853C21.9229 15.6176 22.2744 16.3501 22.6155 17.0827C23.1614 18.2547 23.7238 19.4199 24.3025 20.5783C23.7182 21.1048 23.0861 21.5762 22.4062 21.9924C22.1072 21.7827 21.7997 21.587 21.4838 21.4054C20.9481 20.9473 20.3995 20.4987 19.8382 20.0594C19.0376 19.4806 18.2392 18.9023 17.4427 18.3246C17.3463 18.1535 17.2095 18.0554 17.0321 18.0301C17.1523 18.1519 17.267 18.2729 17.3765 18.3931C17.8116 18.9419 18.2717 19.4707 18.7568 19.9794C19.5553 20.9761 20.3951 21.9456 21.2761 22.8878C21.3135 23.0073 21.2932 23.1197 21.2151 23.225C20.7753 23.7826 20.3246 24.3289 19.8631 24.8638C18.6797 24.2882 17.4771 23.7513 16.2552 23.2532C15.4255 22.8374 14.5858 22.4616 13.7364 22.1256C14.5908 22.7138 15.4347 23.3136 16.2681 23.9249C17.2548 24.5955 18.2133 25.3051 19.1436 26.0537C18.8993 26.6632 18.6296 27.262 18.3345 27.8501C18.3031 27.9376 18.2936 28.0274 18.3059 28.1195C17.2085 27.9114 16.1032 27.7535 14.9898 27.6456C13.7383 27.4157 12.4749 27.2272 11.1995 27.0801C12.2236 27.4882 13.2652 27.8378 14.3242 28.1288C15.4508 28.532 16.5833 28.9358 17.722 29.3403C17.6119 29.9641 17.5227 30.5931 17.4546 31.2271C17.4247 31.3606 17.3478 31.4517 17.2236 31.5004C15.4287 31.6842 13.6322 31.8531 11.8342 32.0072C11.2277 32.0485 10.6211 32.0938 10.0146 32.143C10.2357 32.2089 10.4612 32.2381 10.6912 32.2308C12.8925 32.4478 15.1015 32.6741 17.3182 32.9098C17.3486 33.7607 17.3874 34.6112 17.4348 35.4612C14.6184 36.1372 11.7965 36.7962 8.9691 37.4385C8.87155 34.8085 9.08019 32.206 9.59509 29.631C11.0755 24.4427 13.7448 19.9448 17.6031 16.1374C23.656 10.6847 30.7858 8.26274 38.9926 8.87149C41.5422 9.03812 44.0046 9.5732 46.3798 10.4767C46.8898 10.7073 47.3895 10.9554 47.8789 11.2207C45.091 14.368 42.2942 17.5019 39.4885 20.6223C39.3453 20.6677 39.2099 20.6479 39.0824 20.5629C38.6157 20.2861 38.1383 20.0265 37.6502 19.784C37.6142 19.747 37.5909 19.7026 37.5801 19.651C37.9336 18.3731 38.2916 17.1006 38.654 15.8334Z" fill="#7E8100"/>
<path fill-rule="evenodd" clip-rule="evenodd" d="M36.8682 24.7384C36.6554 25.0656 36.4253 25.3836 36.1779 25.6925C33.6616 24.2595 30.9484 23.5501 28.0382 23.5642C25.6915 23.7165 23.6724 24.5954 21.9811 26.2007C21.3477 26.9554 20.8463 27.7827 20.4765 28.6825C20.3668 28.8149 20.3249 28.9725 20.3506 29.1554C20.2465 29.265 20.2041 29.4002 20.2234 29.561C20.1177 29.7425 20.0766 29.9449 20.1001 30.1682C19.9485 31.582 19.9756 32.9927 20.1815 34.4004C20.1612 34.5128 20.1408 34.6251 20.1205 34.7375C19.6806 34.9786 19.2109 35.122 18.7115 35.1679C18.562 35.1633 18.4262 35.1211 18.3041 35.0413C18.1944 33.45 18.2088 31.8593 18.3474 30.2691C18.8294 28.3526 19.6616 26.5894 20.844 24.9793C21.5388 24.2604 22.2336 23.5414 22.9284 22.8224C23.7485 22.2132 24.5923 21.6369 25.4598 21.0937C29.9764 18.9603 34.4111 19.1102 38.7639 21.5434C38.1135 22.6013 37.4815 23.6663 36.8682 24.7384Z" fill="#7E8100"/>
<path fill-rule="evenodd" clip-rule="evenodd" d="M36.4956 26.4256C36.8597 26.7318 37.2692 26.9704 37.7242 27.1412C38.3846 26.4808 39.0467 25.8184 39.7107 25.1542C39.7862 25.308 39.7892 25.4648 39.7197 25.6244C39.0235 27.7445 37.8434 29.548 36.1793 31.0351C35.4436 31.5907 34.6889 32.1205 33.9152 32.6242C30.6677 34.2603 27.2477 35.4013 23.6551 36.0473C23.0938 36.1029 22.5316 36.1137 21.9685 36.0797C21.4742 35.9132 21.0861 35.6182 20.8042 35.1949C20.7501 34.7255 20.6962 34.2561 20.6421 33.7867C20.5732 32.9603 20.5349 32.1323 20.5269 31.3025C20.5917 30.7871 20.6493 30.2709 20.6995 29.7535C21.0314 28.7801 21.4748 27.8531 22.0296 26.9726C23.6436 25.1409 25.6836 24.1832 28.1497 24.0997C29.1438 24.1089 30.1348 24.1682 31.1226 24.2777C33.012 24.7641 34.8031 25.4801 36.4956 26.4256Z" fill="#7E8100"/>
<path fill-rule="evenodd" clip-rule="evenodd" d="M40.0102 26.694C40.0359 26.9529 40.0857 27.1983 40.1593 27.4303C40.2361 28.0009 40.3368 28.559 40.4615 29.1046C40.6048 30.1736 40.8049 31.2226 41.0619 32.2515C41.6757 35.7626 42.3167 39.2671 42.9851 42.7653C43.0584 43.0759 43.087 43.3889 43.0706 43.7044C42.677 43.323 42.3315 42.9041 42.0341 42.4475C41.9455 40.9661 41.8046 39.4903 41.6115 38.0203C40.9778 37.404 40.2597 36.9138 39.4573 36.5497C39.1289 36.4162 38.7896 36.3219 38.4395 36.2669C38.2414 36.2474 38.0853 36.3176 37.9711 36.4775C37.7757 36.7597 37.5672 37.0325 37.3457 37.2959C37.2379 37.5096 37.1408 37.7243 37.0544 37.94C37.1808 38.1346 37.3633 38.2655 37.6019 38.3326C38.7806 38.8082 39.9489 39.3121 41.1067 39.8445C41.3138 42.1316 41.5826 44.4113 41.9131 46.6836C42.191 48.3509 42.6048 49.9782 43.1543 51.5655C43.2207 51.7565 43.3362 51.9111 43.5007 52.0292C43.5361 52.1383 43.5495 52.2501 43.5409 52.3644C43.2519 52.4013 42.981 52.3505 42.7281 52.2121C40.2636 50.7074 37.8926 49.073 35.6148 47.3087C34.6405 46.551 33.7581 45.7055 32.9677 44.7723C32.9549 44.6942 32.9422 44.6161 32.9294 44.5379C33.0708 43.7204 33.1901 42.9005 33.2871 42.0781C33.2642 41.3325 31.9466 41.4253 31.6496 40.7434C31.118 40.0579 31.088 40.1576 30.3167 39.7706C30.0768 39.7368 28.8846 38.9222 28.6764 39.0541C25.312 40.5811 23.472 41.5674 20.1476 43.1708C19.6187 43.5939 19.0402 43.9299 18.4122 44.1786C18.3999 44.0866 18.4094 43.9968 18.4408 43.9093C19.5235 42.6519 20.6933 41.4869 21.9506 40.4145C21.8727 39.7403 21.6915 39.0942 21.4071 38.4761C21.2707 38.1235 21.1514 37.7674 21.0491 37.4077C20.9702 37.033 20.8509 36.6769 20.6911 36.3394C20.7012 36.0499 20.6286 35.7825 20.4732 35.5371C20.4953 35.5143 20.5174 35.4915 20.5394 35.4687C20.757 35.7542 20.9873 36.0298 21.2302 36.2954C21.3745 36.3474 21.5107 36.412 21.6389 36.4892C22.2694 36.5219 22.8991 36.5097 23.5279 36.4528C27.5731 35.8949 31.3499 34.5902 34.8584 32.5388C36.0053 31.7521 37.0564 30.847 38.0119 29.8237C38.7832 28.7236 39.413 27.5467 39.9012 26.2929C39.917 26.4409 39.9533 26.5746 40.0102 26.694Z" fill="#7E8100"/>
</svg>
