<svg width="181" height="182" viewBox="0 0 181 182" fill="none" xmlns="http://www.w3.org/2000/svg">
<g clip-path="url(#clip0_186_2)">
<path fill-rule="evenodd" clip-rule="evenodd" d="M99.6504 47.9422C99.6657 47.625 99.6273 47.3006 99.5354 46.969C99.5748 46.7789 99.6565 46.6092 99.7806 46.46C99.1996 46.0707 98.7707 45.518 98.4941 44.8021C97.8544 43.303 97.249 41.7894 96.6779 40.2617C96.6999 39.8328 96.5484 39.4544 96.2238 39.1266C95.4431 37.2834 94.7207 35.4359 94.0565 33.5837C94.0124 33.325 93.9469 33.0572 93.8597 32.7801C93.5997 32.9889 93.5866 33.2471 93.8204 33.5544C94.3295 36.9175 94.9389 40.2695 95.6486 43.6104C95.6326 44.4403 95.7678 45.2561 96.0542 46.058C96.7138 50.3158 97.4261 54.5797 98.1912 58.8494C96.9992 59.7786 95.6681 60.4928 94.1984 60.9916C90.6834 56.8256 87.1609 52.653 83.6309 48.4739C82.5583 47.0015 81.4159 45.6213 80.2042 44.3332C79.4292 43.5179 79.3405 43.5868 79.9378 44.5399C80.551 45.6142 81.2172 46.6557 81.9357 47.6644C82.2608 48.3641 82.6524 49.052 83.1102 49.7279C83.6483 50.8265 84.2698 51.9024 84.9748 52.9558C85.7438 54.571 86.6641 56.1235 87.7355 57.6133C88.6974 59.5084 89.779 61.3607 90.9805 63.17C89.3156 64.5162 87.6971 65.9139 86.125 67.3629C85.9985 67.4519 85.8754 67.4767 85.7556 67.437C84.675 66.5672 83.5309 65.8261 82.3229 65.2135C81.9676 64.7633 81.5257 64.4688 80.997 64.3299C80.218 63.6536 79.3684 63.1087 78.4482 62.6955C78.2113 62.2996 77.8824 62.0589 77.4614 61.9738C77.0535 61.6005 76.6116 61.306 76.1355 61.0902C75.9208 60.7473 75.6261 60.551 75.2516 60.5012C74.9075 60.1218 74.4999 59.8716 74.0287 59.7503C72.859 58.928 71.6804 58.1427 70.493 57.3941C70.2305 57.1539 69.9359 56.9575 69.6091 56.805C69.8643 57.429 70.2862 57.8808 70.8744 58.1606C72.0826 59.4589 73.3236 60.6916 74.5977 61.8586C76.2949 63.5071 77.9578 65.1916 79.5864 66.9121C80.0162 67.5607 80.551 68.0664 81.1907 68.4295C82.0515 69.0686 82.7477 69.8741 83.2794 70.8461C82.3939 72.0371 81.5756 73.2741 80.8244 74.5575C80.5441 74.9322 80.2233 75.2519 79.8617 75.517C76.1709 74.4816 72.4809 73.4849 68.7916 72.5266C67.1769 71.8946 65.52 71.4094 63.821 71.0714C63.5043 71.0042 63.1995 70.8865 62.9069 70.7184C62.6808 70.6105 62.5921 70.6794 62.6405 70.9251C63.1081 71.1485 63.5602 71.3642 63.9966 71.5727C65.8155 72.4989 67.6136 73.441 69.3909 74.3989C72.2348 75.9311 75.1015 77.4252 77.9909 78.8812C77.6069 80.8083 77.0448 82.6965 76.3047 84.5458C75.3925 84.5723 74.4843 84.6395 73.5803 84.7476C71.8231 84.6303 70.0542 84.551 68.2738 84.5094C65.8057 84.5457 63.3427 84.5799 60.8845 84.6124C60.436 84.4137 60.0153 84.4215 59.6222 84.6357C60.0449 84.7002 60.4555 84.7713 60.8543 84.8484C62.5455 85.298 64.2569 85.6699 65.9883 85.9642C69.0764 86.768 72.2065 87.4556 75.3784 88.0271C75.6318 88.2107 75.759 88.4662 75.7598 88.7936C75.7118 90.5674 75.6249 92.3348 75.4994 94.0956C72.2694 94.71 69.0585 95.4308 65.867 96.258C63.5842 96.6645 61.3411 97.1657 59.1377 97.7614C61.7278 97.6635 64.3139 97.6045 66.8962 97.5843C69.8742 97.4538 72.8538 97.4435 75.8353 97.5535C76.2563 99.1391 76.6105 100.741 76.8978 102.36C76.9656 102.582 77.0806 102.776 77.2429 102.942C74.734 104.165 72.2842 105.499 69.8929 106.946C67.0427 108.355 64.2305 109.864 61.4563 111.474C64.1171 110.762 66.7255 109.907 69.2814 108.908C72.1401 108.033 75.0117 107.15 77.8967 106.26C78.6077 107.674 79.3685 109.067 80.1791 110.439C80.3186 110.751 80.3005 111.048 80.1246 111.331C76.8038 114.38 73.4577 117.401 70.0865 120.395C68.9333 121.384 67.786 122.381 66.6446 123.385C67.1858 123.187 67.6812 122.909 68.1309 122.551C72.8642 119.697 77.6269 116.851 82.4191 114.013C83.7508 115.672 85.0987 117.317 86.4633 118.949C81.8315 124.509 77.1636 130.044 72.4595 135.554C68.3361 130.431 64.867 124.907 62.0525 118.98C57.2686 106.377 55.8974 93.3807 57.9392 79.9919C61.9193 60.0298 72.583 44.5297 89.9305 33.4918C95.2862 30.0176 101.018 27.4117 107.125 25.6738C108.491 25.374 109.862 25.1246 111.239 24.925C110.355 35.3931 109.434 45.8474 108.474 56.2881C108.255 56.593 107.955 56.7554 107.572 56.7756C106.224 56.9182 104.88 57.1113 103.54 57.3547C103.413 57.3342 103.3 57.2802 103.201 57.1928C102 54.1052 100.817 51.0217 99.6504 47.9422Z" fill="#7E8100"/>
<path fill-rule="evenodd" clip-rule="evenodd" d="M109.373 68.4466C109.436 69.4197 109.45 70.4004 109.416 71.3887C102.235 72.2765 95.7411 74.9079 89.933 79.2827C85.4602 83.0928 82.7286 87.8687 81.7383 93.6104C81.597 96.0679 81.8281 98.474 82.4315 100.829C82.4094 101.257 82.5609 101.636 82.8855 101.964C82.8407 102.339 82.9577 102.673 83.2366 102.966C83.296 103.488 83.5159 103.954 83.8965 104.367C85.7044 107.425 87.8657 110.21 90.3805 112.722C90.5077 112.978 90.6347 113.233 90.7619 113.489C90.2408 114.628 89.5142 115.617 88.5823 116.455C88.276 116.669 87.941 116.787 87.5773 116.81C84.9809 113.786 82.6339 110.579 80.5364 107.187C78.6396 102.628 77.673 97.8531 77.6366 92.8622C77.9545 90.3844 78.2724 87.9065 78.5903 85.4286C79.323 82.9837 80.1524 80.5691 81.0787 78.1852C86.9392 67.1663 96.0459 60.843 108.399 59.2157C108.676 62.306 109.001 65.3831 109.373 68.4466Z" fill="#7E8100"/>
<path fill-rule="evenodd" clip-rule="evenodd" d="M111.147 72.3825C112.333 72.452 113.51 72.3182 114.676 71.9809C115.013 69.6717 115.35 67.356 115.688 65.0339C116.069 65.2293 116.309 65.5387 116.408 65.9623C118.18 71.2486 118.51 76.6237 117.398 82.0876C116.754 84.2995 116.033 86.4878 115.236 88.6523C111.175 96.7797 106.029 104.173 99.7976 110.833C98.7563 111.782 97.6462 112.644 96.4677 113.417C95.2289 113.822 94.0109 113.81 92.8139 113.383C92.0047 112.524 91.1955 111.664 90.3862 110.805C89.014 109.252 87.7003 107.651 86.445 106.001C85.8052 104.872 85.1494 103.752 84.4774 102.641C83.6883 100.195 83.192 97.6761 82.9882 95.084C83.4853 89.0044 86.1411 84.0393 90.9558 80.1887C92.9608 78.7225 95.0343 77.3611 97.1766 76.105C101.688 74.2574 106.344 73.0165 111.147 72.3825Z" fill="#7E8100"/>
<path fill-rule="evenodd" clip-rule="evenodd" d="M118.588 67.6707C119.026 68.1508 119.492 68.568 119.986 68.9228C120.992 69.951 122.028 70.9184 123.092 71.8251C124.976 73.7523 126.943 75.5546 128.995 77.2317C135.468 83.3476 141.987 89.4098 148.55 95.4184C149.161 95.931 149.685 96.5155 150.124 97.1718C148.766 96.9957 147.448 96.6726 146.171 96.2023C143.78 93.3673 141.294 90.6218 138.712 87.9657C136.522 87.6778 134.352 87.7684 132.2 88.2375C131.343 88.4605 130.523 88.7784 129.739 89.1911C129.314 89.4481 129.106 89.8218 129.116 90.3125C129.146 91.1697 129.136 92.0276 129.086 92.886C129.189 93.4751 129.315 94.0502 129.464 94.611C130.008 94.8121 130.569 94.8017 131.147 94.5799C134.218 93.772 137.311 93.0364 140.425 92.3736C144.256 96.6454 148.199 100.81 152.255 104.868C155.302 107.792 158.561 110.434 162.032 112.793C162.451 113.076 162.913 113.213 163.419 113.204C163.653 113.37 163.847 113.574 164 113.816C163.476 114.321 162.858 114.624 162.144 114.724C154.961 115.391 147.771 115.659 140.573 115.527C137.49 115.464 134.46 115.089 131.483 114.4C131.34 114.263 131.198 114.125 131.056 113.988C130.118 112.139 129.132 110.319 128.098 108.527C126.939 107.067 124.438 109.221 122.825 108.299C120.736 107.72 120.825 107.964 118.702 108.341C118.171 108.632 114.567 108.781 114.347 109.356C109.888 117.439 107.676 122.163 103.412 130.34C102.984 131.977 102.328 133.514 101.441 134.95C101.279 134.784 101.164 134.59 101.096 134.368C101.387 130.233 101.99 126.152 102.907 122.126C101.744 120.892 100.416 119.868 98.9229 119.055C98.1231 118.553 97.3522 118.017 96.6102 117.45C95.8925 116.817 95.1216 116.282 94.2975 115.845C93.8854 115.25 93.3405 114.823 92.6628 114.563C92.6729 114.485 92.683 114.406 92.6931 114.327C93.5554 114.574 94.4284 114.782 95.3116 114.951C95.6782 114.84 96.0475 114.766 96.4195 114.729C97.7313 113.853 98.9745 112.888 100.149 111.835C107.418 104.676 113.035 96.4214 116.998 87.0724C118.121 83.7836 118.874 80.4008 119.26 76.924C119.162 73.5686 118.665 70.2706 117.77 67.03C118.023 67.303 118.296 67.5166 118.588 67.6707Z" fill="#7E8100"/>
</g>
<path fill-rule="evenodd" clip-rule="evenodd" d="M135.152 104.498C136.039 104.427 136.918 104.451 137.788 104.571C138.457 104.663 138.764 105.417 138.359 105.957C137.729 106.798 137.011 107.569 136.206 108.271C136.166 108.306 136.123 108.337 136.078 108.365C130.747 111.65 125.363 114.851 119.924 117.97C112.192 123.833 107.38 131.413 105.488 140.711C105.279 141.736 103.854 141.879 103.577 140.87C102.631 137.425 102.176 133.896 102.211 130.285C102.212 130.17 102.234 130.056 102.274 129.948C106.261 119.347 111.058 108.114 121.462 103.816C125.17 102.443 131.357 105.231 135.152 104.498Z" fill="#7E8100"/>
<path fill-rule="evenodd" clip-rule="evenodd" d="M141.959 104.524C142.049 104.309 142.258 104.166 142.492 104.166C142.82 104.166 143.081 104.443 143.048 104.769C142.753 107.721 141.721 110.402 139.953 112.814C134.546 119.245 129.138 125.676 123.731 132.107C121.031 135.647 118.935 139.528 117.441 143.749C116.983 145.499 116.652 147.273 116.448 149.071C116.125 155.28 115.794 161.49 115.455 167.698C115.35 168.431 114.279 168.336 114.181 167.602C113.757 164.424 112.858 161.351 111.482 158.384C110.491 156.31 109.453 154.264 108.371 152.246C107.6 150.809 107.137 149.215 107.191 147.586C107.517 137.835 111.142 129.47 118.066 122.491C118.418 122.136 118.804 121.815 119.21 121.523C120.552 120.561 121.893 119.598 123.235 118.635C128.199 115.92 133.055 113.037 137.801 109.987C139.661 108.503 141.047 106.682 141.959 104.524Z" fill="#7E8100"/>
<path fill-rule="evenodd" clip-rule="evenodd" d="M148.751 105.807C148.573 105.269 148.843 104.657 149.409 104.62C149.944 104.586 150.492 104.669 151.051 104.869C151.263 104.945 151.433 105.105 151.536 105.305C153.851 109.767 154.544 114.434 153.615 119.307C153.466 120.092 152.499 120.313 152.044 119.656C150.003 116.709 149.169 113.356 149.542 109.598C149.549 109.525 149.549 109.451 149.54 109.379C149.391 108.136 149.128 106.946 148.751 105.807Z" fill="#7E8100"/>
<path fill-rule="evenodd" clip-rule="evenodd" d="M145.084 116.805C145.563 117.175 146.115 117.231 146.74 116.972C147.17 116.434 147.17 115.935 146.74 115.475C145.638 114.494 144.314 113.996 142.767 113.978C142.616 113.84 142.505 113.674 142.436 113.479C144.013 110.509 144.344 110.612 145.084 107.816C145.517 108.89 146.676 107.014 146.905 108.157C147.162 111.404 147.603 114.619 148.229 117.803C149.719 120.797 152.064 123.414 154.613 125.606C155.062 125.993 155.098 126.679 154.653 127.071C153.627 127.974 152.447 128.866 151.54 129.778C151.582 130.737 151.802 131.624 152.202 132.439C151.597 132.962 150.88 133.24 150.05 133.271C149.354 133.847 149.244 134.512 149.719 135.266C150.506 135.436 151.279 135.658 152.036 135.932C151.896 138.179 151.841 140.452 151.871 142.751C151.37 143.504 150.652 143.892 149.719 143.915C139.946 144.255 134.537 149.577 132.172 159.104C131.841 159.104 130.29 158.548 129.959 158.548C130.014 154.444 130.518 150.51 130.353 146.409C129.489 142.736 128.882 139.022 128.532 135.266C128.849 130.981 130.449 127.267 133.332 124.123C135.705 121.518 138.077 118.912 140.45 116.306C141.991 116.361 143.536 116.527 145.084 116.805Z" fill="#7E8100"/>
<path fill-rule="evenodd" clip-rule="evenodd" d="M144.726 119.679C145.595 119.118 146.958 118.67 147.289 119.65V119.65C147.521 120.339 146.965 121.074 146.372 121.494C144.54 122.793 142.455 123.17 140.118 122.627C139.812 122.567 139.551 122.491 139.335 122.4C137.834 121.763 140.094 120.382 141.725 120.37C142.043 120.367 142.361 120.361 142.68 120.35C143.389 120.326 144.074 120.098 144.67 119.714C144.689 119.702 144.707 119.69 144.726 119.679Z" fill="#EAEAEA"/>
<path fill-rule="evenodd" clip-rule="evenodd" d="M124.411 135.137C124.917 134.388 126.047 134.702 126.149 135.601C126.621 139.742 127.25 143.899 128.035 148.073C129.26 155.234 127.825 161.776 123.731 167.698C122.216 169.51 120.607 171.227 118.904 172.85C118.162 173.556 116.939 172.756 117.161 171.757C117.454 170.434 117.658 169.081 117.772 167.698C117.964 160.376 118.512 153.085 119.418 145.826C119.424 145.772 119.435 145.718 119.451 145.666C120.584 141.864 122.237 138.355 124.411 135.137Z" fill="#7E8100"/>
<path fill-rule="evenodd" clip-rule="evenodd" d="M149.706 147C150.026 147 150.345 147 150.665 147C151.228 147 151.686 147.466 151.606 148.024C151.4 149.455 150.839 150.755 149.924 151.924C149.89 151.968 149.851 152.008 149.81 152.045C145.952 155.495 141.945 158.747 137.789 161.802C137.068 162.468 136.381 163.16 135.726 163.88C135.1 164.567 133.929 164.171 133.967 163.242C134.355 153.681 139.602 148.268 149.706 147Z" fill="#7E8100"/>
<path d="M143.136 166.275C142.635 166.759 142.369 167.378 142.378 168.045C142.388 168.809 142.576 169.273 143.146 170.02C143.339 170.273 143.738 170.416 144.068 170.35C145.04 170.157 145.524 169.933 146.098 169.379C146.6 168.895 146.866 168.276 146.857 167.609C146.846 166.797 146.634 166.323 145.976 165.489C145.844 165.322 145.579 165.227 145.358 165.267C144.255 165.47 143.747 165.686 143.136 166.275Z" fill="#E74343"/>
<path d="M148.033 164.036C147.532 164.52 147.266 165.139 147.275 165.806C147.285 166.569 147.473 167.034 148.043 167.781C148.236 168.033 148.635 168.176 148.965 168.111C149.937 167.917 150.421 167.694 150.995 167.14C151.497 166.656 151.763 166.036 151.754 165.369C151.743 164.558 151.531 164.084 150.873 163.25C150.741 163.082 150.476 162.987 150.255 163.028C149.152 163.231 148.644 163.447 148.033 164.036Z" fill="#E74343"/>
<path d="M146.517 156.401C147.224 156.563 147.812 156.955 148.196 157.521C148.637 158.17 148.751 158.655 148.708 159.564C148.694 159.872 148.442 160.189 148.125 160.295C147.192 160.61 146.652 160.659 145.842 160.475C145.135 160.313 144.547 159.921 144.162 159.355C143.694 158.665 143.595 158.16 143.66 157.134C143.673 156.928 143.841 156.718 144.051 156.643C145.1 156.272 145.655 156.205 146.517 156.401Z" fill="#E74343"/>
<path d="M137.26 168.515C136.758 168.999 136.493 169.618 136.501 170.285C136.511 171.048 136.7 171.513 137.27 172.26C137.463 172.512 137.861 172.655 138.191 172.59C139.164 172.396 139.647 172.173 140.222 171.619C140.724 171.135 140.989 170.515 140.981 169.848C140.97 169.037 140.757 168.563 140.099 167.729C139.967 167.561 139.703 167.466 139.481 167.507C138.379 167.71 137.871 167.926 137.26 168.515Z" fill="#E74343"/>
<path d="M140.575 162.347C139.855 162.24 139.234 161.894 138.8 161.358C138.302 160.745 138.145 160.27 138.105 159.361C138.091 159.053 138.314 158.718 138.62 158.588C139.522 158.204 140.055 158.114 140.879 158.237C141.599 158.344 142.22 158.69 142.654 159.226C143.183 159.878 143.328 160.373 143.356 161.401C143.361 161.608 143.213 161.83 143.01 161.92C141.998 162.369 141.451 162.478 140.575 162.347Z" fill="#E74343"/>
<path d="M135.202 160.224C135.931 160.252 136.593 160.527 137.095 161.011C137.67 161.565 137.888 162.018 138.048 162.917C138.102 163.221 137.925 163.578 137.639 163.741C136.794 164.222 136.277 164.37 135.443 164.338C134.714 164.311 134.052 164.036 133.55 163.552C132.939 162.963 132.73 162.488 132.567 161.471C132.534 161.266 132.652 161.03 132.841 160.918C133.786 160.361 134.315 160.191 135.202 160.224Z" fill="#E74343"/>
<path d="M116.78 166.275C117.281 166.759 117.547 167.378 117.538 168.045C117.528 168.809 117.34 169.273 116.77 170.02C116.577 170.273 116.178 170.416 115.848 170.35C114.876 170.157 114.392 169.933 113.818 169.379C113.316 168.895 113.05 168.276 113.059 167.609C113.07 166.797 113.282 166.323 113.94 165.489C114.072 165.322 114.337 165.227 114.558 165.267C115.661 165.47 116.169 165.686 116.78 166.275Z" fill="#E74343"/>
<path d="M111.883 164.036C112.384 164.52 112.65 165.139 112.641 165.806C112.631 166.569 112.443 167.034 111.873 167.781C111.68 168.033 111.281 168.176 110.952 168.111C109.979 167.917 109.495 167.694 108.921 167.14C108.419 166.656 108.153 166.036 108.162 165.369C108.173 164.558 108.385 164.084 109.043 163.25C109.175 163.082 109.44 162.987 109.661 163.028C110.764 163.231 111.272 163.447 111.883 164.036Z" fill="#E74343"/>
<path d="M113.4 156.401C112.692 156.563 112.105 156.955 111.72 157.521C111.28 158.17 111.166 158.655 111.208 159.564C111.222 159.872 111.475 160.189 111.791 160.295C112.725 160.61 113.264 160.659 114.074 160.475C114.782 160.313 115.37 159.921 115.754 159.355C116.222 158.665 116.321 158.16 116.256 157.134C116.243 156.928 116.076 156.718 115.865 156.643C114.816 156.272 114.261 156.205 113.4 156.401Z" fill="#E74343"/>
<path d="M122.657 168.515C123.158 168.999 123.424 169.618 123.415 170.285C123.405 171.048 123.217 171.513 122.647 172.26C122.454 172.512 122.055 172.655 121.725 172.59C120.753 172.396 120.269 172.173 119.694 171.619C119.193 171.135 118.927 170.515 118.936 169.848C118.947 169.037 119.159 168.563 119.817 167.729C119.949 167.561 120.214 167.466 120.435 167.507C121.538 167.71 122.046 167.926 122.657 168.515Z" fill="#E74343"/>
<path d="M119.341 162.347C120.061 162.24 120.682 161.894 121.116 161.358C121.614 160.745 121.771 160.27 121.811 159.361C121.825 159.053 121.602 158.718 121.296 158.588C120.394 158.204 119.861 158.114 119.037 158.237C118.317 158.344 117.696 158.69 117.262 159.226C116.733 159.878 116.588 160.373 116.56 161.401C116.555 161.608 116.703 161.83 116.906 161.92C117.918 162.369 118.465 162.478 119.341 162.347Z" fill="#E74343"/>
<path d="M124.714 160.224C123.985 160.252 123.323 160.527 122.821 161.011C122.246 161.565 122.028 162.018 121.868 162.917C121.814 163.221 121.991 163.578 122.277 163.741C123.122 164.222 123.639 164.37 124.473 164.338C125.202 164.311 125.864 164.036 126.366 163.552C126.977 162.963 127.186 162.488 127.349 161.471C127.382 161.266 127.264 161.03 127.075 160.918C126.13 160.361 125.601 160.191 124.714 160.224Z" fill="#E74343"/>
<path d="M135.054 165.967C134.748 166.082 134.534 166.362 134.503 166.687C134.496 166.761 134.498 166.836 134.511 166.91L134.526 167.001C134.564 167.233 134.656 167.454 134.794 167.644L134.834 167.699C134.864 167.741 134.898 167.779 134.935 167.814C135.159 168.024 135.482 168.088 135.768 167.98L151.55 162.035C152.102 161.827 152.382 161.211 152.176 160.659C151.97 160.106 151.356 159.827 150.804 160.035L135.054 165.967Z" fill="#E74343"/>
<path d="M109.182 162.096C108.881 161.97 108.678 161.683 108.658 161.357C108.654 161.282 108.659 161.208 108.674 161.135L108.692 161.044C108.739 160.813 108.839 160.596 108.983 160.411L109.025 160.357C109.057 160.317 109.092 160.28 109.13 160.246C109.361 160.045 109.686 159.992 109.969 160.111L125.528 166.622C126.072 166.849 126.33 167.475 126.104 168.02C125.879 168.565 125.255 168.822 124.711 168.594L109.182 162.096Z" fill="#E74343"/>
<path d="M137.943 125.367C137.943 124.659 138.659 124.175 139.316 124.439L143.619 126.169C144.089 126.358 144.626 126.165 144.869 125.72L147.414 121.061C147.715 120.51 148.443 120.37 148.927 120.768L151.736 123.08L153.34 124.392L154.355 125.301L154.726 125.729C154.799 125.813 154.855 125.91 154.893 126.015C154.926 126.111 154.943 126.211 154.943 126.312V126.425C154.943 126.483 154.938 126.541 154.928 126.599L154.91 126.704C154.897 126.778 154.875 126.851 154.846 126.92L154.783 127.068L154.7 127.225C154.649 127.322 154.582 127.409 154.503 127.484L154.308 127.668C154.268 127.705 154.226 127.74 154.181 127.77L153.937 127.934C153.895 127.962 153.851 127.988 153.805 128.009L153.534 128.137C153.476 128.165 153.42 128.198 153.369 128.236L153.126 128.414C153.02 128.492 152.93 128.59 152.862 128.702L152.805 128.798C152.769 128.856 152.742 128.918 152.722 128.984C152.672 129.149 152.676 129.327 152.733 129.49L152.756 129.554C152.788 129.646 152.834 129.733 152.892 129.812L153.286 130.35L153.821 130.955L154.115 131.387C154.236 131.565 154.289 131.779 154.267 131.993C154.255 132.108 154.221 132.22 154.166 132.322L154.162 132.33C154.113 132.423 154.049 132.507 153.973 132.578L153.767 132.773L153.411 133.025C153.364 133.059 153.313 133.088 153.26 133.113L152.805 133.328L151.919 133.87C151.904 133.879 151.89 133.89 151.877 133.902L151.792 133.982C151.759 134.013 151.751 134.063 151.772 134.104C151.783 134.125 151.801 134.141 151.823 134.15L152.664 134.503C152.722 134.527 152.778 134.557 152.831 134.593L153.238 134.863C153.373 134.953 153.484 135.075 153.562 135.217L153.602 135.292C153.641 135.362 153.671 135.437 153.691 135.515L153.734 135.676C153.756 135.76 153.767 135.846 153.767 135.932V136.048C153.767 136.114 153.759 136.181 153.743 136.245C153.69 136.458 153.554 136.641 153.364 136.752L152.943 137L152.591 137.216L152.376 137.345C152.14 137.487 151.981 137.727 151.943 138V138.811C151.943 138.936 151.967 139.06 152.013 139.176L152.591 140.649L152.805 141.153L152.933 141.557C152.955 141.624 152.969 141.694 152.976 141.764L153.009 142.113C153.016 142.18 153.015 142.247 153.008 142.314L152.982 142.563C152.971 142.666 152.944 142.767 152.902 142.861L152.729 143.255C152.708 143.301 152.685 143.346 152.658 143.388L152.444 143.724C152.4 143.794 152.347 143.858 152.287 143.915L151.95 144.233L151.497 144.575C151.443 144.616 151.384 144.652 151.322 144.681L150.738 144.956C150.691 144.979 150.641 144.998 150.59 145.012L149.972 145.192L149.384 145.344L148.261 145.546L146.657 145.748L144.786 145.899L143.129 146H141.846H141.54C141.356 146 141.175 146.051 141.017 146.148L140.443 146.5L139.514 147.145C138.85 147.606 137.943 147.131 137.943 146.324V125.367Z" fill="#7E8100"/>
<defs>
<clipPath id="clip0_186_2">
<rect width="123.749" height="134.301" fill="white" transform="translate(0 75.8672) rotate(-37.8119)"/>
</clipPath>
</defs>
</svg>
