<svg width="60" height="63" viewBox="0 0 60 63" fill="none" xmlns="http://www.w3.org/2000/svg">
<path fill-rule="evenodd" clip-rule="evenodd" d="M45.2616 24.0933L48.6399 23.9479C51.327 23.8351 53.9527 24.7127 55.9409 26.3882C57.9291 28.0638 59.1174 30.4004 59.2451 32.8855L59.7679 43.3005C59.8896 45.7858 58.9405 48.2144 57.1287 50.0534C55.3169 51.8925 52.7904 52.9918 50.1036 53.1101L46.7253 53.2555L46.7776 54.297C46.8723 56.23 46.1342 58.1189 44.725 59.5493C43.3158 60.9797 41.3507 61.8347 39.2609 61.9266L14.4869 62.9925C12.3969 63.0803 10.3547 62.3978 8.80828 61.0945C7.26188 59.7913 6.33767 57.9739 6.23841 56.0411L4.87531 28.8825C3.60707 28.2772 2.51257 27.4017 1.68202 26.3284C0.851466 25.255 0.308655 24.0143 0.09833 22.7088C-0.111995 21.4032 0.0161881 20.07 0.472313 18.8192C0.928438 17.5684 1.69944 16.4357 2.72177 15.5146C1.99291 14.2596 1.67711 12.8348 1.81328 11.4158C1.94946 9.99677 2.53167 8.64559 3.48813 7.52885C4.44459 6.41212 5.73347 5.57866 7.19586 5.13124C8.65824 4.68382 10.2302 4.642 11.7179 5.01095C14.5585 1.96622 18.4012 0.198732 22.6114 0.0176003C24.6575 -0.0768513 26.7032 0.209555 28.6273 0.859844C30.5515 1.51013 32.3148 2.51107 33.8129 3.80334C35.7293 5.4447 37.1707 7.50385 38.0055 9.79286C39.7213 9.75737 41.4123 10.1759 42.8795 10.9992C44.3467 11.8225 45.529 13.0164 46.2874 14.4402C47.0457 15.8641 47.3486 17.4587 47.1602 19.0364C46.9718 20.6141 46.3001 22.1093 45.2241 23.346L45.2616 24.0933ZM34.5697 20.9901C35.4741 21.751 37.228 22.3514 38.4006 22.3009C39.5214 22.2523 40.5824 21.8189 41.3763 21.0854C42.1702 20.3519 42.6399 19.371 42.6937 18.3344C42.7474 17.2978 42.3814 16.2799 41.667 15.4796C40.9527 14.6793 39.9413 14.1542 38.8306 14.0068C38.8612 14.8559 38.8113 15.7058 38.6817 16.5469C38.6073 17.0268 38.3545 17.4679 37.9667 17.7941C37.5789 18.1203 37.0803 18.3114 36.5566 18.3344C36.415 18.3404 36.273 18.3343 36.1325 18.3161C35.8394 18.2775 35.5573 18.1859 35.3024 18.0465C35.0476 17.9071 34.8249 17.7226 34.6472 17.5035C34.4694 17.2845 34.3401 17.0352 34.2665 16.7699C34.1929 16.5046 34.1766 16.2285 34.2184 15.9574C34.4712 14.2956 34.2876 12.6019 33.6832 11.0197C33.0789 9.43739 32.0715 8.013 30.7462 6.86693C29.6866 5.95177 28.4391 5.24272 27.0776 4.78179C25.7162 4.32087 24.2685 4.11746 22.8205 4.18363C20.0953 4.30087 17.5751 5.37999 15.6095 7.25199C15.6419 7.28896 15.6774 7.32611 15.7131 7.36356L15.7131 7.36357L15.7131 7.3636C15.7514 7.4038 15.7901 7.44434 15.8257 7.48536C16.8964 8.72181 17.4595 9.79353 17.5037 10.6749C17.5321 11.2087 17.3379 11.7322 16.9611 12.1374C16.5843 12.5426 16.0537 12.7986 15.4788 12.8524C14.904 12.9063 14.3287 12.754 13.8717 12.4269C13.4148 12.0998 13.1111 11.6229 13.0234 11.0947C12.818 10.7423 12.5788 10.4076 12.3088 10.0947C11.9769 9.70944 11.5504 9.40291 11.0648 9.20054C10.5792 8.99816 10.0485 8.90577 9.51652 8.93102C8.9561 8.95534 8.41101 9.10822 7.93035 9.3759C7.4497 9.64359 7.04859 10.0177 6.76316 10.4644C6.47773 10.9112 6.31694 11.4166 6.29529 11.9351C6.27364 12.4536 6.39181 12.9689 6.63914 13.4347C7.279 13.2714 7.93651 13.1744 8.59953 13.1455C10.4073 13.1183 12.1817 13.5968 13.6903 14.5182C13.9352 14.6722 14.1448 14.8692 14.3073 15.0981C14.4698 15.327 14.582 15.5833 14.6374 15.8522C14.6928 16.1212 14.6904 16.3977 14.6303 16.6659C14.5702 16.934 14.4536 17.1886 14.2871 17.415C14.1207 17.6415 13.9076 17.8354 13.6601 17.9858C13.4126 18.1361 13.1355 18.2398 12.8447 18.2911C12.5538 18.3424 12.2549 18.3402 11.965 18.2846C11.6751 18.2291 11.3999 18.1212 11.155 17.9673C10.0946 17.3006 8.8213 17.311 8.80863 17.3115C7.614 17.3629 6.49033 17.8511 5.68482 18.6688C4.8793 19.4864 4.45792 20.5664 4.51337 21.6713C4.56883 22.7762 5.09658 23.8155 5.98052 24.5604C6.86446 25.3053 8.03219 25.695 9.22682 25.6436C10.55 25.5867 12.8923 25.1219 13.7316 22.6486C13.8692 22.2408 14.139 21.8819 14.5043 21.6205C14.8696 21.359 15.3129 21.2077 15.7743 21.1869L32.9471 20.448C33.5443 20.4226 34.128 20.6176 34.5697 20.9901ZM53.7992 47.2475C54.8061 46.2255 55.3328 44.8754 55.2635 43.4943L54.7408 33.0792C54.6715 31.6981 54.0118 30.3991 52.9069 29.4679C51.8019 28.5367 50.3423 28.0497 48.849 28.114L45.4707 28.2593L46.5162 49.0894L49.8945 48.9441C51.3877 48.8798 52.7923 48.2696 53.7992 47.2475ZM26.5136 48.728C26.7712 49.9872 26.5995 50.5056 25.9985 50.1353C25.4833 49.839 24.6248 50.3575 24.1097 51.1723C21.9633 54.5794 28.4883 58.2088 31.6649 55.4683C32.8669 54.4313 33.0386 51.913 32.0084 51.913C31.5791 51.913 30.8064 51.0982 30.2912 50.1353C29.7761 49.0983 28.5741 47.9873 27.7156 47.5429C26.256 46.8763 26.1702 47.0244 26.5136 48.728ZM28.8317 51.1723C28.5741 51.5426 28.7458 51.913 29.1751 51.913C29.6903 51.913 30.1195 52.5796 30.1195 53.3943C30.1195 54.8757 27.2863 55.5423 26.4278 54.2832C25.8268 53.4684 27.3722 50.4316 28.4024 50.4316C28.9176 50.4316 29.0893 50.7278 28.8317 51.1723ZM15.7414 45.5061C16.2756 45.8764 16.4282 45.358 16.1993 44.0988C15.894 42.3952 15.9704 42.247 17.2677 42.9137C18.0309 43.3581 19.0993 44.4691 19.5572 45.5061C20.0151 46.469 20.7019 47.2837 21.0835 47.2837C21.9993 47.2837 21.8467 49.8021 20.7783 50.8391C17.9546 53.5796 12.1546 49.9502 14.0625 46.5431C14.5203 45.7283 15.2835 45.2098 15.7414 45.5061ZM18.5651 47.2837C18.1835 47.2837 18.0309 46.9134 18.2598 46.5431C18.4888 46.0986 18.3361 45.8024 17.8782 45.8024C16.9625 45.8024 15.5888 48.8392 16.123 49.654C16.8861 50.9131 19.4046 50.2465 19.4046 48.7651C19.4046 47.9504 19.023 47.2837 18.5651 47.2837Z" fill="#BC0B0B"/>
</svg>
