<svg width="60" height="69" viewBox="0 0 60 69" fill="none" xmlns="http://www.w3.org/2000/svg">
<path fill-rule="evenodd" clip-rule="evenodd" d="M45.2614 26.0229L48.6399 25.8662C51.3269 25.7441 53.9529 26.6919 55.9411 28.5019C57.9289 30.3115 59.1174 32.8354 59.2453 35.5195L59.7678 46.7685C59.8899 49.4531 58.9406 52.0762 57.1286 54.0625C55.3171 56.0488 52.7903 57.2363 50.1037 57.3642L46.7253 57.521L46.7776 58.646C46.8723 60.7339 46.134 62.7739 44.7248 64.3188C43.3156 65.8638 41.3508 66.7876 39.261 66.8867L14.487 68.0381C12.3967 68.1328 10.3547 67.3955 8.80832 65.9878C7.26194 64.5806 6.33762 62.6172 6.2385 60.5298L4.87522 31.1958C3.60715 30.542 2.51242 29.5967 1.68186 28.437C0.851291 27.2778 0.308811 25.938 0.0983615 24.5278C-0.112088 23.1177 0.0163303 21.6777 0.472385 20.3266C0.92844 18.9756 1.69944 17.7519 2.7219 16.7573C1.99289 15.4018 1.67697 13.8628 1.81321 12.3301C1.94944 10.7974 2.53147 9.33788 3.48801 8.13182C4.44455 6.92577 5.73362 6.02538 7.19602 5.54198C8.65842 5.05907 10.2302 5.01366 11.718 5.4121C14.5583 2.12352 18.4011 0.214344 22.6115 0.0190319C24.6574 -0.0830189 26.7033 0.226063 28.6272 0.9287C30.5515 1.63085 32.3147 2.7119 33.8127 4.1079C35.7292 5.88085 37.1706 8.10497 38.0056 10.5771C39.7214 10.5386 41.4123 10.9907 42.8796 11.8804C44.3469 12.7695 45.529 14.0591 46.2873 15.5967C47.0456 17.1348 47.3484 18.8569 47.1604 20.561C46.9719 22.2651 46.3 23.8804 45.2243 25.2158L45.2614 26.0229ZM34.5696 22.6714C35.4739 23.4932 37.2282 24.1416 38.4006 24.0869C39.5212 24.0347 40.5822 23.5664 41.3762 22.7744C42.1701 21.9819 42.6399 20.9224 42.6936 19.8027C42.7473 18.6831 42.3816 17.584 41.6672 16.7192C40.9529 15.855 39.9411 15.2876 38.8308 15.1284C38.8611 16.0459 38.8113 16.9639 38.6819 17.8721C38.6072 18.3906 38.3547 18.8667 37.9665 19.2192C37.5788 19.5718 37.0803 19.7778 36.5569 19.8027C36.4148 19.8096 36.2732 19.8027 36.1325 19.7832C36.0715 19.7744 36.0105 19.7632 35.9504 19.7495C35.8772 19.7329 35.8049 19.7124 35.7341 19.689L35.6452 19.6572C35.5681 19.6279 35.4929 19.5942 35.4197 19.5566C35.3801 19.5361 35.341 19.5146 35.3025 19.4917C35.1135 19.3804 34.9421 19.2422 34.7937 19.0815C34.7419 19.0254 34.6931 18.9663 34.6472 18.9053C34.4695 18.6689 34.3401 18.3994 34.2663 18.1133C34.1931 17.8266 34.1765 17.5283 34.2185 17.2353C34.4714 15.4404 34.2878 13.6113 33.6833 11.9023C33.0788 10.1933 32.0715 8.65477 30.7463 7.41698C29.6867 6.42821 28.4392 5.66259 27.0779 5.16454C25.716 4.66698 24.2688 4.44725 22.8205 4.51854C20.0954 4.64501 17.5749 5.81102 15.6096 7.83251L15.6848 7.92138L15.7121 7.95214L15.7756 8.0244L15.8259 8.08495C16.8962 9.4204 17.4597 10.5776 17.5036 11.5298C17.5261 11.9907 17.407 12.4438 17.1657 12.831C17.1052 12.9282 17.0368 13.0215 16.9612 13.1094C16.5842 13.5474 16.0539 13.8237 15.4787 13.8818C15.2341 13.9067 14.9895 13.8911 14.7536 13.8379C14.4358 13.7656 14.1345 13.625 13.8718 13.4224C13.4148 13.0688 13.1111 12.5537 13.0232 11.9834C12.9455 11.8393 12.863 11.6977 12.7756 11.5596C12.6618 11.3789 12.5398 11.2031 12.4099 11.0332L12.3088 10.9033C12.157 10.7129 11.9856 10.5405 11.7976 10.3882C11.5744 10.2075 11.3283 10.0561 11.0647 9.93749C10.8152 9.82518 10.5539 9.74413 10.2864 9.69579C10.0334 9.64989 9.77512 9.63329 9.51633 9.64647C9.18772 9.66161 8.8635 9.72509 8.5549 9.83348C8.43821 9.8745 8.32346 9.92186 8.21164 9.97557C8.11545 10.0215 8.0217 10.0718 7.93039 10.1269C7.7092 10.2598 7.5051 10.4175 7.32102 10.5957C7.2136 10.6997 7.1135 10.8105 7.02072 10.9277C6.96408 10.999 6.91037 11.0727 6.85959 11.1484C6.82639 11.1987 6.79416 11.25 6.7634 11.3022C6.63303 11.5229 6.52854 11.7568 6.45139 11.9995C6.40403 12.1494 6.36692 12.3022 6.34055 12.4575C6.31613 12.6006 6.301 12.7451 6.29514 12.8911C6.27365 13.4512 6.39182 14.0078 6.63938 14.5107C6.95139 14.4248 7.2678 14.3559 7.58713 14.3042C7.92209 14.2495 8.25998 14.2143 8.59934 14.1982C10.4074 14.1689 12.1819 14.6855 13.6902 15.6811C13.9353 15.8472 14.1447 16.06 14.3073 16.3071C14.4699 16.5547 14.5822 16.8315 14.6374 17.1221C14.6931 17.4126 14.6906 17.7109 14.6301 18.0005C14.57 18.29 14.4538 18.5654 14.2873 18.81C14.1208 19.0547 13.9074 19.2641 13.6599 19.4263C13.4128 19.5889 13.1355 19.7007 12.8445 19.7563C12.5539 19.8115 12.2551 19.8091 11.9651 19.749C11.675 19.689 11.3996 19.5727 11.155 19.4062C10.0945 18.686 8.82151 18.6973 8.80881 18.6982C7.61399 18.7534 6.49045 19.2808 5.68479 20.1641C4.87912 21.0469 4.45774 22.2139 4.5134 23.4072C4.56906 24.6006 5.09641 25.7231 5.98069 26.5273C6.86447 27.332 8.03196 27.7529 9.22678 27.6973C10.55 27.6362 12.8923 27.1338 13.7317 24.4624C13.8694 24.022 14.1389 23.6343 14.5041 23.352C14.8698 23.0698 15.3127 22.9062 15.7741 22.8838L32.947 22.0859C33.5442 22.0581 34.1281 22.269 34.5696 22.6714ZM53.799 51.0317C54.8064 49.9282 55.3327 48.4697 55.2634 46.978L54.7409 35.7285C54.6716 34.2368 54.0119 32.834 52.907 31.8281C51.802 30.8223 50.3425 30.2964 48.8489 30.3657L45.4709 30.5229L46.5163 53.0215L49.8943 52.8642C51.3879 52.7949 52.7922 52.1357 53.799 51.0317ZM26.5139 52.6308C26.7717 53.9912 26.5998 54.5513 25.9988 54.1509C25.4836 53.831 24.6252 54.3911 24.1101 55.271C21.9636 58.9512 28.4885 62.8711 31.6653 59.9111C32.8674 58.791 33.0393 56.0713 32.009 56.0713C31.5793 56.0713 30.8069 55.1909 30.2917 54.1509C29.7766 53.0312 28.5744 51.831 27.716 51.3511C26.2566 50.6308 26.1706 50.791 26.5139 52.6308ZM28.8322 55.271C28.5744 55.6709 28.7463 56.0713 29.1755 56.0713C29.5412 56.0713 29.8635 56.4336 30.0197 56.9585C30.0837 57.1733 30.1198 57.4155 30.1198 57.6709C30.1198 59.271 27.2868 59.9912 26.428 58.6313C25.8274 57.751 27.3728 54.4712 28.403 54.4712C28.5315 54.4712 28.6384 54.4912 28.7229 54.5283C28.9773 54.6406 29.0256 54.9106 28.8322 55.271ZM15.7419 49.1509C16.2761 49.5513 16.4284 48.9912 16.1999 47.6308C15.8943 45.791 15.9709 45.6308 17.2683 46.3511C18.0315 46.831 19.0998 48.0312 19.5578 49.1509C20.0154 50.1909 20.7024 51.0713 21.0837 51.0713C21.9997 51.0713 21.8469 53.791 20.7785 54.9111C17.9548 57.8711 12.155 53.9512 14.0627 50.271C14.5207 49.3911 15.2839 48.831 15.7419 49.1509ZM18.5656 51.0713C18.1838 51.0713 18.0315 50.6709 18.2605 50.271C18.489 49.791 18.3366 49.4712 17.8786 49.4712C16.9631 49.4712 15.5891 52.751 16.1233 53.6313C16.8864 54.9912 19.405 54.271 19.405 52.6709C19.405 51.791 19.0237 51.0713 18.5656 51.0713Z" fill="#BC0B0B"/>
</svg>
