<svg width="151" height="122" viewBox="0 0 151 122" fill="none" xmlns="http://www.w3.org/2000/svg">
<path d="M124.196 108.403C123.662 107.822 123.379 107.079 123.388 106.279C123.399 105.363 123.6 104.805 124.207 103.91C124.412 103.606 124.837 103.435 125.188 103.513C126.223 103.745 126.739 104.014 127.35 104.679C127.885 105.259 128.168 106.002 128.158 106.802C128.147 107.777 127.921 108.345 127.22 109.346C127.079 109.547 126.797 109.661 126.561 109.612C125.388 109.368 124.847 109.11 124.196 108.403Z" fill="#CB1010"/>
<path d="M129.411 111.09C128.877 110.509 128.594 109.766 128.603 108.966C128.614 108.05 128.815 107.492 129.422 106.597C129.628 106.293 130.052 106.122 130.403 106.2C131.439 106.432 131.954 106.701 132.566 107.366C133.1 107.946 133.383 108.689 133.374 109.489C133.362 110.464 133.136 111.032 132.435 112.033C132.294 112.234 132.013 112.348 131.777 112.299C130.603 112.055 130.062 111.797 129.411 111.09Z" fill="#CB1010"/>
<path d="M127.797 120.25C128.55 120.056 129.176 119.586 129.585 118.906C130.054 118.128 130.176 117.546 130.131 116.455C130.115 116.085 129.847 115.706 129.51 115.578C128.515 115.2 127.941 115.141 127.078 115.363C126.325 115.556 125.699 116.027 125.289 116.706C124.791 117.534 124.685 118.139 124.755 119.371C124.769 119.618 124.947 119.87 125.171 119.96C126.288 120.405 126.879 120.486 127.797 120.25Z" fill="#CB1010"/>
<path d="M117.937 105.716C117.403 105.135 117.12 104.392 117.129 103.592C117.14 102.676 117.341 102.118 117.948 101.223C118.153 100.919 118.578 100.748 118.929 100.826C119.965 101.058 120.48 101.327 121.092 101.992C121.626 102.572 121.909 103.315 121.899 104.115C121.888 105.09 121.662 105.658 120.961 106.659C120.82 106.86 120.539 106.974 120.303 106.925C119.129 106.681 118.588 106.423 117.937 105.716Z" fill="#CB1010"/>
<path d="M121.468 113.116C120.702 113.244 120.04 113.66 119.578 114.302C119.048 115.038 118.881 115.608 118.838 116.699C118.823 117.069 119.06 117.47 119.386 117.626C120.347 118.088 120.914 118.195 121.792 118.048C122.558 117.919 123.22 117.503 123.683 116.861C124.246 116.078 124.4 115.484 124.429 114.251C124.435 114.003 124.278 113.737 124.061 113.629C122.984 113.09 122.401 112.959 121.468 113.116Z" fill="#CB1010"/>
<path d="M115.746 115.663C116.522 115.63 117.227 115.3 117.761 114.72C118.374 114.055 118.607 113.511 118.777 112.432C118.835 112.067 118.646 111.639 118.341 111.444C117.441 110.866 116.89 110.689 116.002 110.726C115.226 110.759 114.521 111.089 113.986 111.67C113.336 112.376 113.113 112.947 112.939 114.167C112.904 114.413 113.03 114.697 113.232 114.831C114.238 115.499 114.801 115.702 115.746 115.663Z" fill="#CB1010"/>
<path d="M96.1278 108.403C96.6621 107.822 96.9448 107.079 96.9356 106.279C96.925 105.363 96.724 104.805 96.1171 103.91C95.9115 103.606 95.4871 103.435 95.1361 103.513C94.1003 103.745 93.5852 104.014 92.9733 104.679C92.4389 105.259 92.1562 106.002 92.1654 106.802C92.1767 107.777 92.4031 108.345 93.1038 109.346C93.2446 109.547 93.5264 109.661 93.7623 109.612C94.936 109.368 95.4772 109.11 96.1278 108.403Z" fill="#CB1010"/>
<path d="M89.9134 110.716C90.4478 110.135 90.7304 109.392 90.7212 108.592C90.7106 107.676 90.5097 107.118 89.9028 106.223C89.6971 105.919 89.2727 105.748 88.9217 105.826C87.886 106.058 87.3708 106.327 86.7589 106.992C86.2245 107.572 85.9419 108.315 85.9511 109.115C85.9623 110.09 86.1888 110.658 86.8894 111.659C87.0303 111.86 87.3121 111.974 87.5479 111.925C88.7217 111.681 89.2628 111.423 89.9134 110.716Z" fill="#CB1010"/>
<path d="M92.5286 120.251C91.7752 120.057 91.1493 119.587 90.7398 118.907C90.2709 118.128 90.1496 117.547 90.1945 116.455C90.2097 116.086 90.4782 115.706 90.8152 115.578C91.8097 115.2 92.3842 115.141 93.2469 115.363C94.0003 115.557 94.6263 116.027 95.0357 116.707C95.5342 117.535 95.6399 118.14 95.5706 119.371C95.5567 119.619 95.3783 119.871 95.1539 119.96C94.0372 120.405 93.4459 120.486 92.5286 120.251Z" fill="#CB1010"/>
<path d="M102.387 105.716C102.921 105.135 103.204 104.392 103.195 103.592C103.184 102.676 102.983 102.118 102.376 101.223C102.171 100.919 101.746 100.748 101.395 100.826C100.36 101.058 99.8445 101.327 99.2325 101.992C98.6982 102.572 98.4155 103.315 98.4247 104.115C98.436 105.09 98.6624 105.658 99.3631 106.659C99.5039 106.86 99.7857 106.974 100.022 106.925C101.195 106.681 101.736 106.423 102.387 105.716Z" fill="#CB1010"/>
<path d="M98.8559 113.116C99.6223 113.244 100.284 113.66 100.746 114.302C101.276 115.038 101.444 115.608 101.486 116.699C101.501 117.069 101.264 117.47 100.938 117.626C99.9775 118.088 99.4098 118.195 98.5321 118.048C97.7658 117.919 97.1042 117.503 96.6417 116.861C96.0785 116.078 95.9247 115.484 95.8949 114.251C95.8889 114.003 96.0464 113.737 96.2629 113.629C97.3401 113.09 97.9229 112.959 98.8559 113.116Z" fill="#CB1010"/>
<path d="M104.578 115.663C103.802 115.631 103.097 115.3 102.562 114.72C101.95 114.055 101.717 113.511 101.547 112.433C101.489 112.068 101.678 111.64 101.983 111.444C102.882 110.867 103.433 110.69 104.322 110.727C105.098 110.76 105.803 111.09 106.337 111.67C106.988 112.377 107.21 112.947 107.384 114.168C107.419 114.413 107.294 114.697 107.092 114.832C106.086 115.5 105.522 115.703 104.578 115.663Z" fill="#CB1010"/>
<path d="M115.64 108.793C115.285 108.643 115.035 108.291 115.001 107.896C114.994 107.815 114.997 107.734 115.009 107.654L115.027 107.528C115.068 107.251 115.165 106.99 115.311 106.762L115.36 106.686C115.389 106.641 115.421 106.6 115.458 106.561C115.697 106.308 116.064 106.236 116.395 106.376L133.057 113.447C133.699 113.72 134.043 114.478 133.823 115.141C133.604 115.804 132.905 116.12 132.262 115.848L115.64 108.793Z" fill="#CB1010"/>
<path d="M88.0841 113.395C87.7365 113.559 87.4992 113.919 87.4781 114.316C87.4737 114.397 87.4787 114.479 87.493 114.558L87.5155 114.683C87.5652 114.958 87.6703 115.215 87.8239 115.437L87.8745 115.51C87.9049 115.554 87.939 115.595 87.9766 115.632C88.2239 115.875 88.5912 115.933 88.916 115.78L105.352 108.03C105.982 107.733 106.298 106.963 106.058 106.309C105.818 105.656 105.112 105.367 104.482 105.664L88.0841 113.395Z" fill="#CB1010"/>
<path fill-rule="evenodd" clip-rule="evenodd" d="M25.8531 43.787C25.5292 43.1692 25.2623 42.5278 25.0539 41.8704L67.2415 51.9335C67.8823 55.1107 70.5627 56.263 72.1705 56.6723C73.7147 57.0654 75.3493 56.8389 76.7146 56.0427C77.1567 55.7849 77.5588 55.4742 77.9136 55.1204L76.929 62.3408L76.927 62.3414L67.4208 99.6829C66.7413 102.34 65.0183 104.614 62.6296 106.007C60.241 107.4 57.3819 107.798 54.6798 107.113L22.6567 98.9609C19.956 98.2703 17.6351 96.554 16.2033 94.1884C14.7715 91.8229 14.3457 89.0013 15.0194 86.3429L15.384 84.9109L11.0172 83.7992C7.54493 82.9112 4.56103 80.7044 2.72017 77.6631C0.879308 74.6217 0.331832 70.994 1.19786 67.5761L4.8434 53.2559C5.71713 49.8399 7.93255 46.9157 11.0036 45.1247C14.0746 43.3338 17.7505 42.8224 21.2247 43.7028L25.5915 44.8145L25.8531 43.787ZM87.0332 72.7094L83.4329 58.5669L83.5002 58.4996L80.9983 46.4993L77.9983 34.4993L79.6629 28.2388C80.0018 28.3876 80.3337 28.5543 80.6571 28.7387C81.3667 29.1432 82.023 29.6253 82.6146 30.1735L126.486 17.6846L126.619 18.2066L130.803 17.1415C134.132 16.2981 137.67 16.8513 140.641 18.6797C143.612 20.508 145.773 23.4622 146.651 26.8941L150.313 41.2808C151.184 44.7146 150.698 48.3427 148.963 51.3692C147.228 54.3956 144.385 56.5732 141.058 57.4242L136.874 58.4893L137.24 59.928C137.917 62.5987 137.539 65.4206 136.19 67.7746C134.84 70.1285 132.629 71.8221 130.042 72.4839L99.3594 80.2948C96.7704 80.9509 94.0185 80.5207 91.7077 79.0986C89.3968 77.6765 87.7157 75.3787 87.0332 72.7094ZM7.86301 74.6639C6.83996 72.9737 6.5368 70.9573 7.02023 69.0583L10.6658 54.7381C11.1492 52.8392 12.3796 51.2132 14.0863 50.2179C15.7931 49.2226 17.8363 48.9395 19.7665 49.4309L24.1333 50.5425L16.8422 79.1828L12.4754 78.0711C10.5452 77.5798 8.88605 76.3541 7.86301 74.6639ZM144.735 42.701C145.221 44.6088 144.952 46.6254 143.987 48.3074C143.023 49.9893 141.442 51.1987 139.593 51.6695L135.409 52.7346L128.084 23.9613L132.268 22.8962C134.117 22.4253 136.084 22.7317 137.735 23.7478C139.386 24.7639 140.587 26.4065 141.072 28.3143L144.735 42.701ZM50.7596 88.7571C51.0109 90.181 50.8434 90.7673 50.2571 90.3485C49.7545 90.0135 48.917 90.5998 48.4144 91.5211C46.3205 95.3739 52.686 99.478 55.785 96.379C56.9576 95.2064 57.1251 92.3587 56.12 92.3587C55.7013 92.3587 54.9474 91.4373 54.4449 90.3485C53.9424 89.1759 52.7698 87.9196 51.9322 87.417C50.5083 86.6632 50.4246 86.8307 50.7596 88.7571ZM53.021 91.5211C52.7698 91.9399 52.9373 92.3587 53.3561 92.3587C53.8586 92.3587 54.2774 93.1125 54.2774 94.0338C54.2774 95.7089 51.5134 96.4627 50.6759 95.0389C50.0896 94.1176 51.5972 90.6835 52.6023 90.6835C53.1048 90.6835 53.2723 91.0186 53.021 91.5211ZM39.2571 84.3485C39.8434 84.7673 40.0109 84.181 39.7596 82.7571C39.4246 80.8307 39.5083 80.6632 40.9322 81.417C41.7698 81.9196 42.9424 83.1759 43.4449 84.3485C43.9474 85.4373 44.7013 86.3587 45.12 86.3587C46.1251 86.3587 45.9576 89.2064 44.785 90.379C41.686 93.478 35.3205 89.3739 37.4144 85.5211C37.917 84.5998 38.7545 84.0135 39.2571 84.3485ZM42.3561 86.3587C41.9373 86.3587 41.7698 85.9399 42.021 85.5211C42.2723 85.0186 42.1048 84.6835 41.6023 84.6835C40.5972 84.6835 39.0896 88.1176 39.6759 89.0389C40.5134 90.4627 43.2774 89.7089 43.2774 88.0338C43.2774 87.1125 42.8586 86.3587 42.3561 86.3587ZM104.565 43.195C103.308 43.865 101.633 44.4513 100.879 44.4513C99.7068 44.4513 99.7068 44.6188 100.879 45.8752C101.633 46.7127 102.471 49.4767 102.722 52.1569L103.308 56.8473L108.25 57.4336C111.014 57.7686 113.694 58.5224 114.197 59.1925C115.034 60.2813 115.453 59.9463 116.374 57.2661C118.385 51.9057 118.552 51.1518 117.547 51.1518C117.044 51.1518 116.626 51.7381 116.626 52.4082C116.626 54.5021 116.458 54.9209 115.034 55.8422C113.61 56.931 107.161 56.261 107.245 55.0884C107.245 54.6696 108.334 53.162 109.674 51.7381C114.951 45.9589 113.778 46.0427 107.245 51.9057C104.732 54.0833 104.565 53.9996 103.727 48.5554C103.225 45.9589 103.476 45.4564 105.319 44.6188C106.491 44.0325 108.083 43.6137 108.753 43.6137C109.423 43.6137 109.758 43.195 109.506 42.7762C108.753 41.6036 107.412 41.7711 104.565 43.195ZM117.212 48.6394C117.044 48.6394 116.207 47.8856 115.369 46.9643C114.531 46.0429 114.28 45.2891 114.783 45.2891C115.285 45.2891 116.123 46.0429 116.625 46.9643C117.128 47.8856 117.379 48.6394 117.212 48.6394Z" fill="url(#paint0_linear_315_70)"/>
<path d="M117.349 1.71652L75.6206 13.1971C73.9606 13.6538 72.5674 14.8148 71.7476 16.4247C70.9278 18.0346 70.7486 19.9615 71.2493 21.7816L73.7667 30.9314C74.3534 33.0483 75.5919 34.9137 77.2707 36.2094C78.9495 37.5051 80.9647 38.1509 82.9726 38.0366C84.9805 37.9223 86.8568 37.055 88.2812 35.5826C89.7057 34.1102 90.5903 32.1239 90.784 29.9625C91.7043 30.4524 92.7642 30.6259 93.8033 30.34C95.2158 29.9514 96.2466 28.8361 96.6778 27.4503C97.7848 28.5414 99.1157 29.3249 100.547 29.7282C101.978 30.1315 103.463 30.1415 104.865 29.7573C106.15 29.4003 107.328 28.7206 108.304 27.7718C109.28 26.8231 110.028 25.6312 110.489 24.2903C111.163 25.258 112.083 25.9963 113.127 26.4084C114.171 26.8206 115.291 26.8874 116.34 26.6002C118.32 26.0554 119.686 24.3632 120.078 22.3385C121.032 22.5561 122.027 22.5751 123.013 22.3036C124.673 21.8469 126.067 20.6859 126.886 19.076C127.706 17.4661 127.885 15.5392 127.385 13.7192L125.497 6.8568C124.996 5.03679 123.856 3.47275 122.328 2.50876C120.8 1.54478 119.009 1.2598 117.349 1.71652Z" fill="#F7F7F7"/>
<path d="M34.3886 27.5069L77.6635 37.5535C79.3851 37.9532 80.8666 39.067 81.7821 40.6498C82.6976 42.2326 82.9721 44.1548 82.5452 45.9935L80.3992 55.2375C79.8982 57.3763 78.718 59.286 77.0599 60.6407C75.4018 61.9955 73.3686 62.7115 71.307 62.6665C69.2453 62.6215 67.283 61.8184 65.7548 60.3941C64.2265 58.9698 63.2269 57.0126 62.9265 54.8563C62.0072 55.3784 60.93 55.5886 59.8524 55.3384C58.3876 54.9983 57.2793 53.9178 56.7723 52.5458C55.6901 53.676 54.3642 54.5062 52.9176 54.9593C51.471 55.4124 49.9505 55.4738 48.4972 55.1377C47.1637 54.8248 45.926 54.1853 44.8818 53.2696C43.8375 52.3538 43.0152 51.1869 42.4798 49.8609C41.8348 50.8527 40.928 51.6233 39.8783 52.0719C38.8285 52.5205 37.6847 52.6261 36.5966 52.3749C34.5432 51.8982 33.0646 50.2519 32.5673 48.2391C31.6015 48.4899 29.4879 49.7528 28.4644 49.5152C26.7428 49.1155 25.4592 48.2631 24.5437 46.6803C23.6282 45.0975 24.2514 41.7045 24.6783 39.8658L26.2878 32.9328C26.7147 31.0941 27.808 29.4894 29.3272 28.4719C30.8464 27.4543 32.667 27.1072 34.3886 27.5069Z" fill="#F7F7F7"/>
<defs>
<linearGradient id="paint0_linear_315_70" x1="51.3716" y1="34.7487" x2="70.606" y2="91.3412" gradientUnits="userSpaceOnUse">
<stop offset="0.0727603" stop-color="#EA1A1A"/>
<stop offset="1" stop-color="#861616"/>
</linearGradient>
</defs>
</svg>
