<svg width="53" height="53" viewBox="0 0 53 53" fill="none" xmlns="http://www.w3.org/2000/svg">
<path d="M52.9999 5.04704V2.52473C52.9999 1.8285 52.4362 1.26236 51.7375 1.26236H46.6906C46.1919 1.26236 45.7896 1.29609 45.4282 1.38764V1.26236C45.4282 0.566137 44.8645 0 44.1659 0H36.5942C34.4068 0 33.6142 1.24068 33.1516 2.52473H32.1278C31.8339 2.13205 31.5496 1.62373 31.5496 1.26236C31.5472 0.566137 30.9835 0 30.2849 0H21.4508C20.8052 0 20.2656 0.496273 20.1957 1.13468C20.1668 1.39968 19.6296 2.52232 18.7961 2.52232H15.3391C15.2572 2.42595 15.1391 2.24527 15.0355 2.014C14.8332 1.55627 14.3803 1.25995 13.8792 1.25995H1.26294C0.56431 1.26236 0.00059004 1.8285 0.00059004 2.52473V12.6188C0.00059004 16.1819 1.0413 20.6917 1.26053 21.5999L1.25089 23.5127L0.395676 24.3222C0.142725 24.5583 0.00059004 24.8907 0.00059004 25.2376V30.2847C0.00059004 30.6195 0.133088 30.94 0.369176 31.176L1.26053 32.0674V37.6493L0.0656345 41.2436C-0.0114554 41.4725 -0.021092 41.7158 0.0391345 41.9495L1.21235 46.6424L0.0680434 50.0802C-0.0620458 50.4656 0.00299884 50.8896 0.241496 51.2173C0.477583 51.5449 0.858215 51.74 1.26294 51.74H18.9286C19.2634 51.74 19.5838 51.6075 19.8199 51.3715L19.9331 51.2582C20.6053 52.1713 21.5376 53 22.7156 53H26.5002C27.4301 53 28.242 52.5953 28.9575 52.2363C29.4465 51.9906 29.9524 51.7376 30.2873 51.7376H36.5966C36.9315 51.7376 37.2519 51.6051 37.488 51.369L37.7939 51.0631C37.8734 51.1643 37.9481 51.263 38.0228 51.3594C38.6443 52.1665 39.2827 53 40.3812 53H46.6906C47.3892 53 47.9529 52.4363 47.9529 51.7376V50.8318L51.434 51.6991C51.8122 51.7955 52.2121 51.7087 52.5181 51.4678C52.824 51.2269 53.0023 50.8583 52.9999 50.468C52.9975 50.3452 52.9204 37.9625 52.9999 31.5639C53.0047 31.2242 52.8698 30.8966 52.6313 30.6557L51.7399 29.7643V23.9777C51.7399 23.6428 51.6074 23.3224 51.3713 23.0863L50.7522 22.4672L51.5159 20.9398L52.6337 19.822C52.8674 19.5859 52.9999 19.2631 52.9999 18.9282L52.9806 12.6068C52.9806 12.5056 52.9686 12.4044 52.9445 12.3032L51.8146 7.72114L52.8674 5.61318C52.9541 5.43732 52.9999 5.24218 52.9999 5.04704ZM37.9698 10.0965L41.8098 12.6212L40.5282 20.193L30.2849 12.6212L37.9698 10.0965ZM13.8816 42.9059L8.83461 39.1212L11.3593 30.2871L21.4533 40.3812L13.8816 42.9059ZM40.6342 41.6435H34.744L8.83461 11.2649L13.5443 10.0965L44.1659 33.4647L40.6342 41.6435Z" fill="#B41414"/>
</svg>
