<svg width="60" height="61" viewBox="0 0 60 61" fill="none" xmlns="http://www.w3.org/2000/svg">
<path fill-rule="evenodd" clip-rule="evenodd" d="M3.1168 21.2999C3.0502 21.2662 2.98403 21.2316 2.91831 21.1961L3.73182 19.7282L42.6002 14.2099L42.631 14.5847L45.9474 14.3123C48.5855 14.0988 51.2064 15.0101 53.2349 16.8461C55.2635 18.6822 56.5342 21.2931 56.7681 24.1061L57.7363 35.8959C57.9644 38.7093 57.1368 41.4926 55.4349 43.635C53.733 45.7774 51.296 47.104 48.6584 47.3238L45.342 47.5961L45.4388 48.7751C45.6163 50.9633 44.9726 53.1281 43.6489 54.7945C42.3252 56.4608 40.4296 57.4926 38.3782 57.6634L14.0576 59.6607C12.0057 59.8268 9.96727 59.1181 8.38946 57.6901C6.81166 56.262 5.82339 54.2312 5.64151 52.0433L3.1168 21.2999ZM53.3144 36.259C53.4428 37.8224 52.9836 39.3697 52.0378 40.5603C51.092 41.7509 49.7371 42.4875 48.2711 42.6078L44.9547 42.8802L43.0183 19.3006L46.3347 19.0282C47.8007 18.9079 49.2576 19.4135 50.385 20.4339C51.5123 21.4542 52.2178 22.9058 52.3462 24.4692L53.3144 36.259Z" fill="#855E42"/>
<path d="M34.0686 43.007C34.4283 44.2409 34.2996 44.7717 33.6703 44.4518C33.1327 44.1987 32.3195 44.7857 31.8727 45.6399C30.0124 49.2113 36.8126 52.2945 39.7543 49.3031C40.8673 48.1712 40.8324 45.6473 39.8056 45.7316C39.3777 45.7667 38.5409 45.018 37.9487 44.1005C37.3504 43.1091 36.0616 42.1002 35.1695 41.7275C33.6603 41.1826 33.5869 41.3373 34.0686 43.007ZM36.5789 45.2534C36.3526 45.6436 36.554 45.9986 36.9818 45.9635C37.4952 45.9213 37.9776 46.5506 38.0443 47.3626C38.1656 48.839 35.3964 49.7353 34.4377 48.5506C33.772 47.7878 35.0637 44.6347 36.0905 44.5503C36.6039 44.5082 36.7993 44.7894 36.5789 45.2534Z" fill="white"/>
<path d="M23.4096 39.2374C23.7409 40.4736 23.6312 41.0028 23.0684 40.6774C22.5878 40.4196 21.8697 40.9988 21.48 41.8483C19.8574 45.4002 25.935 48.5427 28.5249 45.5803C29.5048 44.4593 29.4508 41.9369 28.5381 42.0119C28.1578 42.0431 27.4066 41.2873 26.8714 40.3651C26.3302 39.3691 25.1744 38.3492 24.3775 37.9688C23.0299 37.4106 22.9659 37.5645 23.4096 39.2374ZM25.6633 41.5048C25.4654 41.8926 25.6478 42.2492 26.0281 42.218C26.4845 42.1805 26.9194 42.8137 26.9861 43.6257C27.1073 45.1021 24.6519 45.9726 23.7882 44.7802C23.1891 44.0119 24.3096 40.8728 25.2224 40.7978C25.6787 40.7603 25.8551 41.0431 25.6633 41.5048Z" fill="white"/>
<path d="M37.8237 2.05983L5.23669 4.15624C3.9403 4.23964 2.73348 4.88669 1.88173 5.95505C1.02998 7.0234 0.603059 8.42555 0.694893 9.85303L1.15657 17.0295C1.26662 18.6905 1.89658 20.2652 2.939 21.485C3.98143 22.7047 5.37175 23.494 6.87282 23.7182C8.37389 23.9424 9.89273 23.5876 11.1703 22.7144C12.4478 21.8411 13.405 20.5034 13.8784 18.9296C14.4835 19.4347 15.2402 19.7265 16.0516 19.6743C17.1547 19.6033 18.0867 18.9345 18.6171 17.9725C19.2684 18.9525 20.132 19.7387 21.1278 20.2582C22.1237 20.7777 23.2195 21.0137 24.3138 20.9443C25.3183 20.8772 26.292 20.5541 27.1582 20.0003C28.0243 19.4466 28.7591 18.6774 29.3047 17.7534C29.6552 18.5752 30.2217 19.2645 30.9302 19.731C31.6386 20.1975 32.456 20.4194 33.2752 20.3678C34.8215 20.2683 36.0893 19.2229 36.6886 17.781C36.9806 17.9151 37.1523 18.0956 37.3774 18.2922C38.2396 19.0453 39.5199 19.112 40.582 18.6846C41.3308 18.3833 42.0256 17.916 42.5167 17.3001C43.3684 16.2318 43.4962 13.9375 43.4043 12.51L43.0581 7.12769C42.9662 5.70021 42.3632 4.36433 41.3815 3.41392C40.3999 2.46351 39.1201 1.97643 37.8237 2.05983Z" fill="#D3B199"/>
</svg>
