<svg width="161" height="134" viewBox="0 0 161 134" fill="none" xmlns="http://www.w3.org/2000/svg">
<path d="M127.198 120.403C126.664 119.823 126.381 119.08 126.39 118.279C126.401 117.363 126.602 116.806 127.209 115.91C127.414 115.607 127.839 115.435 128.19 115.514C129.225 115.746 129.74 116.014 130.352 116.679C130.887 117.26 131.169 118.003 131.16 118.803C131.149 119.777 130.923 120.346 130.222 121.346C130.081 121.547 129.799 121.661 129.563 121.612C128.39 121.369 127.848 121.11 127.198 120.403Z" fill="#CB1010"/>
<path d="M132.413 123.091C131.879 122.51 131.596 121.767 131.605 120.967C131.616 120.051 131.817 119.493 132.424 118.598C132.63 118.294 133.054 118.123 133.405 118.201C134.441 118.433 134.956 118.702 135.568 119.367C136.102 119.947 136.385 120.69 136.376 121.49C136.364 122.465 136.138 123.033 135.437 124.034C135.296 124.235 135.015 124.349 134.779 124.3C133.605 124.056 133.064 123.798 132.413 123.091Z" fill="#CB1010"/>
<path d="M130.799 132.251C131.552 132.057 132.178 131.587 132.587 130.907C133.056 130.129 133.178 129.547 133.133 128.456C133.117 128.086 132.849 127.707 132.512 127.578C131.517 127.201 130.943 127.142 130.08 127.364C129.327 127.557 128.701 128.028 128.291 128.707C127.793 129.535 127.687 130.14 127.757 131.372C127.77 131.619 127.949 131.871 128.173 131.961C129.29 132.406 129.881 132.487 130.799 132.251Z" fill="#CB1010"/>
<path d="M120.939 117.717C120.405 117.136 120.122 116.393 120.131 115.593C120.142 114.676 120.343 114.119 120.95 113.223C121.155 112.92 121.58 112.748 121.931 112.827C122.967 113.059 123.482 113.328 124.094 113.992C124.628 114.573 124.911 115.316 124.901 116.116C124.89 117.09 124.664 117.659 123.963 118.659C123.822 118.86 123.54 118.974 123.305 118.925C122.131 118.682 121.59 118.423 120.939 117.717Z" fill="#CB1010"/>
<path d="M124.47 125.116C123.704 125.245 123.042 125.66 122.58 126.303C122.05 127.039 121.882 127.608 121.84 128.7C121.825 129.069 122.062 129.47 122.388 129.627C123.349 130.088 123.916 130.196 124.794 130.048C125.56 129.919 126.222 129.504 126.685 128.861C127.248 128.079 127.402 127.485 127.431 126.251C127.437 126.004 127.28 125.737 127.063 125.629C125.986 125.091 125.403 124.959 124.47 125.116Z" fill="#CB1010"/>
<path d="M118.748 127.664C119.524 127.631 120.229 127.301 120.763 126.72C121.375 126.056 121.608 125.512 121.779 124.433C121.836 124.068 121.648 123.64 121.343 123.445C120.443 122.867 119.892 122.69 119.004 122.727C118.228 122.76 117.523 123.09 116.988 123.671C116.338 124.377 116.115 124.948 115.941 126.168C115.906 126.414 116.032 126.698 116.234 126.832C117.24 127.5 117.803 127.703 118.748 127.664Z" fill="#CB1010"/>
<path d="M99.1297 120.403C99.6641 119.823 99.9468 119.08 99.9375 118.279C99.9269 117.363 99.726 116.806 99.1191 115.91C98.9134 115.607 98.489 115.435 98.138 115.514C97.1023 115.746 96.5871 116.014 95.9752 116.679C95.4409 117.26 95.1582 118.003 95.1674 118.803C95.1786 119.777 95.4051 120.346 96.1058 121.346C96.2466 121.547 96.5284 121.661 96.7642 121.612C97.938 121.369 98.4791 121.11 99.1297 120.403Z" fill="#CB1010"/>
<path d="M92.9154 122.717C93.4497 122.136 93.7324 121.393 93.7232 120.593C93.7126 119.677 93.5116 119.119 92.9047 118.224C92.6991 117.92 92.2747 117.749 91.9237 117.827C90.8879 118.059 90.3728 118.328 89.7609 118.993C89.2265 119.573 88.9438 120.316 88.953 121.116C88.9643 122.091 89.1907 122.659 89.8914 123.66C90.0322 123.861 90.314 123.975 90.5499 123.926C91.7236 123.682 92.2648 123.424 92.9154 122.717Z" fill="#CB1010"/>
<path d="M95.5306 132.251C94.7772 132.057 94.1512 131.587 93.7418 130.907C93.2729 130.129 93.1516 129.547 93.1965 128.456C93.2117 128.086 93.4802 127.707 93.8172 127.578C94.8117 127.201 95.3861 127.142 96.2489 127.364C97.0023 127.557 97.6282 128.028 98.0377 128.707C98.5362 129.535 98.6418 130.14 98.5725 131.372C98.5586 131.619 98.3803 131.871 98.1559 131.961C97.0391 132.406 96.4478 132.487 95.5306 132.251Z" fill="#CB1010"/>
<path d="M105.389 117.717C105.923 117.136 106.206 116.393 106.197 115.593C106.186 114.676 105.985 114.119 105.378 113.223C105.173 112.92 104.748 112.748 104.397 112.827C103.362 113.059 102.846 113.328 102.234 113.992C101.7 114.573 101.417 115.316 101.427 116.116C101.438 117.09 101.664 117.659 102.365 118.659C102.506 118.86 102.788 118.974 103.024 118.925C104.197 118.682 104.738 118.423 105.389 117.717Z" fill="#CB1010"/>
<path d="M101.858 125.116C102.624 125.245 103.286 125.66 103.748 126.303C104.278 127.039 104.446 127.608 104.488 128.7C104.503 129.069 104.266 129.47 103.94 129.627C102.979 130.088 102.412 130.196 101.534 130.048C100.768 129.919 100.106 129.504 99.6436 128.861C99.0804 128.079 98.9266 127.485 98.8968 126.251C98.8908 126.004 99.0483 125.737 99.2648 125.629C100.342 125.091 100.925 124.959 101.858 125.116Z" fill="#CB1010"/>
<path d="M107.58 127.664C106.804 127.631 106.099 127.301 105.564 126.72C104.952 126.056 104.719 125.512 104.549 124.433C104.491 124.068 104.68 123.64 104.985 123.445C105.884 122.867 106.435 122.69 107.324 122.727C108.1 122.76 108.805 123.09 109.339 123.671C109.99 124.377 110.212 124.948 110.386 126.168C110.421 126.414 110.296 126.698 110.094 126.832C109.088 127.5 108.524 127.703 107.58 127.664Z" fill="#CB1010"/>
<path d="M118.642 120.794C118.287 120.644 118.037 120.292 118.003 119.897C117.996 119.816 117.999 119.735 118.011 119.655L118.029 119.529C118.07 119.252 118.167 118.991 118.313 118.763L118.362 118.687C118.391 118.642 118.423 118.601 118.46 118.562C118.699 118.309 119.066 118.237 119.397 118.377L136.058 125.448C136.701 125.721 137.044 126.479 136.825 127.142C136.606 127.805 135.907 128.121 135.264 127.849L118.642 120.794Z" fill="#CB1010"/>
<path d="M91.0861 125.396C90.7385 125.559 90.5012 125.92 90.48 126.316C90.4756 126.398 90.4807 126.48 90.495 126.559L90.5175 126.684C90.5671 126.959 90.6723 127.216 90.8258 127.438L90.8764 127.511C90.9068 127.555 90.941 127.595 90.9785 127.632C91.2259 127.875 91.5932 127.933 91.918 127.78L108.354 120.031C108.984 119.734 109.3 118.963 109.06 118.31C108.819 117.656 108.114 117.367 107.484 117.664L91.0861 125.396Z" fill="#CB1010"/>
<path fill-rule="evenodd" clip-rule="evenodd" d="M135.18 28.7924L139.781 27.6211C143.441 26.6933 147.297 27.1656 150.503 28.9342C153.708 30.7029 156.001 33.6235 156.879 37.0554L160.542 51.442C161.412 54.8759 160.794 58.5376 158.825 61.6238C156.855 64.7099 153.694 66.9684 150.036 67.9038L145.435 69.0751L145.801 70.5137C146.478 73.1846 145.997 76.0326 144.465 78.4329C142.933 80.8333 140.475 82.5899 137.629 83.3174L103.89 91.9066C101.043 92.6283 98.0438 92.2611 95.5506 90.8854C93.0573 89.5098 91.2736 87.2381 90.5909 84.5688L86.873 69.9647C86.3653 70.6622 85.7751 71.3056 85.111 71.8823C83.6681 73.1353 81.9182 74.0375 80.0056 74.5146L70.4994 111.856C69.8197 114.513 68.0391 116.773 65.548 118.14C63.057 119.507 60.0591 119.869 57.2122 119.147L23.4726 110.558C20.6271 109.831 18.1674 108.079 16.6332 105.687C15.099 103.296 14.6157 100.46 15.2892 97.8011L15.6537 96.3691L11.0529 95.1978C7.39445 94.2624 4.23206 92.0102 2.25955 88.9353C0.28705 85.8604 -0.334473 82.2139 0.531343 78.7959L4.17689 64.4758C5.05082 61.0598 7.34029 58.1544 10.543 56.397C13.7457 54.6395 17.6 54.1736 21.2604 55.1014L25.8613 56.2727L26.1228 55.2452C24.992 53.2183 24.4893 50.9482 24.674 48.7022C24.8586 46.4561 25.7228 44.3275 27.165 42.5669C28.6072 40.8063 30.5673 39.4869 32.8146 38.764C35.0619 38.0411 37.5029 37.9448 39.8504 38.4864C41.6409 35.5458 44.2001 33.0985 47.2944 31.3679C49.716 30.0023 52.4202 29.1177 55.2467 28.7663C58.0732 28.4149 60.9645 28.604 63.7493 29.3223C66.9253 30.1308 69.8097 31.5832 72.2689 33.5756C72.6086 31.9502 73.3001 30.3961 74.3025 29.0133C72.9463 27.4707 72.1095 25.5725 71.8955 23.5529C71.6815 21.5333 72.0995 19.4806 73.0981 17.6477C74.0966 15.8149 75.632 14.2822 77.5149 13.2385C79.3978 12.1948 81.546 11.6858 83.6944 11.7743C86.7369 6.71048 91.5174 3.142 97.2512 1.68232C100.036 0.963967 102.928 0.777291 105.756 1.13335C108.583 1.48941 111.289 2.38096 113.713 3.75516C116.81 5.49671 119.373 7.95752 121.167 10.913C123.515 10.3717 125.956 10.4711 128.205 11.1996C130.454 11.9282 132.416 13.2555 133.861 15.0254C135.305 16.7953 136.172 18.9341 136.359 21.1902C136.546 23.4463 136.046 25.7257 134.917 27.7601L135.18 28.7924ZM84.5254 41.4935C84.1945 41.2624 83.8499 41.0475 83.4928 40.8501C82.3596 40.2236 81.1306 39.7898 79.8636 39.5622C79.2109 38.8661 78.7411 38.0215 78.5047 37.0928C78.1162 35.5666 78.3898 33.9383 79.2655 32.5662C80.1412 31.1942 81.5472 30.1906 83.1742 29.7765C83.1914 29.7721 84.9381 29.3925 86.5836 30.0191C86.9636 30.1638 87.3722 30.2354 87.7863 30.2299C88.2004 30.2243 88.6117 30.1417 88.9969 29.9867C89.382 29.8318 89.7334 29.6076 90.031 29.3268C90.3286 29.0461 90.5665 28.7143 90.7312 28.3505C90.896 27.9867 90.9842 27.5979 90.991 27.2065C90.9978 26.815 90.923 26.4284 90.7708 26.0688C90.6186 25.7093 90.392 25.3838 90.104 25.1109C89.816 24.838 89.4722 24.6231 89.0923 24.4784C86.7589 23.6248 84.1854 23.4657 81.7092 24.0218C80.8063 24.2522 79.9303 24.576 79.0972 24.9874C78.6257 24.4082 78.3177 23.7228 78.2009 22.9929C78.084 22.263 78.1621 21.5115 78.428 20.8061C78.6939 20.1008 79.1393 19.4637 79.7241 18.9523C80.3088 18.4409 81.0146 18.0713 81.7778 17.8767C82.5016 17.689 83.257 17.6658 83.9815 17.809C84.7059 17.9523 85.3785 18.2579 85.9435 18.7005C86.403 19.0597 86.8262 19.4583 87.2081 19.8913C87.478 20.6034 88.0301 21.1819 88.7504 21.5075C89.4707 21.833 90.3042 21.8807 91.0789 21.6407C91.8536 21.4008 92.5103 20.8914 92.9135 20.2179C93.3167 19.5443 93.4356 18.7579 93.2456 18.0211C92.9357 16.8036 91.8591 15.4692 90.0384 14.0504C89.9778 14.0033 89.9132 13.9578 89.8491 13.9127C89.7895 13.8707 89.7303 13.829 89.6752 13.7866C91.8469 10.6104 95.0048 8.38181 98.7162 7.437C100.687 6.92954 102.734 6.79847 104.735 7.05152C106.736 7.30457 108.65 7.93662 110.365 8.91018C112.51 10.1299 114.297 11.8291 115.575 13.8643C116.852 15.8995 117.583 18.2107 117.706 20.6026C117.725 20.993 117.826 21.3737 118.002 21.7229C118.178 22.072 118.426 22.3829 118.732 22.6376C119.038 22.8924 119.396 23.0861 119.786 23.2076C120.176 23.3292 120.589 23.3762 121.003 23.346C121.201 23.3312 121.398 23.299 121.591 23.25C122.304 23.0677 122.935 22.6581 123.376 22.0916C123.816 21.5251 124.039 20.8371 124.005 20.1459C123.946 18.9349 123.774 17.7343 123.492 16.5579C125.06 16.4453 126.598 16.8884 127.806 17.8005C129.013 18.7127 129.804 20.0285 130.023 21.4907C130.243 22.953 129.874 24.4566 128.991 25.708C128.107 26.9593 126.772 27.8684 125.246 28.2576C123.649 28.6641 121.069 28.3289 119.611 27.5262C118.899 27.1329 118.042 27.028 117.228 27.2347L93.8409 33.1886C93.2128 33.3499 92.6465 33.6882 92.2184 34.1578C91.7903 34.6274 91.5212 35.2057 91.4474 35.8143C90.9933 39.5069 87.9062 40.8271 86.1041 41.2858C85.5828 41.4185 85.0524 41.4873 84.5254 41.4935ZM77.1931 45.3651C77.1396 45.3737 77.0863 45.3832 77.0331 45.3936C76.309 45.5355 75.637 45.839 75.0726 46.279C74.6136 46.6362 74.191 47.0326 73.8097 47.4633C73.5407 48.172 72.9894 48.7474 72.2696 49.0707C71.5499 49.394 70.7167 49.4406 69.9419 49.2008C69.1672 48.9611 68.51 48.4532 68.1062 47.7821C67.7024 47.111 67.5827 46.3279 67.7718 45.5945C68.0803 44.3827 69.1551 43.0552 70.9737 41.6446C71.0343 41.5978 71.0988 41.5526 71.1627 41.5077C71.2223 41.4659 71.2815 41.4245 71.3365 41.3824C69.1619 38.2176 66.0024 35.9951 62.2911 35.0503C60.32 34.5429 58.2738 34.4101 56.2736 34.6599C54.2735 34.9096 52.3601 35.5368 50.6471 36.5042C48.504 37.7163 46.7195 39.4062 45.4444 41.4311C44.1692 43.456 43.441 45.7564 43.3213 48.1378C43.3025 48.5265 43.2024 48.9054 43.0268 49.2528C42.8511 49.6003 42.6034 49.9095 42.2976 50.1628C41.9918 50.4161 41.634 50.6086 41.2446 50.7292C40.8552 50.8498 40.4419 50.8961 40.0283 50.8656C39.8302 50.8506 39.6334 50.8184 39.4404 50.7693C38.7274 50.5871 38.0961 50.1786 37.6549 49.6141C37.2137 49.0495 36.9903 48.3643 37.0231 47.6761C37.0814 46.4704 37.2517 45.2752 37.5323 44.1042C35.9648 43.9904 34.4277 44.4298 33.2212 45.3367C32.0148 46.2436 31.2257 47.5527 31.0082 49.0084C30.7907 50.4641 31.1604 51.9616 32.045 53.2085C32.9297 54.4554 34.2657 55.362 35.7921 55.7511C37.3889 56.1577 39.9676 55.8268 41.424 55.0292C42.1357 54.6383 42.9924 54.5349 43.8059 54.7416L67.1935 60.6955C67.8215 60.8568 68.3881 61.1943 68.8166 61.6623C69.245 62.1304 69.5147 62.7064 69.5892 63.3124C70.0473 66.9895 73.135 68.3073 74.937 68.7661C76.5639 69.1803 78.2779 68.974 79.7018 68.1926C81.1257 67.4113 82.1429 66.1189 82.5296 64.5997C82.9164 63.0805 82.641 61.459 81.764 60.0919C80.8871 58.7249 79.4804 57.7241 77.8534 57.31C77.8362 57.3056 76.0896 56.9257 74.4452 57.5478C74.0655 57.6914 73.657 57.7623 73.2431 57.7563C72.8291 57.7503 72.4178 57.6676 72.0326 57.5129C71.6474 57.3582 71.2958 57.1345 70.998 56.8547C70.7002 56.5748 70.462 56.2442 70.2969 55.8818C70.1318 55.5194 70.0431 55.1323 70.0359 54.7425C70.0287 54.3527 70.1031 53.9679 70.2548 53.6101C70.4066 53.2522 70.6327 52.9284 70.9203 52.657C71.2079 52.3856 71.5514 52.172 71.9311 52.0284C74.2629 51.1811 76.8354 51.0255 79.3116 51.5819C80.2145 51.8123 81.0906 52.1357 81.9239 52.5462C82.0643 52.3743 82.1902 52.1931 82.3007 52.0041L81.0405 47.0538C79.6546 46.7052 78.3538 46.1329 77.1931 45.3651ZM153.456 58.6619C154.551 56.9468 154.893 54.9115 154.407 53.0037L150.745 38.617C150.259 36.7092 148.986 35.0853 147.204 34.1023C145.423 33.1194 143.279 32.8581 141.246 33.3758L136.645 34.5471L143.97 63.3204L148.571 62.1491C150.604 61.6314 152.362 60.377 153.456 58.6619ZM7.62284 85.9923C6.52664 84.2834 6.18238 82.2566 6.66581 80.3576L10.3114 66.0374C10.7948 64.1385 12.0663 62.5229 13.8462 61.5463C15.6261 60.5696 17.7685 60.3117 19.8022 60.8295L24.403 62.0007L17.112 90.641L12.5111 89.4698C10.4774 88.952 8.71905 87.7011 7.62284 85.9923ZM52.7596 103.757C53.0109 105.181 52.8434 105.767 52.2571 105.348C51.7545 105.013 50.917 105.599 50.4144 106.521C48.3205 110.374 54.686 114.478 57.785 111.379C58.9576 110.206 59.1251 107.358 58.12 107.358C57.7012 107.358 56.9474 106.437 56.4449 105.348C55.9424 104.176 54.7698 102.919 53.9322 102.417C52.5083 101.663 52.4246 101.83 52.7596 103.757ZM55.021 106.521C54.7698 106.94 54.9373 107.358 55.3561 107.358C55.8586 107.358 56.2774 108.112 56.2774 109.034C56.2774 110.709 53.5134 111.462 52.6759 110.039C52.0896 109.117 53.5972 105.683 54.6023 105.683C55.1048 105.683 55.2723 106.018 55.021 106.521ZM41.2571 99.3482C41.8434 99.767 42.0109 99.1807 41.7596 97.7569C41.4246 95.8304 41.5083 95.6629 42.9322 96.4167C43.7698 96.9193 44.9424 98.1756 45.4449 99.3482C45.9474 100.437 46.7012 101.358 47.12 101.358C48.1251 101.358 47.9576 104.206 46.785 105.379C43.686 108.478 37.3205 104.374 39.4144 100.521C39.917 99.5995 40.7545 99.0132 41.2571 99.3482ZM44.3561 101.358C43.9373 101.358 43.7698 100.94 44.021 100.521C44.2723 100.018 44.1048 99.6833 43.6023 99.6833C42.5972 99.6833 41.0896 103.117 41.6759 104.039C42.5134 105.462 45.2774 104.709 45.2774 103.034C45.2774 102.112 44.8586 101.358 44.3561 101.358ZM111.312 55.4765C110.056 56.1466 108.381 56.7329 107.627 56.7329C106.454 56.7329 106.454 56.9004 107.627 58.1567C108.381 58.9943 109.218 61.7583 109.469 64.4385L110.056 69.1289L114.997 69.7152C117.761 70.0502 120.441 70.804 120.944 71.474C121.782 72.5629 122.2 72.2278 123.122 69.5476C125.132 64.1872 125.299 63.4334 124.294 63.4334C123.792 63.4334 123.373 64.0197 123.373 64.6898C123.373 66.7837 123.205 67.2024 121.782 68.1238C120.358 69.2126 113.908 68.5426 113.992 67.37C113.992 66.9512 115.081 65.4436 116.421 64.0197C121.698 58.2405 120.525 58.3243 113.992 64.1872C111.48 66.3649 111.312 66.2811 110.474 60.8369C109.972 58.2405 110.223 57.738 112.066 56.9004C113.238 56.3141 114.83 55.8953 115.5 55.8953C116.17 55.8953 116.505 55.4765 116.254 55.0577C115.5 53.8852 114.16 54.0527 111.312 55.4765ZM123.959 60.9208C123.792 60.9208 122.954 60.167 122.117 59.2456C121.279 58.3243 121.028 57.5705 121.53 57.5705C122.033 57.5705 122.87 58.3243 123.373 59.2456C123.875 60.167 124.127 60.9208 123.959 60.9208Z" fill="url(#paint0_linear_304_225)"/>
<defs>
<linearGradient id="paint0_linear_304_225" x1="54.3807" y1="24.4797" x2="83.5672" y2="94.9156" gradientUnits="userSpaceOnUse">
<stop offset="0.0727603" stop-color="#EA1A1A"/>
<stop offset="1" stop-color="#861616"/>
</linearGradient>
</defs>
</svg>
