<svg width="56" height="57" viewBox="0 0 56 57" fill="none" xmlns="http://www.w3.org/2000/svg">
<path fill-rule="evenodd" clip-rule="evenodd" d="M2.75769 17.0158C2.69407 16.9767 2.63096 16.9368 2.56836 16.8961L3.49928 15.4997L42.6889 13.1812V13.5572H46.0165C48.6632 13.5603 51.2007 14.683 53.0722 16.6789C54.9437 18.6749 55.9964 21.381 55.9993 24.2037V36.0332C55.9964 38.8559 54.9437 41.562 53.0722 43.558C51.2007 45.5539 48.6632 46.6766 46.0165 46.6797H42.6889V47.8627C42.6867 50.0581 41.868 52.163 40.4124 53.7154C38.9567 55.2678 36.9831 56.141 34.9245 56.1433H10.5221C8.46352 56.141 6.48989 55.2678 5.03426 53.7154C3.57863 52.163 2.75989 50.0581 2.75769 47.8627L2.75769 17.0158ZM51.5625 36.0332C51.5625 37.6019 50.9782 39.1063 49.9382 40.2155C48.8981 41.3248 47.4874 41.9479 46.0165 41.9479H42.6889V18.289H46.0165C47.4874 18.289 48.8981 18.9121 49.9382 20.0213C50.9782 21.1306 51.5625 22.635 51.5625 24.2037V36.0332Z" fill="url(#paint0_linear_315_71)"/>
<path d="M20.8288 43.1832C21.0863 44.4424 20.9146 44.9608 20.3136 44.5905C19.7985 44.2942 18.9399 44.8127 18.4248 45.6275C16.2784 49.0346 22.8034 52.664 25.9801 49.9235C27.1821 48.8865 27.3538 46.3682 26.3235 46.3682C25.8942 46.3682 25.1215 45.5534 24.6064 44.5905C24.0913 43.5535 22.8893 42.4425 22.0307 41.9981C20.5712 41.3314 20.4853 41.4796 20.8288 43.1832ZM23.1469 45.6275C22.8893 45.9978 23.061 46.3682 23.4903 46.3682C24.0054 46.3682 24.4347 47.0348 24.4347 47.8495C24.4347 49.3309 21.6015 49.9975 20.7429 48.7384C20.1419 47.9236 21.6873 44.8868 22.7176 44.8868C23.2327 44.8868 23.4044 45.183 23.1469 45.6275Z" fill="white"/>
<path d="M10.5145 38.5538C10.7434 39.813 10.5908 40.3314 10.0566 39.9611C9.59867 39.6648 8.83551 40.1833 8.37761 40.9981C6.46971 44.4052 12.2697 48.0346 15.0934 45.2941C16.1618 44.2571 16.3145 41.7388 15.3987 41.7388C15.0171 41.7388 14.3303 40.924 13.8724 39.9611C13.4145 38.9241 12.346 37.8131 11.5829 37.3687C10.2855 36.7021 10.2092 36.8502 10.5145 38.5538ZM12.575 40.9981C12.346 41.3684 12.4987 41.7388 12.8802 41.7388C13.3381 41.7388 13.7197 42.4054 13.7197 43.2201C13.7197 44.7015 11.2013 45.3681 10.4381 44.109C9.90393 43.2942 11.2776 40.2574 12.1934 40.2574C12.6513 40.2574 12.8039 40.5537 12.575 40.9981Z" fill="white"/>
<path d="M40.0065 0.699863L5.61523 0.0912864C4.24706 0.0670758 2.92488 0.612005 1.93954 1.6062C0.954201 2.60039 0.386426 3.9624 0.361117 5.39261L0.233883 12.5828C0.207778 14.2472 0.734884 15.8687 1.72529 17.1706C2.7157 18.4725 4.10807 19.3742 5.6649 19.7219C7.22173 20.0696 8.84658 19.8418 10.2623 19.0773C11.6781 18.3127 12.797 17.0589 13.4282 15.5296C14.0205 16.0831 14.79 16.4365 15.6463 16.4517C16.8105 16.4723 17.8461 15.8829 18.485 14.9681C19.0851 15.9987 19.9247 16.8536 20.926 17.4538C21.9272 18.054 23.0576 18.3799 24.2123 18.4014C25.2727 18.4177 26.3225 18.1763 27.2791 17.6961C28.2357 17.2159 29.0727 16.5102 29.7244 15.6345C30.0222 16.4826 30.5582 17.2164 31.2622 17.7399C31.9663 18.2635 32.8055 18.5524 33.6699 18.5687C35.3018 18.5976 36.722 17.6608 37.4741 16.2733C38.1523 16.636 38.9069 16.8633 39.7202 16.8777C41.0884 16.9019 42.4106 16.357 43.3959 15.3628C44.3813 14.3686 44.949 13.0066 44.9743 11.5764L45.0698 6.18376C45.0951 4.75355 44.5758 3.3723 43.6263 2.34387C42.6768 1.31544 41.3747 0.724073 40.0065 0.699863Z" fill="#F7F7F7"/>
<defs>
<linearGradient id="paint0_linear_315_71" x1="20.5909" y1="21.7052" x2="31.8134" y2="46.5422" gradientUnits="userSpaceOnUse">
<stop offset="0.0727603" stop-color="#EA1A1A"/>
<stop offset="1" stop-color="#861616"/>
</linearGradient>
</defs>
</svg>
