<svg width="22" height="18" viewBox="0 0 22 18" fill="none" xmlns="http://www.w3.org/2000/svg">
<path d="M3.3 4.5C3.3 3.30653 3.76357 2.16193 4.58873 1.31802C5.41389 0.474106 6.53305 0 7.7 0C8.86695 0 9.98611 0.474106 10.8113 1.31802C11.6364 2.16193 12.1 3.30653 12.1 4.5C12.1 5.69347 11.6364 6.83807 10.8113 7.68198C9.98611 8.52589 8.86695 9 7.7 9C6.53305 9 5.41389 8.52589 4.58873 7.68198C3.76357 6.83807 3.3 5.69347 3.3 4.5ZM0 16.9559C0 13.493 2.74313 10.6875 6.12906 10.6875H9.27094C12.6569 10.6875 15.4 13.493 15.4 16.9559C15.4 17.5324 14.9428 18 14.3791 18H1.02094C0.457188 18 0 17.5324 0 16.9559ZM17.325 10.9688V8.71875H15.125C14.6678 8.71875 14.3 8.34258 14.3 7.875C14.3 7.40742 14.6678 7.03125 15.125 7.03125H17.325V4.78125C17.325 4.31367 17.6928 3.9375 18.15 3.9375C18.6072 3.9375 18.975 4.31367 18.975 4.78125V7.03125H21.175C21.6322 7.03125 22 7.40742 22 7.875C22 8.34258 21.6322 8.71875 21.175 8.71875H18.975V10.9688C18.975 11.4363 18.6072 11.8125 18.15 11.8125C17.6928 11.8125 17.325 11.4363 17.325 10.9688Z" fill="#ABABAB"/>
</svg>
