<svg width="16" height="16" viewBox="0 0 16 16" fill="none" xmlns="http://www.w3.org/2000/svg">
<path d="M11.1111 12.0615L15 7.99999M15 7.99999L11.1111 3.9385M15 7.99999H5.66667M8 12.0615C8 12.3016 8 12.4217 7.99144 12.5257C7.90262 13.6065 7.14048 14.4959 6.12169 14.7074C6.02369 14.7277 5.90935 14.741 5.68094 14.7675L4.88651 14.8597C3.69304 14.9982 3.09627 15.0674 2.62218 14.909C1.99006 14.6977 1.47399 14.2153 1.20314 13.5825C1 13.1079 1 12.4809 1 11.2267V4.77329C1 3.51915 1 2.89209 1.20314 2.41748C1.47399 1.78466 1.99006 1.30225 2.62218 1.091C3.09627 0.932549 3.69302 1.0018 4.88651 1.14029L5.68094 1.23248C5.90943 1.259 6.02367 1.27225 6.12169 1.2926C7.14048 1.50415 7.90262 2.39353 7.99144 3.47436C8 3.57835 8 3.6984 8 3.9385" stroke="#F5F5F5" stroke-width="2" stroke-linecap="round" stroke-linejoin="round"/>
</svg>
