<svg width="24" height="24" viewBox="0 0 24 24" fill="none" xmlns="http://www.w3.org/2000/svg">
<path d="M19.0966 9.71835C19.0966 11.794 18.4227 13.7113 17.2875 15.2669L23.0135 20.9963C23.5788 21.5616 23.5788 22.4796 23.0135 23.0448C22.4481 23.6101 21.53 23.6101 20.9646 23.0448L15.2386 17.3154C13.6827 18.4549 11.765 19.1242 9.68894 19.1242C4.49209 19.1242 0.28125 14.9142 0.28125 9.71835C0.28125 4.52252 4.49209 0.3125 9.68894 0.3125C14.8858 0.3125 19.0966 4.52252 19.0966 9.71835ZM9.68894 16.2301C10.5442 16.2301 11.3912 16.0617 12.1814 15.7344C12.9716 15.4072 13.6895 14.9275 14.2943 14.3228C14.8991 13.7182 15.3789 13.0003 15.7062 12.2103C16.0335 11.4202 16.2019 10.5735 16.2019 9.71835C16.2019 8.86321 16.0335 8.01645 15.7062 7.22641C15.3789 6.43637 14.8991 5.71852 14.2943 5.11385C13.6895 4.50918 12.9716 4.02953 12.1814 3.70228C11.3912 3.37504 10.5442 3.20661 9.68894 3.20661C8.83364 3.20661 7.98671 3.37504 7.19651 3.70228C6.40632 4.02953 5.68833 4.50918 5.08354 5.11385C4.47875 5.71852 3.99901 6.43637 3.6717 7.22641C3.34439 8.01645 3.17592 8.86321 3.17592 9.71835C3.17592 10.5735 3.34439 11.4202 3.6717 12.2103C3.99901 13.0003 4.47875 13.7182 5.08354 14.3228C5.68833 14.9275 6.40632 15.4072 7.19651 15.7344C7.98671 16.0617 8.83364 16.2301 9.68894 16.2301Z" fill="#7D7D7D"/>
</svg>
