<svg width="17" height="18" viewBox="0 0 17 18" fill="none" xmlns="http://www.w3.org/2000/svg">
<path d="M16.5717 0.223359C16.8406 0.434275 17 0.771739 17 1.12678V3.65776V12.938C17 14.4918 15.5723 15.7502 13.8125 15.7502C12.0527 15.7502 10.625 14.4918 10.625 12.938C10.625 11.3843 12.0527 10.1258 13.8125 10.1258C14.1844 10.1258 14.543 10.1821 14.875 10.2875V5.16932L6.375 7.86904V15.1878C6.375 16.7415 4.94727 18 3.1875 18C1.42773 18 0 16.7415 0 15.1878C0 13.6341 1.42773 12.3756 3.1875 12.3756C3.55938 12.3756 3.91797 12.4318 4.25 12.5373V7.03241V4.50142C4.25 4.00577 4.55879 3.56637 5.00703 3.42224L15.632 0.0475967C15.9541 -0.0543457 16.3027 0.00892889 16.5717 0.223359Z" fill="#E74343"/>
</svg>
