<svg width="29" height="25" viewBox="0 0 29 25" fill="none" xmlns="http://www.w3.org/2000/svg">
<path d="M16.1111 1.56039C16.1111 1.07694 15.8846 0.622802 15.4918 0.329807C15.0991 0.0368119 14.5906 -0.0706197 14.1073 0.0465784L5.04983 2.24404C3.97743 2.50285 3.22222 3.44044 3.22222 4.51475V21.8747H1.61111C0.719965 21.8747 0 22.573 0 23.4374C0 24.3017 0.719965 25 1.61111 25H4.83333H14.5H16.1111V23.4374V1.56039ZM12.8889 12.4989C12.8889 13.3632 12.3502 14.0615 11.6806 14.0615C11.0109 14.0615 10.4722 13.3632 10.4722 12.4989C10.4722 11.6345 11.0109 10.9362 11.6806 10.9362C12.3502 10.9362 12.8889 11.6345 12.8889 12.4989ZM17.7222 6.24831H22.5556V23.4374C22.5556 24.3017 23.2755 25 24.1667 25H27.3889C28.28 25 29 24.3017 29 23.4374C29 22.573 28.28 21.8747 27.3889 21.8747H25.7778V6.24831C25.7778 4.52452 24.3328 3.12303 22.5556 3.12303H17.7222V6.24831Z" fill="#E74343"/>
</svg>
