<svg width="640" height="1441" viewBox="0 0 640 1441" fill="none" xmlns="http://www.w3.org/2000/svg">
<path d="M10.2667 0.719261C8.4 1.25259 8 2.18593 8.66667 4.85259C9.06667 6.85259 10.2667 13.5193 11.3333 19.7859C13.3333 30.9859 13.3333 31.1193 10.5333 33.3859C8.93333 34.7193 6.26667 35.7859 4.53333 35.7859C0.8 35.7859 0.666667 36.5859 3.33333 42.9859C5.33333 47.5193 5.6 47.7859 11.8667 47.7859C18.2667 47.7859 18.4 47.7859 21.0667 54.0526C24.2667 61.6526 37.3333 101.919 40.6667 114.719C42.6667 122.053 42.6667 124.053 41.3333 125.786C37.4667 130.453 28 125.919 28 119.519C28 114.853 23.8667 99.6526 20.5333 91.9193L17.3333 84.8526L11.0667 85.7859C3.33333 86.9859 0 88.5859 0 91.2526C0 95.7859 7.33333 116.186 14.1333 130.453C18.2667 138.853 23.0667 151.519 25.0667 158.453C29.0667 172.453 28.2667 171.786 40.1333 169.653C47.0667 168.453 50 173.919 52 191.119C53.0667 199.386 58.9333 219.119 61.6 223.253C62.2667 224.186 63.4667 228.586 64.5333 233.253C65.6 237.919 67.7333 247.519 69.2 254.453C70.8 261.386 72.6667 268.719 73.4667 270.719C74.2667 272.853 74.6667 276.053 74.2667 278.053C73.8667 280.319 74.5333 283.653 76 286.453C77.4667 288.986 80.4 295.519 82.6667 300.719C86 308.719 86.5333 310.986 85.2 313.253C84 315.653 84.2667 316.586 87.2 319.653C91.6 324.186 91.6 326.186 87.3333 327.253C83.2 328.319 84 329.386 90.4 331.119C96.9333 332.986 100.8 340.053 108.667 365.119C112.133 375.786 118.933 397.386 124 413.119C129.067 428.853 134.8 447.786 136.8 455.119C138.8 462.453 143.067 474.186 146.133 481.119C149.333 488.053 152.933 497.919 154.4 503.119C155.867 508.186 159.333 519.519 162.133 528.186C167.067 544.053 167.2 544.053 165.467 554.053C162.667 570.453 159.067 579.119 139.6 615.919C130.933 632.319 130.667 632.986 130.667 642.719C130.667 656.986 133.467 664.853 141.867 674.586C146.667 680.053 149.333 684.319 149.867 687.653C150.267 690.319 152 695.119 153.6 698.453C157.2 705.519 162.533 708.586 173.333 709.919C180.267 710.719 181.067 710.453 187.6 705.919C191.467 703.253 195.2 701.119 195.867 701.119C196.533 701.119 199.6 698.986 202.8 696.453C213.733 687.119 216 693.253 208.8 712.986C206.267 720.053 203.733 727.386 203.333 729.519C202.667 732.986 202.4 733.119 196.933 732.186C193.867 731.786 187.2 731.253 182.267 731.253C171.733 731.119 173.067 729.919 159.733 750.186C150.933 763.653 147.2 766.986 136.4 771.786C130.267 774.453 129.333 775.386 129.333 778.719C129.333 782.319 129.467 782.453 136.667 782.453C143.067 782.453 144 782.053 144 779.919C144 778.453 145.467 776.453 147.2 775.519C153.467 772.053 165.2 762.453 168.8 757.786C172.533 752.853 176 751.653 176 755.253C176 756.319 174.8 760.053 173.467 763.519C172 766.986 170.267 773.786 169.467 778.719C168.533 784.986 167.067 789.119 164.667 792.319L161.2 796.986L163.733 800.719C176.933 820.186 178 823.919 179.333 859.119C180.4 888.719 182.267 906.186 185.333 916.319C188.933 927.386 188.8 928.986 184.133 929.919C181.067 930.586 180 931.786 178.8 936.053C177.6 939.919 177.6 941.919 178.533 942.853C180.533 944.853 180.4 950.853 178.133 953.919C176.267 956.453 176.133 956.319 172.667 953.119C166.667 947.519 161.333 938.319 161.333 933.653C161.333 931.253 162.4 927.519 163.733 925.119C165.867 921.119 165.867 920.853 163.333 918.986C158.933 915.653 156.8 919.386 156.8 930.319C156.933 937.653 157.6 940.586 160.4 945.253C162.4 948.453 165.2 953.786 166.667 957.119C168.267 960.453 172.4 969.119 176 976.453C179.733 983.919 182.667 990.719 182.667 991.653C182.667 992.586 181.2 994.586 179.333 996.053C174.8 999.519 174.933 1004.85 180 1022.45C185.467 1041.12 187.733 1045.39 192.8 1046.72C195.6 1047.39 197.733 1049.39 199.867 1053.39C204.4 1061.52 207.467 1064.59 217.733 1071.25C230.8 1079.79 231.2 1080.85 230.8 1113.79C230.533 1144.72 233.467 1164.59 244 1203.65C245.467 1209.12 246.667 1215.79 246.667 1218.32C246.667 1220.99 247.6 1226.05 248.667 1229.65C249.733 1233.25 251.6 1245.79 252.667 1257.39C254.267 1276.19 255.067 1279.79 259.333 1290.19C264.533 1302.59 265.867 1306.72 271.6 1326.45C274.933 1338.05 275.2 1341.65 276 1371.12C276.667 1398.99 277.2 1404.45 279.867 1413.79C283.733 1427.25 286 1431.65 289.733 1432.99C291.333 1433.65 300.133 1435.79 309.2 1437.79C322.8 1440.72 327.6 1441.25 335.6 1440.45C350 1439.12 352.4 1438.19 353.6 1433.65C355.2 1427.79 352.267 1388.72 349.333 1376.05C345.733 1361.12 346 1357.52 350.667 1350.59C354.933 1344.32 354.933 1344.45 350.533 1328.99C349.2 1324.19 348 1319.65 348 1318.99C348 1318.32 350.133 1315.52 352.667 1312.72C358.267 1306.72 358.4 1305.25 354.133 1298.05C350.267 1291.39 349.733 1286.45 348.667 1246.45C347.733 1212.99 346.133 1195.79 342.667 1183.79C335.467 1158.99 332.667 1131.25 334.533 1103.39C335.333 1092.59 336.267 1082.99 336.933 1082.05C337.467 1081.25 338.267 1066.32 338.8 1049.12C339.467 1025.65 340.267 1016.05 341.867 1010.85C344.267 1003.39 344.933 1002.85 359.067 1000.45C363.867 999.653 364.133 999.786 366.133 1004.72C367.333 1007.52 370.267 1014.32 372.667 1019.79C375.2 1025.25 379.867 1040.85 383.2 1054.45C393.733 1096.59 396.8 1103.92 409.2 1116.72C418.8 1126.72 424.8 1136.59 426.8 1146.32C427.6 1150.32 430.267 1156.59 432.667 1160.32C436.667 1166.45 437.333 1168.85 439.333 1185.79C441.6 1204.45 442.8 1209.12 450.533 1227.65C452.8 1232.99 455.067 1240.85 455.467 1244.99C456 1249.12 458.667 1257.79 461.6 1264.85C465.733 1274.32 466.8 1278.32 466.267 1282.19C466 1284.85 466.8 1296.05 468.133 1307.12C469.6 1318.05 470.667 1332.99 470.667 1340.32C470.667 1351.25 471.2 1354.32 473.6 1358.59C477.067 1364.72 480.133 1365.92 496 1366.99C509.733 1368.05 525.067 1371.79 530.267 1375.52C536.667 1379.92 550.133 1386.32 560.8 1389.79C573.067 1393.79 573.6 1393.79 569.333 1390.32L566 1387.65L570.533 1388.45C572.933 1388.99 578.4 1390.85 582.533 1392.72C593.067 1397.39 606.933 1398.32 614.8 1394.85C626.8 1389.52 640 1374.05 640 1365.39C640 1361.79 633.867 1357.79 615.733 1349.79C603.733 1344.45 600.4 1342.19 589.733 1332.05C582.933 1325.65 573.467 1316.72 568.533 1312.32L559.733 1304.05L560.667 1295.52L561.6 1286.85L556.133 1282.59L550.667 1278.19V1266.72C550.667 1259.25 549.467 1249.79 547.333 1240.45C545.6 1232.32 543.467 1220.32 542.667 1213.79C541.867 1207.12 539.733 1193.12 538 1182.45C533.6 1155.79 523.733 1085.25 518 1040.45C515.333 1019.92 511.867 993.519 510.133 981.786C508.533 970.053 507.467 959.119 507.733 957.386C508.133 955.653 509.6 953.786 511.2 953.119C515.867 951.386 529.067 938.586 532.533 932.586C534.267 929.653 536.133 924.719 536.533 921.786C537.067 918.853 538.667 912.719 540.133 908.186L542.8 899.919L538 884.986C535.467 876.586 532.933 866.719 532.4 862.853C531.733 856.186 531.867 855.786 535.2 854.586C538 853.386 538.667 852.319 538.667 848.853C538.667 843.386 536.533 835.786 534.267 832.586C532.667 830.453 532.133 830.319 529.6 831.919C525.733 834.319 524.8 833.119 520.533 821.119C511.2 794.319 502 754.853 500.667 735.786C499.467 719.786 495.067 697.786 487.467 670.186C480.533 644.853 470.667 602.719 465.867 577.919C459.6 545.253 455.467 533.919 442.133 513.253C438.933 508.453 434.8 501.653 432.933 498.319C430.667 494.319 427.6 491.119 424.4 489.519C411.467 482.719 398 475.519 397.6 475.119C397.333 474.853 396 469.519 394.667 463.119C393.2 456.853 390.933 449.919 389.333 447.786C387.733 445.519 386.667 441.919 386.667 438.719C386.667 432.319 382.8 426.986 377.333 425.786C371.6 424.586 371.733 418.186 377.6 412.186C381.6 408.053 381.867 407.119 382.667 394.719C383.067 387.653 384.133 380.453 385.067 378.853C388.933 371.919 386.133 353.653 379.6 342.186C376.933 337.519 376.133 334.053 375.6 323.519C374.933 307.919 374.133 306.853 358 301.919C352.133 300.053 345.067 296.986 342.267 295.119L337.333 291.653L319.067 295.119C308.933 297.119 299.067 299.653 297.067 300.853C286.4 307.119 273.2 336.719 271.2 359.119C270.4 367.919 269.867 369.653 267.067 371.386C256.533 378.319 258.533 396.986 271.2 408.986C273.867 411.519 276 414.186 276 414.719C276 415.386 273.867 416.853 271.2 417.919C261.733 421.919 256.133 426.586 254.667 431.653C254 434.319 253.333 442.719 253.333 450.453C253.333 458.186 252.8 465.119 252.267 465.919C251.067 467.653 229.2 477.119 226.133 477.119C224.933 477.119 224 476.453 224 475.653C224 474.986 221.467 469.119 218.533 462.719C211.2 447.386 201.867 438.053 187.733 431.919C179.333 428.319 177.333 426.853 176 423.253C175.067 420.986 173.867 417.919 173.2 416.453C172.667 414.986 169.6 408.186 166.667 401.253C163.6 394.319 160 386.986 158.533 384.986C157.2 382.986 156 380.853 156 380.319C156 379.786 158.8 375.119 162.133 370.186C176.133 349.253 186.667 316.319 186.667 293.119C186.667 282.719 183.2 277.786 171.333 271.519C155.6 263.119 152 264.986 152 281.253C152 294.186 139.6 326.453 134.667 326.453C134 326.453 132.533 324.853 131.6 322.719C128.667 316.986 108.533 254.186 103.333 234.453C96 206.453 92.1333 195.519 87.8667 190.186C83.3333 184.453 83.3333 184.053 86.2667 180.853C87.8667 179.119 88 177.919 87.0667 176.986C86 175.919 84.9333 176.319 83.2 178.319C80.2667 181.786 78.6667 181.919 78.6667 178.719C78.6667 177.519 81.0667 174.719 84 172.586C86.9333 170.319 89.3333 168.186 89.3333 167.653C89.3333 167.119 87.4667 163.519 85.0667 159.919C82.8 156.186 80.1333 150.186 79.3333 146.719C77.6 140.186 74.8 138.319 70.6667 140.986C68.9333 142.186 69.0667 143.119 70.9333 148.719C74.2667 158.186 75.0667 163.786 73.4667 163.786C72.5333 163.786 71.3333 162.186 70.5333 160.053C69.8667 158.053 68.9333 155.519 68.4 154.453C67.6 152.319 57.7333 124.053 42.8 80.7193C37.4667 65.5193 32 47.6526 30.5333 40.9859C29.0667 34.3193 26.4 26.0526 24.6667 22.4526C22.9333 18.9859 20.4 12.3193 19.2 7.91926C16.9333 -0.347406 16.2667 -0.880739 10.2667 0.719261ZM481.867 823.919C483.733 825.386 487.067 829.253 489.333 832.319C492.4 836.986 493.333 839.786 493.6 846.586C494 853.919 494.4 855.253 497.067 856.453C501.333 858.319 501.867 861.519 498.8 868.586C496.533 873.653 496 877.519 496 890.586C496 899.386 495.467 906.453 494.8 906.453C494.133 906.453 492.8 904.586 491.733 902.186C488.4 894.186 483.333 885.386 474.933 873.119C470.4 866.319 466.267 859.253 465.867 857.253C465.467 855.386 462.933 847.386 460.267 839.519C457.6 831.786 455.733 824.853 456.267 824.453C457.733 822.986 465.467 821.386 472.133 821.253C476.533 821.119 479.333 821.919 481.867 823.919Z" fill="white"/>
</svg>
