<svg width="23" height="18" viewBox="0 0 23 18" fill="none" xmlns="http://www.w3.org/2000/svg">
<path d="M5.175 0C5.9375 0 6.66876 0.296316 7.20793 0.823762C7.7471 1.35121 8.05 2.06658 8.05 2.8125C8.05 3.55842 7.7471 4.27379 7.20793 4.80124C6.66876 5.32868 5.9375 5.625 5.175 5.625C4.4125 5.625 3.68124 5.32868 3.14207 4.80124C2.6029 4.27379 2.3 3.55842 2.3 2.8125C2.3 2.06658 2.6029 1.35121 3.14207 0.823762C3.68124 0.296316 4.4125 0 5.175 0ZM18.4 0C19.1625 0 19.8938 0.296316 20.4329 0.823762C20.9721 1.35121 21.275 2.06658 21.275 2.8125C21.275 3.55842 20.9721 4.27379 20.4329 4.80124C19.8938 5.32868 19.1625 5.625 18.4 5.625C17.6375 5.625 16.9062 5.32868 16.3671 4.80124C15.8279 4.27379 15.525 3.55842 15.525 2.8125C15.525 2.06658 15.8279 1.35121 16.3671 0.823762C16.9062 0.296316 17.6375 0 18.4 0ZM0 10.5012C0 8.43047 1.71781 6.75 3.83453 6.75H5.36906C5.94047 6.75 6.48312 6.87305 6.97187 7.09102C6.92516 7.34414 6.90359 7.60781 6.90359 7.875C6.90359 9.21797 7.50734 10.4238 8.45969 11.25C8.4525 11.25 8.44531 11.25 8.43453 11.25H0.765469C0.345 11.25 0 10.9125 0 10.5012ZM14.5655 11.25C14.5583 11.25 14.5511 11.25 14.5403 11.25C15.4963 10.4238 16.0964 9.21797 16.0964 7.875C16.0964 7.60781 16.0712 7.34766 16.0281 7.09102C16.5169 6.86953 17.0595 6.75 17.6309 6.75H19.1655C21.2822 6.75 23 8.43047 23 10.5012C23 10.916 22.655 11.25 22.2345 11.25H14.5655ZM8.05 7.875C8.05 6.97989 8.41348 6.12145 9.06048 5.48851C9.70748 4.85558 10.585 4.5 11.5 4.5C12.415 4.5 13.2925 4.85558 13.9395 5.48851C14.5865 6.12145 14.95 6.97989 14.95 7.875C14.95 8.77011 14.5865 9.62855 13.9395 10.2615C13.2925 10.8944 12.415 11.25 11.5 11.25C10.585 11.25 9.70748 10.8944 9.06048 10.2615C8.41348 9.62855 8.05 8.77011 8.05 7.875ZM4.6 17.0613C4.6 14.4738 6.74547 12.375 9.39047 12.375H13.6095C16.2545 12.375 18.4 14.4738 18.4 17.0613C18.4 17.5781 17.9723 18 17.4405 18H5.55953C5.03125 18 4.6 17.5816 4.6 17.0613Z" fill="#E74343"/>
</svg>
