<svg width="23" height="23" viewBox="0 0 23 23" fill="none" xmlns="http://www.w3.org/2000/svg">
<path d="M17.9238 17.259C16.9311 15.534 15.0668 14.375 12.9375 14.375H10.0625C7.9332 14.375 6.06895 15.534 5.07617 17.259C6.65742 19.0199 8.94844 20.125 11.5 20.125C14.0516 20.125 16.3426 19.0154 17.9238 17.259ZM0 11.5C0 8.45001 1.2116 5.52494 3.36827 3.36827C5.52494 1.2116 8.45001 0 11.5 0C14.55 0 17.4751 1.2116 19.6317 3.36827C21.7884 5.52494 23 8.45001 23 11.5C23 14.55 21.7884 17.4751 19.6317 19.6317C17.4751 21.7884 14.55 23 11.5 23C8.45001 23 5.52494 21.7884 3.36827 19.6317C1.2116 17.4751 0 14.55 0 11.5ZM11.5 12.2188C12.3578 12.2188 13.1805 11.878 13.787 11.2714C14.3936 10.6649 14.7344 9.84219 14.7344 8.98438C14.7344 8.12656 14.3936 7.30389 13.787 6.69733C13.1805 6.09076 12.3578 5.75 11.5 5.75C10.6422 5.75 9.81951 6.09076 9.21295 6.69733C8.60639 7.30389 8.26562 8.12656 8.26562 8.98438C8.26562 9.84219 8.60639 10.6649 9.21295 11.2714C9.81951 11.878 10.6422 12.2188 11.5 12.2188Z" fill="#E74343"/>
</svg>
