<svg width="437" height="261" viewBox="0 0 437 261" fill="none" xmlns="http://www.w3.org/2000/svg">
<path d="M414.296 249.094C411.26 250.116 408.01 250.331 404.865 249.72L395.1 247.822C390.073 246.845 385.203 245.184 380.625 242.887L90.0326 97.0428C88.9069 96.4778 87.703 96.0471 86.4751 95.7664C76.8139 93.5577 71.5045 82.9717 75.6861 73.9866C79.6562 65.456 90.2275 62.3691 98.1643 67.423L102.495 70.1809C103.364 70.7339 104.273 71.2192 105.216 71.6325L404.119 202.687C406.847 203.883 409.433 205.38 411.828 207.151L417.207 211.125C422.373 214.943 425.794 220.672 426.704 227.032L426.877 228.239C427.335 231.442 426.979 234.709 425.84 237.738L425.716 238.068C423.76 243.272 419.566 247.321 414.296 249.094Z" fill="#A8A8A8"/>
<path d="M17.6398 62.2157L47.1771 75.6231L55.0709 73.2703L64.4047 56.5823L62.343 46.9328L49.7559 40.8106L32.7758 31.7703L31.8945 29.4317L34.5181 23.8698L43.8726 20.3446L54.9823 18.5716L63.4686 19.1428L71.9556 21.7616L81.3236 26.4266L93.3335 37.5224L99.2041 50.6758L104.793 70.2647L90.7085 92.5403C87.4617 97.6754 81.9476 100.94 75.8839 101.317L64.7729 103.968L49.5611 103.115L36.6823 97.8707L22.3301 85.9012L13.8251 72.1671L12.9425 68.9509L16.1501 62.8031L17.6398 62.2157Z" fill="#A8A8A8"/>
<rect width="20.9983" height="15.9967" transform="matrix(-0.529811 -0.848116 -0.84798 0.530028 396.008 62.809)" fill="#A8A8A8"/>
<path d="M21.8183 248.094C24.8544 249.116 28.104 249.331 31.2487 248.72L41.0093 246.822C46.0355 245.845 50.9045 244.184 55.4807 241.887L345.99 96.0429C347.115 95.4779 348.319 95.0472 349.547 94.7664C359.207 92.5574 364.513 81.9715 360.332 72.9865C356.364 64.456 345.794 61.3699 337.858 66.4246L333.531 69.1808C332.663 69.7338 331.753 70.2192 330.811 70.6326L31.9937 201.687C29.2662 202.883 26.6808 204.38 24.2857 206.151L18.9107 210.124C13.7447 213.943 10.3242 219.673 9.41442 226.032L9.24181 227.239C8.7836 230.442 9.14009 233.709 10.2783 236.738L10.4028 237.069C12.3585 242.273 16.5501 246.321 21.8183 248.094Z" fill="#A8A8A8"/>
<rect width="135.247" height="50.9894" transform="matrix(-0.519138 -0.85469 -0.854559 0.519355 424 115.594)" fill="#9A9A9A"/>
<ellipse cx="220.5" cy="122" rx="103.5" ry="100" fill="#EAEAEA"/>
<path d="M267.535 130.949C262.862 125.066 256.51 121.631 249.762 121.631H193.486C186.738 121.631 180.386 125.066 175.713 130.949C175.14 131.673 174.585 132.419 174.066 133.224C173.979 133.352 173.897 133.497 173.811 133.634H269.437C269.346 133.497 269.268 133.352 269.182 133.224C268.663 132.428 268.108 131.673 267.535 130.949Z" fill="#030104"/>
<path d="M280.558 172.215C279.857 171.236 279.32 170.144 279.006 168.961L276.072 157.713C275.38 155.047 274.87 150.974 274.547 148.14C274.074 143.89 272.832 139.845 270.953 136.187L270.58 135.504H172.665L172.347 136.082C170.413 139.84 169.175 143.89 168.697 148.14C168.379 150.974 167.869 155.051 167.173 157.713L164.238 168.961C163.929 170.144 163.387 171.236 162.691 172.215C160.748 174.949 157.518 176.765 154.137 176.765H151.375C168.579 192.103 193.841 201.144 220.924 201.144C248.006 201.144 273.264 192.103 290.473 176.765H289.112C285.732 176.765 282.501 174.949 280.558 172.215Z" fill="#E74343"/>
<path d="M258.5 110.235C248.653 100.408 235.695 95 222 95H221.908C208.132 95.0245 194.93 100.514 185.198 110.263C175.466 120.012 170 133.225 170 147V172.168C169.985 176.17 171.176 180.084 173.419 183.399C175.662 186.714 178.852 189.276 182.573 190.75L188.5 193.105C189.119 193.351 189.667 193.747 190.092 194.259C190.518 194.771 190.809 195.382 190.938 196.035L193.438 208.568C193.804 210.379 194.784 212.008 196.213 213.18C197.642 214.352 199.432 214.995 201.28 215H204C204.531 215 205.039 214.789 205.414 214.414C205.789 214.039 206 213.53 206 213V203.113C206 200.96 207.655 199.113 209.808 199.005C210.348 198.979 210.889 199.063 211.396 199.252C211.904 199.441 212.368 199.731 212.76 200.105C213.152 200.478 213.464 200.927 213.677 201.425C213.89 201.923 214 202.459 214 203V213C214 213.53 214.211 214.039 214.586 214.414C214.961 214.789 215.47 215 216 215C216.531 215 217.039 214.789 217.414 214.414C217.789 214.039 218 213.53 218 213V203.113C218 200.96 219.655 199.113 221.808 199.005C222.348 198.979 222.889 199.063 223.396 199.252C223.904 199.441 224.368 199.731 224.76 200.105C225.152 200.478 225.464 200.927 225.677 201.425C225.89 201.923 226 202.459 226 203V213C226 213.53 226.211 214.039 226.586 214.414C226.961 214.789 227.47 215 228 215C228.531 215 229.039 214.789 229.414 214.414C229.789 214.039 230 213.53 230 213V203.113C230 200.96 231.655 199.113 233.808 199.005C234.348 198.979 234.889 199.063 235.396 199.252C235.904 199.441 236.368 199.731 236.76 200.105C237.152 200.478 237.464 200.927 237.677 201.425C237.89 201.923 238 202.459 238 203V213C238 213.53 238.211 214.039 238.586 214.414C238.961 214.789 239.47 215 240 215H242.72C244.568 214.996 246.358 214.354 247.788 213.182C249.217 212.011 250.198 210.381 250.565 208.57L253.065 196.035C253.195 195.383 253.486 194.773 253.911 194.262C254.337 193.75 254.883 193.352 255.5 193.105L261.428 190.75C265.149 189.276 268.339 186.714 270.581 183.399C272.824 180.084 274.016 176.17 274 172.168V147.418C274 133.418 268.5 120.215 258.5 110.235ZM200.915 174.97C198.074 175.156 195.244 174.472 192.802 173.008C190.36 171.544 188.423 169.371 187.248 166.778C186.073 164.184 185.717 161.295 186.226 158.494C186.736 155.693 188.087 153.114 190.101 151.1C192.114 149.087 194.693 147.736 197.494 147.226C200.295 146.716 203.184 147.073 205.778 148.248C208.371 149.423 210.544 151.36 212.008 153.802C213.472 156.244 214.156 159.074 213.97 161.915C213.748 165.304 212.301 168.498 209.9 170.899C207.498 173.301 204.305 174.748 200.915 174.97ZM228.25 190.313C227.562 190.771 226.752 191.011 225.925 191H218.075C217.25 191.01 216.442 190.77 215.755 190.313C215.085 189.858 214.568 189.211 214.273 188.457C213.979 187.702 213.92 186.876 214.105 186.088L218.083 174.188C218.75 172.5 219.813 171.25 221.5 171.033C223.565 170.783 225 171.75 225.903 174.088L229.903 186.088C230.087 186.876 230.028 187.703 229.733 188.457C229.438 189.211 228.921 189.858 228.25 190.313ZM244.92 174.97C242.079 175.156 239.249 174.472 236.807 173.008C234.365 171.544 232.428 169.371 231.253 166.778C230.078 164.184 229.722 161.295 230.231 158.494C230.741 155.693 232.092 153.114 234.106 151.1C236.119 149.087 238.698 147.736 241.499 147.226C244.3 146.716 247.189 147.073 249.783 148.248C252.376 149.423 254.549 151.36 256.013 153.802C257.477 156.244 258.161 159.074 257.975 161.915C257.753 165.305 256.306 168.499 253.903 170.901C251.5 173.303 248.305 174.749 244.915 174.97H244.92Z" fill="#A8A8A8"/>
<path d="M322.946 80.3473C314.67 75.7699 310.247 73.7769 300.951 70.5418C297.325 69.2814 292.838 70.2323 291.141 72.5302C287.487 77.4944 284.593 81.7669 282.109 85.8348L297.739 119.856C304.964 106.588 311.202 98.9619 324.826 86.9769C326.91 85.1386 326.182 82.131 322.946 80.3473ZM311.53 85.9531C309.419 88.2463 305.014 88.8379 301.415 87.4046C297.821 85.9713 296.237 82.9136 298.166 80.4247C300.091 77.9357 304.955 77.1121 308.732 78.7411C312.522 80.37 313.65 83.6598 311.53 85.9531Z" fill="#E74343"/>
<path d="M273.095 130.954C273.122 131.004 273.159 131.049 273.191 131.104C273.641 131.805 274.101 132.492 274.506 133.229H277.067H298.849L297.807 130.954L296.779 128.674L295 124.802L279.32 90.6669L277.518 86.7538C276.749 85.0748 275.912 83.4686 275.034 81.9079C267.731 91.9137 257.561 99.4396 245.449 103.394C238.437 105.682 229.878 106.934 221.351 106.934C219.513 106.934 217.697 106.875 215.95 106.756C199.701 105.646 182.37 97.5377 170.722 85.4843C169.743 84.4697 168.833 83.4095 167.964 82.3174C167.177 83.7507 166.426 85.225 165.726 86.7538L163.814 90.9172L148.148 125.011L146.46 128.683L145.414 130.958L144.367 133.233H166.149H168.715C169.147 132.442 169.643 131.705 170.121 130.958C170.626 130.167 171.158 129.411 171.714 128.683C173.051 126.922 174.498 125.289 176.109 123.883C176.136 123.856 176.164 123.837 176.186 123.815C177.133 122.996 178.116 122.231 179.139 121.549C179.28 121.453 179.435 121.385 179.576 121.294C180.5 120.702 181.437 120.138 182.415 119.67C182.734 119.51 183.08 119.41 183.403 119.265C184.231 118.905 185.05 118.541 185.91 118.264C186.501 118.077 187.125 117.981 187.73 117.827C188.353 117.681 188.968 117.49 189.605 117.39C190.87 117.185 192.157 117.09 193.468 117.09H249.744C251.054 117.09 252.342 117.194 253.611 117.39C254.253 117.485 254.863 117.677 255.486 117.827C256.091 117.977 256.715 118.077 257.302 118.264C258.157 118.541 258.985 118.905 259.813 119.265C260.136 119.406 260.478 119.51 260.801 119.67C261.774 120.143 262.703 120.702 263.617 121.285C263.767 121.38 263.927 121.453 264.081 121.549C265.114 122.236 266.097 123.005 267.048 123.828C267.066 123.847 267.089 123.865 267.112 123.883C268.722 125.289 270.169 126.922 271.507 128.683C272.062 129.407 272.59 130.162 273.095 130.954Z" fill="#E74343"/>
<path d="M159.838 167.819L162.773 156.567V156.562C163.405 154.132 163.892 150.124 164.174 147.626C164.183 147.53 164.206 147.444 164.22 147.348C164.261 147.02 164.329 146.702 164.379 146.37C164.547 145.214 164.757 144.076 165.021 142.962C165.13 142.498 165.253 142.043 165.38 141.583C165.653 140.582 165.967 139.604 166.313 138.644C166.418 138.352 166.518 138.057 166.631 137.77H166.6H164.211H144.381H142.284L133.966 155.87C133.766 156.307 133.602 156.735 133.406 157.167C135.572 161.649 138.298 165.931 141.551 169.939C142.17 170.704 142.775 171.468 143.435 172.215H154.137C156.648 172.215 159.201 170.244 159.838 167.819Z" fill="#E74343"/>
<path d="M298.872 137.779L279.047 137.775H276.653H276.622C276.735 138.061 276.835 138.357 276.94 138.648C277.286 139.608 277.6 140.587 277.873 141.588C277.996 142.047 278.123 142.498 278.228 142.962C278.496 144.077 278.701 145.219 278.874 146.379C278.919 146.706 278.992 147.025 279.029 147.353C279.038 147.448 279.06 147.539 279.074 147.635C279.356 150.133 279.843 154.141 280.48 156.576L281.95 162.195L283.419 167.819C284.061 170.249 286.6 172.219 289.121 172.219H298.421C299.081 171.482 299.673 170.708 300.296 169.944C303.927 165.485 306.926 160.703 309.187 155.657L300.969 137.779H298.872Z" fill="#E74343"/>
<path d="M161.039 86.0668C158.527 81.9307 155.588 77.5899 151.857 72.5302C150.164 70.2323 145.673 69.2814 142.047 70.5418C132.755 73.7724 128.332 75.7699 120.051 80.3473C116.821 82.131 116.088 85.1386 118.177 86.9814C131.886 99.0302 138.115 106.684 145.4 120.102L161.039 86.0668ZM141.582 87.4046C137.983 88.8379 133.583 88.2418 131.468 85.9531C129.356 83.6598 130.476 80.37 134.261 78.7411C138.047 77.1121 142.907 77.9357 144.836 80.4247C146.761 82.9136 145.182 85.9713 141.582 87.4046Z" fill="#E74343"/>
<path d="M206.914 73.7496C207.246 74.0044 207.41 74.1318 207.742 74.3911C216.01 80.825 219.418 82.6951 220.723 83.2321C221.37 82.9181 222.011 82.6087 222.716 82.322C233.441 76.3431 244.016 69.1721 250.113 57.3873C241.245 52.7279 231.435 50.3983 221.624 50.3983C211.792 50.3983 201.963 52.7416 193.086 57.4191C193.209 57.6785 193.295 57.9651 193.423 58.2199C196.385 63.9531 200.921 69.1721 206.914 73.7496Z" fill="#E74343"/>
<path d="M161.527 30.869C159.324 44.8107 160.88 61.2685 167.96 73.8497C168.375 74.5822 168.766 75.3284 169.216 76.0337C169.649 76.7117 170.099 77.3669 170.568 78.013C171.646 79.5009 172.756 80.9615 174.03 82.2811C184.714 93.347 200.744 101.146 216.274 102.211C217.916 102.324 219.618 102.379 221.352 102.379C228.932 102.379 237.154 101.301 243.998 99.062C255.865 95.1761 265.647 87.5456 272.404 77.6126C272.855 76.9529 273.351 76.3295 273.774 75.6469C274.22 74.928 274.584 74.1591 275.002 73.4174C276.718 70.346 278.229 67.1336 279.375 63.7256C282.192 55.3215 283.525 47.4725 282.128 38.5724C280.626 29.008 279.562 19.1934 286.173 12.9415C287.543 11.6492 289.24 10.5072 291.328 9.55618C291.328 9.55618 289.153 8.38224 284.635 8.00003C282.433 8.01823 279.525 8.01368 276.308 9.41967C273.151 10.7074 269.374 13.26 267.076 17.4188C260.683 28.9989 260.979 43.2909 256.01 55.5854C255.901 55.8584 255.824 56.1405 255.701 56.4135C255.514 56.8594 255.273 57.2462 255.068 57.683C254.759 58.3655 254.413 59.0207 254.072 59.676C247.656 71.9704 236.813 79.692 224.673 86.4308C223.572 86.863 222.658 87.3636 221.616 87.8368C221.452 87.9141 221.252 87.946 221.02 87.946C217.38 87.946 206.277 79.005 204.134 77.3669C198.078 72.744 192.882 67.1291 189.373 60.3403C189.273 60.1446 189.21 59.9171 189.114 59.7169C188.791 59.0526 188.532 58.3382 188.25 57.6421C187.958 56.9322 187.617 56.2543 187.362 55.5171C183.122 43.1453 183.781 27.329 176.16 17.4234C173.867 13.2691 170.085 10.7119 166.928 9.42422C163.729 8.02733 160.839 8.02278 158.637 8.00458C158.51 8.00458 158.382 8.00458 158.255 8.00913C156.139 8.06373 153.873 8.7326 151.912 9.51068C160.799 14.2974 163.083 21.0134 161.527 30.869Z" fill="#E74343"/>
</svg>
