<svg width="27" height="31" viewBox="0 0 27 31" fill="none" xmlns="http://www.w3.org/2000/svg">
<path d="M22.1022 4.62364C20.6042 3.10575 18.1729 3.10575 16.6749 4.62364L5.37821 16.07C2.79347 18.689 2.79347 22.9316 5.37821 25.5505C7.96294 28.1695 12.1501 28.1695 14.7348 25.5505L24.0669 16.0949C24.7361 15.4168 25.8289 15.4168 26.4981 16.0949C27.1673 16.7729 27.1673 17.8802 26.4981 18.5583L17.166 28.014C13.2368 31.9953 6.87624 31.9953 2.94696 28.014C-0.982321 24.0327 -0.982321 17.5879 2.94696 13.6065L14.2436 2.16019C17.0862 -0.720062 21.6909 -0.720062 24.5335 2.16019C27.376 5.04044 27.376 9.70607 24.5335 12.5863L13.7279 23.535C11.972 25.3142 9.1233 25.3142 7.3674 23.535C5.61151 21.7558 5.61151 18.8694 7.3674 17.0902L16.2083 8.13219C16.8775 7.45412 17.9703 7.45412 18.6395 8.13219C19.3087 8.81026 19.3087 9.91757 18.6395 10.5956L9.79865 19.5537C9.3873 19.9704 9.3873 20.6547 9.79865 21.0715C10.21 21.4883 10.8853 21.4883 11.2967 21.0715L22.1022 10.1229C23.6003 8.60498 23.6003 6.14152 22.1022 4.62364Z" fill="#E74343"/>
</svg>
