<svg width="19" height="19" viewBox="0 0 19 19" fill="none" xmlns="http://www.w3.org/2000/svg">
<path d="M19 9.5C19 14.748 14.7403 19 9.48468 19C5.1254 19 1.45565 16.0772 0.329436 12.0895L3.97621 13.595C4.22137 14.8246 5.3131 15.7554 6.61552 15.7554C8.11714 15.7554 9.36976 14.5143 9.30464 12.9399L12.5415 10.6339C14.5373 10.6837 16.2113 9.06714 16.2113 7.05222C16.2113 5.07561 14.6024 3.47056 12.622 3.47056C10.6415 3.47056 9.03266 5.07944 9.03266 7.05222V7.09819L6.76492 10.381C6.17117 10.3466 5.58891 10.5113 5.09859 10.8446L0 8.7377C0.390726 3.84597 4.48569 0 9.48468 0C14.7403 0 19 4.25202 19 9.5ZM5.96431 14.4147L4.79597 13.9321C5.01069 14.3779 5.38139 14.7295 5.8379 14.9204C6.86835 15.3494 8.05202 14.8591 8.48105 13.8325C8.6879 13.3345 8.69173 12.7867 8.48488 12.2887C8.27802 11.7907 7.89113 11.4 7.39315 11.1931C6.89899 10.9863 6.37036 10.994 5.90302 11.1702L7.10968 11.6681C7.86815 11.9823 8.22823 12.8518 7.91028 13.6103C7.59234 14.3726 6.72278 14.7288 5.96431 14.4147ZM12.622 9.43871C11.3042 9.43871 10.2317 8.36613 10.2317 7.05222C10.2317 5.73831 11.3042 4.66573 12.622 4.66573C13.9397 4.66573 15.0123 5.73831 15.0123 7.05222C15.0123 8.36613 13.9435 9.43871 12.622 9.43871ZM12.6258 8.84113C13.6179 8.84113 14.4224 8.03669 14.4224 7.04839C14.4224 6.05625 13.6179 5.25565 12.6258 5.25565C11.6337 5.25565 10.8292 6.06008 10.8292 7.04839C10.8331 8.03669 11.6375 8.84113 12.6258 8.84113Z" fill="#203754"/>
</svg>
