<svg width="52" height="59" viewBox="0 0 52 59" fill="none" xmlns="http://www.w3.org/2000/svg">
<path d="M25.9992 59C27.9515 58.9984 29.867 58.4434 31.5426 57.394C33.2181 56.3446 34.5911 54.8399 35.5161 53.0395C35.5597 52.9532 35.5812 52.8566 35.5786 52.759C35.576 52.6614 35.5493 52.5662 35.5012 52.4827C35.453 52.3991 35.3851 52.3299 35.3039 52.282C35.2227 52.234 35.131 52.2089 35.0378 52.209H16.9632C16.8699 52.2086 16.7781 52.2336 16.6967 52.2815C16.6153 52.3293 16.5472 52.3984 16.4989 52.482C16.4506 52.5657 16.4238 52.661 16.4211 52.7587C16.4184 52.8563 16.44 52.9531 16.4836 53.0395C17.4084 54.8397 18.7813 56.3443 20.4566 57.3937C22.1318 58.443 24.0471 58.9981 25.9992 59Z" fill="#BBBBBB"/>
<path fill-rule="evenodd" clip-rule="evenodd" d="M17.8082 1.16299C10.2216 4.53617 6.53436 10.9852 6.53436 20.8769C6.53436 31.8046 4.73619 34.1334 1.75683 37.9877C1.72998 38.0224 1.70307 38.0572 1.67609 38.092C1.48558 38.3382 1.29194 38.5885 1.0952 38.8476C0.515021 39.5975 0.147432 40.5098 0.0359324 41.4765C-0.0755672 42.4433 0.0736902 43.4241 0.466041 44.3028C1.30086 46.1878 3.08009 47.3581 5.11098 47.3581H46.9046C48.926 47.3581 50.6931 46.1893 51.5306 44.3129C51.9246 43.434 52.0753 42.4524 51.9647 41.4846C51.8542 40.5167 51.487 39.603 50.9068 38.8519C50.7898 38.7008 50.6739 38.5497 50.5591 38.4001C50.4535 38.2625 50.3489 38.1261 50.2452 37.9921L50.2406 37.9861C47.2667 34.131 45.4677 31.7989 45.4677 20.8812C45.4677 15.226 44.2053 10.5857 41.7171 7.10557C39.9811 4.67292 37.6673 2.79592 34.6542 1.37997C33.2468 1.02825 28.9711 0.0226933 25.9999 -8.18714e-05C23.3695 -0.0202454 19.7594 0.714553 17.8082 1.16299Z" fill="#BBBBBB"/>
</svg>
