<?xml version="1.0" standalone="no"?>
<!DOCTYPE svg PUBLIC "-//W3C//DTD SVG 20010904//EN"
 "http://www.w3.org/TR/2001/REC-SVG-20010904/DTD/svg10.dtd">
<svg version="1.0" xmlns="http://www.w3.org/2000/svg"
 width="792.000000pt" height="792.000000pt" viewBox="0 0 792.000000 792.000000"
 preserveAspectRatio="xMidYMid meet">
<metadata>
Created by potrace 1.14, written by Peter Selinger 2001-2017
</metadata>
<g transform="translate(0.000000,792.000000) scale(0.100000,-0.100000)"
fill="#000000" stroke="none">
<path d="M5250 6839 c-215 -46 -371 -112 -508 -216 -257 -196 -373 -430 -359
-728 9 -194 52 -319 170 -495 154 -230 208 -261 387 -225 324 63 504 151 685
330 96 95 167 205 209 323 29 84 30 94 31 257 0 133 -4 184 -18 235 -37 135
-160 351 -254 446 -82 81 -193 105 -343 73z"/>
<path d="M3330 6119 c-215 -46 -371 -112 -508 -216 -257 -196 -373 -430 -359
-728 9 -194 52 -319 170 -495 154 -230 208 -261 387 -225 324 63 504 151 685
330 96 95 167 205 209 323 29 84 30 94 31 257 0 133 -4 184 -18 235 -37 135
-160 351 -254 446 -82 81 -193 105 -343 73z"/>
<path d="M1650 5399 c-215 -46 -371 -112 -508 -216 -257 -196 -373 -430 -359
-728 9 -194 52 -319 170 -495 154 -230 208 -261 387 -225 324 63 504 151 685
330 96 95 167 205 209 323 29 84 30 94 31 257 0 133 -4 184 -18 235 -37 135
-160 351 -254 446 -82 81 -193 105 -343 73z"/>
<path d="M6355 5383 c-11 -3 -787 -325 -1725 -715 -938 -390 -2051 -854 -2475
-1030 -424 -176 -837 -349 -920 -383 -206 -86 -258 -135 -286 -265 -21 -98 35
-265 123 -365 56 -64 124 -95 206 -95 61 0 143 33 2695 1095 1448 603 2650
1108 2672 1123 172 120 198 375 52 529 -71 75 -139 106 -241 109 -45 2 -90 0
-101 -3z"/>
<path d="M5939 3934 c-42 -7 -109 -25 -150 -40 -105 -38 -301 -138 -344 -175
-45 -40 -84 -116 -92 -177 -6 -58 32 -233 76 -348 95 -247 327 -467 585 -554
126 -43 196 -53 361 -53 230 1 370 39 612 169 193 102 216 147 178 342 -53
269 -130 418 -301 583 -134 129 -292 211 -479 250 -109 23 -331 24 -446 3z"/>
<path d="M4172 3299 c-159 -20 -458 -127 -524 -187 -63 -57 -73 -100 -59 -260
19 -228 59 -356 157 -504 202 -303 521 -454 922 -435 136 6 254 34 417 97 124
49 181 94 222 175 25 48 26 55 20 180 -7 165 -39 295 -101 411 -108 202 -255
344 -450 434 -174 80 -409 115 -604 89z"/>
<path d="M2323 2559 c-81 -12 -296 -74 -350 -100 -63 -30 -130 -110 -149 -177
-21 -70 -15 -289 11 -402 23 -103 110 -277 189 -376 188 -238 496 -365 849
-351 143 5 232 23 411 82 126 41 165 67 195 128 19 39 21 62 21 208 1 217 -19
317 -87 453 -174 346 -477 529 -893 541 -74 2 -163 0 -197 -6z"/>
</g>
</svg>
