<svg width="998" height="1191" viewBox="0 0 998 1191" fill="none" xmlns="http://www.w3.org/2000/svg">
<path d="M320.389 2.13963C300.255 6.53963 286.922 14.673 281.189 26.1396C274.655 38.9396 275.455 48.0062 284.789 69.8729C290.655 84.0062 290.655 83.073 289.589 115.606C289.322 127.473 289.589 132.006 291.322 135.74L293.455 140.54L288.255 147.073C272.655 166.806 265.589 198.94 271.722 222.94C281.189 260.406 313.989 286.273 351.855 286.273C392.922 286.273 429.855 255.74 438.255 214.94C439.589 208.406 440.522 206.806 442.789 206.54C445.055 206.14 445.855 207.073 446.922 211.206C447.589 214.006 450.122 224.006 452.522 233.34L456.922 250.406L469.589 264.94L482.255 279.606L513.855 358.14C547.455 441.606 551.189 449.206 564.922 463.073C568.922 466.94 575.855 472.54 580.522 475.606C589.989 481.74 593.055 485.206 614.389 513.606C635.855 542.406 640.389 546.14 688.389 576.14C697.589 581.74 706.122 587.206 707.455 588.273C709.055 589.473 710.789 594.806 713.055 605.073C720.255 640.273 730.655 668.94 744.655 692.54L751.322 703.873L749.722 712.406C748.789 717.073 747.722 721.206 747.189 721.473C746.789 721.606 737.989 719.473 727.722 716.673C671.855 701.206 614.389 688.14 594.922 686.673L584.122 685.873L575.855 694.673C571.189 699.473 566.389 706.006 565.055 709.206L562.655 714.94L515.855 705.206C490.122 699.873 464.922 695.206 459.722 694.806C438.389 693.073 421.589 704.406 386.389 744.006C381.989 748.94 341.455 783.873 296.389 821.606C214.789 889.873 214.389 890.273 208.389 890.273C203.189 890.273 200.389 891.606 189.055 898.806L175.855 907.34L169.989 902.14C163.322 896.273 161.189 896.273 151.322 901.873C144.522 905.74 140.389 911.873 140.389 917.873C140.389 920.273 139.989 922.273 139.455 922.273C138.789 922.273 129.989 920.406 119.722 918.14C102.389 914.273 100.655 913.606 95.7221 908.806L90.2554 903.606H76.2554H62.1221L50.2554 889.606C40.9221 878.673 36.7888 874.806 30.6554 871.74C2.52212 857.34 -7.07788 873.74 5.32212 914.806L8.92212 926.673L61.9888 992.806C91.1888 1029.21 117.055 1060.27 119.322 1061.87C128.789 1068.81 143.322 1063.87 156.122 1049.61C159.722 1045.47 172.122 1028.67 183.455 1012.41C202.255 985.473 205.855 981.206 223.055 964.54C241.722 946.54 241.989 946.273 240.522 942.273C239.322 938.406 239.455 938.006 244.122 935.073C246.789 933.34 260.922 924.673 275.455 915.74C298.389 901.606 302.522 899.606 307.455 899.606C323.322 899.606 348.922 889.206 370.389 874.006C384.789 863.873 410.789 838.406 424.922 820.673C435.589 807.206 444.389 800.94 452.389 800.94C458.389 800.94 469.322 807.473 475.189 814.406C478.122 818.006 496.789 834.273 516.522 850.406C542.255 871.473 552.255 880.54 551.855 882.14C548.122 894.94 536.389 943.206 536.389 946.006C536.389 948.806 534.655 951.073 528.389 956.006L520.389 962.406V969.74C520.389 976.006 519.989 977.073 518.255 976.406C517.055 976.006 513.855 975.206 511.055 974.806C506.522 974.006 505.722 973.34 503.722 968.14C502.522 964.94 501.055 962.273 500.655 962.273C500.122 962.273 498.522 966.54 496.922 971.74L494.255 981.206L472.655 990.406L450.922 999.74L442.522 994.54C422.789 982.006 400.255 972.94 384.122 971.073C370.122 969.34 355.722 973.873 347.455 982.54C343.855 986.273 342.922 988.806 341.322 998.14L339.455 1009.34L369.322 1055.47C385.855 1080.81 400.389 1102.81 401.589 1104.14C409.455 1113.34 431.589 1122.67 444.122 1122.14L451.189 1121.74L473.855 1148.41C499.989 1178.94 502.255 1181.21 513.055 1186.41C527.322 1193.21 540.122 1191.07 549.722 1180.14C559.455 1168.94 562.122 1160.41 579.189 1085.47C587.989 1046.67 597.855 1000.67 601.055 983.073L606.922 951.206L617.322 937.473C623.055 929.873 628.255 923.606 628.789 923.606C629.455 923.606 633.055 926.54 636.789 930.14L643.855 936.806L657.722 937.606C678.389 938.94 716.789 944.673 717.855 946.673C718.389 947.473 721.589 952.54 724.922 957.873C730.789 967.073 731.322 967.473 737.322 968.406C747.055 969.873 766.789 968.14 815.055 961.606C852.255 956.673 866.255 955.34 898.389 954.006L937.055 952.406L940.789 948.406C945.189 943.873 953.989 925.873 961.322 906.94C966.255 894.006 966.389 893.206 965.989 878.54L965.589 863.606L974.122 859.74C980.255 856.94 982.922 854.94 983.455 852.806C983.989 851.073 985.322 838.14 986.522 824.273C987.589 810.273 989.455 794.673 990.522 789.606C992.922 777.74 992.922 772.273 990.389 764.14C987.589 754.806 987.855 752.273 992.389 747.206C995.855 743.206 996.389 741.34 997.189 731.34C997.989 720.806 997.855 719.34 993.722 708.14C991.322 701.606 988.255 694.14 987.055 691.606C983.855 685.206 982.122 675.34 980.389 654.273C979.589 644.406 978.389 634.14 977.722 631.473C976.922 628.806 972.255 620.006 967.055 611.873C957.322 596.273 955.722 592.14 951.322 571.34C948.389 557.606 932.922 519.873 914.389 481.34C901.189 454.006 882.789 429.34 861.989 411.606C854.122 404.806 845.055 397.74 841.722 395.873L835.722 392.54L836.122 381.073C836.789 366.273 833.589 347.74 829.055 340.273C824.789 332.94 812.922 322.273 803.855 317.74C796.789 314.14 784.789 311.74 774.255 311.606H768.789L707.589 223.206C643.189 130.14 634.122 118.54 620.122 111.873C616.122 109.873 611.989 106.273 608.522 101.74C603.189 94.6729 603.055 94.5396 574.122 82.2729C558.122 75.4729 542.789 69.073 539.989 68.1396C537.189 67.073 531.722 63.7395 527.989 60.5395C494.122 32.1395 460.922 17.6063 399.189 4.67295C382.522 1.20629 376.255 0.539629 355.722 0.139629C336.122 -0.260371 329.722 0.139629 320.389 2.13963ZM332.389 8.93956C332.389 10.2729 331.322 13.6063 330.122 16.2729L327.855 20.9396L324.789 15.3396C321.322 9.20625 321.322 9.60627 325.722 7.73961C330.789 5.7396 332.389 6.00622 332.389 8.93956ZM380.122 7.07286C381.722 7.60619 383.055 8.80624 383.055 9.87291C383.055 17.4729 367.455 33.7395 355.989 38.0062C352.255 39.4729 348.922 40.1396 348.655 39.4729C348.255 38.4062 351.455 20.4063 353.855 11.2063L355.189 6.27293H366.122C372.122 6.27293 378.389 6.67286 380.122 7.07286ZM345.055 15.2063C344.122 19.4729 342.255 27.8729 341.055 33.8729C339.722 40.0062 338.255 44.9396 337.589 44.9396C335.189 44.9396 331.055 37.6063 331.055 33.2063C331.055 27.0729 335.589 17.873 341.322 12.1396C343.722 9.6063 345.989 7.60618 346.255 7.60618C346.655 7.60618 345.989 11.0729 345.055 15.2063ZM400.789 10.8063C405.855 12.0063 405.589 17.6062 400.122 28.0062L395.722 36.1396L394.922 28.2729C393.455 14.5396 393.589 8.93955 395.455 9.47288C396.255 9.87288 398.655 10.4063 400.789 10.8063ZM318.922 19.0729C321.055 26.8062 315.989 39.8729 308.122 47.3396L304.789 50.2729L302.655 39.8729C299.455 25.4729 299.722 20.6729 303.589 17.0729C307.455 13.4729 313.722 11.4729 315.989 13.3396C316.922 14.0062 318.255 16.5395 318.922 19.0729ZM420.389 15.2063C420.389 15.8729 419.455 19.6063 418.389 23.6063C417.322 27.6063 414.922 39.3396 413.055 49.6063C409.322 69.7396 404.522 85.4729 399.989 92.8063C396.122 99.0729 389.722 106.273 387.989 106.273C385.455 106.273 387.989 80.0062 391.722 66.9396C394.922 56.0062 406.922 29.4729 413.722 18.5395C415.989 14.8062 420.389 12.5396 420.389 15.2063ZM443.722 21.2063C451.589 23.2063 458.789 27.2063 459.722 30.1396C460.122 31.6063 459.589 35.6063 458.522 39.2063C457.455 42.673 455.189 50.6729 453.455 56.9396L450.389 68.1396L436.522 73.8729C428.789 76.9396 420.922 80.6729 418.789 82.2729C416.789 83.7396 415.055 84.673 415.055 84.1396C415.055 83.7396 418.789 68.6729 423.322 50.8063L431.589 18.4062L434.922 19.0729C436.789 19.4729 440.789 20.5396 443.722 21.2063ZM385.189 46.2729C384.122 52.1396 381.189 61.8729 378.655 68.0062C374.255 78.8062 360.255 104.006 357.855 105.473C356.389 106.406 349.322 89.7396 346.522 78.673C345.322 74.273 344.389 66.0062 344.389 60.5395V50.5395L351.055 48.2729C359.589 45.4729 375.722 34.8063 381.722 28.1396L386.389 22.9396L386.789 29.3396C387.055 32.8063 386.255 40.5396 385.189 46.2729ZM482.389 37.8729L493.589 44.0062L491.722 47.6063C488.255 54.273 483.055 59.3396 476.122 62.8063C468.789 66.5396 458.255 67.6062 459.455 64.5395C459.722 63.7395 462.389 55.873 465.189 47.2063C467.989 38.6729 470.522 31.6063 470.789 31.6063C471.055 31.6063 476.255 34.4062 482.389 37.8729ZM295.989 58.9396C296.389 64.0062 296.255 67.8729 295.855 67.4729C293.855 65.6062 291.055 52.0062 291.189 44.9396L291.322 37.6063L293.322 43.6063C294.389 46.9396 295.589 53.7396 295.989 58.9396ZM328.389 47.8729C328.389 50.6729 325.989 54.2729 318.789 62.0062C308.789 72.6729 307.055 73.2063 307.055 65.6063C307.055 60.8063 309.455 57.0729 318.389 47.3396C324.122 41.0729 325.322 40.4063 326.789 42.1396C327.589 43.2063 328.389 45.8729 328.389 47.8729ZM508.389 59.6063C508.389 61.6063 505.189 69.7396 501.189 77.8729C497.322 85.8729 493.589 94.4063 493.055 96.673C492.655 98.9396 490.522 102.14 488.655 103.74C485.455 106.273 483.989 106.54 474.655 105.74C469.055 105.34 462.922 105.606 461.189 106.273C458.255 107.34 457.722 106.94 455.189 100.94C448.655 85.6062 452.122 81.073 479.189 69.6063C490.789 64.673 498.789 59.073 501.722 53.6063L503.589 50.0062L505.989 52.9396C507.322 54.5396 508.389 57.6063 508.389 59.6063ZM335.189 70.673C336.255 74.9396 336.122 79.473 334.389 91.2063C333.189 99.473 332.655 108.406 333.189 110.94C334.522 118.14 331.189 116.94 320.389 106.54C311.722 98.1395 311.055 97.2063 311.055 91.8729C311.055 84.2729 313.855 79.2062 322.789 70.0062C331.189 61.4729 332.655 61.473 335.189 70.673ZM524.389 66.5395C529.189 70.0062 529.455 73.3396 525.722 85.2063C524.255 89.7396 523.055 95.2063 523.055 97.2063C523.055 100.406 522.389 100.806 516.389 102.14C509.989 103.473 499.055 104.14 499.055 103.206C499.055 101.473 505.855 83.0729 508.389 78.2729C510.922 73.2063 518.522 63.6063 519.989 63.6063C520.255 63.6063 522.255 64.9395 524.389 66.5395ZM302.122 79.2063C302.522 81.3396 303.322 84.1396 303.722 85.6063C304.255 87.2063 303.455 86.6729 301.855 84.2729C299.055 80.1396 298.122 75.6063 300.255 75.6063C300.922 75.6063 301.722 77.2063 302.122 79.2063ZM448.389 79.6063C448.389 90.4063 441.322 107.073 432.655 116.94C423.855 126.94 407.322 134.14 407.855 127.606C408.522 120.94 414.122 93.4729 415.055 92.5395C416.255 91.2062 445.855 77.0729 447.455 76.9396C447.989 76.9396 448.389 78.1396 448.389 79.6063ZM543.055 84.9396L547.189 90.2729L542.789 92.9396C536.255 96.9396 535.055 96.4063 535.055 89.8729C535.055 83.0729 536.255 78.0062 537.722 78.9396C538.389 79.3396 540.789 82.0062 543.055 84.9396ZM378.389 102.273V114.273L373.722 113.473C371.189 112.94 368.522 112.14 367.855 111.473C367.189 110.94 369.189 106.14 372.389 100.406C375.589 94.8062 378.255 90.2729 378.389 90.2729C378.389 90.2729 378.522 95.6063 378.389 102.273ZM348.389 111.873C348.389 112.54 346.922 112.94 345.055 112.94C341.855 112.94 341.722 112.54 341.722 105.74C341.722 93.8729 343.189 92.6729 345.855 102.406C347.189 107.073 348.255 111.34 348.389 111.873ZM554.789 112.54C554.255 123.073 553.855 124.273 550.522 127.206C547.855 129.473 545.455 130.273 542.655 130.006C538.789 129.606 538.255 128.94 535.989 121.606C532.255 109.073 532.922 106.806 542.922 100.806C551.455 95.6063 551.455 95.6062 553.455 98.4062C554.922 100.54 555.189 104.006 554.789 112.54ZM304.522 101.34C308.522 104.54 310.922 109.74 311.722 117.606L312.522 125.606L307.055 129.34L301.589 132.94L299.722 128.406C297.189 122.406 295.855 110.406 296.922 104.406C297.855 99.3396 300.522 98.2729 304.522 101.34ZM401.322 112.54C400.655 117.606 399.989 121.74 399.722 122.006C399.455 122.406 389.455 118.273 388.522 117.473C387.855 116.806 400.522 103.606 401.722 103.606C402.255 103.606 401.989 107.606 401.322 112.54ZM527.589 120.406C528.922 126.673 529.722 132.006 529.455 132.406C527.722 134.006 502.389 142.14 501.589 141.34C499.589 139.206 496.389 125.606 496.389 119.473C496.389 112.14 496.922 111.873 510.389 110.273C526.389 108.406 524.922 107.473 527.589 120.406ZM563.455 114.54C565.589 118.006 565.589 118.273 563.055 119.606C560.522 120.94 560.389 120.673 560.389 115.473C560.389 112.406 560.522 110.14 560.789 110.406C561.055 110.673 562.255 112.54 563.455 114.54ZM488.922 123.206C489.322 128.806 489.722 135.473 489.722 138.14V143.073L480.789 144.673C475.722 145.473 467.322 147.073 461.855 148.14L451.989 150.006L452.922 138.006C454.522 116.14 457.455 112.94 475.855 112.94H487.989L488.922 123.206ZM321.189 116.406L324.522 118.673L321.722 120.54C318.389 122.806 318.255 122.806 317.055 117.873C315.989 113.74 316.522 113.473 321.189 116.406ZM447.855 120.54C447.589 121.873 446.922 128.006 446.389 134.273C445.189 150.94 445.589 150.273 435.989 150.273H427.722L422.122 143.073L416.522 135.873L420.122 134.54C422.122 133.873 428.789 129.873 434.789 125.74C446.522 117.873 448.922 116.806 447.855 120.54ZM571.722 132.406C573.855 138.273 573.855 138.673 571.722 143.74C570.389 146.54 568.922 148.94 568.389 148.94C567.189 148.94 564.389 138.406 564.389 134.273C564.389 130.94 566.655 126.273 568.255 126.273C568.922 126.273 570.389 129.073 571.722 132.406ZM557.055 140.54C558.255 144.806 559.855 150.006 560.522 152.14C562.122 157.34 559.989 159.606 547.989 165.606C533.989 172.673 534.122 172.806 536.389 156.406C537.989 145.34 541.989 137.74 547.589 135.073C553.989 131.873 554.789 132.406 557.055 140.54ZM529.455 151.34C528.655 158.94 523.855 170.94 520.122 173.873C517.855 175.873 497.455 178.54 489.322 178.006L483.055 177.606L489.189 168.273C492.655 163.073 497.322 156.94 499.589 154.406C505.322 148.273 515.589 143.606 523.589 143.606H530.122L529.455 151.34ZM595.855 155.74C601.989 158.273 606.655 161.206 608.122 163.34C610.255 166.54 621.589 192.54 654.122 269.606L664.789 294.94L691.322 330.273C720.255 368.54 718.655 365.34 714.522 378.406C712.789 384.006 712.922 384.94 715.455 390.94L718.255 397.34L714.655 407.473C710.255 419.74 710.122 426.273 713.989 445.473L716.922 460.006L724.655 463.34C728.922 465.206 732.389 467.473 732.389 468.406C732.389 469.206 731.189 471.34 729.855 473.073C727.722 475.74 726.255 476.273 720.522 476.006C709.455 475.473 697.722 468.406 678.922 450.673C669.989 442.273 660.122 434.006 657.189 432.273C654.122 430.673 646.922 428.14 641.055 426.94L630.255 424.673L575.055 345.206L519.989 265.74L522.922 249.74C524.655 240.806 526.789 229.873 527.989 225.34C530.122 216.273 529.589 214.54 521.455 202.673L517.722 197.073L523.322 195.606C551.989 188.406 575.055 173.606 581.589 158.14C583.189 154.54 584.789 151.606 585.189 151.606C585.589 151.606 590.389 153.473 595.855 155.74ZM483.055 162.006C480.789 166.273 477.055 172.14 474.789 174.806C470.255 180.406 471.055 180.273 454.789 175.34C445.189 172.54 444.122 171.073 447.189 164.54C449.722 159.073 455.589 156.673 469.589 155.606C476.655 155.073 483.455 154.54 484.789 154.406C486.922 154.273 486.655 155.206 483.055 162.006ZM441.722 160.54C441.589 169.473 437.322 171.606 434.255 164.273C431.722 158.14 431.722 158.273 437.055 158.273C440.655 158.273 441.722 158.806 441.722 160.54Z" fill="white"/>
</svg>
