<svg width="92" height="127" viewBox="0 0 92 127" fill="none" xmlns="http://www.w3.org/2000/svg">
<path d="M66.0018 11.9777C65.2402 11.1503 64.8373 10.091 64.8505 8.9507C64.8655 7.64482 65.1519 6.85007 66.017 5.5738C66.3101 5.14132 66.9149 4.89703 67.4152 5.00909C68.8914 5.33979 69.6255 5.72235 70.4977 6.66989C71.2593 7.4973 71.6622 8.55657 71.649 9.69688C71.633 11.0852 71.3103 11.8959 70.3116 13.3216C70.111 13.6081 69.7093 13.7703 69.3731 13.7007C67.7003 13.3539 66.929 12.9851 66.0018 11.9777Z" fill="#CF7000"/>
<path d="M73.4344 15.8075C72.6728 14.9801 72.2699 13.9208 72.2831 12.7805C72.2982 11.4747 72.5846 10.6799 73.4496 9.40363C73.7427 8.97116 74.3475 8.72687 74.8478 8.83892C76.324 9.16962 77.0582 9.55218 77.9303 10.4997C78.6919 11.3271 79.0948 12.3864 79.0816 13.5267C79.0656 14.9151 78.7429 15.7257 77.7443 17.1514C77.5436 17.438 77.1419 17.6002 76.8057 17.5305C75.1329 17.1837 74.3616 16.8149 73.4344 15.8075Z" fill="#CF7000"/>
<path d="M71.1333 28.8637C72.207 28.5876 73.0992 27.9174 73.6827 26.9484C74.351 25.8387 74.5239 25.0099 74.4599 23.4545C74.4382 22.9275 74.0555 22.3866 73.5752 22.2041C72.1578 21.6655 71.3392 21.5816 70.1095 21.8978C69.0358 22.1739 68.1436 22.8441 67.5601 23.8131C66.8496 24.9928 66.699 25.8551 66.7977 27.6105C66.8176 27.9633 67.0717 28.3225 67.3916 28.4499C68.9832 29.0837 69.826 29.1998 71.1333 28.8637Z" fill="#CF7000"/>
<path d="M57.0819 8.14835C56.3203 7.32094 55.9174 6.26167 55.9306 5.12135C55.9456 3.81548 56.232 3.02072 57.097 1.74445C57.3901 1.31198 57.995 1.06769 58.4952 1.17975C59.9714 1.51044 60.7056 1.893 61.5778 2.84054C62.3394 3.66795 62.7423 4.72722 62.7291 5.86753C62.7131 7.25588 62.3904 8.06652 61.3917 9.49226C61.191 9.77877 60.7894 9.941 60.4532 9.87131C58.7804 9.52452 58.0091 9.15573 57.0819 8.14835Z" fill="#CF7000"/>
<path d="M62.1146 18.6943C61.0223 18.878 60.0795 19.4699 59.4202 20.3859C58.6652 21.4348 58.4264 22.2461 58.3654 23.8016C58.3447 24.3286 58.6827 24.9003 59.1467 25.1231C60.5161 25.7806 61.3252 25.9339 62.576 25.7236C63.6682 25.5399 64.6111 24.948 65.2704 24.032C66.073 22.9169 66.2923 22.0703 66.3347 20.3125C66.3432 19.9593 66.1188 19.5796 65.8103 19.4254C64.2749 18.6582 63.4444 18.4707 62.1146 18.6943Z" fill="#CF7000"/>
<path d="M53.9594 22.3246C55.0651 22.2781 56.0704 21.8077 56.8321 20.9804C57.7044 20.033 58.0364 19.2573 58.2792 17.7208C58.3614 17.2001 58.0928 16.5906 57.6582 16.3117C56.3759 15.4888 55.5906 15.236 54.3243 15.2893C53.2186 15.3358 52.2133 15.8062 51.4516 16.6335C50.5242 17.6407 50.2074 18.4538 49.9595 20.1935C49.9097 20.5431 50.088 20.9479 50.3763 21.1393C51.8105 22.0919 52.6131 22.3812 53.9594 22.3246Z" fill="#CF7000"/>
<path d="M25.9987 11.9777C26.7603 11.1503 27.1632 10.091 27.15 8.9507C27.1349 7.64482 26.8485 6.85007 25.9835 5.5738C25.6904 5.14132 25.0856 4.89703 24.5853 5.00909C23.1091 5.33979 22.3749 5.72235 21.5028 6.66989C20.7412 7.4973 20.3383 8.55657 20.3515 9.69688C20.3675 11.0852 20.6902 11.8959 21.6889 13.3216C21.8895 13.6081 22.2912 13.7703 22.6274 13.7007C24.3002 13.3539 25.0715 12.9851 25.9987 11.9777Z" fill="#CF7000"/>
<path d="M18.5656 15.8075C19.3272 14.9801 19.7301 13.9208 19.7169 12.7805C19.7018 11.4747 19.4154 10.6799 18.5504 9.40363C18.2573 8.97116 17.6525 8.72687 17.1522 8.83892C15.676 9.16962 14.9418 9.55218 14.0697 10.4997C13.3081 11.3271 12.9052 12.3864 12.9184 13.5267C12.9344 14.9151 13.2571 15.7257 14.2557 17.1514C14.4564 17.438 14.8581 17.6002 15.1943 17.5305C16.8671 17.1837 17.6384 16.8149 18.5656 15.8075Z" fill="#CF7000"/>
<path d="M20.8682 28.8637C19.7944 28.5876 18.9023 27.9174 18.3187 26.9484C17.6505 25.8387 17.4776 25.0099 17.5415 23.4545C17.5632 22.9275 17.9459 22.3866 18.4262 22.2041C19.8436 21.6655 20.6623 21.5816 21.892 21.8978C22.9657 22.1739 23.8579 22.8441 24.4414 23.8131C25.1519 24.9928 25.3024 25.8551 25.2037 27.6105C25.1839 27.9633 24.9297 28.3225 24.6099 28.4499C23.0183 29.0837 22.1755 29.1998 20.8682 28.8637Z" fill="#CF7000"/>
<path d="M34.9181 8.14835C35.6797 7.32094 36.0826 6.26167 36.0694 5.12135C36.0544 3.81548 35.768 3.02072 34.903 1.74445C34.6099 1.31198 34.005 1.06769 33.5048 1.17975C32.0286 1.51044 31.2944 1.893 30.4222 2.84054C29.6606 3.66795 29.2577 4.72722 29.2709 5.86753C29.2869 7.25588 29.6096 8.06652 30.6083 9.49226C30.809 9.77877 31.2106 9.941 31.5468 9.87131C33.2196 9.52452 33.9909 9.15573 34.9181 8.14835Z" fill="#CF7000"/>
<path d="M29.8854 18.6943C30.9777 18.878 31.9205 19.4699 32.5798 20.3859C33.3348 21.4348 33.5736 22.2461 33.6346 23.8016C33.6553 24.3286 33.3173 24.9003 32.8533 25.1231C31.4839 25.7806 30.6748 25.9339 29.424 25.7236C28.3318 25.5399 27.3889 24.948 26.7296 24.032C25.927 22.9169 25.7077 22.0703 25.6653 20.3125C25.6568 19.9593 25.8812 19.5796 26.1897 19.4254C27.7251 18.6582 28.5556 18.4707 29.8854 18.6943Z" fill="#CF7000"/>
<path d="M38.0411 22.3246C36.9354 22.2781 35.9301 21.8077 35.1684 20.9804C34.2961 20.033 33.964 19.2573 33.7213 17.7208C33.6391 17.2001 33.9077 16.5906 34.3422 16.3117C35.6246 15.4888 36.4099 15.236 37.6762 15.2893C38.7819 15.3358 39.7872 15.8062 40.5489 16.6335C41.4763 17.6407 41.7931 18.4538 42.041 20.1935C42.0908 20.5431 41.9125 20.9479 41.6242 21.1393C40.19 22.0919 39.3874 22.3812 38.0411 22.3246Z" fill="#CF7000"/>
<path d="M53.8073 12.5347C53.3018 12.3202 52.9452 11.819 52.8971 11.2556C52.8872 11.1399 52.8907 11.0242 52.9074 10.9111L52.934 10.7307C52.9922 10.3359 53.1303 9.96382 53.3389 9.63922L53.4083 9.5313C53.4492 9.46753 53.4958 9.40808 53.5472 9.35366C53.8887 8.99262 54.4115 8.8894 54.8837 9.0898L78.6299 19.1674C79.5459 19.5562 80.0352 20.6373 79.7226 21.582C79.41 22.5268 78.414 22.9776 77.4979 22.5888L53.8073 12.5347Z" fill="#CF7000"/>
<path d="M14.5336 19.0933C14.0382 19.3269 13.7 19.8406 13.6698 20.4052C13.6636 20.5219 13.6707 20.6382 13.6911 20.7513L13.7232 20.929C13.7939 21.3213 13.9438 21.6878 14.1626 22.0038L14.2348 22.108C14.2781 22.1705 14.3268 22.2284 14.3803 22.281C14.7328 22.6277 15.2563 22.7102 15.7192 22.4919L39.1448 11.4472C40.0424 11.024 40.4925 9.92585 40.1501 8.9944C39.8078 8.06294 38.8026 7.65092 37.905 8.07413L14.5336 19.0933Z" fill="#CF7000"/>
<circle cx="46" cy="80.6978" r="46" fill="#9E5703"/>
<path fill-rule="evenodd" clip-rule="evenodd" d="M24.9481 115.883C19.1428 112.417 14.1155 107.465 10.4949 101.195C6.87708 94.9291 5.10147 88.1054 5 81.351L5.59266 81.4678C17.683 83.8487 31.4376 79.544 42.7436 72.6034C44.2302 71.6905 45.6881 70.7239 47.1066 69.7107C48.8006 71.8259 50.3175 73.971 51.5397 76.0874C53.0718 78.7409 54.4579 81.8974 55.6964 85.2695C53.5752 86.296 51.5073 87.4261 49.5148 88.6387C38.0686 95.6027 28.3039 105.76 24.9499 115.877L24.9481 115.883ZM63.4651 117.788C52.7856 122.83 40.8413 122.862 30.5081 118.654L30.7872 117.812C33.5076 109.606 41.9364 100.447 52.7114 93.8916C54.33 92.9065 55.9834 91.9916 57.6586 91.1553C58.6925 94.5569 59.5883 98.0077 60.3443 101.248C61.3254 105.452 62.0535 109.22 62.5361 111.936C62.7771 113.294 62.9567 114.386 63.0752 115.135C63.1346 115.51 63.1789 115.799 63.208 115.993L63.24 116.21L63.2478 116.263L63.2498 116.278L63.4651 117.788Z" fill="#CF7000"/>
<path d="M63.3271 88.6626C71.0655 85.7156 78.9534 84.5829 85.7808 86.0808L86.62 86.2649C86.1206 89.8895 85.1396 93.4366 83.7038 96.8042C80.7339 103.77 75.8196 109.967 69.2005 114.499L69.1496 114.175C69.0254 113.391 68.8397 112.26 68.5912 110.862C68.0944 108.065 67.3453 104.187 66.3335 99.8517C65.5177 96.3558 64.5194 92.5069 63.3271 88.6626Z" fill="#CF7000"/>
<path d="M51.9565 65.9311C59.0438 59.9082 64.6129 52.7685 67.0117 45.6425L67.0543 45.5149C72.8584 48.9803 77.8847 53.9319 81.5048 60.2014C85.1241 66.4693 86.8997 73.2958 86.9997 80.0527C78.8182 78.2842 69.8373 79.6383 61.3524 82.8361C60.0372 79.296 58.5445 75.9214 56.8652 73.0129C55.4869 70.6261 53.8055 68.2452 51.9565 65.9311Z" fill="#CF7000"/>
<path d="M30.9085 45.6666C29.8752 44.8495 29.0338 44.2048 28.4476 43.7621L28.356 43.6929C35.5816 40.239 43.3952 39.0867 50.9023 39.9966C54.54 40.4375 58.106 41.3626 61.4981 42.7448L61.1828 43.6812C59.2264 49.4939 54.4178 55.7769 47.9471 61.2702C44.9531 58.011 41.7946 54.9915 38.9174 52.4111C35.8131 49.6271 32.9735 47.2995 30.9085 45.6666Z" fill="#CF7000"/>
<path d="M39.5257 67.3631C28.9213 73.8733 16.7706 77.4016 6.781 75.4343L5.37646 75.158C6.89043 64.1168 12.8733 53.797 22.5568 47.0649L23.9013 48.0423L23.9097 48.0484L23.948 48.0764L24.108 48.1944C24.2508 48.3001 24.4645 48.4594 24.7413 48.6684C25.2949 49.0865 26.1001 49.7034 27.0942 50.4895C29.084 52.063 31.8226 54.3079 34.8116 56.9885C37.5166 59.4144 40.3777 62.1543 43.0601 65.042C41.9155 65.8449 40.7356 66.6203 39.5257 67.3631Z" fill="#CF7000"/>
</svg>
