<svg width="56" height="56" viewBox="0 0 56 56" fill="none" xmlns="http://www.w3.org/2000/svg">
<circle cx="28" cy="28" r="25" fill="#9E5703"/>
<path fill-rule="evenodd" clip-rule="evenodd" d="M15.1635 49.4541C11.6237 47.341 8.55828 44.3215 6.35055 40.4978C4.14456 36.6775 3.06187 32.5166 3 28.398L3.36138 28.4693C10.7336 29.921 19.1206 27.2962 26.0145 23.0642C26.9209 22.5075 27.8099 21.9181 28.6748 21.3003C29.7078 22.59 30.6327 23.898 31.378 25.1886C32.3122 26.8066 33.1574 28.7312 33.9126 30.7874C32.6191 31.4133 31.3582 32.1024 30.1433 32.8418C23.1639 37.0881 17.2098 43.2819 15.1646 49.4509L15.1635 49.4541ZM38.6496 50.6157C32.1377 53.6904 24.8545 53.7097 18.5538 51.1439L18.724 50.6307C20.3827 45.627 25.5223 40.0422 32.0924 36.0448C33.0794 35.4441 34.0876 34.8862 35.109 34.3763C35.7395 36.4505 36.2857 38.5546 36.7467 40.5306C37.3449 43.0939 37.7889 45.3915 38.0831 47.0478C38.2301 47.8754 38.3396 48.5413 38.4118 48.9982C38.4481 49.2269 38.4751 49.4031 38.4928 49.5211L38.5123 49.6536L38.5171 49.6858L38.5183 49.6948L38.6496 50.6157Z" fill="#CF7000"/>
<path d="M38.5654 32.8565C43.2839 31.0596 48.0937 30.3689 52.2567 31.2823L52.7684 31.3945C52.4639 33.6046 51.8657 35.7675 50.9903 37.821C49.1794 42.0683 46.1828 45.8472 42.1467 48.6105L42.1157 48.4127C42.04 47.9348 41.9267 47.2454 41.7753 46.3926C41.4723 44.6876 41.0155 42.3225 40.3986 39.6792C39.9011 37.5475 39.2924 35.2006 38.5654 32.8565Z" fill="#CF7000"/>
<path d="M31.6323 18.9958C35.9538 15.3233 39.3497 10.9698 40.8123 6.62469L40.8383 6.54688C44.3774 8.65996 47.4422 11.6792 49.6496 15.5021C51.8565 19.324 52.9392 23.4865 53.0002 27.6066C48.0115 26.5283 42.5352 27.3539 37.3615 29.3038C36.5596 27.1452 35.6494 25.0875 34.6254 23.314C33.785 21.8586 32.7598 20.4069 31.6323 18.9958Z" fill="#CF7000"/>
<path d="M18.7981 6.63942C18.1681 6.1412 17.655 5.74806 17.2976 5.4781L17.2417 5.43593C21.6476 3.32985 26.412 2.62726 30.9895 3.18205C33.2076 3.45091 35.382 4.01502 37.4504 4.8578L37.2582 5.42881C36.0652 8.97311 33.1331 12.8042 29.1876 16.1538C27.3619 14.1665 25.436 12.3254 23.6816 10.7519C21.7887 9.05435 20.0573 7.63508 18.7981 6.63942Z" fill="#CF7000"/>
<path d="M24.0523 19.8691C17.5862 23.8388 10.1771 25.9902 4.08592 24.7906L3.22949 24.6222C4.15264 17.8897 7.80073 11.5971 13.7054 7.49219L14.5252 8.08812L14.5303 8.09184L14.5536 8.10894L14.6512 8.18088C14.7383 8.24537 14.8686 8.34245 15.0373 8.4699C15.3749 8.72484 15.8659 9.101 16.472 9.58032C17.6854 10.5398 19.3553 11.9086 21.1778 13.5431C22.8272 15.0224 24.5718 16.6931 26.2074 18.4538C25.5095 18.9435 24.79 19.4163 24.0523 19.8691Z" fill="#CF7000"/>
<circle cx="28" cy="28" r="26.5" stroke="#9E5703" stroke-width="3"/>
</svg>
