<svg width="899" height="1521" viewBox="0 0 899 1521" fill="none" xmlns="http://www.w3.org/2000/svg">
<path d="M355.453 0.0351562C355.395 0.0736084 354.415 0.188843 353.244 0.24646C350.939 0.380859 350.708 0.419312 347.194 0.841919C342.68 1.3988 337.245 2.60889 332.789 4.04932C314.85 9.84973 300.406 21.681 290.438 38.679C289.823 39.7354 288.863 41.1949 288.325 41.9441C278.261 55.7537 272.941 75.1715 273.517 96.0107C273.594 98.6997 273.69 101.389 273.747 101.965C274.228 107.592 274.823 112.068 275.553 115.794C275.764 116.908 275.937 117.906 275.937 118.022C275.937 118.137 275.361 118.578 274.669 118.982C272.269 120.384 269.81 123.188 268.274 126.28C263.587 135.634 264.451 150.884 270.329 162.811L271.385 164.982L271.059 171.646C270.866 175.315 270.713 178.311 270.694 178.33C270.674 178.35 269.791 178.695 268.735 179.079C259.803 182.402 246.205 190.104 237.044 197.018C228.842 203.241 220.968 210.309 209.655 221.603C189.277 242 172.989 260.977 139.954 302.866C136.747 306.938 133.04 311.644 131.695 313.334C130.37 315.024 127.547 318.597 125.434 321.286C123.34 323.955 120.786 327.201 119.768 328.488C113.967 335.844 107.437 345.716 98.7174 360.294C84.37 384.264 67.8715 415.456 59.4974 434.393C54.0619 446.686 52.3717 453.273 47.6469 480.336C44.3049 499.619 42.3074 507.436 38.2741 517.212C32.3584 531.502 23.5041 555.453 11.5192 589.525C6.67913 603.297 6.16055 605.025 5.33466 609.884C4.04782 617.413 4.08623 626.825 5.41149 635.717C6.08372 640.269 7.56263 646.569 8.96472 650.929L9.73298 653.368L10.0211 662.549C10.1747 667.6 10.3092 672.767 10.3092 674.054V676.359L6.39103 686.826C4.23988 692.569 2.30001 697.966 2.08874 698.811C0.417763 705.169 -0.292883 714.311 0.110457 723.933C0.32173 729.042 0.782689 736.475 0.993962 738.377C1.05158 738.799 1.35889 741.815 1.66619 745.099C1.99271 748.364 2.87621 755.855 3.60607 761.713C4.35512 767.571 5.37308 775.849 5.89166 780.113C6.92881 788.564 7.54343 792.367 8.86869 798.148C11.4232 809.23 16.3401 825.997 23.1776 846.894C35.2586 883.848 37.9475 892.779 41.0398 906.243C43.2486 915.789 44.6315 923.644 47.8582 944.752C53.9659 984.74 57.0774 1001.03 61.6869 1017.26C67.1416 1036.48 73.403 1049.85 80.9704 1058.46C85.0422 1063.1 87.6159 1066.83 92.2639 1074.93C101.233 1090.53 104.403 1095.49 109.358 1101.59C115.523 1109.2 118.385 1113.79 123.705 1124.53C127.086 1131.36 130.101 1138.12 135.536 1151.13C140.838 1163.82 142.547 1167.74 145.025 1172.83C149.404 1181.84 157.663 1197.03 167.765 1214.61C170.051 1218.56 172.087 1222.13 172.298 1222.52C172.759 1223.34 172.778 1223.36 175.64 1223.04C181.037 1222.46 187.663 1220.54 193.08 1218C196.537 1216.37 198.688 1215.32 222.331 1203.72C238.58 1195.74 239.329 1195.4 239.656 1195.73C239.829 1195.92 242.921 1199.64 246.532 1204L253.062 1211.94L252.659 1212.93C250.68 1217.81 248.971 1225.02 248.183 1231.83C247.319 1239.13 247.607 1251.35 248.76 1256.86C251.026 1267.71 259.727 1281.39 274.593 1297.48C278.203 1301.38 286.27 1309.37 290.15 1312.85C291.783 1314.31 293.185 1315.67 293.261 1315.84C293.453 1316.34 293.799 1330.17 293.799 1338.08C293.799 1350.93 294.491 1358.64 296.603 1369.22C299.619 1384.37 304.536 1397.53 311.373 1408.88C316.674 1417.66 319.037 1423.88 320.592 1433.12C321.245 1437.06 321.514 1439.32 322.321 1447.29C324.165 1465.75 326.258 1478.02 328.832 1485.55C333.211 1498.31 341.22 1506.8 353.705 1511.9C363.404 1515.88 375.773 1518.24 395.594 1519.89C396.286 1519.95 397.227 1520.05 397.707 1520.09C403.7 1520.68 413.495 1521.01 418.124 1520.76C428.553 1520.24 434.353 1519.09 439.885 1516.44C447.318 1512.9 451.428 1507.53 453.79 1498.19C456.614 1487.09 455.807 1474.8 451.351 1461.12C449.469 1455.34 448.624 1453.38 443.803 1443.64C430.935 1417.68 418.373 1388.21 411.382 1367.68C407.406 1355.99 406.062 1349.19 405.102 1335.99C404.564 1328.85 403.815 1324.66 402.221 1320.05C399.244 1311.52 393.078 1300.98 386.164 1292.68C383.936 1290.01 379 1285.13 376.484 1283.1C373.641 1280.83 370.395 1278.68 367.898 1277.39C366.65 1276.78 365.824 1276.24 365.824 1276.07C365.824 1275.91 366.035 1274.22 366.304 1272.32C368.187 1258.82 370.107 1244.47 371.125 1236.12C372.45 1225.15 371.644 1217.93 367.687 1205.48C366.65 1202.22 366.343 1201.33 362.386 1189.98C359.889 1182.8 357.988 1176.83 356.509 1171.39C352.879 1158.12 343.698 1129 329.428 1085.67C327.027 1078.39 325.106 1072.42 325.144 1072.38C325.183 1072.34 332.347 1070.17 341.048 1067.56C349.767 1064.97 356.97 1062.76 357.066 1062.66C357.508 1062.26 349.614 1045.64 343.122 1033.33C338.397 1024.33 327.622 1004.43 323.435 996.937L322.398 995.073L322.897 992.807C325.202 982.647 325.932 979.382 327.891 970.777C329.101 965.38 330.157 960.828 330.215 960.636C330.292 960.386 330.657 960.809 331.598 962.211C334.018 965.822 337.283 969.721 343.007 975.809C354.089 987.583 362.079 993.076 371.586 995.458C377.521 996.937 381.113 998.55 386.663 1002.26C391.004 1005.14 393.04 1006.67 405.198 1016.2C420.621 1028.28 422.618 1029.7 427.362 1032.07C432.202 1034.47 436.236 1035.58 440.538 1035.7C446.454 1035.87 451.39 1034.02 455.538 1030.09L456.633 1029.05L457.171 1029.97C459.456 1033.91 463.893 1038.46 470.116 1043.28C479.835 1050.77 487.517 1057.01 497.774 1065.73C499.195 1066.94 500.386 1067.94 500.405 1067.96C500.443 1067.98 500.29 1068.81 500.059 1069.79C498.965 1074.86 498.235 1082.08 497.966 1090.82C497.678 1100.27 498.1 1104.17 500.002 1110.03C502.556 1117.78 507.262 1125.52 513.081 1131.46L514.695 1133.09L515.636 1138.57C516.174 1141.56 516.596 1144.21 516.596 1144.44C516.596 1144.83 516.154 1145.1 513.581 1146.34C509.739 1148.19 505.764 1149.9 502.095 1151.32C492.703 1154.91 487.479 1157.79 473.189 1167.26C469.213 1169.91 467.965 1170.85 466.563 1172.25C461.512 1177.27 458.189 1185.28 456.748 1195.88C456.268 1199.39 456.268 1208.67 456.729 1212.11C457.978 1221.04 460.148 1226.8 464.527 1232.85C473.324 1245.03 493.183 1262.53 507.454 1270.69C512.332 1273.49 514.944 1274.41 518.805 1274.7C527.928 1275.38 535.688 1279.98 554.817 1296.1C567.244 1306.59 571.45 1312.87 581.034 1335.32C588.986 1353.95 591.31 1357.87 600.644 1368.35C604.217 1372.39 612.61 1380.9 616.144 1384.08C635.005 1401.08 653.482 1410.55 670.595 1412.01C673.169 1412.22 679.353 1412.15 681.485 1411.88C689.667 1410.84 696.908 1408.3 704.072 1403.96C721.224 1393.59 727.504 1378.25 723.336 1356.93C721.589 1347.98 717.882 1337.76 710.775 1322.37C707.433 1315.13 706.108 1312.12 704.994 1309.33C703.4 1305.3 701.499 1301.98 698.041 1297.14C690.685 1286.86 677.702 1272.9 660.07 1256.28C648.872 1245.74 634.698 1233.35 626.362 1226.86C625.21 1225.94 623.539 1224.48 622.674 1223.59C617.719 1218.54 611.65 1209.27 602.738 1193.19C599.031 1186.49 597.341 1183.59 596.016 1181.57C594.402 1179.11 594.133 1178.32 594.21 1176.44C594.268 1175.15 594.402 1174.71 595.075 1173.31C595.881 1171.66 597.399 1169.51 599.761 1166.68C601.97 1164.05 606.637 1157.98 608.788 1154.97C616.144 1144.62 623.212 1132.54 625.594 1126.16C629.474 1115.81 631.875 1107.03 640.479 1071.8C641.574 1067.37 642.88 1062.26 643.398 1060.47C644.244 1057.57 644.359 1056.94 644.455 1054.79C644.628 1050.85 643.879 1045.93 642.035 1039.06C638.289 1025.11 629.743 1004.25 623.001 992.673C622.444 991.712 621.407 989.772 620.696 988.351C617.066 981.11 614.704 974.561 609.115 956.18C602.969 936.052 600.145 928.676 593.308 914.982C587.93 904.207 581.419 892.856 571.066 876.184C558.659 856.171 555.144 850.083 551.36 841.997C548.037 834.909 546.174 830.338 541.085 816.74C532.25 793.154 522.262 769.492 514.752 754.318C510.738 746.194 508.126 742.641 500.482 735.016C497.774 732.307 494.24 728.985 492.626 727.621C489.265 724.759 489.246 724.971 492.876 724.759C494.874 724.644 500.732 724.855 503.056 725.124C503.478 725.182 505.072 725.355 506.609 725.508C508.145 725.681 511.948 726.2 515.06 726.661C530.752 729.004 534.785 729.004 540.47 726.642C542.468 725.816 545.944 723.857 546.885 723.031C550.285 720.034 548.153 716.193 541.315 712.928C537.628 711.161 533.94 710.124 527.448 708.991C520.38 707.742 503.113 704.227 484.329 700.175C469.175 696.91 467.831 696.602 468.81 696.602C469.137 696.602 489.63 695.316 491.628 695.181C492.319 695.123 493.529 695.027 494.317 694.97C495.104 694.912 498.965 694.663 502.863 694.394C512.774 693.721 513.965 693.625 522.742 692.742C538.953 691.148 555.336 689.073 557.526 688.344C560.022 687.518 561.674 686 562.116 684.099C563.134 679.854 558.947 674.323 553.934 673.286C549.92 672.46 540.95 671.787 522.55 670.962C514.484 670.597 501.308 670.232 481.544 669.771C476.896 669.675 475.513 669.598 476.358 669.463C476.992 669.387 484.944 668.484 494.028 667.485C522.339 664.374 534.747 662.856 537.147 662.28C539.721 661.646 541.699 660.379 542.276 659.015C543.178 656.806 541.911 653.848 538.511 650.257C536.091 647.721 534.747 647.184 529.945 646.857C526.507 646.627 516.289 647.184 510.834 647.914C507.089 648.413 502.46 648.643 497.005 648.643C491.916 648.624 480.91 648.24 476.742 647.914C474.726 647.779 468.08 647.625 454.943 647.433C437.33 647.164 420.544 646.665 415.896 646.281C414.724 646.185 413.553 645.974 413.149 645.782C411.594 645.033 409.481 642.555 408.098 639.808C406.677 636.966 405.14 629.879 403.565 618.912C402.278 609.904 399.397 599.206 395.998 590.697L395.383 589.18L395.979 587.163C396.766 584.512 398.514 579.672 400.281 575.37C401.798 571.606 402.278 570.223 402.854 567.687C403.796 563.75 404.237 560.005 404.237 556.067V553.148L407.387 546.848C410.46 540.741 413.226 535.516 416.51 529.639C418.277 526.47 419.007 524.914 420.371 521.534C424.116 512.142 428.86 494.606 432.932 475.073C433.316 473.287 433.662 471.789 433.7 471.75C433.777 471.673 437.887 476.59 449.258 490.4C456.249 498.87 458.208 501.194 460.82 503.998C474.38 518.557 487.613 523.224 508.049 520.67C515.943 519.69 524.144 517.904 540.508 513.563C553.531 510.125 559.062 508.723 565.381 507.321C573.832 505.419 580.093 503.268 591.79 498.236C604.774 492.666 623.078 483.678 640.959 474.132C644.013 472.48 646.548 471.174 646.587 471.213C646.625 471.232 646.183 472.595 645.607 474.209C642.188 483.831 639.672 495.125 638.75 505.016C638.635 506.284 638.501 507.628 638.462 507.993C638.405 508.358 638.309 510.298 638.232 512.315C637.848 521.361 638.213 528.717 639.442 537.379C644.34 571.855 662.797 603.066 690.608 623.924C704.552 634.392 720.513 641.94 737.223 646.012C742.774 647.357 748.113 648.259 755.239 649.066C760.136 649.623 771.219 649.777 776.558 649.373C807.577 647.03 835.484 634.43 857.687 612.765C886.42 584.724 900.633 545.043 896.484 504.536C894.333 483.351 886.9 462.646 875.127 444.995C873.436 442.46 870.306 438.158 869.653 437.466C868.5 436.218 869.537 436.929 872.38 439.329C878.392 444.381 882.924 447.204 887.63 448.779C890.511 449.74 892.662 449.835 895.063 449.125C897.906 448.28 898.52 447.704 898.04 446.244C897.925 445.879 896.849 444.073 895.659 442.23C892.97 438.12 891.51 435.661 889.147 431.436C884.73 423.465 879.871 416.935 874.57 411.864L872.361 409.732L872.226 408.138C871.9 404.201 870.344 397.555 868.712 393.234C866.868 388.259 863.679 382.535 860.837 379.078C859.166 377.023 855.978 374.123 854.191 373.009C849.966 370.378 846.509 369.475 836.675 368.457C827.187 367.458 823.538 366.421 821.137 364.02C820.119 363.002 819.389 361.754 818.429 359.43C816.162 353.898 813.781 350.921 810.17 349.135C807.404 347.771 804.792 347.349 797.974 347.138C794.747 347.042 783.376 346.485 777.903 346.177C776.961 346.12 773.447 345.947 770.124 345.793C763.152 345.447 750.744 344.775 749.189 344.641C748.612 344.602 747.402 344.506 746.5 344.449C745.597 344.391 743.696 344.257 742.274 344.161C738.971 343.911 732.536 343.911 730.174 344.161C721.742 345.044 715.558 346.984 699.155 353.956C672.785 365.173 638.693 376.409 610.997 383.054C596.938 386.434 581.764 388.662 561.348 390.353C559.389 390.506 557.41 390.679 556.93 390.737C554.721 390.967 541.987 391.793 535.995 392.081C534.67 392.158 533.21 392.235 532.73 392.273C531.558 392.369 524.433 392.657 523.146 392.657H522.089L520.591 388.528C518.671 383.246 516.001 376.37 514.061 371.722C509.759 361.389 506.82 355.377 500.271 343.68C493.241 331.1 489.899 324.186 488.747 319.864C488.516 319.019 488.266 317.194 488.17 315.831C487.633 308.552 485.654 299.908 480.296 281.547C478.164 274.229 474.073 260.977 472.92 257.577C469.041 246.341 462.126 232.666 454.155 220.547C452.888 218.645 451.87 217.013 451.87 216.917C451.87 216.821 452.638 214.842 453.579 212.518C457.747 202.185 461.569 191.256 463.375 184.477C464.45 180.482 465.314 175.565 465.795 170.821C466.064 168.151 466.102 165.961 465.987 153.823C465.871 142.011 465.891 138.803 466.179 132.695C466.544 125.07 466.505 116.812 466.083 112.528C464.585 96.9519 459.745 80.4725 450.449 59.326C445.32 47.7061 439.578 39.1975 431.031 30.5929C419.641 19.1458 405.793 10.618 390.024 5.35547C381.958 2.6665 374.448 1.14917 364.768 0.265625C363.02 0.112061 355.568 -0.0800781 355.453 0.0351562Z" fill="white"/>
</svg>
