<svg width="35" height="35" viewBox="0 0 35 35" fill="none" xmlns="http://www.w3.org/2000/svg">
<circle cx="17.4998" cy="17.4998" r="15.4998" fill="#9E5703"/>
<path fill-rule="evenodd" clip-rule="evenodd" d="M9.54129 30.8008C7.34663 29.4907 5.44609 27.6186 4.07731 25.248C2.70962 22.8794 2.03836 20.2997 2 17.7462L2.22405 17.7904C6.79476 18.6905 11.9946 17.0631 16.2688 14.4393C16.8308 14.0942 17.3819 13.7287 17.9182 13.3457C18.5586 14.1453 19.1321 14.9563 19.5941 15.7564C20.1733 16.7595 20.6973 17.9528 21.1655 19.2276C20.3636 19.6157 19.5818 20.0429 18.8286 20.5014C14.5014 23.134 10.8099 26.9741 9.54197 30.7988L9.54129 30.8008ZM24.1024 31.521C20.0651 33.4273 15.5496 33.4393 11.6432 31.8485L11.7487 31.5303C12.7771 28.4281 15.9636 24.9655 20.037 22.4872C20.6489 22.1148 21.274 21.7689 21.9073 21.4527C22.2982 22.7387 22.6368 24.0433 22.9226 25.2683C23.2935 26.8576 23.5688 28.2821 23.7512 29.3089C23.8424 29.822 23.9102 30.2349 23.955 30.5182C23.9775 30.66 23.9942 30.7692 24.0053 30.8424L24.0173 30.9245L24.0203 30.9445L24.0211 30.9501L24.1024 31.521Z" fill="#CF7000"/>
<path d="M24.0508 20.5111C26.9762 19.397 29.9582 18.9688 32.5393 19.5351L32.8565 19.6047C32.6677 20.975 32.2969 22.316 31.7541 23.5891C30.6313 26.2224 28.7735 28.5652 26.2712 30.2785L26.2519 30.1559C26.205 29.8596 26.1348 29.4321 26.0408 28.9034C25.853 27.8463 25.5698 26.38 25.1873 24.7411C24.8789 23.4195 24.5015 21.9645 24.0508 20.5111Z" fill="#CF7000"/>
<path d="M19.7524 11.9175C22.4317 9.64053 24.5371 6.9414 25.444 4.24746L25.4601 4.19922C27.6543 5.50931 29.5545 7.38124 30.923 9.75138C32.2913 12.1209 32.9625 14.7016 33.0003 17.2561C29.9074 16.5875 26.5122 17.0994 23.3045 18.3083C22.8073 16.97 22.243 15.6942 21.6081 14.5947C21.0871 13.6924 20.4514 12.7923 19.7524 11.9175Z" fill="#CF7000"/>
<path d="M11.7946 4.25641C11.4039 3.94751 11.0858 3.70377 10.8642 3.5364L10.8296 3.51026C13.5612 2.2045 16.5151 1.76891 19.3531 2.11287C20.7283 2.27956 22.0764 2.6293 23.3588 3.15182L23.2396 3.50584C22.5 5.70328 20.6821 8.07855 18.2359 10.1553C17.1041 8.92313 15.91 7.78165 14.8223 6.80613C13.6487 5.75364 12.5752 4.87371 11.7946 4.25641Z" fill="#CF7000"/>
<path d="M15.0525 12.4588C11.0436 14.9199 6.45007 16.2538 2.67356 15.51L2.14258 15.4056C2.71492 11.2315 4.9767 7.3302 8.63753 4.78516L9.1458 5.15463L9.14897 5.15694L9.16344 5.16754L9.22395 5.21214C9.27793 5.25212 9.35873 5.31231 9.46335 5.39133C9.67263 5.54939 9.97703 5.78261 10.3528 6.07978C11.1051 6.67463 12.1404 7.52331 13.2704 8.53669C14.293 9.45382 15.3746 10.4896 16.3887 11.5813C15.956 11.8848 15.5099 12.178 15.0525 12.4588Z" fill="#CF7000"/>
<circle cx="17.4998" cy="17.4998" r="16.2498" stroke="#9E5703" stroke-width="1.5"/>
</svg>
