<svg width="49" height="62" viewBox="0 0 49 62" fill="none" xmlns="http://www.w3.org/2000/svg">
<path d="M15.8135 61.0458C15.896 61.1579 15.9346 61.0916 15.8135 61.0458V61.0458Z" fill="#1C1C1C"/>
<path d="M37.8182 19.0768C34.7892 19.1355 32.0775 20.473 30.1526 22.577C29.1924 23.3631 28.3694 23.8831 27.9557 23.2677C27.1313 22.3131 29.7031 20.9514 31.2884 19.5013L31.036 19.506C33.3518 17.4192 34.7923 14.3356 34.7303 10.92C34.6182 4.77457 29.6894 -0.113942 23.7206 0.00202118C17.7518 0.1171 13.0043 5.19198 13.1162 11.3372C13.1858 15.1639 15.1248 18.5036 18.0195 20.451C19.557 21.5715 21.2728 22.5863 20.6149 23.4101C20.2232 24.0411 19.3821 23.5518 18.3941 22.804C16.3947 20.7751 13.6349 19.5442 10.6064 19.6021C4.63754 19.7172 -0.110209 24.793 0.00194687 30.9382C0.113817 37.0827 5.04334 41.9713 11.0114 41.8553C16.5109 41.7497 20.9696 37.4327 21.5507 31.9491C21.5515 31.9467 21.5545 31.9491 21.5545 31.9491C21.6389 31.466 21.7747 30.4128 22.1169 30.434C22.5212 30.4575 22.6435 30.3588 22.6771 32.2122C22.9668 41.2837 18.0872 49.5565 17.9667 49.7828C17.9552 49.8048 17.9483 49.8063 17.9385 49.8205C17.9789 49.8009 18.0382 49.7844 18.1279 49.7828C18.4694 49.7766 24.7691 49.7828 24.7691 49.7828C24.7691 49.7828 31.0687 49.7891 31.4101 49.7828C31.4893 49.7813 31.5421 49.7938 31.582 49.8095C31.5736 49.7978 31.5687 49.7986 31.5596 49.7828C31.4315 49.562 26.2559 41.2203 26.2152 32.1441C26.1813 30.2914 26.3072 30.3846 26.71 30.3447C27.0515 30.311 27.2249 31.3579 27.3268 31.8347C27.3276 31.8371 27.3306 31.8347 27.3306 31.8347C28.1113 37.2949 32.7244 41.4371 38.2237 41.3306C44.192 41.2147 48.9402 36.1399 48.8281 29.9954C48.7157 23.8501 43.787 18.9617 37.8182 19.0768Z" fill="#1C1C1C"/>
<path d="M2.17011 61.0566C2.07019 61.1019 2.1017 61.1489 2.17011 61.0566V61.0566Z" fill="#1C1C1C"/>
</svg>
