<svg width="21" height="18" viewBox="0 0 21 18" fill="none" xmlns="http://www.w3.org/2000/svg">
<path d="M6.82559 12.375C10.5959 12.375 13.6508 9.60469 13.6508 6.1875C13.6508 2.77031 10.5959 0 6.82559 0C3.05531 0 0.000359127 2.77031 0.000359127 6.1875C0.000359127 7.54453 0.482719 8.79961 1.29978 9.82266C1.18493 10.1531 1.0143 10.4449 0.833825 10.691C0.67632 10.909 0.515533 11.0777 0.397404 11.1937C0.338339 11.25 0.289119 11.2957 0.256305 11.3238C0.239899 11.3379 0.226773 11.3484 0.22021 11.352L0.213648 11.359C0.0331727 11.5031 -0.0455799 11.7562 0.02661 11.9848C0.0988 12.2133 0.298963 12.375 0.525377 12.375C1.24071 12.375 1.96261 12.1781 2.5631 11.9355C2.86499 11.8125 3.14718 11.6754 3.39329 11.5348C4.40066 12.0691 5.57211 12.375 6.82559 12.375ZM14.7009 6.1875C14.7009 10.1355 11.449 13.1098 7.59671 13.4648C8.39408 16.0805 11.0389 18 14.1758 18C15.4293 18 16.6008 17.6941 17.6114 17.1598C17.8575 17.3004 18.1364 17.4375 18.4383 17.5605C19.0388 17.8031 19.7607 18 20.4761 18C20.7025 18 20.9059 17.8418 20.9748 17.6098C21.0437 17.3777 20.9683 17.1246 20.7845 16.9805L20.7779 16.9734C20.7714 16.9664 20.7582 16.9594 20.7418 16.9453C20.709 16.9172 20.6598 16.875 20.6007 16.8152C20.4826 16.6992 20.3218 16.5305 20.1643 16.3125C19.9838 16.0664 19.8132 15.7711 19.6984 15.4441C20.5154 14.4246 20.9978 13.1695 20.9978 11.809C20.9978 8.54648 18.2119 5.87109 14.6779 5.63906C14.691 5.81836 14.6976 6.00117 14.6976 6.18398L14.7009 6.1875Z" fill="#E74343"/>
</svg>
