<svg width="115" height="157" viewBox="0 0 115 157" fill="none" xmlns="http://www.w3.org/2000/svg">
<path fill-rule="evenodd" clip-rule="evenodd" d="M42.6273 23.0172C42.6426 22.7 42.6042 22.3756 42.5123 22.044C42.5517 21.8538 42.6334 21.6842 42.7575 21.535C42.1765 21.1456 41.7476 20.593 41.471 19.8771C40.8314 18.378 40.2259 16.8644 39.6548 15.3367C39.6769 14.9078 39.5253 14.5294 39.2008 14.2016C38.4201 12.3584 37.6976 10.5108 37.0334 8.65864C36.9894 8.40001 36.9238 8.13213 36.8367 7.85509C36.5766 8.06392 36.5635 8.32205 36.7973 8.62937C37.3064 11.9925 37.9158 15.3445 38.6255 18.6853C38.6095 19.5153 38.7447 20.3311 39.0311 21.133C39.6907 25.3908 40.4031 29.6547 41.1681 33.9243C39.9761 34.8536 38.6451 35.5678 37.1753 36.0666C33.6603 31.9005 30.1378 27.7279 26.6078 23.5489C25.5352 22.0765 24.3929 20.6963 23.1811 19.4082C22.4061 18.5929 22.3174 18.6617 22.9148 19.6149C23.528 20.6892 24.1941 21.7307 24.9126 22.7394C25.2377 23.4391 25.6293 24.1269 26.0871 24.8029C26.6252 25.9015 27.2468 26.9774 27.9518 28.0308C28.7207 29.646 29.641 31.1985 30.7124 32.6883C31.6743 34.5834 32.756 36.4357 33.9574 38.2449C32.2925 39.5911 30.674 40.9889 29.1019 42.4379C28.9754 42.5269 28.8523 42.5517 28.7326 42.512C27.6519 41.6422 26.5078 40.901 25.2998 40.2885C24.9445 39.8383 24.5026 39.5438 23.974 39.4049C23.1949 38.7285 22.3453 38.1837 21.4252 37.7704C21.1882 37.3746 20.8593 37.1339 20.4383 37.0488C20.0304 36.6755 19.5885 36.381 19.1125 36.1652C18.8977 35.8223 18.6031 35.6259 18.2285 35.5762C17.8844 35.1968 17.4768 34.9466 17.0056 34.8252C15.8359 34.003 14.6573 33.2176 13.4699 32.4691C13.2074 32.2289 12.9128 32.0325 12.586 31.88C12.8412 32.5039 13.2631 32.9558 13.8513 33.2356C15.0595 34.5339 16.3005 35.7666 17.5747 36.9336C19.2718 38.5821 20.9347 40.2666 22.5633 41.9871C22.9932 42.6356 23.528 43.1414 24.1676 43.5045C25.0285 44.1436 25.7246 44.9491 26.2563 45.9211C25.3709 47.112 24.5525 48.3491 23.8013 49.6324C23.521 50.0072 23.2002 50.3269 22.8386 50.5919C19.1478 49.5566 15.4578 48.5599 11.7685 47.6016C10.1538 46.9695 8.4969 46.4844 6.79796 46.1464C6.4812 46.0792 6.17644 45.9615 5.88378 45.7933C5.65774 45.6855 5.56904 45.7543 5.61739 46.0001L6.97353 46.6476C8.79238 47.5738 10.5905 48.5159 12.3678 49.4739C15.2117 51.0061 18.0784 52.5001 20.9678 53.9562C20.5839 55.8833 20.0218 57.7715 19.2816 59.6208C18.3694 59.6473 17.4612 59.7145 16.5572 59.8225C14.8 59.7053 13.0312 59.626 11.2507 59.5844C8.78267 59.6207 6.31962 59.6549 3.86146 59.6874C3.41297 59.4887 2.9922 59.4964 2.59915 59.7107C3.0218 59.7752 3.43246 59.8463 3.83119 59.9234C5.5224 60.373 7.23377 60.7449 8.96517 61.0392C12.0533 61.8429 15.1834 62.5306 18.3553 63.1021C18.6087 63.2856 18.7359 63.5411 18.7367 63.8686C18.6887 65.6424 18.6018 67.4098 18.4763 69.1706C15.2463 69.785 12.0354 70.5058 8.84394 71.333C6.56113 71.7394 4.31797 72.2407 2.11462 72.8364C4.70471 72.7385 7.29087 72.6795 9.87315 72.6593C12.8511 72.5288 15.8307 72.5185 18.8122 72.6285C19.2332 74.2141 19.5874 75.8164 19.8747 77.4351C19.9425 77.6573 20.0576 77.8514 20.2198 78.0173C17.7109 79.2396 15.2611 80.5742 12.8699 82.021C10.0197 83.4296 7.20746 84.9391 4.43321 86.5493C7.09405 85.8372 9.70239 84.9818 12.2584 83.983C15.117 83.108 17.9886 82.2254 20.8736 81.3349C21.5846 82.7489 22.3454 84.1417 23.156 85.5135C23.2955 85.8256 23.2774 86.1229 23.1015 86.4058C19.7807 89.4547 16.4346 92.4763 13.0634 95.4705C11.9102 96.4591 10.7629 97.4557 9.62153 98.4601C10.1627 98.2618 10.6581 97.9836 11.1079 97.6255C15.8411 94.7722 20.6039 91.9262 25.396 89.0876C26.7277 90.7467 28.0756 92.3922 29.4402 94.0241C24.8085 99.5844 20.1406 105.119 15.4365 110.629C11.313 105.506 7.84391 99.9818 5.02945 94.0551C0.245509 81.4518 -1.12567 68.4557 0.916134 55.0669C4.89624 35.1047 15.56 19.6047 32.9074 8.56678C38.2632 5.09256 43.9945 2.48663 50.1016 0.74873C51.4676 0.448992 52.839 0.199538 54.2155 0C53.3319 10.4681 52.4105 20.9224 51.4513 31.3631C51.2323 31.668 50.9315 31.8304 50.5492 31.8506C49.2008 31.9932 47.8568 32.1862 46.5171 32.4297C46.3898 32.4092 46.2768 32.3552 46.178 32.2678C44.9773 29.1802 43.7938 26.0967 42.6273 23.0172ZM52.3502 43.5215C52.4128 44.4945 52.4269 45.4753 52.3925 46.4635C45.2122 47.3513 38.718 49.9827 32.9098 54.3575C28.437 58.1676 25.7054 62.9435 24.7152 68.6852C24.5738 71.1428 24.805 73.5488 25.4083 75.9034C25.3863 76.3323 25.5378 76.7107 25.8624 77.0385C25.8176 77.4137 25.9346 77.7479 26.2135 78.041C26.2729 78.5625 26.4928 79.0293 26.8734 79.4414C28.6812 82.4998 30.8426 85.285 33.3574 87.7969L33.7388 88.5634C33.2176 89.7032 32.4911 90.692 31.5592 91.5297C31.2529 91.7438 30.9178 91.8621 30.5542 91.8846C27.9577 88.8613 25.6107 85.6535 23.5132 82.2614C21.6165 77.7027 20.6499 72.9279 20.6134 67.9371L21.5671 60.5034C22.2998 58.0585 23.1292 55.6439 24.0555 53.26C29.9161 42.2411 39.0228 35.9179 51.3756 34.2905C51.6527 37.3808 51.9775 40.4579 52.3502 43.5215ZM57.6536 47.0557C56.4871 47.393 55.3105 47.5268 54.124 47.4573C49.3217 48.0913 44.6648 49.3322 40.1538 51.1798C38.0115 52.4359 35.938 53.7973 33.933 55.2635C29.1183 59.114 26.4625 64.0792 25.9654 70.1587C26.1692 72.7509 26.6655 75.2699 27.4546 77.7154C28.1266 78.8267 28.7824 79.9467 29.4222 81.0759C30.6775 82.726 31.9912 84.3273 33.3634 85.8797L35.7912 88.4582C36.9881 88.8852 38.2061 88.8963 39.4449 88.4915C40.6235 87.7186 41.7335 86.8572 42.7748 85.9075C49.0059 79.2479 54.1521 71.8545 58.2134 63.7271C59.0107 61.5625 59.7311 59.3743 60.3749 57.1624C61.487 51.6985 61.1571 46.3234 59.3852 41.0371C59.2859 40.6135 59.0458 40.3041 58.6648 40.1087C58.327 42.4308 57.9899 44.7465 57.6536 47.0557ZM61.5648 42.7456C62.003 43.2257 62.4692 43.643 62.9633 43.9978C63.9694 45.026 65.0046 45.9934 66.0691 46.9001C67.9528 48.8273 69.9204 50.6296 71.9719 52.3066C78.4452 58.4226 84.9635 64.4848 91.5268 70.4934C92.1376 71.006 92.6624 71.5905 93.1009 72.2468C91.7429 72.0707 90.4252 71.7476 89.1475 71.2773C86.7574 68.4423 84.2711 65.6968 81.6888 63.0407C79.499 62.7528 77.3286 62.8433 75.1774 63.3125C74.3202 63.5355 73.4998 63.8534 72.7164 64.2661C72.2905 64.523 72.0827 64.8968 72.0928 65.3875C72.1229 66.2447 72.1127 67.1025 72.0625 67.9609C72.1656 68.5501 72.2917 69.1251 72.4408 69.686C72.9846 69.8871 73.5457 69.8767 74.1239 69.6549C77.1952 68.8469 80.288 68.1114 83.4021 67.4485C87.2329 71.7204 91.1762 75.8851 95.2319 79.9429C98.2788 82.8674 101.538 85.509 105.009 87.8675C105.428 88.151 105.89 88.2881 106.396 88.2791C106.63 88.4448 106.823 88.6487 106.977 88.8906C106.453 89.3959 105.835 89.6988 105.121 89.7993C102.412 90.0509 99.7019 90.2456 96.9907 90.3835C96.9821 91.7007 96.8493 93.0337 96.5922 94.3825C96.4426 95.1674 95.476 95.3883 95.021 94.7314C94.1105 93.4167 93.4402 92.0213 93.0101 90.5451C92.2704 90.5676 91.5305 90.5858 90.7906 90.5998C90.9187 91.3611 91.0573 92.1206 91.2063 92.8783C92.3546 95.1864 94.0113 97.2697 95.8775 99.1077L96.3168 99.4673L97.3325 100.376L97.6233 100.712C97.9235 100.993 98.0195 101.415 97.8881 101.771L97.8868 101.779C97.8737 101.853 97.8522 101.926 97.8228 101.995L97.7602 102.143L97.677 102.3C97.6259 102.397 97.5593 102.484 97.4798 102.559L97.2851 102.743C97.2455 102.781 97.2029 102.815 97.1577 102.845L96.9146 103.009C96.8725 103.037 96.8283 103.063 96.7824 103.084L96.5109 103.212C96.4529 103.24 96.3977 103.273 96.3459 103.311L96.1031 103.489C95.9971 103.567 95.9075 103.665 95.8395 103.777L95.7818 103.873C95.7466 103.931 95.7188 103.993 95.6991 104.059C95.6489 104.224 95.6529 104.402 95.7106 104.565L95.733 104.629C95.7656 104.721 95.8116 104.808 95.8695 104.887L96.2633 105.425L96.7979 106.03L97.0919 106.462C97.2127 106.64 97.2666 106.854 97.244 107.068C97.2318 107.183 97.1978 107.295 97.1437 107.397L97.1391 107.405C97.0902 107.498 97.0264 107.582 96.9504 107.653L96.7445 107.848L96.3884 108.1C96.3407 108.134 96.2902 108.163 96.2374 108.188L95.7822 108.403L94.8961 108.945C94.8922 108.947 94.8883 108.95 94.8845 108.952C94.8737 108.96 94.8635 108.968 94.854 108.977L94.7695 109.057C94.7361 109.088 94.7279 109.138 94.7494 109.179C94.7543 109.188 94.7605 109.196 94.7678 109.204C94.7771 109.213 94.788 109.22 94.8001 109.225L95.641 109.578C95.6993 109.603 95.7553 109.632 95.808 109.668L96.2149 109.938C96.35 110.028 96.4611 110.15 96.5388 110.292L96.5797 110.367C96.6181 110.437 96.6479 110.512 96.6684 110.59L96.7112 110.751C96.7333 110.835 96.7445 110.921 96.7445 111.007V111.123C96.7445 111.189 96.7364 111.256 96.7203 111.32C96.6674 111.533 96.5309 111.716 96.3416 111.827L95.9205 112.075L95.5684 112.291L95.3533 112.42C95.1174 112.562 94.9583 112.802 94.9205 113.075V113.886C94.9205 114.011 94.9441 114.135 94.9898 114.251L95.5684 115.724L95.7822 116.228L95.9104 116.632C95.9318 116.699 95.946 116.769 95.9527 116.839L95.9863 117.188C95.9928 117.255 95.9925 117.322 95.9854 117.389L95.959 117.638C95.9481 117.741 95.9213 117.842 95.8795 117.936L95.7057 118.33C95.6854 118.376 95.6618 118.421 95.6348 118.463L95.4213 118.799C95.377 118.869 95.3241 118.933 95.2639 118.99L94.9268 119.308L94.4747 119.65C94.4199 119.691 94.3609 119.727 94.2988 119.756L93.7156 120.031C93.6678 120.054 93.6183 120.073 93.5676 120.087L92.9489 120.267L92.3608 120.419L91.2382 120.621L89.6344 120.823L87.7633 120.974L86.1061 121.075H84.8231H84.5175C84.3328 121.075 84.1517 121.126 83.9943 121.223L83.4205 121.575L82.4908 122.22C82.351 122.317 82.2004 122.373 82.0497 122.393C78.6787 124.959 76.4522 128.931 75.1493 134.18C74.9838 134.18 74.5131 134.041 74.0425 133.901C73.5718 133.762 73.1011 133.623 72.9356 133.623C72.9579 131.969 73.0531 130.342 73.148 128.721C73.2885 126.321 73.4283 123.933 73.3295 121.485C72.4658 117.811 71.859 114.097 71.5088 110.342C71.8259 106.057 73.4259 102.342 76.309 99.1984L79.8463 95.3136L83.4266 91.3815C84.9683 91.4364 86.5133 91.6027 88.0613 91.8805C88.54 92.2507 89.0918 92.3062 89.7165 92.0468C90.1266 91.535 90.1462 91.0582 89.7754 90.6163C87.7009 90.6447 85.6258 90.6399 83.5501 90.6019C82.6181 90.583 81.6909 90.5355 80.7686 90.4594L66.7083 107.182C64.0083 110.722 61.9117 114.603 60.4183 118.824C59.9598 120.574 59.6288 122.348 59.4252 124.146C59.1018 130.355 58.7707 136.565 58.432 142.773C58.3268 143.506 57.2563 143.411 57.1584 142.677C56.7344 139.499 55.8348 136.426 54.4594 133.46C53.4678 131.385 52.4305 129.339 51.3477 127.321C50.577 125.885 50.1137 124.29 50.1682 122.661C50.4942 112.91 54.119 104.545 61.0428 97.5658C61.395 97.2108 61.781 96.89 62.1873 96.5984L63.8943 95.3733L66.2117 93.7101C68.8883 92.2462 71.5332 90.7336 74.1463 89.1723L74.0328 89.0626C73.7009 88.4083 73.363 87.7576 73.0191 87.1104C69.6675 89.1209 66.2948 91.0991 62.9012 93.045C55.1691 98.9078 50.3571 106.488 48.4648 115.786C48.2561 116.811 46.8308 116.954 46.5538 115.945C45.8796 113.489 45.4546 110.991 45.2789 108.45C45.0211 108.988 44.7342 109.513 44.4182 110.025C44.2559 109.859 44.1409 109.665 44.0731 109.443C44.3636 105.307 44.967 101.227 45.8835 97.201C44.7206 95.967 43.3927 94.9433 41.8998 94.13C41.1 93.6276 40.3291 93.0924 39.5871 92.5247C38.8694 91.8919 38.0985 91.3569 37.2744 90.9195C36.8624 90.3247 36.3175 89.8976 35.6398 89.6381L35.6701 89.4021C36.5324 89.649 37.4053 89.857 38.2885 90.0263C38.6552 89.915 39.0245 89.8409 39.3965 89.804C40.7082 88.9278 41.9514 87.9631 43.1259 86.9099C50.3954 79.7506 56.0117 71.4964 59.9752 62.1474C61.0975 58.8586 61.8512 55.4758 62.2366 51.999C62.1386 48.6435 61.6422 45.3455 60.7474 42.1049C61.0001 42.378 61.2726 42.5916 61.5648 42.7456ZM87.7026 94.7537C88.5719 94.1934 89.9352 93.7457 90.2656 94.7257C90.4978 95.4142 89.942 96.1495 89.3492 96.5696C87.5171 97.8681 85.4324 98.2454 83.0953 97.7018C82.7887 97.642 82.5277 97.5664 82.3123 97.475C80.8114 96.8384 83.0714 95.4575 84.7017 95.4448C85.0197 95.4423 85.338 95.4358 85.6566 95.4251C86.3656 95.4014 87.0509 95.1736 87.6472 94.7894L87.7026 94.7537ZM69.1261 110.676C69.0237 109.778 67.8938 109.463 67.3877 110.212C65.2141 113.43 63.5608 116.939 62.428 120.741C62.4125 120.793 62.4013 120.847 62.3946 120.901C61.4889 128.16 60.9408 135.451 60.7495 142.773C60.635 144.156 60.4311 145.509 60.1379 146.832C59.9162 147.831 61.1394 148.631 61.8808 147.925C63.5843 146.303 65.1935 144.585 66.7084 142.773C70.8021 136.851 72.2366 130.309 71.012 123.148C70.2268 118.974 69.5983 114.817 69.1261 110.676ZM92.6836 122.075H93.6421C94.2051 122.075 94.6637 122.542 94.5834 123.099C94.377 124.531 93.8164 125.831 92.9011 126.999C92.8668 127.043 92.8283 127.083 92.7868 127.12C88.9297 130.57 84.9226 133.822 80.7658 136.877C80.0457 137.543 79.3583 138.236 78.7036 138.955C78.0777 139.643 76.9061 139.246 76.9439 138.317C77.3324 128.757 82.5792 123.343 92.6836 122.075ZM106.206 147.117C106.026 146.475 106.124 145.808 106.484 145.211C106.924 144.485 107.359 144.146 108.372 143.667C108.576 143.571 108.856 143.595 109.027 143.723C109.877 144.36 110.204 144.763 110.423 145.545C110.602 146.187 110.505 146.854 110.144 147.451C109.731 148.134 109.321 148.474 108.431 148.911C108.129 149.059 107.707 149.023 107.456 148.828C106.713 148.253 106.411 147.852 106.206 147.117ZM110.642 141.79C110.282 142.386 110.184 143.053 110.364 143.695C110.569 144.431 110.871 144.831 111.614 145.406C111.865 145.601 112.287 145.637 112.589 145.489C113.479 145.052 113.889 144.712 114.302 144.029C114.663 143.432 114.76 142.766 114.581 142.123C114.362 141.341 114.035 140.938 113.185 140.301C113.014 140.173 112.734 140.149 112.53 140.246C111.517 140.725 111.081 141.064 110.642 141.79ZM109.127 135.452C108.61 135.003 107.941 134.775 107.216 134.801C106.333 134.832 105.814 135.04 104.896 135.668C104.711 135.794 104.603 136.04 104.644 136.242C104.844 137.251 105.07 137.713 105.699 138.26C106.216 138.708 106.885 138.936 107.61 138.911C108.441 138.881 108.949 138.695 109.771 138.151C110.049 137.967 110.212 137.596 110.147 137.295C109.954 136.405 109.719 135.966 109.127 135.452ZM101.38 148.885C101.019 149.481 100.922 150.148 101.101 150.79C101.307 151.526 101.609 151.927 102.351 152.502C102.603 152.696 103.025 152.732 103.326 152.584C104.217 152.148 104.627 151.807 105.04 151.124C105.4 150.528 105.498 149.861 105.318 149.219C105.1 148.437 104.772 148.033 103.923 147.396C103.752 147.268 103.472 147.245 103.268 147.341C102.255 147.82 101.819 148.159 101.38 148.885ZM101.031 141.573C101.589 141.979 102.278 142.154 103.001 142.073C103.881 141.975 104.382 141.728 105.244 141.035C105.418 140.895 105.504 140.643 105.445 140.445C105.154 139.458 104.888 139.017 104.209 138.523C103.652 138.117 102.962 137.941 102.239 138.022C101.411 138.115 100.919 138.339 100.146 138.942C99.8838 139.146 99.7544 139.527 99.8467 139.821C100.119 140.69 100.393 141.108 101.031 141.573ZM97.2627 141.401C97.9738 141.241 98.6846 141.336 99.2938 141.675C99.9915 142.063 100.319 142.445 100.705 143.272C100.835 143.553 100.756 143.943 100.521 144.174C99.8279 144.856 99.3658 145.132 98.5515 145.316C97.8404 145.476 97.1297 145.381 96.5204 145.042C95.7786 144.63 95.4549 144.224 95.0358 143.282C94.9515 143.093 95.0043 142.834 95.1591 142.677C95.9294 141.896 96.397 141.597 97.2627 141.401ZM82.1996 153.495C82.0367 152.848 81.6211 152.318 81.0119 151.979C80.2702 151.567 79.7237 151.489 78.6065 151.576C78.382 151.593 78.1506 151.753 78.0658 151.949C77.644 152.923 77.5602 153.436 77.7585 154.223C77.9213 154.87 78.3369 155.401 78.9461 155.739C79.6437 156.127 80.1687 156.219 81.1583 156.157C81.4937 156.135 81.8421 155.895 81.9638 155.601C82.323 154.733 82.386 154.236 82.1996 153.495ZM75.704 151.072C76.3132 151.411 76.7288 151.941 76.8916 152.588C77.0781 153.329 77.015 153.826 76.6559 154.694C76.5342 154.988 76.1857 155.228 75.8503 155.25C74.8607 155.312 74.3358 155.22 73.6381 154.833C73.0289 154.494 72.6133 153.963 72.4505 153.317C72.2522 152.529 72.336 152.016 72.7578 151.042C72.8426 150.846 73.074 150.686 73.2985 150.669C74.4158 150.582 74.9623 150.66 75.704 151.072ZM73.874 144.818C74.1001 144.172 74.5676 143.642 75.2098 143.304C75.9918 142.893 76.5459 142.816 77.6546 142.905C77.8773 142.923 78.0931 143.083 78.1587 143.279C78.4852 144.254 78.5188 144.767 78.2435 145.554C78.0174 146.2 77.55 146.73 76.9077 147.068C76.1722 147.454 75.6383 147.546 74.6549 147.481C74.3216 147.459 73.9967 147.218 73.9037 146.924C73.6295 146.056 73.6151 145.558 73.874 144.818ZM87.2668 152.634C87.876 152.973 88.2916 153.504 88.4544 154.15C88.6409 154.891 88.5779 155.389 88.2187 156.256C88.097 156.55 87.7485 156.791 87.4132 156.812C86.4235 156.875 85.8986 156.783 85.201 156.395C84.5918 156.056 84.1762 155.526 84.0133 154.879C83.8151 154.092 83.8988 153.579 84.3207 152.604C84.4054 152.408 84.6368 152.249 84.8614 152.231C85.9786 152.144 86.5251 152.222 87.2668 152.634ZM83.9401 146.114C83.6578 146.743 83.1463 147.237 82.4784 147.526C81.6652 147.877 81.1082 147.912 80.0154 147.738C79.7957 147.703 79.5958 147.526 79.5482 147.325C79.3113 146.324 79.3238 145.809 79.6674 145.043C79.9497 144.414 80.4612 143.92 81.1291 143.631C81.894 143.301 82.4323 143.25 83.4029 143.39C83.7318 143.438 84.0329 143.704 84.0989 144.005C84.2936 144.894 84.2634 145.393 83.9401 146.114ZM87.1265 144.094C86.4294 144.308 85.8599 144.744 85.499 145.34C85.0859 146.023 84.9909 146.518 85.0671 147.427C85.0929 147.735 85.3554 148.034 85.674 148.118C86.6141 148.366 87.1521 148.377 87.9504 148.132C88.6476 147.919 89.2171 147.483 89.5779 146.887C90.0172 146.16 90.0968 145.647 89.9934 144.622C89.9727 144.416 89.7983 144.217 89.586 144.158C88.5297 143.862 87.9752 143.835 87.1265 144.094ZM98.2467 147.827C98.1934 147.504 98.3282 147.179 98.5939 146.99L112.293 137.212C112.773 136.869 113.438 136.981 113.779 137.462C114.12 137.943 114.007 138.611 113.528 138.954L99.8015 148.751C99.552 148.929 99.2235 148.95 98.9539 148.805C98.9089 148.781 98.8664 148.752 98.8268 148.72L98.774 148.677C98.5917 148.528 98.4463 148.339 98.3493 148.124L98.3112 148.04C98.2805 147.972 98.2589 147.9 98.2467 147.827ZM72.596 149.891C72.2726 149.846 72.0022 149.621 71.8994 149.311C71.876 149.24 71.8619 149.167 71.8575 149.092L71.852 149C71.8381 148.765 71.8788 148.53 71.9711 148.313L71.9978 148.251C72.0178 148.204 72.0423 148.159 72.0708 148.116C72.242 147.863 72.5425 147.729 72.8463 147.77L89.5556 150.068C90.1396 150.148 90.5497 150.687 90.4716 151.271C90.3935 151.856 89.8567 152.264 89.2726 152.184L72.596 149.891Z" fill="#8D8F1D"/>
</svg>
