<svg width="78" height="88" viewBox="0 0 78 88" fill="none" xmlns="http://www.w3.org/2000/svg">
<path fill-rule="evenodd" clip-rule="evenodd" d="M59.9507 13.7391C59.8484 13.9929 59.7158 14.2164 59.5528 14.4093C58.8004 16.918 58.0569 19.4375 57.3223 21.9679C57.3424 22.0709 57.3876 22.1597 57.4581 22.2341C58.4218 22.7282 59.364 23.2561 60.2844 23.818C60.5356 23.9901 60.8041 24.033 61.0898 23.9463C66.7439 17.8167 72.3805 11.6602 78 5.47671C77.0342 4.93714 76.0476 4.43162 75.04 3.96042C70.343 2.10506 65.4636 0.979524 60.4016 0.583957C44.1094 -0.833229 29.8806 3.79913 17.7151 14.481C9.95204 21.9489 4.53416 30.8191 1.46135 41.0914C0.373082 46.195 -0.10732 51.3611 0.0200073 56.5896C5.65455 55.3849 11.2785 54.1466 16.892 52.8747C16.8193 51.1844 16.7637 49.4935 16.7249 47.8019C12.3261 47.2774 7.94229 46.7718 3.57361 46.2851C3.1164 46.2938 2.66904 46.23 2.2314 46.0935C3.43787 46.0111 4.64425 45.9364 5.85055 45.8697C9.42722 45.6089 13.0013 45.3186 16.5726 44.9989C16.8205 44.9052 16.9757 44.7262 17.0384 44.4617C17.1898 43.2035 17.3829 41.956 17.6175 40.7193C15.3651 39.8867 13.1248 39.0557 10.8965 38.226C8.79947 37.6209 6.73868 36.8999 4.71402 36.063C7.24451 36.3876 9.75033 36.7941 12.2313 37.2826C14.441 37.5252 16.6334 37.8669 18.8087 38.3081C18.7865 38.1249 18.8077 37.9466 18.8723 37.7736C19.4736 36.6124 20.0246 35.4293 20.5254 34.2244C18.6958 32.7133 16.8091 31.2791 14.8654 29.9217C13.2249 28.6859 11.5632 27.4727 9.88018 26.2821C11.5597 26.9713 13.2186 27.7394 14.8567 28.5865C17.2721 29.6072 19.6484 30.7045 21.9852 31.8782C22.9159 30.827 23.8253 29.7528 24.7133 28.6559C24.8711 28.4487 24.9143 28.2259 24.843 27.9874C23.1163 26.0929 21.4721 24.1452 19.9105 22.1444C18.9594 21.1214 18.0585 20.0591 17.2079 18.9574C16.9933 18.7159 16.7684 18.4725 16.5326 18.2274C16.8845 18.2821 17.1539 18.4807 17.3411 18.823C18.9092 19.991 20.4811 21.1604 22.0573 22.3308C23.1616 23.2179 24.2402 24.1233 25.2932 25.047C25.9164 25.4159 26.5224 25.8125 27.1113 26.2369C28.4729 25.4269 29.7408 24.5063 30.9151 23.4749C29.7944 21.1583 28.7065 18.8287 27.6513 16.4861C26.9921 15.0217 26.3121 13.5574 25.6113 12.093L25.068 11.0283C25.1563 10.8498 25.2456 10.8492 25.3362 11.0266C25.4397 11.2743 25.5752 11.496 25.7428 11.6916C26.6523 12.7265 27.464 13.834 28.1781 15.0139C30.0446 17.4029 31.893 19.8165 33.7232 22.2549C34.0796 22.2623 34.4368 22.2155 34.795 22.1144C35.89 21.6672 37.0049 21.2817 38.1399 20.9577C38.2741 20.0868 38.224 19.2415 37.9893 18.4217C37.7609 17.8831 37.6677 17.3051 37.7099 16.6877C37.5133 14.8138 37.2776 12.9459 37.0029 11.0843C36.7626 9.73122 36.5748 8.35273 36.4397 6.94866C36.2035 6.48753 36.1555 5.99821 36.296 5.48082C36.4287 5.73512 36.5197 6.00158 36.5694 6.28019C36.9573 7.32704 37.3219 8.39287 37.663 9.47767C37.9019 9.78216 38.0383 10.1372 38.0722 10.5432C38.2846 10.7557 38.3758 11.0222 38.3456 11.3426C38.5419 11.709 38.6786 12.1087 38.7557 12.5416C38.9804 12.7989 39.0717 13.11 39.0299 13.4745C39.4112 14.1804 39.6843 14.9353 39.8492 15.7391C40.1159 16.0824 40.2526 16.4821 40.2593 16.9382C40.726 17.9091 41.0901 18.9303 41.352 20.0021C41.4085 20.0851 41.4982 20.129 41.6211 20.1339C43.3145 19.979 45.0124 19.8789 46.7148 19.8337C46.8308 18.1103 47.0434 16.4175 47.3522 14.7557C47.396 13.2968 47.5655 11.8713 47.8608 10.4796C47.925 9.47344 48.0527 8.49347 48.244 7.53953C48.2818 6.89129 48.367 6.26757 48.5 5.66852C48.534 4.68409 48.6169 3.70428 48.7491 2.72935C48.8328 1.8386 48.9221 1.83802 49.0173 2.72761C49.1597 4.12696 49.2137 5.55092 49.1792 6.99935C49.3878 11.3453 49.5947 15.6835 49.8002 20.014C50.9695 20.4096 52.1554 20.6022 53.3575 20.5917C54.9388 17.5254 56.5506 14.4884 58.1928 11.4806C58.3996 10.8357 58.7087 10.2551 59.1201 9.73873C60.2873 7.28577 61.5231 4.87429 62.8278 2.50429C62.8287 2.19718 62.9618 2.04049 63.227 2.03436C63.1481 2.25145 63.06 2.45231 62.9627 2.63694C62.4866 4.12777 62.0495 5.64384 61.6513 7.18531C61.6978 7.54926 61.6105 7.86147 61.3892 8.12168C61.0112 9.36258 60.6617 10.6112 60.3408 11.8672C60.1694 12.453 60.173 13.0094 60.3517 13.5362C60.2012 13.5704 60.0675 13.638 59.9507 13.7391ZM54.3829 33.9375C54.8825 33.3301 55.3478 32.7039 55.7787 32.0591C57.0247 29.9442 58.3073 27.844 59.6266 25.7584C51.0388 20.8133 42.2304 20.4033 33.2016 24.5282C31.464 25.5858 29.7727 26.7096 28.1278 27.8993L23.9313 32.1326C21.5411 35.302 19.8429 38.7847 18.8365 42.5807C18.521 45.737 18.4521 48.8976 18.63 52.0623C18.8705 52.2239 19.1393 52.3112 19.4363 52.3241C20.4298 52.2457 21.3667 51.9725 22.247 51.5047L22.3767 50.8362C22.0031 48.0339 21.9849 45.23 22.322 42.4245C22.2809 41.9803 22.3677 41.5791 22.5824 41.2211C22.548 40.9011 22.6357 40.6335 22.8454 40.4182C22.7989 40.0543 22.8861 39.7421 23.1075 39.4818C23.8649 37.7032 24.8823 36.072 26.1599 34.5883C29.5614 31.4412 33.5957 29.7459 38.2625 29.5025C44.0457 29.5481 49.4192 31.0264 54.3829 33.9375ZM54.9959 35.4023C55.7115 36.0199 56.5193 36.5042 57.4191 36.8553C58.748 35.5596 60.0805 34.2602 61.4166 32.9571C61.5628 33.2647 61.5648 33.5762 61.4227 33.8917C59.9856 38.0868 57.595 41.6408 54.2508 44.5536C52.7748 45.6391 51.2618 46.6727 49.7117 47.6542C43.2172 50.823 36.3925 53.0038 29.2375 54.1965C28.1207 54.2928 27.0032 54.3001 25.8852 54.2183C24.9071 53.8749 24.1433 53.279 23.5939 52.4306L23.3075 49.6284C23.1916 47.9846 23.1362 46.3382 23.1413 44.6891C23.2832 43.6667 23.4107 42.6423 23.5236 41.6155C24.2077 39.6897 25.1122 37.8589 26.2369 36.1234C29.4904 32.5244 33.5683 30.673 38.4706 30.5693C40.4457 30.6128 42.4134 30.7557 44.3736 30.9983C48.1157 32.0126 51.6566 33.4807 54.9959 35.4023ZM62.2507 37.4915C62.1102 37.0286 62.0176 36.5397 61.9729 36.0245C61.8629 35.786 61.7941 35.5194 61.7666 35.2247C60.7648 37.7039 59.4836 40.0266 57.9231 42.193C55.9986 44.2023 53.887 45.9741 51.5881 47.5084C44.5647 51.496 37.0269 53.9931 28.9745 54.9993C27.7236 55.0965 26.472 55.1047 25.22 55.0237C24.9672 54.8672 24.6982 54.7354 24.4128 54.6284C23.9369 54.0945 23.4862 53.541 23.061 52.9681L22.9278 53.1025C23.2303 53.5941 23.3679 54.1273 23.3405 54.7021C23.6494 55.3768 23.8776 56.0874 24.0249 56.8341C24.219 57.5513 24.447 58.2621 24.7092 58.966C25.2587 60.2014 25.6023 61.49 25.7401 62.8316C23.2147 64.9308 20.8606 67.216 18.6775 69.6872C18.6129 69.8603 18.5917 70.0386 18.614 70.2217C19.8681 69.7433 21.0261 69.0903 22.0877 68.2631C24.4456 67.1626 26.4303 66.2117 28.3101 65.3111C31.729 63.6731 34.8008 62.2014 39.1393 60.2985C39.3947 60.1411 40.375 60.699 41.2056 61.1716C41.7308 61.4705 42.1961 61.7353 42.3805 61.7636C42.6936 61.9258 42.9449 62.0462 43.1557 62.1472C43.9702 62.5375 44.1791 62.6377 45.0045 63.7304C45.2712 64.3647 45.9816 64.6709 46.6675 64.9667C47.455 65.3062 48.2103 65.6318 48.2246 66.424C48.011 68.0556 47.7534 69.6819 47.4517 71.3027L47.5218 71.7696C49.0689 73.6439 50.8008 75.3462 52.7177 76.8765C57.1992 80.4399 61.8693 83.7476 66.7283 86.7998C67.2273 87.0812 67.7644 87.1889 68.3395 87.1231C68.3595 86.8961 68.3358 86.6737 68.2681 86.456C67.9444 86.217 67.7188 85.907 67.5916 85.5257C66.5398 82.3578 65.7588 79.1137 65.2487 75.7936C64.6495 71.2701 64.1729 66.7333 63.8192 62.1834C61.5321 61.0963 59.2234 60.0654 56.8932 59.0906C56.4208 58.9511 56.0614 58.6863 55.8152 58.2964C55.9923 57.8702 56.1907 57.446 56.4104 57.0241C56.8572 56.5063 57.2784 55.9695 57.6738 55.4136C57.9047 55.0988 58.2167 54.9633 58.6099 55.0069C59.3042 55.1251 59.9759 55.321 60.6251 55.5947C62.2104 56.3385 63.6249 57.3308 64.8685 58.5714C65.215 61.4973 65.4576 64.4333 65.5963 67.3793C66.1758 68.294 66.8517 69.1353 67.6241 69.9031C67.6646 69.2766 67.6157 68.6537 67.4779 68.0347C66.2383 61.0667 65.0531 54.0867 63.9223 47.0944C63.4376 45.0434 63.0665 42.9539 62.8087 40.826C62.5749 39.7388 62.3889 38.6273 62.2507 37.4915Z" fill="#8D8F1D"/>
</svg>
