<svg width="16" height="17" viewBox="0 0 16 17" fill="none" xmlns="http://www.w3.org/2000/svg">
<path d="M16.0005 5.14188V5.19498C16.0005 5.82513 16.0005 6.1402 15.8113 6.39799C15.6221 6.65576 15.2786 6.80877 14.5916 7.11479L13.8672 7.4375C14.3663 6.08446 14.5329 4.63073 14.5945 3.3875C14.597 3.33419 14.6001 3.28023 14.6031 3.2257L14.6052 3.1875C15.1999 3.35308 15.5337 3.47653 15.742 3.70824C16.0006 3.99583 16.0006 4.37785 16.0005 5.14188Z" fill="#E74343"/>
<path d="M5.58107e-07 5.14186V5.19496C2.79459e-05 5.82507 3.71516e-05 6.14013 0.189187 6.3979C0.378336 6.65566 0.721788 6.80866 1.40869 7.11466L2.13334 7.4375C1.6342 6.08452 1.46769 4.6308 1.40614 3.38758C1.4035 3.33428 1.40052 3.28032 1.39752 3.22579L1.39541 3.1875C0.800647 3.35312 0.466744 3.47656 0.25845 3.7083C-3.60497e-05 3.99588 -2.68297e-05 4.37788 5.58107e-07 5.14186Z" fill="#E74343"/>
<path fill-rule="evenodd" clip-rule="evenodd" d="M10.8072 0.284076C9.94923 0.1287 8.82759 0 7.4662 0C6.10473 0 4.98312 0.1287 4.1251 0.284076C3.25587 0.441484 2.82125 0.520192 2.45813 1.0002C2.095 1.48021 2.11419 1.99902 2.15257 3.03663C2.28434 6.59879 3.00054 11.048 6.89355 11.4418V14.3373H5.80184C5.43797 14.3373 5.1247 14.613 5.05333 14.996L4.9089 15.7711H2.88608C2.5699 15.7711 2.31358 16.0462 2.31358 16.3855C2.31358 16.7249 2.5699 17 2.88608 17H12.046C12.3622 17 12.6185 16.7249 12.6185 16.3855C12.6185 16.0462 12.3622 15.7711 12.046 15.7711H10.0232L9.87877 14.996C9.8074 14.613 9.49413 14.3373 9.13025 14.3373H8.03854V11.4418C11.9317 11.0482 12.648 6.59887 12.7797 3.03663C12.8181 1.99902 12.8374 1.48021 12.4742 1.0002C12.111 0.520192 11.6765 0.441484 10.8072 0.284076Z" fill="#E74343"/>
</svg>
