<svg width="1368" height="1112" viewBox="0 0 1368 1112" fill="none" xmlns="http://www.w3.org/2000/svg">
<path d="M564.761 7.03564C561.467 11.7214 560.055 21.6134 562.408 34.6294C564.761 50.7692 563.349 55.9756 555.349 64.3058C545.936 73.6773 545.936 73.6773 538.406 53.3724C533.7 39.3152 525.228 29.4231 512.992 21.6135L494.637 9.63879L475.811 23.1754C465.457 30.985 454.633 44.0009 451.338 51.8104C448.044 61.7025 442.396 66.9089 435.807 66.9089C423.571 66.9089 404.746 53.3723 404.746 44.0009C404.746 40.3564 401.922 33.5881 398.627 28.3817C392.509 19.0102 391.568 19.0102 379.802 27.8611C369.448 35.15 364.271 35.6707 352.976 31.5056C341.681 26.8199 338.857 27.3405 338.857 33.0675C338.857 46.0835 360.977 68.9915 390.156 87.2139C410.393 100.23 418.865 108.56 418.865 115.849C418.865 125.22 417.453 124.7 404.275 110.643L389.215 95.5441L392.509 109.601C393.921 117.411 393.45 125.22 390.627 126.782C388.273 128.344 385.92 139.278 385.92 150.211C385.92 161.144 380.743 181.97 374.154 196.027C360.035 227.266 360.035 231.431 371.801 260.066C376.978 272.561 381.214 287.139 381.214 292.866C381.214 303.799 349.211 354.301 344.034 351.177C342.151 349.615 331.327 363.673 320.502 382.416C309.207 401.159 296.5 417.819 292.264 419.381C288.028 420.943 281.439 425.629 277.674 428.753C264.967 440.207 249.436 443.33 249.436 434.479C249.436 429.794 245.201 426.149 239.553 426.149C234.376 426.149 197.196 403.762 156.721 376.689L83.7729 327.228H41.8865H0L26.3555 364.714C51.7698 401.679 54.123 403.241 100.245 424.587C126.601 437.083 161.428 453.222 177.9 460.511C195.313 468.842 207.079 477.172 207.079 481.858C207.079 487.585 210.844 489.147 221.198 487.585C233.905 485.502 235.317 486.543 235.317 500.08C235.317 512.055 237.2 514.658 243.789 512.575C253.201 509.451 270.615 521.947 266.379 529.236C264.967 532.359 271.085 539.648 280.969 546.417L297.912 558.391L315.796 546.937L334.15 535.483L336.974 548.499C341.681 569.845 356.741 565.16 367.095 539.128C381.214 505.286 379.802 499.039 358.153 499.039H339.327L342.151 479.254C343.563 468.842 347.799 454.784 351.093 448.537C360.035 432.397 386.391 400.117 390.156 400.117C394.862 400.117 387.803 486.543 379.331 525.591C371.331 564.639 374.154 675.535 383.096 679.179C386.391 680.741 388.744 694.799 388.273 715.624V749.466L291.793 791.117C239.082 813.504 191.548 836.933 186.371 842.66L176.959 853.073H212.727C245.671 853.073 256.496 849.949 324.267 822.355C397.686 792.158 422.63 787.472 416.982 804.653C415.57 808.818 414.158 815.587 414.158 820.272C414.158 824.437 400.039 843.701 383.096 862.444C356.27 892.12 352.976 897.327 359.565 903.054C363.8 906.178 367.095 913.987 367.095 920.235C367.095 933.771 375.096 934.292 387.332 922.317C395.804 913.467 396.274 913.467 394.862 923.359C392.98 932.73 395.333 933.771 414.158 932.21C430.631 931.168 438.161 927.003 448.044 915.549C455.104 906.698 464.516 899.93 469.223 899.93C474.4 899.93 483.342 897.327 489.93 893.682L502.167 887.435L492.284 870.774C486.636 861.403 478.635 852.552 474.4 851.511C464.046 848.387 463.104 815.587 472.517 790.075C475.811 780.183 478.165 769.77 477.223 767.167C475.811 764.043 483.342 757.796 492.754 752.589C509.697 744.259 510.638 744.259 520.992 755.193C540.288 774.977 553.937 809.339 561.938 856.717C573.703 927.524 572.762 935.854 548.76 969.695C526.64 1001.45 512.992 1042.58 521.463 1051.96C527.581 1058.72 544.053 1053 555.349 1038.94C563.349 1030.09 564.761 1029.57 564.761 1036.86C564.761 1041.54 560.055 1048.83 554.407 1053C544.053 1060.81 544.995 1061.33 568.526 1061.33C585.94 1061.33 593.941 1059.25 595.823 1053.52C598.647 1045.71 619.826 1047.79 637.239 1057.16C645.24 1061.85 645.71 1060.81 642.416 1047.79C640.534 1039.46 638.651 1022.28 638.651 1009.26C638.18 995.207 633.945 979.588 627.826 970.216C612.766 946.267 611.825 933.251 621.238 893.162C634.886 837.453 633.474 809.86 616.061 776.018C602.883 750.507 602.412 747.383 609.001 739.053C613.237 733.846 616.531 726.037 616.531 721.351C616.531 716.665 621.708 708.856 627.826 704.691C633.945 700.005 640.534 690.113 642.416 682.824C643.828 675.014 649.476 663.04 654.653 656.271C659.359 648.982 663.595 640.652 663.595 637.528C663.595 623.992 713.482 583.903 745.014 572.449C762.428 565.68 776.547 558.391 776.547 556.309C776.547 549.541 795.372 539.128 799.137 543.293C801.02 545.375 799.137 549.02 794.902 551.102C780.312 560.474 749.25 610.976 745.956 631.801C744.544 643.255 736.072 677.097 727.13 707.294C717.247 742.697 710.187 781.224 707.364 816.628C705.01 848.387 699.363 879.104 694.656 890.038C689.95 900.971 686.656 920.755 686.656 936.895C686.656 952.514 685.714 991.562 684.303 1024.36C681.949 1080.07 682.42 1084.24 692.303 1095.69C704.069 1109.75 727.13 1116.52 736.072 1108.71C739.367 1105.58 749.721 1104.54 759.133 1106.62C774.194 1109.23 777.017 1108.19 781.724 1095.69C786.901 1083.19 785.96 1077.99 775.135 1054.04C768.075 1038.94 762.428 1021.76 762.428 1016.03C762.428 1010.31 757.251 996.769 750.662 986.356L738.896 967.092L750.191 950.432C757.722 938.978 761.957 924.921 763.369 904.616C765.252 880.146 769.958 867.13 793.96 823.917C809.962 795.802 826.434 763.523 831.14 752.589C835.847 742.177 841.024 733.326 842.436 733.326C844.318 733.326 864.555 746.342 887.617 763.002C910.678 779.142 945.034 801.529 963.859 812.983C982.214 824.437 997.745 835.891 997.745 837.974C997.745 840.577 993.509 844.742 988.332 847.866C983.155 850.99 975.625 858.8 971.86 865.047C966.213 875.46 965.742 880.146 971.86 901.492C977.978 923.879 977.508 928.044 969.507 947.829C962.448 964.489 960.094 982.191 960.094 1017.59C960.094 1073.82 963.389 1079.03 1003.86 1087.88C1027.4 1093.09 1032.1 1093.09 1039.16 1085.28C1043.87 1080.59 1052.34 1076.95 1057.99 1076.95C1070.69 1076.95 1070.69 1075.91 1059.4 1051.96C1042.93 1016.03 1035.4 993.124 1035.4 977.505C1035.4 968.654 1033.04 957.2 1030.69 951.994C1026.92 943.664 1027.87 940.54 1037.28 933.251C1045.28 928.044 1050.46 917.632 1052.81 903.574L1057.04 881.708L1070.69 916.59C1081.99 945.225 1086.7 951.994 1095.17 951.994C1109.29 951.994 1108.81 944.184 1091.87 902.012C1083.87 882.749 1076.81 856.196 1075.87 843.18C1073.99 807.256 1041.98 742.697 1003.86 696.36C958.212 640.132 942.21 614.1 951.152 607.852C954.917 605.249 964.33 603.166 972.331 603.166C980.332 603.166 997.274 597.439 1009.98 590.15C1030.22 578.696 1033.04 578.176 1036.81 585.465C1045.28 601.604 1060.81 615.662 1062.69 608.893C1064.1 604.208 1065.99 604.208 1070.69 608.373C1077.75 614.62 1077.75 613.058 1087.64 548.499C1091.87 520.385 1095.64 509.972 1105.05 502.162C1111.17 496.435 1119.64 484.981 1123.4 476.131C1126.7 467.28 1134.7 452.702 1140.35 443.851L1151.17 428.232L1178.47 442.289C1194 450.619 1222.24 461.032 1242 465.718C1261.77 470.404 1280.6 475.089 1283.89 476.131C1287.19 477.172 1289.54 487.064 1289.54 501.121C1289.54 524.55 1299.42 543.293 1309.78 539.128C1312.6 538.086 1317.31 529.236 1320.6 519.344L1326.25 501.642L1327.66 519.864C1330.95 553.706 1360.13 544.855 1360.13 509.451C1360.13 499.039 1362.49 482.378 1365.31 473.527C1370.49 457.388 1369.55 455.305 1350.25 432.918C1335.66 416.778 1311.66 400.117 1269.3 376.689C1199.18 338.161 1146.47 321.501 1126.7 331.914C1113.52 338.682 1106.46 333.476 1105.99 317.857C1105.99 313.691 1101.28 311.609 1093.75 312.65C1082.93 314.212 1081.05 311.088 1070.69 278.809C1058.93 241.843 1042.93 212.688 1034.45 212.688C1029.28 212.688 1029.75 215.291 1044.34 259.545C1049.51 275.164 1053.75 293.907 1054.22 300.675C1054.22 310.568 1052.34 312.13 1043.87 309.526C1037.75 307.964 1029.75 306.403 1025.51 306.403C1020.81 306.403 1015.63 295.99 1009.98 276.206C1000.57 243.405 990.686 223.1 983.626 223.1C980.802 223.1 978.92 226.224 978.92 230.389C978.92 234.034 957.741 260.586 931.386 288.701C905.501 317.336 879.616 349.615 873.968 361.07L863.614 381.895L862.202 366.797C860.32 350.136 866.909 328.79 883.381 300.155C893.735 281.933 893.735 280.371 885.734 275.685C875.851 269.958 841.965 284.536 825.022 302.237C814.668 313.171 785.96 382.416 785.96 396.473C785.96 403.762 764.31 410.53 738.896 410.53C728.542 410.53 725.718 406.365 716.306 377.209C710.658 358.466 705.952 337.641 705.952 330.352C705.952 313.691 680.537 240.282 670.183 227.786C665.948 222.059 658.418 217.894 653.711 217.894C641.004 217.894 638.651 208.523 650.417 204.357C659.83 201.234 659.829 200.192 652.77 194.465C645.24 188.738 645.24 187.697 654.653 180.929C664.065 173.64 663.595 173.64 648.534 173.64C638.18 173.64 633.474 171.557 634.415 166.872C635.357 162.186 632.533 160.624 626.885 162.706C621.708 164.789 612.766 163.748 606.648 161.144C595.353 155.938 595.823 155.938 609.472 155.417C617.472 154.897 627.826 152.814 633.003 150.211C644.769 145.005 638.18 141.881 605.707 137.716C578.88 134.071 570.409 129.906 578.88 124.179C583.116 121.055 581.704 118.973 574.645 116.37C560.526 111.684 562.408 106.998 583.587 93.4615C606.177 79.4043 621.238 59.0994 621.238 42.9596C621.238 32.0262 618.884 30.4644 604.765 30.4644C591.588 30.4644 587.352 27.8612 581.234 14.8452C572.762 -3.37712 572.292 -3.37712 564.761 7.03564ZM988.332 293.907C988.332 326.707 973.272 348.574 953.976 344.409C941.74 341.806 940.328 342.327 942.681 350.136C946.917 361.59 929.503 378.771 913.972 379.292C902.677 379.292 902.677 379.292 911.619 364.714C929.503 333.996 981.273 265.793 984.567 267.875C986.92 269.437 988.332 280.891 988.332 293.907ZM642.887 429.273C655.123 443.33 653.711 452.702 636.298 474.048C632.533 479.254 625.473 495.915 620.767 510.493L612.295 538.086L611.825 515.699C611.825 503.204 609.472 488.105 606.648 482.378C601.942 473.007 603.824 466.238 614.649 443.33C622.179 428.232 629.238 415.737 630.18 415.737C631.121 415.737 636.768 421.984 642.887 429.273ZM758.192 440.207C755.839 445.413 747.838 458.429 740.308 468.842C733.248 479.775 723.365 494.353 718.659 501.642C713.952 508.931 706.893 514.658 703.128 514.658C694.656 514.658 702.657 501.121 737.955 458.949C761.957 429.273 764.781 426.67 758.192 440.207Z" fill="white"/>
</svg>
