<svg width="143" height="122" viewBox="0 0 143 122" fill="none" xmlns="http://www.w3.org/2000/svg">
<path d="M119.401 108.408C118.867 107.828 118.584 107.085 118.593 106.285C118.604 105.368 118.805 104.811 119.412 103.915C119.617 103.612 120.042 103.44 120.393 103.519C121.428 103.751 121.944 104.019 122.556 104.684C123.09 105.265 123.373 106.008 123.363 106.808C123.352 107.782 123.126 108.351 122.425 109.351C122.284 109.552 122.002 109.666 121.767 109.617C120.593 109.374 120.052 109.115 119.401 108.408Z" fill="#855E42"/>
<path d="M124.616 111.096C124.082 110.515 123.799 109.772 123.808 108.972C123.819 108.056 124.02 107.498 124.627 106.602C124.832 106.299 125.257 106.128 125.608 106.206C126.643 106.438 127.158 106.707 127.77 107.371C128.305 107.952 128.587 108.695 128.578 109.495C128.567 110.469 128.341 111.038 127.64 112.039C127.499 112.24 127.217 112.353 126.981 112.305C125.808 112.061 125.266 111.802 124.616 111.096Z" fill="#855E42"/>
<path d="M123.001 120.256C123.755 120.062 124.381 119.592 124.79 118.912C125.259 118.134 125.38 117.552 125.335 116.461C125.32 116.091 125.052 115.711 124.715 115.583C123.72 115.206 123.146 115.147 122.283 115.368C121.529 115.562 120.904 116.032 120.494 116.712C119.996 117.54 119.89 118.145 119.959 119.377C119.973 119.624 120.151 119.876 120.376 119.966C121.493 120.41 122.084 120.492 123.001 120.256Z" fill="#855E42"/>
<path d="M113.142 105.721C112.608 105.141 112.325 104.398 112.334 103.598C112.345 102.681 112.546 102.124 113.153 101.228C113.359 100.925 113.783 100.753 114.134 100.832C115.17 101.064 115.685 101.332 116.297 101.997C116.831 102.578 117.114 103.321 117.105 104.121C117.093 105.095 116.867 105.664 116.166 106.664C116.025 106.865 115.744 106.979 115.508 106.93C114.334 106.687 113.793 106.428 113.142 105.721Z" fill="#855E42"/>
<path d="M116.673 113.121C115.907 113.25 115.245 113.665 114.783 114.308C114.253 115.044 114.086 115.613 114.043 116.705C114.028 117.074 114.265 117.476 114.591 117.632C115.552 118.093 116.12 118.201 116.997 118.053C117.763 117.924 118.425 117.509 118.888 116.866C119.451 116.084 119.605 115.49 119.634 114.257C119.64 114.009 119.483 113.742 119.266 113.634C118.189 113.096 117.606 112.964 116.673 113.121Z" fill="#855E42"/>
<path d="M110.951 115.669C111.727 115.636 112.432 115.306 112.967 114.725C113.579 114.061 113.812 113.516 113.982 112.438C114.04 112.073 113.851 111.645 113.546 111.45C112.646 110.872 112.095 110.695 111.207 110.732C110.431 110.765 109.726 111.095 109.191 111.675C108.541 112.382 108.318 112.953 108.144 114.173C108.11 114.419 108.235 114.703 108.437 114.837C109.443 115.505 110.006 115.708 110.951 115.669Z" fill="#855E42"/>
<path d="M91.3314 108.408C91.8657 107.828 92.1484 107.085 92.1392 106.285C92.1286 105.368 91.9277 104.811 91.3207 103.915C91.1151 103.612 90.6907 103.44 90.3397 103.519C89.3039 103.751 88.7888 104.019 88.1769 104.684C87.6425 105.265 87.3598 106.008 87.3691 106.808C87.3803 107.782 87.6067 108.351 88.3074 109.351C88.4482 109.552 88.73 109.666 88.9659 109.617C90.1396 109.374 90.6808 109.115 91.3314 108.408Z" fill="#855E42"/>
<path d="M85.1175 110.721C85.6519 110.141 85.9346 109.398 85.9253 108.598C85.9147 107.681 85.7138 107.124 85.1069 106.228C84.9012 105.925 84.4768 105.753 84.1258 105.832C83.0901 106.064 82.5749 106.332 81.963 106.997C81.4286 107.578 81.146 108.321 81.1552 109.121C81.1664 110.095 81.3929 110.664 82.0936 111.664C82.2344 111.865 82.5162 111.979 82.752 111.93C83.9258 111.687 84.4669 111.428 85.1175 110.721Z" fill="#855E42"/>
<path d="M87.7322 120.256C86.9788 120.062 86.3529 119.592 85.9434 118.912C85.4746 118.134 85.3532 117.552 85.3981 116.461C85.4133 116.091 85.6819 115.711 86.0189 115.583C87.0134 115.206 87.5878 115.147 88.4505 115.368C89.2039 115.562 89.8299 116.032 90.2393 116.712C90.7378 117.54 90.8435 118.145 90.7742 119.377C90.7603 119.624 90.582 119.876 90.3575 119.966C89.2408 120.41 88.6495 120.492 87.7322 120.256Z" fill="#855E42"/>
<path d="M97.5911 105.721C98.1255 105.141 98.4082 104.398 98.3989 103.598C98.3884 102.681 98.1874 102.124 97.5805 101.228C97.3748 100.925 96.9504 100.753 96.5995 100.832C95.5637 101.064 95.0486 101.332 94.4366 101.997C93.9023 102.578 93.6196 103.321 93.6288 104.121C93.6401 105.095 93.8665 105.664 94.5672 106.664C94.708 106.865 94.9898 106.979 95.2257 106.93C96.3994 106.687 96.9406 106.428 97.5911 105.721Z" fill="#855E42"/>
<path d="M94.06 113.121C94.8264 113.25 95.4879 113.665 95.9505 114.308C96.4802 115.044 96.6478 115.613 96.6906 116.705C96.7051 117.074 96.4679 117.476 96.1424 117.632C95.1816 118.093 94.6139 118.201 93.7362 118.053C92.9699 117.924 92.3083 117.509 91.8458 116.866C91.2826 116.084 91.1288 115.49 91.099 114.257C91.093 114.009 91.2505 113.742 91.467 113.634C92.5442 113.096 93.127 112.964 94.06 113.121Z" fill="#855E42"/>
<path d="M99.7815 115.669C99.0056 115.636 98.3003 115.306 97.7658 114.725C97.1538 114.061 96.9208 113.516 96.7505 112.438C96.6928 112.073 96.8813 111.645 97.1862 111.45C98.086 110.872 98.6369 110.695 99.5254 110.732C100.301 110.765 101.007 111.095 101.541 111.675C102.192 112.382 102.414 112.953 102.588 114.173C102.623 114.419 102.498 114.703 102.296 114.837C101.289 115.505 100.726 115.708 99.7815 115.669Z" fill="#855E42"/>
<path d="M110.844 108.799C110.489 108.649 110.239 108.297 110.206 107.901V107.901C110.199 107.82 110.201 107.739 110.213 107.66L110.231 107.533C110.272 107.256 110.369 106.995 110.515 106.767L110.564 106.692C110.593 106.647 110.626 106.605 110.662 106.567V106.567C110.901 106.314 111.268 106.241 111.599 106.382L128.261 113.453C128.903 113.726 129.247 114.484 129.027 115.147V115.147C128.808 115.81 128.109 116.126 127.466 115.853L110.844 108.799Z" fill="#855E42"/>
<path d="M83.2887 113.401C82.9411 113.565 82.7038 113.925 82.6827 114.321V114.321C82.6783 114.403 82.6833 114.485 82.6976 114.564L82.7201 114.689C82.7698 114.964 82.8749 115.221 83.0285 115.443L83.0791 115.516C83.1095 115.56 83.1436 115.6 83.1812 115.637V115.637C83.4285 115.881 83.7958 115.938 84.1206 115.785L100.557 108.036C101.187 107.739 101.503 106.968 101.262 106.315V106.315C101.022 105.661 100.317 105.372 99.687 105.669L83.2887 113.401Z" fill="#855E42"/>
<path fill-rule="evenodd" clip-rule="evenodd" d="M24.2881 44.6151C23.9806 43.986 23.7306 43.3311 23.5397 42.6588L63.4083 52.1688C63.9678 55.3391 66.4993 56.4551 68.0205 56.8424C69.479 57.2136 71.0313 56.9662 72.3361 56.1546C72.5871 55.9984 72.825 55.8239 73.0482 55.633L71.738 65.241L62.9476 99.7708C62.2683 102.428 60.6049 104.717 58.3223 106.137C56.0397 107.557 53.3243 107.992 50.7721 107.345L20.5262 99.6451C17.9754 98.9927 15.7983 97.3129 14.4725 94.9743C13.1467 92.6358 12.7806 89.8294 13.4544 87.171L13.819 85.739L9.69454 84.6891C6.41502 83.8501 3.61592 81.6904 1.91136 78.6837C0.206794 75.677 -0.264014 72.0689 0.602222 68.651L4.24777 54.3308C5.12128 50.9148 7.26003 47.971 10.1948 46.1454C13.1295 44.3197 16.6206 43.7613 19.9021 44.5926L24.0265 45.6426L24.2881 44.6151ZM81.9373 72.7914L78.4408 59.0566L78.4999 59L76.202 46.5049L73.202 34.5049L74.8902 28.156C75.4232 28.3531 75.9403 28.5984 76.4354 28.8905C77.0238 29.2377 77.5722 29.6457 78.0731 30.1065L118.712 18.5377L118.824 18.9758L122.783 17.968C125.933 17.1702 129.299 17.767 132.144 19.6276C134.988 21.4881 137.079 24.4605 137.956 27.8924L141.618 42.2791C142.489 45.7129 142.074 49.3229 140.466 52.3171C138.857 55.3113 136.186 57.4452 133.038 58.2507L129.079 59.2585L129.445 60.6972C130.122 63.3679 129.8 66.1757 128.549 68.5046C127.297 70.8335 125.22 72.4932 122.771 73.1195L93.7387 80.5105C91.2888 81.1311 88.6704 80.6669 86.4579 79.2198C84.2454 77.7727 82.6197 75.4608 81.9373 72.7914ZM6.82594 75.6264C5.87864 73.9555 5.61804 71.9499 6.10147 70.051L9.74701 55.7308C10.2304 53.8318 11.4183 52.195 13.0493 51.1804C14.6802 50.1658 16.6207 49.8566 18.4438 50.3207L22.5683 51.3707L15.2772 80.011L11.1528 78.961C9.32964 78.4969 7.77324 77.2974 6.82594 75.6264ZM136.34 43.6229C136.826 45.5307 136.596 47.5373 135.702 49.2014C134.808 50.8654 133.323 52.0505 131.573 52.496L127.614 53.5039L120.289 24.7305L124.248 23.7226C125.998 23.2772 127.869 23.6078 129.45 24.6418C131.031 25.6758 132.192 27.3284 132.677 29.2362L136.34 43.6229ZM45.9634 88.7627C46.2146 90.1866 46.0471 90.7728 45.4608 90.3541C44.9583 90.019 44.1207 90.6053 43.6182 91.5267C41.5243 95.3795 47.8898 99.4835 50.9888 96.3845C52.1614 95.212 52.3289 92.3642 51.3238 92.3642C50.905 92.3642 50.1512 91.4429 49.6487 90.3541C49.1461 89.1815 47.9735 87.9251 47.136 87.4226C45.7121 86.6688 45.6283 86.8363 45.9634 88.7627ZM48.2248 91.5267C47.9735 91.9454 48.141 92.3642 48.5598 92.3642C49.0624 92.3642 49.4811 93.118 49.4811 94.0394C49.4811 95.7145 46.7172 96.4683 45.8796 95.0444C45.2933 94.1231 46.8009 90.6891 47.806 90.6891C48.3085 90.6891 48.4761 91.0241 48.2248 91.5267ZM34.4608 84.3541C35.0471 84.7728 35.2146 84.1866 34.9634 82.7627C34.6283 80.8363 34.7121 80.6688 36.136 81.4226C36.9735 81.9251 38.1461 83.1815 38.6487 84.3541C39.1512 85.4429 39.905 86.3642 40.3238 86.3642C41.3289 86.3642 41.1614 89.212 39.9888 90.3845C36.8898 93.4835 30.5243 89.3795 32.6182 85.5267C33.1207 84.6053 33.9583 84.019 34.4608 84.3541ZM37.5598 86.3642C37.141 86.3642 36.9735 85.9454 37.2248 85.5267C37.4761 85.0241 37.3085 84.6891 36.806 84.6891C35.8009 84.6891 34.2933 88.1231 34.8796 89.0444C35.7172 90.4683 38.4811 89.7145 38.4811 88.0394C38.4811 87.118 38.0624 86.3642 37.5598 86.3642ZM97.5647 47.1955C96.3084 47.8655 94.6333 48.4518 93.8794 48.4518C92.7068 48.4518 92.7068 48.6193 93.8794 49.8757C94.6333 50.7132 95.4708 53.4772 95.7221 56.1574L96.3084 60.8478L101.25 61.4341C104.014 61.7691 106.694 62.5229 107.197 63.193C108.034 64.2818 108.453 63.9468 109.374 61.2666C111.385 55.9061 111.552 55.1523 110.547 55.1523C110.044 55.1523 109.626 55.7386 109.626 56.4087C109.626 58.5026 109.458 58.9214 108.034 59.8427C106.61 60.9315 100.161 60.2615 100.245 59.0889C100.245 58.6701 101.334 57.1625 102.674 55.7386C107.951 49.9594 106.778 50.0432 100.245 55.9061C97.7322 58.0838 97.5647 58.0001 96.7272 52.5559C96.2246 49.9594 96.4759 49.4569 98.3185 48.6193C99.4911 48.033 101.083 47.6142 101.753 47.6142C102.423 47.6142 102.758 47.1955 102.506 46.7767C101.753 45.6041 100.412 45.7716 97.5647 47.1955ZM110.211 52.6399C110.044 52.6399 109.206 51.8861 108.369 50.9647C107.531 50.0434 107.28 49.2896 107.782 49.2896C108.285 49.2896 109.122 50.0434 109.625 50.9647C110.127 51.8861 110.379 52.6399 110.211 52.6399Z" fill="#855E42"/>
<path d="M110.424 2.30794L70.547 13.2791C68.9606 13.7156 67.6381 14.8572 66.8704 16.4527C66.1027 18.0483 65.9527 19.9672 66.4534 21.7872L68.9708 30.937C69.5574 33.054 70.7659 34.9276 72.3901 36.2383C74.0144 37.549 75.9539 38.2157 77.8776 38.1245C79.8014 38.0333 81.5904 37.19 82.9394 35.7384C84.2885 34.2867 85.114 32.3167 85.2752 30.1643C86.1631 30.6631 87.1812 30.848 88.1742 30.5749C89.524 30.2035 90.4997 29.1034 90.8973 27.7268C91.9711 28.827 93.256 29.6232 94.6327 30.0415C96.0094 30.4598 97.4335 30.4866 98.7728 30.1195C100.001 29.7782 101.122 29.1139 102.047 28.1792C102.972 27.2445 103.676 26.0649 104.103 24.7334C104.76 25.7057 105.65 26.4521 106.656 26.8748C107.662 27.2975 108.736 27.3769 109.739 27.1024C111.631 26.5819 112.922 24.9105 113.275 22.8965C114.191 23.1242 115.145 23.1545 116.088 22.895C117.675 22.4586 118.997 21.317 119.765 19.7214C120.533 18.1259 120.683 16.207 120.182 14.387L118.294 7.52463C117.793 5.70462 116.683 4.13253 115.207 3.15421C113.731 2.1759 112.011 1.87148 110.424 2.30794Z" fill="#D3B199"/>
<path d="M32.5043 28.1888L73.247 37.6476C74.8678 38.0239 76.2527 39.1152 77.097 40.6815C77.9412 42.2477 78.1757 44.1606 77.7488 45.9994L75.6028 55.2433C75.102 57.3822 73.9628 59.3014 72.3793 60.6735C70.7958 62.0456 68.8662 62.7856 66.9196 62.7673C64.9731 62.7491 63.1301 61.9736 61.705 60.5733C60.2799 59.173 59.3611 57.2345 59.1052 55.0885C58.2302 55.6209 57.21 55.8443 56.1955 55.6088C54.8164 55.2886 53.7836 54.2257 53.3225 52.8643C52.2858 54.0051 51.0228 54.8498 49.6507 55.3202C48.2785 55.7906 46.8417 55.8714 45.4733 55.5551C44.218 55.2604 43.0572 54.6387 42.0828 53.7391C41.1083 52.8396 40.3467 51.6868 39.8581 50.3716C39.2361 51.3688 38.3698 52.1488 37.3725 52.6095C36.3753 53.0703 35.2936 53.1903 34.2691 52.9539C32.3359 52.5051 30.9606 50.8828 30.5168 48.8825C29.6014 49.1449 27.5889 50.4313 26.6253 50.2076C25.0045 49.8313 23.8031 48.998 22.9588 47.4318C22.1146 45.8655 22.7469 42.4746 23.1738 40.6359L24.7833 33.7029C25.2102 31.8642 26.2635 30.2502 27.7115 29.2161C29.1594 28.182 30.8835 27.8125 32.5043 28.1888Z" fill="#D3B199"/>
</svg>
