<svg width="49" height="49" viewBox="0 0 49 49" fill="none" xmlns="http://www.w3.org/2000/svg">
<path d="M48.9999 4.66614V2.33418C48.9999 1.6905 48.4787 1.16709 47.8328 1.16709H43.1667C42.7057 1.16709 42.3337 1.19827 41.9997 1.28291V1.16709C41.9997 0.523409 41.4785 0 40.8326 0H33.8324C31.81 0 31.0773 1.14705 30.6496 2.33418H29.7031C29.4313 1.97114 29.1685 1.50118 29.1685 1.16709C29.1663 0.523409 28.6451 0 27.9992 0H19.8319C19.235 0 18.7361 0.458819 18.6715 1.04905C18.6448 1.29405 18.1481 2.33195 17.3775 2.33195H14.1814C14.1057 2.24286 13.9965 2.07582 13.9008 1.862C13.7137 1.43882 13.295 1.16486 12.8317 1.16486H1.16762C0.521721 1.16709 0.000545509 1.6905 0.000545509 2.33418V11.6665C0.000545509 14.9606 0.962714 19.13 1.16539 19.9697L1.15648 21.7382L0.365813 22.4865C0.131953 22.7048 0.000545509 23.0122 0.000545509 23.3329V27.999C0.000545509 28.3086 0.123044 28.6049 0.341313 28.8231L1.16539 29.6472V34.8078L0.0606809 38.1309C-0.0105908 38.3425 -0.0195001 38.5675 0.0361809 38.7835L1.12085 43.1222L0.062908 46.3005C-0.0573631 46.6569 0.00277251 47.0489 0.22327 47.3518C0.441539 47.6547 0.793444 47.8351 1.16762 47.8351H17.5C17.8096 47.8351 18.1058 47.7126 18.3241 47.4944L18.4288 47.3897C19.0502 48.2338 19.9121 49 21.0012 49H24.5002C25.3599 49 26.1105 48.6258 26.772 48.294C27.2241 48.0668 27.6919 47.8329 28.0014 47.8329H33.8346C34.1442 47.8329 34.4404 47.7104 34.6587 47.4921L34.9415 47.2093C35.015 47.3028 35.0841 47.3941 35.1531 47.4832C35.7277 48.2294 36.318 49 37.3336 49H43.1667C43.8126 49 44.3338 48.4788 44.3338 47.8329V46.9955L47.5522 47.7973C47.9019 47.8864 48.2716 47.8062 48.5544 47.5835C48.8373 47.3607 49.0021 47.02 48.9999 46.6591C48.9977 46.5455 48.9264 35.0974 48.9999 29.1817C49.0043 28.8677 48.8796 28.5648 48.6591 28.342L47.835 27.518V22.168C47.835 21.8585 47.7125 21.5622 47.4943 21.344L46.9219 20.7715L47.6279 19.3595L48.6613 18.326C48.8774 18.1077 48.9999 17.8093 48.9999 17.4997L48.9821 11.6553C48.9821 11.5618 48.9709 11.4682 48.9487 11.3747L47.9041 7.13841L48.8774 5.18955C48.9576 5.02695 48.9999 4.84654 48.9999 4.66614ZM35.1041 9.3345L38.6543 11.6687L37.4694 18.669L27.9992 11.6687L35.1041 9.3345ZM12.8339 39.6677L8.16784 36.1687L10.502 28.0013L19.8341 37.3335L12.8339 39.6677ZM37.5674 38.5006H32.1218L8.16784 10.4147L12.5221 9.3345L40.8326 30.939L37.5674 38.5006Z" fill="#B41414"/>
</svg>
