<svg width="61" height="62" viewBox="0 0 61 62" fill="none" xmlns="http://www.w3.org/2000/svg">
<path fill-rule="evenodd" clip-rule="evenodd" d="M3.93858 22.1608C3.87198 22.127 3.80581 22.0924 3.74009 22.0569L4.55359 20.5891L43.422 15.0708L43.4528 15.4455L46.7692 15.1732C49.4073 14.9597 52.0281 15.8709 54.0567 17.707C56.0853 19.543 57.356 22.154 57.5899 24.9669L58.5581 36.7567C58.7862 39.5702 57.9585 42.3534 56.2567 44.4958C54.5548 46.6383 52.1177 47.9649 49.4802 48.1846L46.1637 48.457L46.2606 49.6359C46.4381 51.8242 45.7943 53.989 44.4706 55.6553C43.147 57.3217 41.2514 58.3534 39.1999 58.5243L14.8794 60.5215C12.8275 60.6877 10.7891 59.979 9.21124 58.5509C7.63344 57.1228 6.64517 55.0921 6.46328 52.9042L3.93858 22.1608ZM54.1362 37.1199C54.2646 38.6833 53.8054 40.2305 52.8596 41.4211C51.9138 42.6118 50.5589 43.3483 49.0929 43.4687L45.7765 43.741L43.8401 20.1614L47.1565 19.8891C48.6225 19.7687 50.0794 20.2743 51.2067 21.2947C52.3341 22.3151 53.0396 23.7666 53.168 25.3301L54.1362 37.1199Z" fill="url(#paint0_linear_315_71)"/>
<path d="M34.8903 43.8676C35.2501 45.1015 35.1214 45.6323 34.4921 45.3124C33.9545 45.0593 33.1412 45.6463 32.6945 46.5005C30.8342 50.0719 37.6344 53.1551 40.5761 50.1637C41.6891 49.0318 41.6541 46.5079 40.6273 46.5922C40.1995 46.6273 39.3627 45.8786 38.7705 44.961C38.1722 43.9697 36.8833 42.9608 35.9913 42.5881C34.4821 42.0432 34.4086 42.1979 34.8903 43.8676ZM37.4007 46.114C37.1743 46.5042 37.3758 46.8592 37.8036 46.8241C38.317 46.7819 38.7994 47.4112 38.8661 48.2232C38.9873 49.6996 36.2182 50.5959 35.2595 49.4112C34.5938 48.6484 35.8855 45.4952 36.9123 45.4109C37.4257 45.3688 37.621 45.65 37.4007 46.114Z" fill="white"/>
<path d="M24.2314 40.098C24.5626 41.3342 24.4529 41.8634 23.8902 41.538C23.4096 41.2802 22.6914 41.8594 22.3018 42.7089C20.6791 46.2608 26.7567 49.4033 29.3467 46.4409C30.3266 45.3199 30.2726 42.7975 29.3599 42.8725C28.9796 42.9037 28.2284 42.1479 27.6932 41.2257C27.152 40.2297 25.9962 39.2098 25.1992 38.8294C23.8517 38.2712 23.7877 38.4251 24.2314 40.098ZM26.4851 42.3654C26.2872 42.7532 26.4696 43.1098 26.8499 43.0786C27.3063 43.0411 27.7411 43.6743 27.8078 44.4863C27.9291 45.9627 25.4737 46.8332 24.61 45.6408C24.0109 44.8724 25.1314 41.7334 26.0441 41.6584C26.5005 41.6209 26.6769 41.9037 26.4851 42.3654Z" fill="white"/>
<path d="M38.6455 2.92018L6.05847 5.01659C4.76208 5.09999 3.55526 5.74704 2.70351 6.8154C1.85175 7.88375 1.42484 9.2859 1.51667 10.7134L1.97835 17.8898C2.08839 19.5508 2.71835 21.1255 3.76078 22.3453C4.8032 23.5651 6.19352 24.3544 7.6946 24.5786C9.19567 24.8028 10.7145 24.448 11.9921 23.5747C13.2696 22.7014 14.2267 21.3638 14.7002 19.7899C15.3053 20.295 16.0619 20.5869 16.8734 20.5347C17.9764 20.4637 18.9085 19.7948 19.4389 18.8329C20.0901 19.8128 20.9537 20.599 21.9496 21.1185C22.9454 21.638 24.0413 21.874 25.1356 21.8047C26.1401 21.7376 27.1138 21.4144 27.9799 20.8607C28.8461 20.3069 29.5809 19.5377 30.1265 18.6137C30.477 19.4356 31.0435 20.1248 31.752 20.5913C32.4604 21.0578 33.2778 21.2798 34.097 21.2281C35.6432 21.1287 36.9111 20.0833 37.5104 18.6413C37.8024 18.7754 37.974 18.9559 38.1991 19.1525C39.0614 19.9056 40.3417 19.9724 41.4038 19.545C42.1526 19.2437 42.8474 18.7764 43.3384 18.1605C44.1902 17.0921 44.3179 14.7979 44.2261 13.3704L43.8798 7.98805C43.788 6.56056 43.1849 5.22468 42.2033 4.27427C41.2217 3.32386 39.9419 2.83678 38.6455 2.92018Z" fill="#F7F7F7"/>
<defs>
<linearGradient id="paint0_linear_315_71" x1="22.0957" y1="25.3749" x2="35.3134" y2="49.21" gradientUnits="userSpaceOnUse">
<stop offset="0.0727603" stop-color="#EA1A1A"/>
<stop offset="1" stop-color="#861616"/>
</linearGradient>
</defs>
</svg>
