<svg width="151" height="124" viewBox="0 0 151 124" fill="none" xmlns="http://www.w3.org/2000/svg">
<path d="M124.196 110.403C123.662 109.823 123.379 109.08 123.388 108.279C123.399 107.363 123.6 106.806 124.207 105.91C124.412 105.607 124.837 105.435 125.188 105.514C126.223 105.746 126.739 106.014 127.35 106.679C127.885 107.26 128.168 108.003 128.158 108.803C128.147 109.777 127.921 110.346 127.22 111.346C127.079 111.547 126.797 111.661 126.561 111.612C125.388 111.369 124.847 111.11 124.196 110.403Z" fill="#CB1010"/>
<path d="M129.411 113.09C128.877 112.51 128.594 111.767 128.603 110.966C128.614 110.05 128.815 109.493 129.422 108.597C129.628 108.294 130.052 108.122 130.403 108.201C131.439 108.433 131.954 108.701 132.566 109.366C133.1 109.947 133.383 110.69 133.374 111.49C133.362 112.464 133.136 113.033 132.435 114.033C132.294 114.234 132.013 114.348 131.777 114.299C130.603 114.056 130.062 113.797 129.411 113.09Z" fill="#CB1010"/>
<path d="M127.797 122.251C128.55 122.057 129.176 121.587 129.585 120.907C130.054 120.128 130.176 119.547 130.131 118.455C130.115 118.086 129.847 117.706 129.51 117.578C128.515 117.2 127.941 117.141 127.078 117.363C126.325 117.557 125.699 118.027 125.289 118.707C124.791 119.535 124.685 120.14 124.755 121.371C124.769 121.619 124.947 121.871 125.171 121.96C126.288 122.405 126.879 122.486 127.797 122.251Z" fill="#CB1010"/>
<path d="M117.937 107.716C117.403 107.136 117.12 106.392 117.129 105.592C117.14 104.676 117.341 104.119 117.948 103.223C118.153 102.92 118.578 102.748 118.929 102.827C119.965 103.059 120.48 103.327 121.092 103.992C121.626 104.573 121.909 105.316 121.899 106.116C121.888 107.09 121.662 107.659 120.961 108.659C120.82 108.86 120.539 108.974 120.303 108.925C119.129 108.682 118.588 108.423 117.937 107.716Z" fill="#CB1010"/>
<path d="M121.468 115.116C120.702 115.245 120.04 115.66 119.578 116.303C119.048 117.039 118.881 117.608 118.838 118.7C118.823 119.069 119.06 119.47 119.386 119.627C120.347 120.088 120.914 120.196 121.792 120.048C122.558 119.919 123.22 119.504 123.683 118.861C124.246 118.079 124.4 117.485 124.429 116.251C124.435 116.004 124.278 115.737 124.061 115.629C122.984 115.091 122.401 114.959 121.468 115.116Z" fill="#CB1010"/>
<path d="M115.746 117.663C116.522 117.631 117.227 117.3 117.761 116.72C118.374 116.055 118.607 115.511 118.777 114.433C118.835 114.068 118.646 113.64 118.341 113.444C117.441 112.867 116.89 112.69 116.002 112.727C115.226 112.76 114.521 113.09 113.986 113.67C113.336 114.377 113.113 114.947 112.939 116.168C112.904 116.413 113.03 116.697 113.232 116.832C114.238 117.5 114.801 117.703 115.746 117.663Z" fill="#CB1010"/>
<path d="M96.1278 110.403C96.6621 109.823 96.9448 109.08 96.9356 108.279C96.925 107.363 96.724 106.806 96.1171 105.91C95.9115 105.607 95.4871 105.435 95.1361 105.514C94.1003 105.746 93.5852 106.014 92.9733 106.679C92.4389 107.26 92.1562 108.003 92.1654 108.803C92.1767 109.777 92.4031 110.346 93.1038 111.346C93.2446 111.547 93.5264 111.661 93.7623 111.612C94.936 111.369 95.4772 111.11 96.1278 110.403Z" fill="#CB1010"/>
<path d="M89.9134 112.716C90.4478 112.136 90.7304 111.392 90.7212 110.592C90.7106 109.676 90.5097 109.119 89.9028 108.223C89.6971 107.92 89.2727 107.748 88.9217 107.827C87.886 108.059 87.3708 108.327 86.7589 108.992C86.2245 109.573 85.9419 110.316 85.9511 111.116C85.9623 112.09 86.1888 112.659 86.8894 113.659C87.0303 113.86 87.3121 113.974 87.5479 113.925C88.7217 113.682 89.2628 113.423 89.9134 112.716Z" fill="#CB1010"/>
<path d="M92.5286 122.251C91.7752 122.057 91.1493 121.587 90.7398 120.907C90.2709 120.129 90.1496 119.547 90.1945 118.456C90.2097 118.086 90.4782 117.707 90.8152 117.578C91.8097 117.201 92.3842 117.142 93.2469 117.364C94.0003 117.557 94.6263 118.028 95.0357 118.707C95.5342 119.535 95.6399 120.14 95.5706 121.372C95.5567 121.619 95.3783 121.871 95.1539 121.961C94.0372 122.406 93.4459 122.487 92.5286 122.251Z" fill="#CB1010"/>
<path d="M102.387 107.716C102.921 107.136 103.204 106.392 103.195 105.592C103.184 104.676 102.983 104.119 102.376 103.223C102.171 102.92 101.746 102.748 101.395 102.827C100.36 103.059 99.8445 103.327 99.2325 103.992C98.6982 104.573 98.4155 105.316 98.4247 106.116C98.436 107.09 98.6624 107.659 99.3631 108.659C99.5039 108.86 99.7857 108.974 100.022 108.925C101.195 108.682 101.736 108.423 102.387 107.716Z" fill="#CB1010"/>
<path d="M98.8559 115.116C99.6223 115.245 100.284 115.66 100.746 116.303C101.276 117.039 101.444 117.608 101.486 118.7C101.501 119.069 101.264 119.47 100.938 119.627C99.9775 120.088 99.4098 120.196 98.5321 120.048C97.7658 119.919 97.1042 119.504 96.6417 118.861C96.0785 118.079 95.9247 117.485 95.8949 116.251C95.8889 116.004 96.0464 115.737 96.2629 115.629C97.3401 115.091 97.9229 114.959 98.8559 115.116Z" fill="#CB1010"/>
<path d="M104.578 117.664C103.802 117.631 103.097 117.301 102.562 116.72C101.95 116.056 101.717 115.512 101.547 114.433C101.489 114.068 101.678 113.64 101.983 113.445C102.882 112.867 103.433 112.69 104.322 112.727C105.098 112.76 105.803 113.09 106.337 113.671C106.988 114.377 107.21 114.948 107.384 116.168C107.419 116.414 107.294 116.698 107.092 116.832C106.086 117.5 105.522 117.703 104.578 117.664Z" fill="#CB1010"/>
<path d="M115.64 110.794C115.285 110.643 115.035 110.292 115.001 109.896C114.994 109.815 114.997 109.734 115.009 109.655L115.027 109.528C115.068 109.251 115.165 108.99 115.311 108.762L115.36 108.687C115.389 108.642 115.421 108.6 115.458 108.562C115.697 108.309 116.064 108.236 116.395 108.377L133.057 115.448C133.699 115.72 134.043 116.479 133.823 117.142C133.604 117.805 132.905 118.121 132.262 117.848L115.64 110.794Z" fill="#CB1010"/>
<path d="M88.0841 115.396C87.7365 115.559 87.4992 115.92 87.4781 116.316C87.4737 116.398 87.4787 116.48 87.493 116.559L87.5155 116.684C87.5652 116.959 87.6703 117.216 87.8239 117.438L87.8745 117.511C87.9049 117.555 87.939 117.595 87.9766 117.632C88.2239 117.875 88.5912 117.933 88.916 117.78L105.352 110.031C105.982 109.734 106.298 108.963 106.058 108.31C105.818 107.656 105.112 107.367 104.482 107.664L88.0841 115.396Z" fill="#CB1010"/>
<path fill-rule="evenodd" clip-rule="evenodd" d="M21.2247 45.7033L21.7605 45.8397L22.9983 46.4998L23.0534 46.1688L25.5915 46.815L25.8531 45.7875C25.5292 45.1697 25.2623 44.5283 25.0539 43.8709L67.2415 53.934C67.8823 57.1112 70.5627 58.2635 72.1705 58.6728C73.7147 59.0659 75.3493 58.8394 76.7146 58.0432C77.1567 57.7854 77.5588 57.4747 77.9136 57.1209L76.929 64.3413L76.927 64.3419L67.4208 101.683C66.7413 104.34 65.0183 106.615 62.6296 108.008C60.241 109.401 57.3819 109.799 54.6798 109.114L22.6567 100.961C19.956 100.271 17.6351 98.5545 16.2033 96.1889C14.7715 93.8233 14.3457 91.0018 15.0194 88.3434L15.384 86.9114L11.0172 85.7997C7.54493 84.9117 4.56103 82.7049 2.72017 79.6635C0.879308 76.6221 0.331832 72.9945 1.19786 69.5766L4.8434 55.2564C5.71713 51.8404 7.93255 48.9161 11.0036 47.1252C14.0746 45.3342 17.7505 44.8229 21.2247 45.7033ZM77.9983 36.4998L79.6629 30.2393C80.0018 30.3881 80.3337 30.5548 80.6571 30.7392C81.3667 31.1436 82.023 31.6258 82.6146 32.174L126.486 19.685L126.619 20.2071L130.803 19.142C134.132 18.2986 137.67 18.8518 140.641 20.6801C143.612 22.5085 145.773 25.4627 146.651 28.8946L150.313 43.2813C151.184 46.7151 150.698 50.3432 148.963 53.3697C147.228 56.3961 144.385 58.5737 141.058 59.4247L136.874 60.4898L137.24 61.9285C137.917 64.5992 137.539 67.4211 136.19 69.775C134.84 72.129 132.629 73.8226 130.041 74.4844L99.3594 82.2953C96.7704 82.9513 94.0185 82.5211 91.7077 81.0991C89.3968 79.677 87.7157 77.3792 87.0332 74.7099L83.4325 60.5657L83.9983 59.9998L80.9983 48.4998L77.9983 36.4998ZM7.86301 76.6644C6.83996 74.9741 6.5368 72.9578 7.02023 71.0588L10.6658 56.7386C11.1492 54.8397 12.3796 53.2137 14.0863 52.2184C15.7931 51.2231 17.8363 50.94 19.7665 51.4313L24.1333 52.543L16.8422 81.1833L12.4754 80.0716C10.5452 79.5802 8.88605 78.3546 7.86301 76.6644ZM144.735 44.7015C145.221 46.6093 144.952 48.6259 143.987 50.3079C143.023 51.9898 141.442 53.1992 139.593 53.67L135.409 54.7351L128.084 25.9618L132.268 24.8966C134.117 24.4258 136.084 24.7322 137.735 25.7483C139.386 26.7644 140.587 28.407 141.072 30.3148L144.735 44.7015ZM49.7579 93.7566C50.0092 95.1805 49.8416 95.7668 49.2554 95.348C48.7528 95.013 47.9152 95.5993 47.4127 96.5206C45.3188 100.373 51.6843 104.477 54.7833 101.378C55.9559 100.206 56.1234 97.3582 55.1183 97.3582C54.6995 97.3582 53.9457 96.4369 53.4432 95.348C52.9406 94.1754 51.7681 92.9191 50.9305 92.4165C49.5066 91.6627 49.4229 91.8302 49.7579 93.7566ZM52.0193 96.5206C51.7681 96.9394 51.9356 97.3582 52.3543 97.3582C52.8569 97.3582 53.2757 98.112 53.2757 99.0333C53.2757 100.708 50.5117 101.462 49.6741 100.038C49.0878 99.1171 50.5955 95.683 51.6005 95.683C52.1031 95.683 52.2706 96.0181 52.0193 96.5206ZM38.2554 89.348C38.8416 89.7668 39.0092 89.1805 38.7579 87.7566C38.4229 85.8302 38.5066 85.6627 39.9305 86.4165C40.7681 86.9191 41.9406 88.1754 42.4432 89.348C42.9457 90.4369 43.6995 91.3582 44.1183 91.3582C45.1234 91.3582 44.9559 94.2059 43.7833 95.3785C40.6843 98.4775 34.3188 94.3734 36.4127 90.5206C36.9152 89.5993 37.7528 89.013 38.2554 89.348ZM41.3543 91.3582C40.9356 91.3582 40.7681 90.9394 41.0193 90.5206C41.2706 90.0181 41.1031 89.683 40.6005 89.683C39.5955 89.683 38.0878 93.1171 38.6741 94.0384C39.5117 95.4623 42.2757 94.7084 42.2757 93.0333C42.2757 92.112 41.8569 91.3582 41.3543 91.3582ZM104.565 45.1955C103.308 45.8655 101.633 46.4518 100.879 46.4518C99.7068 46.4518 99.7068 46.6193 100.879 47.8757C101.633 48.7132 102.471 51.4772 102.722 54.1574L103.308 58.8478L108.25 59.4341C111.014 59.7691 113.694 60.5229 114.197 61.193C115.034 62.2818 115.453 61.9468 116.374 59.2666C118.385 53.9061 118.552 53.1523 117.547 53.1523C117.044 53.1523 116.626 53.7386 116.626 54.4087C116.626 56.5026 116.458 56.9214 115.034 57.8427C113.61 58.9315 107.161 58.2615 107.245 57.0889C107.245 56.6701 108.334 55.1625 109.674 53.7386C114.951 47.9594 113.778 48.0432 107.245 53.9061C104.732 56.0838 104.565 56.0001 103.727 50.5559C103.225 47.9594 103.476 47.4569 105.319 46.6193C106.491 46.033 108.083 45.6142 108.753 45.6142C109.423 45.6142 109.758 45.1955 109.506 44.7767C108.753 43.6041 107.412 43.7716 104.565 45.1955ZM117.212 50.6399C117.044 50.6399 116.207 49.8861 115.369 48.9647C114.531 48.0434 114.28 47.2896 114.783 47.2896C115.285 47.2896 116.123 48.0434 116.625 48.9647C117.128 49.8861 117.379 50.6399 117.212 50.6399Z" fill="url(#paint0_linear_315_70)"/>
<path d="M122.498 2.30058L75.6918 15.178C73.8297 15.6903 72.2429 16.9046 71.2803 18.5538C70.3176 20.203 70.0582 22.152 70.5589 23.972L73.0762 33.1218C73.6635 35.2386 74.984 37.0814 76.8123 38.336C78.6407 39.5906 80.8638 40.1792 83.1024 40.0014C85.341 39.8236 87.4564 38.8905 89.0878 37.3611C90.7192 35.8318 91.7656 33.801 92.0485 31.6151C93.0577 32.0806 94.2321 32.2225 95.3976 31.9019C96.9819 31.466 98.164 30.3091 98.6871 28.8979C99.8854 29.9639 101.342 30.7127 102.923 31.0749C104.504 31.4372 106.156 31.4011 107.728 30.97C109.171 30.5698 110.502 29.8477 111.618 28.8604C112.734 27.8732 113.604 26.6479 114.159 25.2811C114.879 26.2361 115.88 26.9521 117.029 27.3353C118.178 27.7185 119.423 27.751 120.6 27.4287C122.821 26.8176 124.394 25.0685 124.894 23.0142C125.948 23.204 127.055 23.1922 128.162 22.8877C130.024 22.3754 131.611 21.1611 132.573 19.5119C133.536 17.8627 133.795 15.9137 133.295 14.0937L131.407 7.23133C130.906 5.41132 129.686 3.86936 128.015 2.94466C126.344 2.01997 124.36 1.78828 122.498 2.30058Z" fill="#F7F7F7"/>
<path d="M34.3668 26.2018L79.593 36.7352C81.3922 37.1542 82.9477 38.2864 83.9171 39.8827C84.8866 41.479 85.1907 43.4086 84.7625 45.247L82.6099 54.4894C82.1072 56.6279 80.894 58.5293 79.1773 59.8695C77.4606 61.2097 75.3467 61.9055 73.1961 61.8384C71.0455 61.7712 68.9915 60.9452 67.3844 59.5012C65.7774 58.0573 64.7167 56.0848 64.3835 53.9203C63.4295 54.4337 62.3079 54.6329 61.1818 54.3706C59.6509 54.0141 58.485 52.9192 57.9436 51.5386C56.8254 52.6598 55.4502 53.4777 53.9457 53.9164C52.4412 54.355 50.856 54.4003 49.3371 54.0479C47.9435 53.72 46.6467 53.0657 45.5491 52.1367C44.4516 51.2076 43.5832 50.0292 43.0124 48.6944C42.3489 49.6816 41.4104 50.4443 40.3197 50.8826C39.229 51.321 38.037 51.4146 36.8999 51.1512C34.7539 50.6514 33.1966 48.9855 32.6592 46.9627C31.6543 47.2037 30.593 47.2464 29.5234 46.9973C27.7242 46.5782 26.1688 45.446 25.1993 43.8498C24.2298 42.2535 23.9257 40.3239 24.3539 38.4854L25.9684 31.5536C26.3965 29.7152 27.5219 28.1185 29.0969 27.1149C30.6719 26.1112 32.5675 25.7828 34.3668 26.2018Z" fill="#F7F7F7"/>
<defs>
<linearGradient id="paint0_linear_315_70" x1="51.3716" y1="36.7492" x2="70.606" y2="93.3417" gradientUnits="userSpaceOnUse">
<stop offset="0.0727603" stop-color="#EA1A1A"/>
<stop offset="1" stop-color="#861616"/>
</linearGradient>
</defs>
</svg>
