<svg width="163" height="133" viewBox="0 0 163 133" fill="none" xmlns="http://www.w3.org/2000/svg">
<path d="M128.198 119.404C127.664 118.823 127.381 118.08 127.39 117.28C127.401 116.364 127.602 115.806 128.209 114.911C128.414 114.607 128.839 114.436 129.19 114.514C130.225 114.746 130.74 115.015 131.352 115.68C131.887 116.26 132.169 117.003 132.16 117.803C132.149 118.778 131.923 119.346 131.222 120.347C131.081 120.548 130.799 120.662 130.563 120.613C129.39 120.369 128.849 120.111 128.198 119.404Z" fill="#CB1010"/>
<path d="M133.413 122.091C132.879 121.511 132.596 120.767 132.605 119.967C132.616 119.051 132.817 118.494 133.424 117.598C133.63 117.295 134.054 117.123 134.405 117.202C135.441 117.434 135.956 117.702 136.568 118.367C137.102 118.948 137.385 119.691 137.376 120.491C137.364 121.465 137.138 122.034 136.437 123.034C136.296 123.235 136.015 123.349 135.779 123.3C134.605 123.057 134.064 122.798 133.413 122.091Z" fill="#CB1010"/>
<path d="M131.799 131.252C132.552 131.058 133.178 130.588 133.587 129.908C134.056 129.129 134.178 128.548 134.133 127.456C134.117 127.087 133.849 126.707 133.512 126.579C132.517 126.201 131.943 126.142 131.08 126.364C130.327 126.558 129.701 127.028 129.291 127.708C128.793 128.536 128.687 129.141 128.757 130.372C128.77 130.62 128.949 130.872 129.173 130.961C130.29 131.406 130.881 131.487 131.799 131.252Z" fill="#CB1010"/>
<path d="M121.939 116.717C121.405 116.136 121.122 115.393 121.131 114.593C121.142 113.677 121.343 113.119 121.95 112.224C122.155 111.92 122.58 111.749 122.931 111.828C123.967 112.06 124.482 112.328 125.094 112.993C125.628 113.573 125.911 114.317 125.901 115.117C125.89 116.091 125.664 116.66 124.963 117.66C124.822 117.861 124.54 117.975 124.305 117.926C123.131 117.683 122.59 117.424 121.939 116.717Z" fill="#CB1010"/>
<path d="M125.47 124.117C124.704 124.245 124.042 124.661 123.58 125.303C123.05 126.039 122.882 126.609 122.84 127.7C122.825 128.07 123.062 128.471 123.388 128.627C124.349 129.089 124.916 129.196 125.794 129.049C126.56 128.92 127.222 128.504 127.685 127.862C128.248 127.079 128.402 126.485 128.431 125.252C128.437 125.004 128.28 124.738 128.063 124.63C126.986 124.091 126.403 123.96 125.47 124.117Z" fill="#CB1010"/>
<path d="M119.748 126.664C120.524 126.631 121.229 126.301 121.763 125.721C122.375 125.056 122.608 124.512 122.779 123.434C122.836 123.069 122.648 122.641 122.343 122.445C121.443 121.868 120.892 121.691 120.004 121.728C119.228 121.761 118.523 122.091 117.988 122.671C117.338 123.378 117.115 123.948 116.941 125.169C116.906 125.414 117.032 125.698 117.234 125.832C118.24 126.501 118.803 126.704 119.748 126.664Z" fill="#CB1010"/>
<path d="M100.13 119.404C100.664 118.823 100.947 118.08 100.938 117.28C100.927 116.364 100.726 115.806 100.119 114.911C99.9134 114.607 99.489 114.436 99.138 114.514C98.1023 114.746 97.5871 115.015 96.9752 115.68C96.4409 116.26 96.1582 117.003 96.1674 117.803C96.1786 118.778 96.4051 119.346 97.1058 120.347C97.2466 120.548 97.5284 120.662 97.7642 120.613C98.938 120.369 99.4791 120.111 100.13 119.404Z" fill="#CB1010"/>
<path d="M93.9154 121.717C94.4497 121.137 94.7324 120.393 94.7232 119.593C94.7126 118.677 94.5116 118.119 93.9047 117.224C93.6991 116.921 93.2747 116.749 92.9237 116.828C91.8879 117.06 91.3728 117.328 90.7609 117.993C90.2265 118.574 89.9438 119.317 89.953 120.117C89.9643 121.091 90.1907 121.66 90.8914 122.66C91.0322 122.861 91.314 122.975 91.5499 122.926C92.7236 122.683 93.2648 122.424 93.9154 121.717Z" fill="#CB1010"/>
<path d="M96.5306 131.252C95.7772 131.058 95.1512 130.588 94.7418 129.908C94.2729 129.129 94.1516 128.548 94.1965 127.456C94.2117 127.087 94.4802 126.707 94.8172 126.579C95.8117 126.201 96.3861 126.142 97.2489 126.364C98.0023 126.558 98.6282 127.028 99.0377 127.708C99.5362 128.536 99.6418 129.141 99.5725 130.372C99.5586 130.62 99.3803 130.872 99.1559 130.961C98.0391 131.406 97.4478 131.487 96.5306 131.252Z" fill="#CB1010"/>
<path d="M106.389 116.717C106.923 116.136 107.206 115.393 107.197 114.593C107.186 113.677 106.985 113.119 106.378 112.224C106.173 111.92 105.748 111.749 105.397 111.828C104.362 112.06 103.846 112.328 103.234 112.993C102.7 113.573 102.417 114.317 102.427 115.117C102.438 116.091 102.664 116.66 103.365 117.66C103.506 117.861 103.788 117.975 104.024 117.926C105.197 117.683 105.738 117.424 106.389 116.717Z" fill="#CB1010"/>
<path d="M102.858 124.117C103.624 124.245 104.286 124.661 104.748 125.303C105.278 126.039 105.446 126.609 105.488 127.7C105.503 128.07 105.266 128.471 104.94 128.627C103.979 129.089 103.412 129.196 102.534 129.049C101.768 128.92 101.106 128.504 100.644 127.862C100.08 127.079 99.9266 126.485 99.8968 125.252C99.8908 125.004 100.048 124.738 100.265 124.63C101.342 124.091 101.925 123.96 102.858 124.117Z" fill="#CB1010"/>
<path d="M108.58 126.664C107.804 126.631 107.099 126.301 106.564 125.721C105.952 125.056 105.719 124.512 105.549 123.434C105.491 123.069 105.68 122.641 105.985 122.445C106.884 121.868 107.435 121.691 108.324 121.728C109.1 121.761 109.805 122.091 110.339 122.671C110.99 123.378 111.212 123.948 111.386 125.169C111.421 125.414 111.296 125.698 111.094 125.832C110.088 126.501 109.524 126.704 108.58 126.664Z" fill="#CB1010"/>
<path d="M119.642 119.794C119.287 119.644 119.037 119.292 119.003 118.897V118.897C118.996 118.816 118.999 118.735 119.011 118.655L119.029 118.529C119.07 118.252 119.167 117.991 119.313 117.763L119.362 117.687C119.391 117.642 119.423 117.601 119.46 117.562V117.562C119.699 117.309 120.066 117.237 120.397 117.377L137.058 124.448C137.701 124.721 138.044 125.479 137.825 126.142V126.142C137.606 126.805 136.907 127.121 136.264 126.849L119.642 119.794Z" fill="#CB1010"/>
<path d="M92.0861 124.396C91.7385 124.56 91.5012 124.92 91.48 125.317V125.317C91.4756 125.398 91.4807 125.48 91.495 125.559L91.5175 125.684C91.5671 125.959 91.6723 126.216 91.8258 126.438L91.8764 126.511C91.9068 126.555 91.941 126.596 91.9785 126.633V126.633C92.2259 126.876 92.5932 126.934 92.918 126.781L109.354 119.031C109.984 118.734 110.3 117.964 110.06 117.31V117.31C109.819 116.657 109.114 116.368 108.484 116.665L92.0861 124.396Z" fill="#CB1010"/>
<path fill-rule="evenodd" clip-rule="evenodd" d="M136.75 30.0339L141.351 28.8626C145.012 27.9351 148.89 28.4959 152.136 30.4221C155.382 32.3483 157.729 35.4825 158.664 39.1372L162.564 54.4576C163.491 58.1142 162.927 61.9895 160.998 65.2332C159.068 68.4769 155.93 70.824 152.272 71.7597L147.671 72.9309L148.061 74.463C148.782 77.3071 148.344 80.3212 146.843 82.8441C145.342 85.367 142.901 87.1926 140.056 87.9202L106.316 96.5094C103.469 97.2309 100.452 96.7948 97.928 95.2966C95.4036 93.7984 93.5776 91.3606 92.8508 88.5181L88.1094 69.8936C87.4413 71.173 86.5566 72.332 85.4907 73.3177C84.0207 74.677 82.2483 75.6676 80.3196 76.2079L70.1494 116.158C69.4225 119 67.5965 121.438 65.0721 122.936C62.5476 124.434 59.531 124.871 56.6839 124.149L22.9444 115.56C20.0989 114.832 17.658 113.007 16.1572 110.484C14.6565 107.961 14.2184 104.947 14.9392 102.103L15.3292 100.571L10.7284 99.3994C7.06999 98.4637 3.93176 96.1166 2.00222 92.8729C0.0726831 89.6292 -0.49059 85.7539 0.435987 82.0973L4.33617 66.7769C5.27086 63.1222 7.61858 59.988 10.8642 58.0618C14.1099 56.1356 17.9884 55.5748 21.6489 56.5023L26.2497 57.6736L26.5296 56.5743C25.4278 54.4333 24.9609 52.0228 25.1838 49.6263C25.4067 47.2298 26.3102 44.9472 27.7879 43.047C29.2656 41.1468 31.2561 39.7081 33.525 38.9003C35.7939 38.0924 38.2469 37.9491 40.5954 38.487C42.4425 35.3235 45.0535 32.673 48.1899 30.7772C50.6446 29.2816 53.375 28.2937 56.2194 27.8721C59.0638 27.4505 61.9642 27.6037 64.7488 28.3226C68.1996 29.2011 71.2919 30.8953 73.856 33.266C74.2172 31.8634 74.818 30.5292 75.636 29.3236C74.2505 27.6659 73.381 25.6391 73.1348 23.4931C72.8886 21.3471 73.2764 19.1757 74.2504 17.2466C75.2245 15.3176 76.7422 13.7152 78.6163 12.6372C80.4905 11.5591 82.6392 11.0524 84.7975 11.1797C87.7734 5.85436 92.5175 2.14256 98.2513 0.682885C101.036 -0.0360483 103.936 -0.189231 106.781 0.232407C109.625 0.654046 112.356 1.64192 114.81 3.13749C117.947 5.03325 120.558 7.68381 122.405 10.8473C124.753 10.3094 127.206 10.4527 129.475 11.2606C131.744 12.0684 133.735 13.5071 135.212 15.4073C136.69 17.3075 137.593 19.5901 137.816 21.9866C138.039 24.3831 137.572 26.7936 136.471 28.9346L136.75 30.0339ZM87.2314 42.6234C86.4242 41.6925 85.4631 40.8977 84.3838 40.2769C83.1194 39.5496 81.7301 39.0824 80.2972 38.8944C80.1681 38.5938 80.0619 38.2818 79.9802 37.9608C79.5664 36.3355 79.8159 34.6122 80.6738 33.1701C81.5316 31.728 82.9276 30.6851 84.5546 30.271C84.5718 30.2666 86.3195 29.891 87.9812 30.5813C88.3649 30.7407 88.7763 30.823 89.1919 30.8236C89.6076 30.8241 90.0192 30.7428 90.4035 30.5844C90.7878 30.426 91.1371 30.1935 91.4315 29.9003C91.7259 29.607 91.9596 29.2588 92.1193 28.8753C92.2791 28.4919 92.3617 28.0808 92.3624 27.6656C92.3631 27.2504 92.282 26.8391 92.1236 26.4552C91.9653 26.0714 91.7328 25.7225 91.4394 25.4285C91.146 25.1345 90.7975 24.9012 90.4138 24.7418C88.0579 23.8 85.4719 23.5912 82.9945 24.1428C82.0916 24.3732 81.2172 24.7032 80.3872 25.1267C79.9048 24.5049 79.5849 23.773 79.4563 22.9968C79.3277 22.2206 79.3944 21.4245 79.6504 20.6803C79.9064 19.936 80.3437 19.267 80.9229 18.7335C81.502 18.2001 82.2048 17.8188 82.968 17.6242C83.6917 17.4363 84.4498 17.4234 85.1793 17.5866C85.9089 17.7499 86.5889 18.0845 87.1629 18.5628C87.6299 18.9511 88.0609 19.3805 88.451 19.8459C88.733 20.6056 89.2963 21.2279 90.0245 21.5845C90.7527 21.941 91.5902 22.0046 92.3643 21.762C93.1383 21.5194 93.7897 20.9893 94.1841 20.2809C94.5784 19.5725 94.6855 18.7401 94.4834 17.9554C94.1533 16.6589 93.0518 15.2264 91.2019 13.6929C91.1403 13.642 91.0747 13.5927 91.0097 13.5438C90.9492 13.4983 90.8891 13.4532 90.8332 13.4074C92.9641 10.0713 96.1 7.75585 99.8113 6.81104C101.782 6.30325 103.835 6.19593 105.848 6.49546C107.861 6.79499 109.793 7.49526 111.529 8.55476C113.702 9.88208 115.522 11.7126 116.836 13.8917C118.151 16.0707 118.92 18.5342 119.08 21.0737C119.106 21.4883 119.212 21.8937 119.395 22.2669C119.577 22.6401 119.831 22.9737 120.142 23.2488C120.454 23.5238 120.816 23.7348 121.209 23.8698C121.602 24.0048 122.018 24.0611 122.433 24.0355C122.632 24.0229 122.829 23.9918 123.022 23.9428C123.735 23.7605 124.362 23.3357 124.795 22.7415C125.229 22.1473 125.442 21.4208 125.398 20.687C125.319 19.4012 125.128 18.1248 124.827 16.8723C126.399 16.7772 127.95 17.2711 129.177 18.2576C130.403 19.2441 131.218 20.6524 131.46 22.2071C131.703 23.7619 131.357 25.3515 130.489 26.6654C129.622 27.9793 128.295 28.9231 126.769 29.3123C125.172 29.7188 122.577 29.3232 121.101 28.4489C120.38 28.0206 119.517 27.896 118.704 28.1027L95.3163 34.0566C94.6883 34.218 94.125 34.5681 93.7025 35.0597C93.28 35.5513 93.0188 36.1606 92.9542 36.8052C92.5555 40.7158 89.4767 42.0685 87.6747 42.5273C87.5276 42.5647 87.3798 42.5967 87.2314 42.6234ZM77.2213 45.403C76.719 45.5881 76.2506 45.858 75.8372 46.2025C75.3703 46.5908 74.9392 47.0202 74.5491 47.4856C74.2671 48.2453 73.7039 48.8676 72.9757 49.2242C72.2475 49.5807 71.4099 49.6443 70.6358 49.4017C69.8618 49.1591 69.2104 48.629 68.816 47.9206C68.4217 47.2122 68.3146 46.3798 68.5167 45.5951C68.8468 44.2986 69.9484 42.8661 71.7983 41.3326C71.8598 41.2817 71.9254 41.2324 71.9904 41.1836C72.0509 41.138 72.111 41.0929 72.1669 41.0471C70.036 37.711 66.9001 35.3956 63.1888 34.4507C61.2178 33.9429 59.1651 33.8356 57.1523 34.1352C55.1395 34.4347 53.2075 35.135 51.471 36.1945C49.2986 37.5218 47.4783 39.3523 46.1639 41.5314C44.8496 43.7104 44.0798 46.1739 43.9198 48.7134C43.8945 49.128 43.7876 49.5334 43.6054 49.9066C43.4232 50.2798 43.1692 50.6134 42.8579 50.8885C42.5466 51.1635 42.1841 51.3745 41.791 51.5095C41.398 51.6445 40.9822 51.7009 40.5673 51.6752C40.3686 51.6626 40.1715 51.6315 39.9785 51.5825C39.2655 51.4002 38.6383 50.9754 38.2047 50.3812C37.771 49.787 37.5581 49.0605 37.6026 48.3267C37.6812 47.0409 37.8723 45.7645 38.1736 44.512C36.6013 44.4169 35.0503 44.9108 33.8236 45.8973C32.5969 46.8838 31.7826 48.2921 31.5399 49.8468C31.2971 51.4016 31.6434 52.9912 32.5109 54.3051C33.3785 55.619 34.7051 56.5628 36.2314 56.952C37.8283 57.3585 40.4235 56.9629 41.8994 56.0886C42.6206 55.6603 43.4827 55.5357 44.2962 55.7424L67.6838 61.6963C68.3118 61.8577 68.8751 62.2078 69.2976 62.6994C69.7201 63.191 69.9813 63.8003 70.046 64.4449C70.4446 68.3555 73.5234 69.7082 75.3254 70.167C76.9524 70.5812 78.6771 70.3327 80.1201 69.4763C81.5631 68.62 82.6062 67.2258 83.02 65.6005C83.4337 63.9752 83.1842 62.2519 82.3263 60.8098C81.4685 59.3677 80.0725 58.3248 78.4456 57.9107C78.4283 57.9063 76.6807 57.5307 75.0189 58.221C74.6352 58.3804 74.2238 58.4627 73.8082 58.4633C73.3926 58.4638 72.9809 58.3825 72.5966 58.2241C72.2124 58.0657 71.8631 57.8332 71.5686 57.54C71.2742 57.2467 71.0405 56.8985 70.8808 56.515C70.721 56.1316 70.6385 55.7205 70.6377 55.3053C70.637 54.8901 70.7181 54.4788 70.8765 54.0949C71.0349 53.7111 71.2674 53.3622 71.5607 53.0682C71.8541 52.7742 72.2026 52.5409 72.5863 52.3815C74.9422 51.4397 77.5282 51.2309 80.0056 51.7825C80.9085 52.0129 81.783 52.3429 82.6129 52.7664C82.9522 52.3291 83.211 51.8373 83.3795 51.314L82.6805 48.5682C80.7518 48.0279 78.9794 47.0373 77.5095 45.678C77.4119 45.5878 77.3158 45.4961 77.2213 45.403ZM155.563 62.0076C156.635 60.2049 156.947 58.0508 156.43 56.0192L152.529 40.6988C152.012 38.6672 150.708 36.9245 148.905 35.854C147.101 34.7835 144.945 34.473 142.911 34.9907L138.31 36.162L146.111 66.8028L150.712 65.6315C152.745 65.1138 154.49 63.8102 155.563 62.0076ZM7.43746 89.6473C6.36513 87.8446 6.05326 85.6905 6.57045 83.6589L10.4706 68.3385C10.9878 66.3069 12.2917 64.5642 14.0955 63.4937C15.8992 62.4233 18.0551 62.1127 20.0888 62.6304L24.6896 63.8017L16.8893 94.4425L12.2884 93.2712C10.2547 92.7535 8.50979 91.4499 7.43746 89.6473ZM50.2138 109.856C50.4651 111.28 50.2975 111.866 49.7113 111.447C49.2087 111.112 48.3711 111.698 47.8686 112.62C45.7747 116.472 52.1402 120.577 55.2392 117.478C56.4118 116.305 56.5793 113.457 55.5742 113.457C55.1554 113.457 54.4016 112.536 53.8991 111.447C53.3965 110.274 52.2239 109.018 51.3864 108.516C49.9625 107.762 49.8788 107.929 50.2138 109.856ZM52.4752 112.62C52.2239 113.038 52.3915 113.457 52.8102 113.457C53.3128 113.457 53.7316 114.211 53.7316 115.132C53.7316 116.808 50.9676 117.561 50.13 116.137C49.5437 115.216 51.0514 111.782 52.0564 111.782C52.559 111.782 52.7265 112.117 52.4752 112.62ZM39.0322 105.793C39.6185 106.212 39.786 105.626 39.5347 104.202C39.1997 102.276 39.2835 102.108 40.7073 102.862C41.5449 103.364 42.7175 104.621 43.22 105.793C43.7226 106.882 44.4764 107.803 44.8952 107.803C45.9002 107.803 45.7327 110.651 44.5601 111.824C41.4611 114.923 35.0956 110.819 37.1896 106.966C37.6921 106.045 38.5297 105.458 39.0322 105.793ZM42.1312 107.803C41.7124 107.803 41.5449 107.385 41.7962 106.966C42.0474 106.463 41.8799 106.128 41.3774 106.128C40.3723 106.128 38.8647 109.562 39.451 110.484C40.2886 111.908 43.0525 111.154 43.0525 109.479C43.0525 108.557 42.6337 107.803 42.1312 107.803ZM112.312 54.477C111.056 55.147 109.381 55.7333 108.627 55.7333C107.454 55.7333 107.454 55.9008 108.627 57.1572C109.381 57.9948 110.218 60.7587 110.469 63.4389L111.056 68.1293L115.997 68.7156C118.761 69.0506 121.442 69.8044 121.944 70.4745C122.782 71.5633 123.2 71.2283 124.122 68.5481C126.132 63.1877 126.299 62.4339 125.294 62.4339C124.792 62.4339 124.373 63.0201 124.373 63.6902C124.373 65.7841 124.205 66.2029 122.782 67.1242C121.358 68.2131 114.909 67.543 114.992 66.3704C114.992 65.9516 116.081 64.444 117.421 63.0201C122.698 57.2409 121.525 57.3247 114.992 63.1877C112.48 65.3653 112.312 65.2816 111.474 59.8374C110.972 57.2409 111.223 56.7384 113.066 55.9008C114.238 55.3145 115.83 54.8958 116.5 54.8958C117.17 54.8958 117.505 54.477 117.254 54.0582C116.5 52.8856 115.16 53.0531 112.312 54.477ZM124.959 59.9212C124.792 59.9212 123.954 59.1674 123.117 58.2461C122.279 57.3248 122.028 56.571 122.53 56.571C123.033 56.571 123.87 57.3248 124.373 58.2461C124.876 59.1674 125.127 59.9212 124.959 59.9212Z" fill="url(#paint0_linear_304_225)"/>
<defs>
<linearGradient id="paint0_linear_304_225" x1="54.9806" y1="24.6997" x2="86.3894" y2="97.8821" gradientUnits="userSpaceOnUse">
<stop offset="0.0727603" stop-color="#EA1A1A"/>
<stop offset="1" stop-color="#861616"/>
</linearGradient>
</defs>
</svg>
