<svg width="12" height="15" viewBox="0 0 12 15" fill="none" xmlns="http://www.w3.org/2000/svg">
<path d="M1.71429 0.9375C1.71429 0.418945 1.33125 0 0.857143 0C0.383036 0 0 0.418945 0 0.9375V1.875V10.7812V14.0625C0 14.5811 0.383036 15 0.857143 15C1.33125 15 1.71429 14.5811 1.71429 14.0625V10.3125L3.43661 9.84082C4.5375 9.53906 5.70268 9.67969 6.71786 10.2334C7.90179 10.8809 9.27589 10.96 10.5134 10.4502L11.4429 10.0693C11.7777 9.93164 12 9.58301 12 9.19043V1.93652C12 1.2627 11.3518 0.823242 10.8 1.125L10.5429 1.26563C9.30268 1.94531 7.84286 1.94531 6.60268 1.26563C5.6625 0.75 4.58304 0.621094 3.5625 0.899414L1.71429 1.40625V0.9375Z" fill="#E74343"/>
</svg>
