<svg width="564" height="564" viewBox="0 0 564 564" fill="none" xmlns="http://www.w3.org/2000/svg">
<path d="M165.105 8.92859L113.327 17.3985L59.8953 33.6783C30.4806 42.5883 5.36239 50.6182 4.04038 51.4982C2.6082 52.3782 1.28619 54.1382 0.955688 55.5682C0.625185 56.8882 4.04038 87.7979 8.66741 124.208C13.1843 160.617 16.93 190.977 16.93 191.637C16.93 192.297 18.1418 194.057 19.6842 195.487L22.3282 198.237H69.8104H117.182V206.267C117.182 213.967 117.072 214.187 113.877 215.617C111.564 216.717 110.352 218.257 109.471 221.117C108.038 226.507 107.928 551.444 109.471 556.724C111.454 563.874 98.3437 563.324 282.434 563.324C466.523 563.324 453.414 563.874 455.397 556.724C456.058 554.414 456.498 485.994 456.498 375.665V198.237H499.464H542.539L545.183 195.487C546.725 194.057 547.937 192.297 547.937 191.637C547.937 190.977 551.683 160.617 556.2 124.208C560.827 87.7979 564.242 56.8882 563.912 55.5682C563.581 54.1382 562.259 52.3782 560.827 51.4982C559.505 50.6182 533.836 42.4783 503.76 33.3484L449.007 16.7385L396.457 8.3786C355.144 1.77869 343.246 0.238647 341.263 1.22864C339.611 1.88867 337.187 5.40863 334.653 10.9086C325.179 30.7084 304.137 44.2383 282.434 44.2383C260.841 44.2383 239.689 30.8184 230.214 10.9086C226.028 2.21863 223.935 0.128662 219.418 0.348694C217.986 0.348694 193.639 4.30865 165.105 8.92859ZM219.197 25.0984C224.375 34.0084 236.824 45.9983 246.188 51.1682C258.087 57.7682 267.891 60.1881 282.434 60.1881C296.976 60.1881 306.781 57.7682 318.679 51.1682C328.153 45.8882 340.492 34.0084 345.78 24.9885C349.746 18.0585 350.187 17.7285 353.381 18.2785C355.254 18.4985 358.89 19.1585 361.534 19.4885C364.068 19.9285 366.161 20.6985 366.161 21.2485C366.161 23.2285 361.534 31.4784 356.686 38.2983C348.314 50.1782 335.755 60.9581 322.975 67.1181C316.696 70.198 308.323 73.498 304.137 74.488C269.544 82.7379 233.409 70.308 211.265 42.3683C205.757 35.3284 198.706 23.7784 198.706 21.5785C198.706 20.4785 206.859 18.4985 213.138 17.9485C214.24 17.8385 216.553 20.5885 219.197 25.0984ZM184.715 30.7084C186.368 34.6683 187.579 38.0783 187.469 38.1884C186.918 38.6284 129.852 47.5383 127.979 47.5383C126.326 47.5383 125.996 46.4382 125.996 39.8383C125.996 35.5483 126.106 32.1384 126.326 32.0284C130.843 31.1484 177.885 23.5585 179.427 23.4485C181.19 23.3384 182.291 24.9885 184.715 30.7084ZM409.126 27.1884C422.126 29.2784 434.134 31.3684 435.897 31.6984C438.761 32.2484 438.871 32.4684 438.871 39.9483C438.871 45.5583 438.541 47.5383 437.439 47.5383C436.558 47.5383 424.77 45.7783 411.219 43.6883C397.669 41.4883 384.449 39.5083 381.805 39.0683C378.94 38.7383 377.288 37.9683 377.508 37.1984C381.584 26.9684 383.457 23.3384 384.339 23.3384C385 23.3384 396.126 25.0984 409.126 27.1884ZM108.369 109.138V181.737H87.4372C75.9797 181.737 66.5053 181.627 66.5053 181.407C66.3952 181.297 62.7596 152.697 58.4631 117.828L50.4209 54.4682L79.1746 45.6683C94.9286 40.7183 107.928 36.7584 108.149 36.6484C108.259 36.6484 108.369 69.208 108.369 109.138ZM204.655 60.1881L211.376 67.3381L208.071 67.9981C206.198 68.3281 187.139 71.408 165.656 74.928L126.547 81.1979L126.216 73.608C125.996 69.428 126.216 65.6881 126.436 65.3581C126.767 65.0281 142.851 62.1681 162.021 59.0881C181.3 55.8982 197.274 53.2582 197.494 53.1482C197.715 53.1482 200.91 56.2282 204.655 60.1881ZM402.516 59.0881C419.812 61.8381 435.016 64.3681 436.448 64.5881C438.651 65.1381 438.871 65.7981 438.871 72.948V80.868L433.143 80.098C425.321 79.108 359.661 68.6581 356.466 67.8881C354.153 67.3381 354.373 66.8981 360.322 60.1881C365.059 54.9082 367.152 53.2582 368.915 53.5882C370.127 53.9182 385.22 56.3382 402.516 59.0881ZM41.3872 119.038C45.4634 151.377 48.7684 178.767 48.8785 179.757C48.8785 181.517 47.7769 181.737 40.616 181.737C36.0991 181.737 32.3534 181.407 32.3534 181.077C32.3534 180.747 29.1586 154.677 25.1925 123.108C21.2265 91.6479 18.1418 65.2481 18.4723 64.5881C19.0232 63.1581 29.7094 59.6382 32.3534 59.9681C33.6754 60.1881 35.4381 71.848 41.3872 119.038ZM539.234 61.5081C542.98 62.4981 546.175 63.9281 546.395 64.5881C546.725 65.2481 543.641 91.6479 539.675 123.108C535.709 154.677 532.514 180.747 532.514 181.077C532.514 181.407 528.768 181.737 524.251 181.737C519.734 181.737 515.989 181.407 515.989 181.077C515.989 179.537 530.421 64.2581 530.861 62.0581C531.522 59.1982 530.971 59.1982 539.234 61.5081ZM372.551 199.557C372.22 216.607 372 217.707 369.246 222.987C365.5 229.917 363.517 232.117 356.907 237.067C350.407 242.126 347.102 242.236 340.602 237.507C334.212 232.997 330.467 228.487 327.051 221.227C324.518 215.727 324.297 214.077 324.297 198.457V181.737H348.644H372.991L372.551 199.557Z" fill="#9777A8"/>
<path d="M165.105 8.92859L113.327 17.3985L59.8953 33.6783C30.4806 42.5883 5.36239 50.6182 4.04038 51.4982C2.6082 52.3782 1.28619 54.1382 0.955688 55.5682C0.625185 56.8882 4.04038 87.7979 8.66741 124.208C13.1843 160.617 16.93 190.977 16.93 191.637C16.93 192.297 18.1418 194.057 19.6842 195.487L22.3282 198.237H69.8104H117.182V206.267C117.182 213.967 117.072 214.187 113.877 215.617C111.564 216.717 110.352 218.257 109.471 221.117C108.038 226.507 107.928 551.444 109.471 556.724C111.454 563.874 98.3437 563.324 282.434 563.324C466.523 563.324 453.414 563.874 455.397 556.724C456.058 554.414 456.498 485.994 456.498 375.665V198.237H499.464H542.539L545.183 195.487C546.725 194.057 547.937 192.297 547.937 191.637C547.937 190.977 551.683 160.617 556.2 124.208C560.827 87.7979 564.242 56.8882 563.912 55.5682C563.581 54.1382 562.259 52.3782 560.827 51.4982C559.505 50.6182 533.836 42.4783 503.76 33.3484L449.007 16.7385L396.457 8.3786C355.144 1.77869 343.246 0.238647 341.263 1.22864C339.611 1.88867 337.187 5.40863 334.653 10.9086C325.179 30.7084 304.137 44.2383 282.434 44.2383C260.841 44.2383 239.689 30.8184 230.214 10.9086C226.028 2.21863 223.935 0.128662 219.418 0.348694C217.986 0.348694 193.639 4.30865 165.105 8.92859ZM219.197 25.0984C224.375 34.0084 236.824 45.9983 246.188 51.1682C258.087 57.7682 267.891 60.1881 282.434 60.1881C296.976 60.1881 306.781 57.7682 318.679 51.1682C328.153 45.8882 340.492 34.0084 345.78 24.9885C349.746 18.0585 350.187 17.7285 353.381 18.2785C355.254 18.4985 358.89 19.1585 361.534 19.4885C364.068 19.9285 366.161 20.6985 366.161 21.2485C366.161 23.2285 361.534 31.4784 356.686 38.2983C348.314 50.1782 335.755 60.9581 322.975 67.1181C316.696 70.198 308.323 73.498 304.137 74.488C269.544 82.7379 233.409 70.308 211.265 42.3683C205.757 35.3284 198.706 23.7784 198.706 21.5785C198.706 20.4785 206.859 18.4985 213.138 17.9485C214.24 17.8385 216.553 20.5885 219.197 25.0984ZM184.715 30.7084C186.368 34.6683 187.579 38.0783 187.469 38.1884C186.918 38.6284 129.852 47.5383 127.979 47.5383C126.326 47.5383 125.996 46.4382 125.996 39.8383C125.996 35.5483 126.106 32.1384 126.326 32.0284C130.843 31.1484 177.885 23.5585 179.427 23.4485C181.19 23.3384 182.291 24.9885 184.715 30.7084ZM409.126 27.1884C422.126 29.2784 434.134 31.3684 435.897 31.6984C438.761 32.2484 438.871 32.4684 438.871 39.9483C438.871 45.5583 438.541 47.5383 437.439 47.5383C436.558 47.5383 424.77 45.7783 411.219 43.6883C397.669 41.4883 384.449 39.5083 381.805 39.0683C378.94 38.7383 377.288 37.9683 377.508 37.1984C381.584 26.9684 383.457 23.3384 384.339 23.3384C385 23.3384 396.126 25.0984 409.126 27.1884ZM108.369 109.138V181.737H87.4372C75.9797 181.737 66.5053 181.627 66.5053 181.407C66.3952 181.297 62.7596 152.697 58.4631 117.828L50.4209 54.4682L79.1746 45.6683C94.9286 40.7183 107.928 36.7584 108.149 36.6484C108.259 36.6484 108.369 69.208 108.369 109.138ZM204.655 60.1881L211.376 67.3381L208.071 67.9981C206.198 68.3281 187.139 71.408 165.656 74.928L126.547 81.1979L126.216 73.608C125.996 69.428 126.216 65.6881 126.436 65.3581C126.767 65.0281 142.851 62.1681 162.021 59.0881C181.3 55.8982 197.274 53.2582 197.494 53.1482C197.715 53.1482 200.91 56.2282 204.655 60.1881ZM402.516 59.0881C419.812 61.8381 435.016 64.3681 436.448 64.5881C438.651 65.1381 438.871 65.7981 438.871 72.948V80.868L433.143 80.098C425.321 79.108 359.661 68.6581 356.466 67.8881C354.153 67.3381 354.373 66.8981 360.322 60.1881C365.059 54.9082 367.152 53.2582 368.915 53.5882C370.127 53.9182 385.22 56.3382 402.516 59.0881ZM41.3872 119.038C45.4634 151.377 48.7684 178.767 48.8785 179.757C48.8785 181.517 47.7769 181.737 40.616 181.737C36.0991 181.737 32.3534 181.407 32.3534 181.077C32.3534 180.747 29.1586 154.677 25.1925 123.108C21.2265 91.6479 18.1418 65.2481 18.4723 64.5881C19.0232 63.1581 29.7094 59.6382 32.3534 59.9681C33.6754 60.1881 35.4381 71.848 41.3872 119.038ZM539.234 61.5081C542.98 62.4981 546.175 63.9281 546.395 64.5881C546.725 65.2481 543.641 91.6479 539.675 123.108C535.709 154.677 532.514 180.747 532.514 181.077C532.514 181.407 528.768 181.737 524.251 181.737C519.734 181.737 515.989 181.407 515.989 181.077C515.989 179.537 530.421 64.2581 530.861 62.0581C531.522 59.1982 530.971 59.1982 539.234 61.5081ZM372.551 199.557C372.22 216.607 372 217.707 369.246 222.987C365.5 229.917 363.517 232.117 356.907 237.067C350.407 242.126 347.102 242.236 340.602 237.507C334.212 232.997 330.467 228.487 327.051 221.227C324.518 215.727 324.297 214.077 324.297 198.457V181.737H348.644H372.991L372.551 199.557Z" fill="#9777A8"/>
<path d="M165.105 8.92859L113.327 17.3985L59.8953 33.6783C30.4806 42.5883 5.36239 50.6182 4.04038 51.4982C2.6082 52.3782 1.28619 54.1382 0.955688 55.5682C0.625185 56.8882 4.04038 87.7979 8.66741 124.208C13.1843 160.617 16.93 190.977 16.93 191.637C16.93 192.297 18.1418 194.057 19.6842 195.487L22.3282 198.237H69.8104H117.182V206.267C117.182 213.967 117.072 214.187 113.877 215.617C111.564 216.717 110.352 218.257 109.471 221.117C108.038 226.507 107.928 551.444 109.471 556.724C111.454 563.874 98.3437 563.324 282.434 563.324C466.523 563.324 453.414 563.874 455.397 556.724C456.058 554.414 456.498 485.994 456.498 375.665V198.237H499.464H542.539L545.183 195.487C546.725 194.057 547.937 192.297 547.937 191.637C547.937 190.977 551.683 160.617 556.2 124.208C560.827 87.7979 564.242 56.8882 563.912 55.5682C563.581 54.1382 562.259 52.3782 560.827 51.4982C559.505 50.6182 533.836 42.4783 503.76 33.3484L449.007 16.7385L396.457 8.3786C355.144 1.77869 343.246 0.238647 341.263 1.22864C339.611 1.88867 337.187 5.40863 334.653 10.9086C325.179 30.7084 304.137 44.2383 282.434 44.2383C260.841 44.2383 239.689 30.8184 230.214 10.9086C226.028 2.21863 223.935 0.128662 219.418 0.348694C217.986 0.348694 193.639 4.30865 165.105 8.92859ZM219.197 25.0984C224.375 34.0084 236.824 45.9983 246.188 51.1682C258.087 57.7682 267.891 60.1881 282.434 60.1881C296.976 60.1881 306.781 57.7682 318.679 51.1682C328.153 45.8882 340.492 34.0084 345.78 24.9885C349.746 18.0585 350.187 17.7285 353.381 18.2785C355.254 18.4985 358.89 19.1585 361.534 19.4885C364.068 19.9285 366.161 20.6985 366.161 21.2485C366.161 23.2285 361.534 31.4784 356.686 38.2983C348.314 50.1782 335.755 60.9581 322.975 67.1181C316.696 70.198 308.323 73.498 304.137 74.488C269.544 82.7379 233.409 70.308 211.265 42.3683C205.757 35.3284 198.706 23.7784 198.706 21.5785C198.706 20.4785 206.859 18.4985 213.138 17.9485C214.24 17.8385 216.553 20.5885 219.197 25.0984ZM184.715 30.7084C186.368 34.6683 187.579 38.0783 187.469 38.1884C186.918 38.6284 129.852 47.5383 127.979 47.5383C126.326 47.5383 125.996 46.4382 125.996 39.8383C125.996 35.5483 126.106 32.1384 126.326 32.0284C130.843 31.1484 177.885 23.5585 179.427 23.4485C181.19 23.3384 182.291 24.9885 184.715 30.7084ZM409.126 27.1884C422.126 29.2784 434.134 31.3684 435.897 31.6984C438.761 32.2484 438.871 32.4684 438.871 39.9483C438.871 45.5583 438.541 47.5383 437.439 47.5383C436.558 47.5383 424.77 45.7783 411.219 43.6883C397.669 41.4883 384.449 39.5083 381.805 39.0683C378.94 38.7383 377.288 37.9683 377.508 37.1984C381.584 26.9684 383.457 23.3384 384.339 23.3384C385 23.3384 396.126 25.0984 409.126 27.1884ZM108.369 109.138V181.737H87.4372C75.9797 181.737 66.5053 181.627 66.5053 181.407C66.3952 181.297 62.7596 152.697 58.4631 117.828L50.4209 54.4682L79.1746 45.6683C94.9286 40.7183 107.928 36.7584 108.149 36.6484C108.259 36.6484 108.369 69.208 108.369 109.138ZM204.655 60.1881L211.376 67.3381L208.071 67.9981C206.198 68.3281 187.139 71.408 165.656 74.928L126.547 81.1979L126.216 73.608C125.996 69.428 126.216 65.6881 126.436 65.3581C126.767 65.0281 142.851 62.1681 162.021 59.0881C181.3 55.8982 197.274 53.2582 197.494 53.1482C197.715 53.1482 200.91 56.2282 204.655 60.1881ZM402.516 59.0881C419.812 61.8381 435.016 64.3681 436.448 64.5881C438.651 65.1381 438.871 65.7981 438.871 72.948V80.868L433.143 80.098C425.321 79.108 359.661 68.6581 356.466 67.8881C354.153 67.3381 354.373 66.8981 360.322 60.1881C365.059 54.9082 367.152 53.2582 368.915 53.5882C370.127 53.9182 385.22 56.3382 402.516 59.0881ZM41.3872 119.038C45.4634 151.377 48.7684 178.767 48.8785 179.757C48.8785 181.517 47.7769 181.737 40.616 181.737C36.0991 181.737 32.3534 181.407 32.3534 181.077C32.3534 180.747 29.1586 154.677 25.1925 123.108C21.2265 91.6479 18.1418 65.2481 18.4723 64.5881C19.0232 63.1581 29.7094 59.6382 32.3534 59.9681C33.6754 60.1881 35.4381 71.848 41.3872 119.038ZM539.234 61.5081C542.98 62.4981 546.175 63.9281 546.395 64.5881C546.725 65.2481 543.641 91.6479 539.675 123.108C535.709 154.677 532.514 180.747 532.514 181.077C532.514 181.407 528.768 181.737 524.251 181.737C519.734 181.737 515.989 181.407 515.989 181.077C515.989 179.537 530.421 64.2581 530.861 62.0581C531.522 59.1982 530.971 59.1982 539.234 61.5081ZM372.551 199.557C372.22 216.607 372 217.707 369.246 222.987C365.5 229.917 363.517 232.117 356.907 237.067C350.407 242.126 347.102 242.236 340.602 237.507C334.212 232.997 330.467 228.487 327.051 221.227C324.518 215.727 324.297 214.077 324.297 198.457V181.737H348.644H372.991L372.551 199.557Z" fill="#9777A8"/>
<path d="M109 26L44 46.5L63.7541 189H119.968C122.929 189 125.241 186.442 124.943 183.496L109 26Z" fill="#9777A8"/>
<path d="M109 26L44 46.5L63.7541 189H119.968C122.929 189 125.241 186.442 124.943 183.496L109 26Z" fill="#9777A8"/>
<path d="M109 26L44 46.5L63.7541 189H119.968C122.929 189 125.241 186.442 124.943 183.496L109 26Z" fill="#9777A8"/>
</svg>
