<svg width="417" height="598" viewBox="0 0 417 598" fill="none" xmlns="http://www.w3.org/2000/svg">
<path d="M33.4663 2.66669C30.7997 4.00002 27.5997 6.80002 26.2663 8.80002C21.5997 16 21.5997 20.1334 26.2663 40.9334C45.1997 124.133 38.6663 202 7.86634 264L0.933008 278L0.533008 298.667C0.266341 310 0.266341 322.933 0.533008 327.333L0.933008 335.333L8.79967 322.667C25.0663 296.533 36.6663 268.8 45.5997 234C62.2663 169.733 65.733 96.5334 55.5997 24C53.733 11.2 52.2663 0.533357 52.2663 0.400023C52.2663 0.133357 49.0663 2.32011e-05 45.333 2.32011e-05C41.0663 0.133357 36.3997 1.06669 33.4663 2.66669Z" fill="#9777A8"/>
<path d="M33.4663 2.66669C30.7997 4.00002 27.5997 6.80002 26.2663 8.80002C21.5997 16 21.5997 20.1334 26.2663 40.9334C45.1997 124.133 38.6663 202 7.86634 264L0.933008 278L0.533008 298.667C0.266341 310 0.266341 322.933 0.533008 327.333L0.933008 335.333L8.79967 322.667C25.0663 296.533 36.6663 268.8 45.5997 234C62.2663 169.733 65.733 96.5334 55.5997 24C53.733 11.2 52.2663 0.533357 52.2663 0.400023C52.2663 0.133357 49.0663 2.32011e-05 45.333 2.32011e-05C41.0663 0.133357 36.3997 1.06669 33.4663 2.66669Z" fill="#9777A8"/>
<path d="M33.4663 2.66669C30.7997 4.00002 27.5997 6.80002 26.2663 8.80002C21.5997 16 21.5997 20.1334 26.2663 40.9334C45.1997 124.133 38.6663 202 7.86634 264L0.933008 278L0.533008 298.667C0.266341 310 0.266341 322.933 0.533008 327.333L0.933008 335.333L8.79967 322.667C25.0663 296.533 36.6663 268.8 45.5997 234C62.2663 169.733 65.733 96.5334 55.5997 24C53.733 11.2 52.2663 0.533357 52.2663 0.400023C52.2663 0.133357 49.0663 2.32011e-05 45.333 2.32011e-05C41.0663 0.133357 36.3997 1.06669 33.4663 2.66669Z" fill="#6B6B6B"/>
<path d="M74.1333 3.60004C75.3333 9.60004 78.6666 34.2667 80.3999 50C82.6666 69.3334 82.6666 134.8 80.5333 156C71.4666 244.267 47.3333 312.533 8.13327 360.933L0.266602 370.667V446V521.333H208.267H416.267V446V370.667L408.4 360.933C366 308.667 341.2 233.067 334.8 137.333C332.133 96.9333 335.333 41.0667 342.4 3.60004L343.2 0H324.667H306.267L306.133 39.0667C306.133 79.6 304.8 95.2 298.8 124.533C288.4 176 265.2 213.2 234.267 228C213.333 238.133 202.133 238.133 181.733 227.867C133.6 203.867 107.733 131.867 109.867 27.8667L110.4 0H91.8666H73.3333L74.1333 3.60004ZM217.733 289.333C235.867 292.667 251.6 305.467 257.733 321.6C260.267 328.267 260.933 332.533 260.933 342C260.933 352.667 260.4 354.933 256.667 362.933C254.4 367.867 250 374.533 246.933 377.867L241.2 384L246.933 390.133C276 421.733 258.8 471.867 216.4 478.8C192.267 482.667 167.2 468.533 158.8 446.4C156.267 439.733 155.6 435.467 155.6 426C155.6 415.333 156.133 413.067 159.867 405.067C162.133 400.133 166.533 393.467 169.6 390.133L175.333 384L169.6 377.867C166.533 374.533 162.133 367.867 159.867 362.933C156.133 354.933 155.6 352.667 155.6 342C155.6 332.533 156.267 328.267 158.8 321.6C165.867 302.933 185.867 289.067 207.067 288.133C209.067 288 213.867 288.667 217.733 289.333Z" fill="#9777A8"/>
<path d="M74.1333 3.60004C75.3333 9.60004 78.6666 34.2667 80.3999 50C82.6666 69.3334 82.6666 134.8 80.5333 156C71.4666 244.267 47.3333 312.533 8.13327 360.933L0.266602 370.667V446V521.333H208.267H416.267V446V370.667L408.4 360.933C366 308.667 341.2 233.067 334.8 137.333C332.133 96.9333 335.333 41.0667 342.4 3.60004L343.2 0H324.667H306.267L306.133 39.0667C306.133 79.6 304.8 95.2 298.8 124.533C288.4 176 265.2 213.2 234.267 228C213.333 238.133 202.133 238.133 181.733 227.867C133.6 203.867 107.733 131.867 109.867 27.8667L110.4 0H91.8666H73.3333L74.1333 3.60004ZM217.733 289.333C235.867 292.667 251.6 305.467 257.733 321.6C260.267 328.267 260.933 332.533 260.933 342C260.933 352.667 260.4 354.933 256.667 362.933C254.4 367.867 250 374.533 246.933 377.867L241.2 384L246.933 390.133C276 421.733 258.8 471.867 216.4 478.8C192.267 482.667 167.2 468.533 158.8 446.4C156.267 439.733 155.6 435.467 155.6 426C155.6 415.333 156.133 413.067 159.867 405.067C162.133 400.133 166.533 393.467 169.6 390.133L175.333 384L169.6 377.867C166.533 374.533 162.133 367.867 159.867 362.933C156.133 354.933 155.6 352.667 155.6 342C155.6 332.533 156.267 328.267 158.8 321.6C165.867 302.933 185.867 289.067 207.067 288.133C209.067 288 213.867 288.667 217.733 289.333Z" fill="#9777A8"/>
<path d="M74.1333 3.60004C75.3333 9.60004 78.6666 34.2667 80.3999 50C82.6666 69.3334 82.6666 134.8 80.5333 156C71.4666 244.267 47.3333 312.533 8.13327 360.933L0.266602 370.667V446V521.333H208.267H416.267V446V370.667L408.4 360.933C366 308.667 341.2 233.067 334.8 137.333C332.133 96.9333 335.333 41.0667 342.4 3.60004L343.2 0H324.667H306.267L306.133 39.0667C306.133 79.6 304.8 95.2 298.8 124.533C288.4 176 265.2 213.2 234.267 228C213.333 238.133 202.133 238.133 181.733 227.867C133.6 203.867 107.733 131.867 109.867 27.8667L110.4 0H91.8666H73.3333L74.1333 3.60004ZM217.733 289.333C235.867 292.667 251.6 305.467 257.733 321.6C260.267 328.267 260.933 332.533 260.933 342C260.933 352.667 260.4 354.933 256.667 362.933C254.4 367.867 250 374.533 246.933 377.867L241.2 384L246.933 390.133C276 421.733 258.8 471.867 216.4 478.8C192.267 482.667 167.2 468.533 158.8 446.4C156.267 439.733 155.6 435.467 155.6 426C155.6 415.333 156.133 413.067 159.867 405.067C162.133 400.133 166.533 393.467 169.6 390.133L175.333 384L169.6 377.867C166.533 374.533 162.133 367.867 159.867 362.933C156.133 354.933 155.6 352.667 155.6 342C155.6 332.533 156.267 328.267 158.8 321.6C165.867 302.933 185.867 289.067 207.067 288.133C209.067 288 213.867 288.667 217.733 289.333Z" fill="#6B6B6B"/>
<path d="M363.067 9.60002C352.534 77.2 352.534 145.733 362.934 200.667C372.134 249.067 390.534 297.067 411.867 328.667L416.4 335.333L416 306.667L415.6 278L408.667 264C377.734 201.867 371.334 124.267 390.267 40.5334C394 24.2667 394.534 19.6 393.6 15.7334C391.067 6.53336 381.334 2.32011e-05 370.534 2.32011e-05H364.667L363.067 9.60002Z" fill="#9777A8"/>
<path d="M363.067 9.60002C352.534 77.2 352.534 145.733 362.934 200.667C372.134 249.067 390.534 297.067 411.867 328.667L416.4 335.333L416 306.667L415.6 278L408.667 264C377.734 201.867 371.334 124.267 390.267 40.5334C394 24.2667 394.534 19.6 393.6 15.7334C391.067 6.53336 381.334 2.32011e-05 370.534 2.32011e-05H364.667L363.067 9.60002Z" fill="#9777A8"/>
<path d="M363.067 9.60002C352.534 77.2 352.534 145.733 362.934 200.667C372.134 249.067 390.534 297.067 411.867 328.667L416.4 335.333L416 306.667L415.6 278L408.667 264C377.734 201.867 371.334 124.267 390.267 40.5334C394 24.2667 394.534 19.6 393.6 15.7334C391.067 6.53336 381.334 2.32011e-05 370.534 2.32011e-05H364.667L363.067 9.60002Z" fill="#6B6B6B"/>
<path d="M130.934 33.4668C130.934 96.6668 139.334 141.2 157.334 174.267C168.134 194.133 193.6 213.867 208.4 214C222.8 214 248.4 194.133 259.2 174.267C277.334 141.067 285.6 96.8001 285.6 32.8001V10.4001L274.4 20.9334C262.134 32.5334 250.8 39.2001 234.934 44.2668C226.534 46.8001 222.267 47.3334 207.6 47.2001C192.8 47.2001 188.8 46.6668 180 43.7334C165.067 38.8001 153.2 31.6001 141.467 20.2668L130.934 10.2668V33.4668Z" fill="#9777A8"/>
<path d="M130.934 33.4668C130.934 96.6668 139.334 141.2 157.334 174.267C168.134 194.133 193.6 213.867 208.4 214C222.8 214 248.4 194.133 259.2 174.267C277.334 141.067 285.6 96.8001 285.6 32.8001V10.4001L274.4 20.9334C262.134 32.5334 250.8 39.2001 234.934 44.2668C226.534 46.8001 222.267 47.3334 207.6 47.2001C192.8 47.2001 188.8 46.6668 180 43.7334C165.067 38.8001 153.2 31.6001 141.467 20.2668L130.934 10.2668V33.4668Z" fill="#9777A8"/>
<path d="M130.934 33.4668C130.934 96.6668 139.334 141.2 157.334 174.267C168.134 194.133 193.6 213.867 208.4 214C222.8 214 248.4 194.133 259.2 174.267C277.334 141.067 285.6 96.8001 285.6 32.8001V10.4001L274.4 20.9334C262.134 32.5334 250.8 39.2001 234.934 44.2668C226.534 46.8001 222.267 47.3334 207.6 47.2001C192.8 47.2001 188.8 46.6668 180 43.7334C165.067 38.8001 153.2 31.6001 141.467 20.2668L130.934 10.2668V33.4668Z" fill="#6B6B6B"/>
<path d="M0.533333 558.267C0.933333 571.2 1.6 575.067 4 579.467C7.6 586.533 16 593.733 22.8 595.733C30.1333 598 386.4 598 393.733 595.733C400.533 593.733 408.933 586.533 412.533 579.467C414.933 575.067 415.6 571.2 416 558.267L416.533 542.667H208.267H0L0.533333 558.267Z" fill="#9777A8"/>
<path d="M0.533333 558.267C0.933333 571.2 1.6 575.067 4 579.467C7.6 586.533 16 593.733 22.8 595.733C30.1333 598 386.4 598 393.733 595.733C400.533 593.733 408.933 586.533 412.533 579.467C414.933 575.067 415.6 571.2 416 558.267L416.533 542.667H208.267H0L0.533333 558.267Z" fill="#9777A8"/>
<path d="M0.533333 558.267C0.933333 571.2 1.6 575.067 4 579.467C7.6 586.533 16 593.733 22.8 595.733C30.1333 598 386.4 598 393.733 595.733C400.533 593.733 408.933 586.533 412.533 579.467C414.933 575.067 415.6 571.2 416 558.267L416.533 542.667H208.267H0L0.533333 558.267Z" fill="#6B6B6B"/>
<rect x="130.934" y="260.333" width="206" height="232" fill="#9777A8"/>
<rect x="130.934" y="260.333" width="206" height="232" fill="#9777A8"/>
<rect x="130.934" y="260.333" width="206" height="232" fill="#6B6B6B"/>
</svg>
