<svg width="22" height="18" viewBox="0 0 22 18" fill="none" xmlns="http://www.w3.org/2000/svg">
<path d="M12.1007 4.37695L10.3167 3.91992C10.0933 3.86367 9.92832 3.67031 9.90426 3.43477C9.8802 3.19922 10.0005 2.97422 10.2033 2.86875L11.6057 2.15156L10.1208 1.0125C9.93176 0.868359 9.8527 0.615234 9.92832 0.383203C10.0039 0.151172 10.2136 0 10.4508 0H14.3005H15.4004H15.9504C16.9885 0 17.9681 0.499219 18.5902 1.35L20.5701 4.05C20.7832 4.3418 20.9001 4.69688 20.9001 5.0625C20.9001 5.99414 20.1611 6.75 19.2502 6.75H18.5112C17.9268 6.75 17.3666 6.51445 16.9541 6.09258L16.5004 5.625H15.4004V6.38086C15.4004 7.25273 15.8404 8.06484 16.5622 8.52891L20.2264 10.8703C21.3297 11.577 22 12.8109 22 14.1434C22 16.2738 20.3123 18 18.2259 18H17.0503H14.8505H1.11173C0.998301 18 0.884871 17.9859 0.781753 17.9508C0.465525 17.8523 0.20773 17.6133 0.0839882 17.3004C0.0358665 17.1809 0.00836833 17.0578 0.0014938 16.9242C-0.00538074 16.7941 0.0118056 16.6676 0.0461783 16.548C0.142422 16.2246 0.376156 15.9609 0.68551 15.8309C0.788628 15.7887 0.89862 15.7605 1.01205 15.7535L14.8952 14.4844C15.1805 14.4598 15.4004 14.2137 15.4004 13.9184C15.4004 13.7672 15.342 13.623 15.2389 13.5176L13.7127 11.9566C12.6816 10.902 12.1007 9.47109 12.1007 7.98047V6.38086V4.37695ZM17.6003 2.5418C17.6003 2.53828 17.6003 2.53477 17.6003 2.53125C17.6003 2.52773 17.6003 2.52422 17.6003 2.5207V2.5418ZM17.5556 2.80195L15.9607 2.39414C15.9538 2.43984 15.9504 2.48555 15.9504 2.53125C15.9504 2.99883 16.3182 3.375 16.7754 3.375C17.1397 3.375 17.4456 3.13594 17.5556 2.80195ZM4.50088 4.0957C5.06115 3.58594 5.88953 3.52617 6.51168 3.95156L11.0007 7.01016V7.98047C11.0007 9.13359 11.2895 10.2586 11.8257 11.25H3.85123C3.62094 11.25 3.4147 11.1023 3.33564 10.8844C3.25659 10.6664 3.31846 10.4168 3.49376 10.2621L5.87922 8.1668L0.633951 8.99297C0.393342 9.03164 0.156171 8.90156 0.0530528 8.67656C-0.0500652 8.45156 0.0014938 8.18086 0.183669 8.01562L4.50088 4.0957Z" fill="#E74343"/>
</svg>
