<svg width="18" height="18" viewBox="0 0 18 18" fill="none" xmlns="http://www.w3.org/2000/svg">
<path fill-rule="evenodd" clip-rule="evenodd" d="M9 18C4.75736 18 2.63604 18 1.31802 16.682C-1.02997e-07 15.364 0 13.2426 0 9C0 4.75736 -1.02997e-07 2.63604 1.31802 1.31802C2.63604 -1.02997e-07 4.75736 0 9 0C13.2426 0 15.364 -1.02997e-07 16.682 1.31802C18 2.63604 18 4.75736 18 9C18 13.2426 18 15.364 16.682 16.682C15.364 18 13.2426 18 9 18ZM9 5.175C8.44083 5.175 7.9875 5.62831 7.9875 6.1875C7.9875 6.56029 7.68528 6.8625 7.3125 6.8625C6.93971 6.8625 6.6375 6.56029 6.6375 6.1875C6.6375 4.88273 7.69527 3.825 9 3.825C10.3047 3.825 11.3625 4.88273 11.3625 6.1875C11.3625 6.82726 11.1074 7.4088 10.6947 7.8336C10.6116 7.91901 10.5324 7.99821 10.4568 8.07372C10.2626 8.26776 10.0924 8.43777 9.94311 8.62965C9.74601 8.88291 9.675 9.06912 9.675 9.225V9.9C9.675 10.2728 9.37278 10.575 9 10.575C8.62722 10.575 8.325 10.2728 8.325 9.9V9.225C8.325 8.63532 8.5995 8.15796 8.87778 7.80048C9.08361 7.53597 9.34236 7.27767 9.55242 7.06812C9.61578 7.00489 9.67464 6.9461 9.7263 6.89289C9.90414 6.70989 10.0125 6.46204 10.0125 6.1875C10.0125 5.62831 9.55917 5.175 9 5.175ZM9 13.5C9.49707 13.5 9.9 13.0971 9.9 12.6C9.9 12.1029 9.49707 11.7 9 11.7C8.50293 11.7 8.1 12.1029 8.1 12.6C8.1 13.0971 8.50293 13.5 9 13.5Z" fill="#E74343"/>
</svg>
