<svg width="14" height="13" viewBox="0 0 14 13" fill="none" xmlns="http://www.w3.org/2000/svg">
<path d="M13.5857 2.22013C14.1323 1.71256 14.1323 0.888255 13.5857 0.380681C13.039 -0.126894 12.1513 -0.126894 11.6047 0.380681L7 4.66055L2.39091 0.384741C1.84429 -0.122833 0.956583 -0.122833 0.409964 0.384741C-0.136655 0.892316 -0.136655 1.71662 0.409964 2.22419L5.01905 6.5L0.414337 10.7799C-0.132282 11.2874 -0.132282 12.1117 0.414337 12.6193C0.960956 13.1269 1.84866 13.1269 2.39528 12.6193L7 8.33945L11.6091 12.6153C12.1557 13.1228 13.0434 13.1228 13.59 12.6153C14.1367 12.1077 14.1367 11.2834 13.59 10.7758L8.98095 6.5L13.5857 2.22013Z" fill="#7C7C7C"/>
</svg>
