<svg width="23" height="18" viewBox="0 0 23 18" fill="none" xmlns="http://www.w3.org/2000/svg">
<path d="M0 1.8C0 0.805888 0.805887 0 1.8 0H21.2C22.1941 0 23 0.805888 23 1.8V1.8C23 2.79411 22.1941 3.6 21.2 3.6H1.8C0.805887 3.6 0 2.79411 0 1.8V1.8Z" fill="#E74343"/>
<path d="M0 1.2C0 0.537258 0.528074 0 1.17949 0H21.8205C22.4719 0 23 0.537258 23 1.2V2.4C23 3.06274 22.4719 3.6 21.8205 3.6H1.17949C0.528074 3.6 0 3.06274 0 2.4V1.2Z" fill="#E74343"/>
<path d="M0 9C0 8.00589 0.805887 7.2 1.8 7.2H21.2C22.1941 7.2 23 8.00589 23 9V9C23 9.99411 22.1941 10.8 21.2 10.8H1.8C0.805887 10.8 0 9.99411 0 9V9Z" fill="#E74343"/>
<path d="M0 8.4C0 7.73726 0.528074 7.2 1.17949 7.2H21.8205C22.4719 7.2 23 7.73726 23 8.4V9.6C23 10.2627 22.4719 10.8 21.8205 10.8H1.17949C0.528074 10.8 0 10.2627 0 9.6V8.4Z" fill="#E74343"/>
<path d="M0 16.2C0 15.2059 0.805887 14.4 1.8 14.4H21.2C22.1941 14.4 23 15.2059 23 16.2V16.2C23 17.1941 22.1941 18 21.2 18H1.8C0.805887 18 0 17.1941 0 16.2V16.2Z" fill="#E74343"/>
<path d="M0 15.6C0 14.9373 0.528074 14.4 1.17949 14.4H21.8205C22.4719 14.4 23 14.9373 23 15.6V16.8C23 17.4627 22.4719 18 21.8205 18H1.17949C0.528074 18 0 17.4627 0 16.8V15.6Z" fill="#E74343"/>
</svg>
