<svg width="21" height="18" viewBox="0 0 21 18" fill="none" xmlns="http://www.w3.org/2000/svg">
<path d="M3.9375 2.57143C3.9375 1.15313 5.11465 0 6.5625 0H18.375C19.8229 0 21 1.15313 21 2.57143V15.4286C21 16.8469 19.8229 18 18.375 18H3.28125C1.46836 18 0 16.5616 0 14.7857V3.85714C0 3.14598 0.586523 2.57143 1.3125 2.57143C2.03848 2.57143 2.625 3.14598 2.625 3.85714V14.7857C2.625 15.1393 2.92031 15.4286 3.28125 15.4286C3.64219 15.4286 3.9375 15.1393 3.9375 14.7857V2.57143ZM6.5625 3.53571V6.75C6.5625 7.28438 7.00137 7.71429 7.54688 7.71429H12.1406C12.6861 7.71429 13.125 7.28438 13.125 6.75V3.53571C13.125 3.00134 12.6861 2.57143 12.1406 2.57143H7.54688C7.00137 2.57143 6.5625 3.00134 6.5625 3.53571ZM15.0938 3.21429C15.0938 3.56786 15.3891 3.85714 15.75 3.85714H17.7188C18.0797 3.85714 18.375 3.56786 18.375 3.21429C18.375 2.86071 18.0797 2.57143 17.7188 2.57143H15.75C15.3891 2.57143 15.0938 2.86071 15.0938 3.21429ZM15.0938 7.07143C15.0938 7.425 15.3891 7.71429 15.75 7.71429H17.7188C18.0797 7.71429 18.375 7.425 18.375 7.07143C18.375 6.71786 18.0797 6.42857 17.7188 6.42857H15.75C15.3891 6.42857 15.0938 6.71786 15.0938 7.07143ZM6.5625 10.9286C6.5625 11.2821 6.85781 11.5714 7.21875 11.5714H17.7188C18.0797 11.5714 18.375 11.2821 18.375 10.9286C18.375 10.575 18.0797 10.2857 17.7188 10.2857H7.21875C6.85781 10.2857 6.5625 10.575 6.5625 10.9286ZM6.5625 14.7857C6.5625 15.1393 6.85781 15.4286 7.21875 15.4286H17.7188C18.0797 15.4286 18.375 15.1393 18.375 14.7857C18.375 14.4321 18.0797 14.1429 17.7188 14.1429H7.21875C6.85781 14.1429 6.5625 14.4321 6.5625 14.7857Z" fill="#E74343"/>
</svg>
