<svg width="830" height="1668" viewBox="0 0 830 1668" fill="none" xmlns="http://www.w3.org/2000/svg">
<path d="M305.107 2.23728C288.174 5.97062 273.107 10.3706 267.107 13.304C258.307 17.8373 241.374 30.2373 237.907 34.7706C233.774 40.3706 219.907 66.3706 212.841 81.704C209.907 88.2373 205.374 97.0373 202.841 101.304C200.307 105.437 197.907 111.171 197.507 114.237C196.707 119.704 196.707 119.704 203.241 122.371C213.507 126.771 213.507 126.904 209.107 135.437C206.974 139.704 204.174 144.771 202.707 147.037L200.174 151.037H185.641C168.574 151.037 165.641 152.237 155.107 163.037C150.707 167.437 147.774 171.971 146.574 175.837C143.107 187.437 141.907 189.837 134.574 201.037C120.441 222.637 109.241 231.837 84.8406 241.571C69.1072 247.837 63.5072 251.837 46.1739 268.771C27.5072 287.037 24.7072 291.837 20.5739 311.837C14.1739 343.837 14.4406 454.504 21.1072 479.837C21.7739 482.371 25.2406 488.104 28.5739 492.504C40.3072 507.571 40.3072 507.837 40.7072 536.104C40.9739 561.037 40.9739 561.304 45.7739 575.304C48.4406 583.037 51.1072 592.637 51.7739 596.637C52.4406 600.637 53.7739 604.904 54.7072 606.104C55.6406 607.171 63.3739 611.571 71.9072 615.571L87.5072 623.037L80.8406 635.037C77.1072 641.704 72.0406 651.437 69.3739 656.771C65.3739 665.171 64.9739 667.037 66.3072 669.837C67.5072 672.637 68.4406 673.037 72.0406 672.371C76.1739 671.571 77.2406 672.371 87.5072 682.371C97.5072 692.371 98.4406 693.704 98.4406 698.504C98.4406 703.437 98.5739 703.704 102.841 703.704C107.507 703.704 117.774 709.571 119.107 712.904C120.574 716.504 110.041 765.571 107.641 767.171C106.974 767.571 106.441 769.037 106.441 770.504C106.441 773.437 101.507 773.837 92.4406 771.704C74.7072 767.437 6.70722 767.571 1.50722 771.971C-0.226117 773.437 -0.35945 776.237 0.573883 792.371C1.24055 802.637 1.77388 814.637 1.90722 819.037C1.90722 823.437 2.04055 827.971 2.17388 829.037C2.44055 830.771 6.97389 831.037 35.9072 830.504C62.7072 830.237 71.9072 830.504 82.7072 832.371C99.6406 835.171 102.441 836.237 102.441 839.704C102.441 841.971 102.974 842.237 105.774 841.571C110.041 840.504 130.974 846.104 135.241 849.304C136.974 850.771 138.441 852.904 138.441 854.237C138.441 855.437 139.374 857.837 140.574 859.571C142.307 861.971 142.441 862.904 141.107 863.704C140.174 864.237 138.974 868.637 138.574 873.171C137.774 881.171 137.507 881.704 134.441 881.837C132.574 881.971 130.441 882.104 129.641 882.237C126.574 882.504 126.441 883.037 105.774 976.371L94.3072 1028.37L98.5739 1031.84C102.441 1035.04 102.707 1035.57 101.774 1040.9C100.841 1046.24 100.974 1046.5 104.974 1048.1C109.241 1049.7 110.441 1052.64 107.241 1053.84C105.374 1054.64 102.707 1061.97 102.174 1068.37C101.774 1071.84 101.107 1072.37 97.5072 1072.77C91.6406 1073.3 90.4406 1075.44 91.3739 1083.44C91.9072 1088.77 92.7072 1090.5 94.8406 1091.17C96.7072 1091.7 98.1739 1091.17 99.3739 1089.57C100.974 1087.3 101.107 1087.44 101.107 1090.24C101.107 1091.84 99.9072 1098.77 98.5739 1105.44C97.1072 1112.24 95.2406 1121.57 94.4406 1126.37C93.6406 1131.17 91.7739 1137.44 90.3072 1140.37C88.9739 1143.3 85.1072 1156.5 81.7739 1169.7C78.4406 1182.77 75.1072 1193.97 74.3072 1194.37C73.6406 1194.9 71.1072 1202.77 68.9739 1211.84C62.7072 1237.3 62.8406 1236.24 68.0406 1238.77C74.8406 1241.97 81.6406 1242.9 83.3739 1240.77C84.0406 1239.84 85.3739 1235.97 86.0406 1232.37C86.8406 1228.64 88.8406 1220.64 90.3072 1214.5C91.9072 1208.37 93.5072 1200.24 93.7739 1196.5C94.0406 1192.77 94.8406 1187.97 95.6406 1185.97C98.5739 1178.5 104.041 1154.77 105.107 1145.7C105.774 1140.5 107.241 1133.57 108.441 1130.37C109.774 1127.04 112.841 1116.64 115.241 1107.17C117.641 1097.7 119.907 1089.7 120.307 1089.44C120.574 1089.17 124.307 1089.7 128.574 1090.77C132.974 1091.84 140.974 1093.7 146.574 1094.9L156.707 1097.17L139.241 1149.44C129.507 1178.24 120.974 1205.7 120.041 1210.64C119.107 1215.57 116.307 1224.9 113.774 1231.57C111.241 1238.24 109.107 1245.57 109.107 1247.97C109.107 1251.84 120.174 1278.1 126.574 1289.04C128.041 1291.57 130.707 1296.9 132.707 1300.9L136.174 1308.1L134.574 1346.9C132.174 1406.24 131.507 1411.3 121.107 1452.37C116.041 1472.1 110.974 1491.04 109.907 1494.24C108.574 1497.97 107.774 1504.64 107.774 1512.5C107.774 1527.3 108.841 1529.04 120.041 1532.37C132.974 1536.24 156.041 1539.7 168.441 1539.7C179.507 1539.7 181.107 1539.44 183.907 1536.64C185.641 1534.9 187.774 1532.37 188.574 1531.04C189.907 1528.5 190.441 1528.5 209.241 1532.1C219.774 1534.1 240.974 1537.3 256.307 1539.04C271.774 1540.9 286.707 1542.77 289.507 1543.3L294.841 1544.1L293.907 1557.57C292.174 1583.44 290.841 1589.17 285.774 1594.37C280.307 1599.97 278.574 1606.77 278.441 1621.97C278.441 1635.7 279.774 1638.77 287.641 1642.1C295.374 1645.44 325.774 1652.24 342.307 1654.5L354.841 1656.1L359.241 1651.04L363.507 1645.84L380.041 1652.9C401.774 1662.24 411.241 1664.5 436.574 1666.37C473.374 1669.17 508.841 1666.24 532.441 1658.24C547.641 1653.04 567.907 1643.57 571.641 1639.84C577.241 1634.24 574.441 1622.24 566.841 1619.04C562.974 1617.44 562.441 1616.5 562.441 1612.37C562.441 1606.1 558.174 1597.97 552.841 1593.97C544.707 1588.1 536.841 1585.97 511.107 1583.17C481.241 1579.7 475.241 1577.3 464.441 1563.7C454.441 1551.17 449.907 1547.17 439.774 1541.84C434.974 1539.3 429.774 1535.84 428.174 1534.1C422.707 1528.24 415.774 1515.3 415.774 1510.9C415.774 1508.5 414.307 1501.84 412.574 1496.1C407.907 1481.04 405.374 1438.64 408.574 1430.1C409.774 1426.9 411.107 1421.17 411.374 1417.3C411.907 1411.04 412.441 1410.24 415.507 1409.57C417.507 1409.17 419.907 1408.64 420.841 1408.24C423.507 1407.44 422.707 1399.57 418.974 1388.9C416.041 1380.64 415.641 1377.7 416.307 1370.64C417.107 1363.44 418.041 1361.17 423.641 1353.3C430.841 1343.57 432.441 1338.9 433.774 1323.7C434.307 1318.24 435.774 1307.44 437.241 1299.84C440.307 1282.9 440.441 1275.57 437.641 1267.7C434.707 1259.44 436.574 1242.37 440.307 1242.37C443.241 1242.37 446.707 1237.44 449.374 1229.44C459.107 1200.5 475.374 1133.44 477.774 1113.04C478.841 1103.7 475.374 1082.5 471.374 1074.37C468.707 1068.9 467.907 1068.24 462.707 1067.57C459.507 1067.17 456.441 1066.1 455.774 1065.04C455.241 1064.1 450.974 1049.17 446.441 1031.84C440.841 1010.64 437.907 997.171 437.641 990.371C436.441 966.504 433.374 950.904 427.507 939.304C421.241 926.904 405.107 855.571 405.107 840.504C405.107 831.037 408.441 828.504 423.507 827.037C429.641 826.504 434.174 825.171 436.174 823.704L439.107 821.304L436.841 812.771C435.507 808.237 432.974 798.904 431.107 792.371C426.574 776.637 419.774 744.771 419.774 739.704C419.774 734.771 426.041 727.437 435.507 721.304C442.041 717.171 442.974 716.904 446.574 718.371C453.774 721.437 455.907 717.171 459.107 693.704C467.374 634.504 467.507 635.304 452.174 606.637C446.574 596.104 440.307 585.304 438.307 582.771C436.174 580.237 434.307 577.171 433.907 575.971C427.641 553.971 424.574 540.771 423.107 528.237C422.174 520.904 424.441 514.237 428.974 510.771C430.174 509.837 442.841 502.504 457.107 494.637C480.841 481.304 484.574 479.704 499.774 475.837C527.374 468.637 528.574 467.837 562.041 434.637C578.041 418.504 593.641 403.837 596.707 401.837C599.641 399.837 604.041 395.571 606.441 392.237C609.507 387.971 611.507 386.371 613.107 386.771C614.441 387.171 617.641 386.104 620.174 384.504C625.641 381.171 644.174 365.837 653.507 356.771L660.041 350.504L659.107 340.771L658.174 331.037L676.974 319.704C687.374 313.437 698.307 306.237 701.374 303.704C706.174 299.437 706.841 298.237 707.374 291.704C707.774 287.437 710.574 277.837 714.174 269.037C719.641 255.171 720.174 252.771 720.041 243.571L719.774 233.304L727.507 230.771L735.107 228.237L735.774 219.704C736.574 209.171 740.041 203.704 748.041 200.237C752.707 198.237 758.441 197.704 778.841 197.304C792.574 197.037 803.774 196.237 803.774 195.571C803.774 194.904 806.974 194.371 810.974 194.371C814.974 194.371 818.707 193.704 819.241 192.904C819.641 192.104 820.441 187.571 820.841 183.037C821.374 175.571 821.774 174.504 824.574 173.837C828.041 172.904 829.641 168.904 828.841 162.904C828.574 159.971 827.507 158.771 824.441 157.704C822.307 157.037 819.641 155.304 818.707 154.104C816.307 150.904 810.174 151.037 808.041 154.371C806.441 156.904 804.974 157.037 755.907 157.037C723.507 157.037 704.974 156.504 704.441 155.704C703.907 154.904 694.041 154.371 679.107 154.371C655.907 154.371 654.441 154.237 653.107 151.704C651.641 148.904 647.774 147.971 647.774 150.371C647.774 152.904 635.374 157.304 630.174 156.637C623.774 155.837 622.441 157.304 624.174 163.971C625.241 168.104 624.974 170.771 623.241 176.371C620.974 183.837 618.441 186.771 613.107 188.371C607.241 190.104 606.707 194.904 612.174 196.904C614.574 197.837 614.441 198.237 609.907 201.704C606.174 204.504 590.974 222.504 586.974 228.771C586.574 229.571 548.174 243.971 536.441 247.837C527.774 250.637 521.907 251.704 514.974 251.704C502.707 251.704 489.907 254.371 470.441 261.037L455.107 266.237L434.441 264.371C406.307 261.704 387.907 258.637 374.441 254.237C368.174 252.237 359.641 250.237 355.374 249.704L347.774 248.771L352.307 243.704C354.841 240.904 357.641 237.171 358.441 235.437C359.374 233.837 362.041 230.237 364.441 227.704C366.707 225.171 369.774 220.237 370.974 216.637C373.641 209.437 375.641 207.971 384.707 206.904C393.507 205.704 395.507 203.571 396.574 194.371C397.241 188.771 397.907 186.771 399.107 187.304C402.307 188.504 405.774 185.304 411.107 176.371C415.774 168.237 416.441 167.571 419.641 168.504C425.374 170.104 428.974 169.437 431.507 166.371C433.641 163.704 434.174 163.704 440.041 165.171C448.174 167.437 449.641 166.104 452.307 154.637C459.507 122.771 456.707 99.0373 445.107 92.2373C442.041 90.3706 440.441 87.704 438.307 81.0373C426.441 45.1706 397.907 18.3706 356.441 4.23728C342.174 -0.562717 321.641 -1.36272 305.107 2.23728ZM727.641 208.371C732.841 214.237 732.841 218.237 727.907 223.571C723.241 228.637 719.774 229.037 719.774 224.504C719.774 217.837 715.907 211.571 710.307 209.304C701.907 206.104 703.507 203.704 714.307 203.704C723.107 203.704 723.641 203.837 727.641 208.371ZM462.307 369.571C457.907 373.571 438.974 384.237 433.241 385.837C429.107 387.037 421.107 389.437 415.374 391.171C403.907 394.637 395.507 395.304 393.374 392.637C392.041 391.037 388.974 378.104 389.774 377.304C389.907 377.037 393.641 377.837 397.907 379.171C407.507 381.971 416.707 381.037 430.441 376.237C443.907 371.437 465.107 367.037 462.307 369.571ZM112.041 631.171L127.507 636.237L128.441 648.371C128.974 655.037 129.241 661.704 128.974 663.037C128.574 664.771 124.174 660.637 112.441 647.571C92.8406 625.571 91.7739 624.237 94.4406 625.304C95.5072 625.704 103.507 628.237 112.041 631.171ZM121.907 737.971C115.641 756.771 111.907 766.904 111.907 765.571C111.641 761.704 119.774 732.504 121.241 731.571C124.041 729.837 124.174 731.171 121.907 737.971ZM157.107 1035.84C157.107 1036.64 158.974 1041.44 161.107 1046.5C164.574 1054.37 165.107 1056.64 164.307 1062.37C163.774 1065.97 162.974 1069.04 162.441 1069.04C162.041 1069.04 157.774 1064.24 152.974 1058.37C148.307 1052.5 144.041 1047.7 143.507 1047.7C142.841 1047.7 142.441 1046.77 142.441 1045.7C142.441 1044.37 143.907 1043.7 147.107 1043.7C151.241 1043.7 151.774 1043.3 153.241 1038.37C154.707 1033.7 157.107 1032.1 157.107 1035.84ZM152.174 1066.37C158.041 1073.3 161.107 1078.1 161.107 1080.37C161.107 1083.44 160.574 1083.7 155.774 1083.7C152.441 1083.7 150.174 1084.5 149.374 1085.84C148.441 1087.44 146.974 1087.7 142.174 1087.04C132.307 1085.57 132.441 1085.7 136.307 1070.64C138.174 1063.3 139.774 1056.9 139.774 1056.5C139.774 1053.44 144.707 1057.3 152.174 1066.37ZM283.241 1172.64C275.374 1206.1 273.907 1227.04 277.641 1252.77C278.974 1260.9 279.907 1282.5 280.441 1311.57C280.974 1345.04 281.641 1358.37 282.974 1361.57C283.907 1363.84 287.507 1368.9 291.107 1372.77C295.507 1377.7 297.507 1381.17 298.041 1384.77C298.707 1389.84 294.974 1462.24 294.041 1463.3C293.241 1463.97 282.574 1460.37 268.441 1454.64C258.841 1450.64 254.974 1448.24 248.841 1442.1C239.107 1432.24 231.774 1417.84 230.974 1406.9C230.707 1402.64 229.774 1390.24 228.974 1379.57C228.041 1365.84 228.041 1357.17 228.974 1350.1C231.507 1331.44 240.707 1308.77 246.041 1307.97C250.307 1307.3 252.974 1302.24 254.441 1291.84C256.307 1278.77 264.574 1240.77 275.507 1195.04C280.574 1173.7 285.241 1154.24 285.907 1151.7C286.707 1148.1 287.107 1147.7 287.507 1149.97C287.774 1151.57 285.774 1161.7 283.241 1172.64ZM79.1072 1224.64C77.9072 1231.04 75.7739 1235.04 74.4406 1233.57C72.5739 1231.7 75.6406 1219.7 78.0406 1219.7C79.6406 1219.7 79.9072 1220.64 79.1072 1224.64Z" fill="white"/>
</svg>
