<svg width="14" height="14" viewBox="0 0 14 14" fill="none" xmlns="http://www.w3.org/2000/svg">
<path fill-rule="evenodd" clip-rule="evenodd" d="M13.1414 4.26996C14.2683 3.13867 14.2204 1.65306 13.379 0.743279C12.9686 0.299668 12.3847 0.0163079 11.7233 0.000683872C11.0594 -0.0149961 10.3716 0.238887 9.73691 0.769893C9.72067 0.783473 9.70506 0.797781 9.69015 0.812775L0.612116 9.92712C0.220099 10.3207 0 10.8536 0 11.4091V12.5945C0 13.3656 0.624373 14 1.40267 14H2.57783C3.13623 14 3.67163 13.7776 4.0657 13.382L13.1414 4.26996ZM10.6449 2.65506C10.3715 2.3817 9.92829 2.3817 9.65494 2.65506C9.3816 2.92843 9.3816 3.37165 9.65494 3.64502L10.3549 4.34502C10.6283 4.61838 11.0715 4.61838 11.3449 4.34502C11.6182 4.07165 11.6182 3.62843 11.3449 3.35506L10.6449 2.65506Z" fill="#F5F5F5"/>
</svg>
