<svg width="47" height="22" viewBox="0 0 47 22" fill="none" xmlns="http://www.w3.org/2000/svg">
<path d="M46.8301 10.7177L43.4416 1.02089C43.2281 0.409971 42.6458 0 41.9916 0H39.5928C38.7456 0 38.0588 0.67848 38.0588 1.51538C38.0588 2.35228 38.7456 3.03076 39.5928 3.03076H40.8982L43.9299 11.7067H43.2809C41.8303 3.5063 30.6243 1.72885 26.6646 9.13754C24.797 7.72209 22.2067 7.71937 20.3355 9.13754C16.3682 1.71461 5.16732 3.52062 3.71913 11.7067H3.07003L6.10172 3.03076H7.40707C8.25426 3.03076 8.94109 2.35228 8.94109 1.51538C8.94109 0.67848 8.25426 0 7.40707 0H5.00842C4.35409 0 3.77191 0.409971 3.5583 1.02089L0.169893 10.7177C-0.516931 12.6834 0.964487 14.7374 3.07003 14.7374H3.71904C4.448 18.8579 8.09546 22 12.4722 22C17.3718 22 21.3581 18.0622 21.3581 13.222V13.2219C21.3582 10.4258 25.6417 10.4258 25.6419 13.2219V13.222C25.6419 18.0622 29.6281 22 34.5278 22C38.9045 22 42.5519 18.858 43.2809 14.7374H43.9299C46.0349 14.7374 47.5171 12.6838 46.8301 10.7177ZM15.7333 14.7374C14.8861 14.7374 14.1993 14.0589 14.1993 13.222C14.1993 12.2813 13.4245 11.5158 12.4722 11.5158C11.625 11.5158 10.9382 10.8374 10.9382 10.0005C10.9382 9.16356 11.625 8.48508 12.4722 8.48508C15.1164 8.48508 17.2674 10.61 17.2674 13.222C17.2673 14.0588 16.5805 14.7374 15.7333 14.7374ZM37.789 14.7374C36.9418 14.7374 36.255 14.0589 36.255 13.222C36.255 12.2813 35.4802 11.5158 34.5278 11.5158C33.6806 11.5158 32.9938 10.8374 32.9938 10.0005C32.9938 9.16356 33.6806 8.48508 34.5278 8.48508C37.1719 8.48508 39.323 10.61 39.323 13.222C39.323 14.0588 38.6362 14.7374 37.789 14.7374Z" fill="#4F4F4F"/>
</svg>
