<svg width="147" height="70" viewBox="0 0 147 70" fill="none" xmlns="http://www.w3.org/2000/svg">
<path d="M146.468 33.9335L135.87 3.23228C135.203 1.29802 133.381 0 131.335 0H123.833C121.183 0 119.035 2.14815 119.035 4.79788C119.035 7.44762 121.183 9.59577 123.833 9.59577H127.915L137.398 37.065H135.368C130.831 11.1014 95.7825 5.47374 83.3977 28.9306C77.5565 24.4491 69.4548 24.4405 63.6024 28.9306C51.1941 5.42866 16.1616 11.1467 11.6322 37.065H9.60201L19.0841 9.59577H23.1668C25.8165 9.59577 27.9647 7.44762 27.9647 4.79788C27.9647 2.14815 25.8165 0 23.1668 0H15.6646C13.6181 0 11.7973 1.29802 11.1291 3.23228L0.531367 33.9335C-1.61678 40.1571 3.01659 46.6604 9.60201 46.6604H11.6319C13.9118 59.7064 25.3198 69.6547 39.0086 69.6547C54.3331 69.6547 66.8008 57.1873 66.8008 41.8626V41.8623C66.8011 33.0095 80.1985 33.0092 80.1991 41.8623V41.8626C80.1991 57.187 92.6665 69.6547 107.991 69.6547C121.68 69.6547 133.088 59.7067 135.368 46.6604H137.398C143.981 46.6604 148.617 40.1586 146.468 33.9335ZM49.2085 46.6604C46.5587 46.6604 44.4106 44.5123 44.4106 41.8626C44.4106 38.8841 41.9874 36.4606 39.0089 36.4606C36.3592 36.4606 34.211 34.3124 34.211 31.6627C34.211 29.013 36.3592 26.8648 39.0089 26.8648C47.2788 26.8648 54.0066 33.5927 54.0066 41.8626C54.0064 44.512 51.8582 46.6604 49.2085 46.6604ZM118.191 46.6604C115.541 46.6604 113.393 44.5123 113.393 41.8626C113.393 38.8841 110.97 36.4606 107.991 36.4606C105.342 36.4606 103.193 34.3124 103.193 31.6627C103.193 29.013 105.342 26.8648 107.991 26.8648C116.261 26.8648 122.989 33.5927 122.989 41.8626C122.989 44.512 120.841 46.6604 118.191 46.6604Z" fill="#4F4F4F"/>
<path d="M53.3095 15.8301C52.7456 15.2892 52.4473 14.5967 52.4571 13.8513C52.4682 12.9976 52.6803 12.478 53.3208 11.6437C53.5378 11.3609 53.9856 11.2012 54.356 11.2745C55.449 11.4907 55.9926 11.7408 56.6384 12.3602C57.2023 12.9011 57.5006 13.5936 57.4909 14.3391C57.479 15.2467 57.2401 15.7766 56.5006 16.7087C56.352 16.896 56.0546 17.002 55.8057 16.9565C54.5672 16.7298 53.9961 16.4887 53.3095 15.8301Z" fill="#E74343"/>
<path d="M58.8129 18.334C58.2491 17.7931 57.9507 17.1006 57.9605 16.3552C57.9717 15.5015 58.1837 14.9819 58.8242 14.1476C59.0412 13.8648 59.4891 13.7051 59.8594 13.7784C60.9525 13.9946 61.4961 14.2447 62.1418 14.8641C62.7057 15.405 63.004 16.0975 62.9943 16.843C62.9824 17.7506 62.7435 18.2805 62.0041 19.2126C61.8555 19.3999 61.5581 19.5059 61.3092 19.4604C60.0706 19.2337 59.4995 18.9926 58.8129 18.334Z" fill="#E74343"/>
<path d="M57.1082 26.869C57.9032 26.6885 58.5638 26.2503 58.9959 25.6169C59.4907 24.8914 59.6187 24.3496 59.5713 23.3328C59.5553 22.9883 59.2719 22.6346 58.9163 22.5153C57.8668 22.1633 57.2606 22.1084 56.3502 22.3151C55.5552 22.4956 54.8946 22.9337 54.4625 23.5672C53.9365 24.3384 53.825 24.9022 53.8981 26.0497C53.9128 26.2803 54.101 26.5152 54.3378 26.5984C55.5162 27.0128 56.1403 27.0887 57.1082 26.869Z" fill="#E74343"/>
<path d="M46.7055 13.3267C46.1416 12.7858 45.8433 12.0933 45.8531 11.3478C45.8642 10.4941 46.0763 9.97458 46.7168 9.14024C46.9338 8.85752 47.3816 8.69782 47.752 8.77107C48.845 8.98726 49.3886 9.23735 50.0344 9.85679C50.5983 10.3977 50.8966 11.0902 50.8869 11.8356C50.875 12.7433 50.636 13.2732 49.8966 14.2052C49.748 14.3925 49.4506 14.4986 49.2017 14.453C47.9632 14.2263 47.3921 13.9852 46.7055 13.3267Z" fill="#E74343"/>
<path d="M50.4317 20.2209C49.623 20.341 48.9249 20.7279 48.4367 21.3267C47.8777 22.0125 47.7009 22.5428 47.6557 23.5597C47.6404 23.9042 47.8907 24.278 48.2342 24.4236C49.2481 24.8534 49.8472 24.9537 50.7733 24.8162C51.582 24.6961 52.2802 24.3091 52.7683 23.7104C53.3626 22.9813 53.5249 22.4279 53.5564 21.2788C53.5627 21.0478 53.3965 20.7997 53.1681 20.6989C52.0313 20.1973 51.4163 20.0747 50.4317 20.2209Z" fill="#E74343"/>
<path d="M44.3933 22.5939C45.2121 22.5635 45.9564 22.256 46.5204 21.7152C47.1663 21.0958 47.4121 20.5887 47.5918 19.5843C47.6527 19.2439 47.4538 18.8454 47.1321 18.6631C46.1826 18.1252 45.6012 17.9599 44.6636 17.9947C43.8449 18.0251 43.1005 18.3326 42.5365 18.8735C41.8499 19.5319 41.6153 20.0635 41.4318 21.2008C41.3949 21.4293 41.5269 21.6939 41.7403 21.8191C42.8023 22.4418 43.3965 22.631 44.3933 22.5939Z" fill="#E74343"/>
<path d="M23.6905 15.8301C24.2544 15.2892 24.5527 14.5967 24.5429 13.8513C24.5318 12.9976 24.3197 12.478 23.6792 11.6437C23.4622 11.3609 23.0144 11.2012 22.644 11.2745C21.551 11.4907 21.0074 11.7408 20.3616 12.3602C19.7977 12.9011 19.4994 13.5936 19.5091 14.3391C19.521 15.2467 19.7599 15.7766 20.4994 16.7087C20.648 16.896 20.9454 17.002 21.1943 16.9565C22.4328 16.7298 23.0039 16.4887 23.6905 15.8301Z" fill="#E74343"/>
<path d="M18.1871 18.334C18.7509 17.7931 19.0493 17.1006 19.0395 16.3552C19.0283 15.5015 18.8163 14.9819 18.1758 14.1476C17.9588 13.8648 17.5109 13.7051 17.1406 13.7784C16.0475 13.9946 15.5039 14.2447 14.8582 14.8641C14.2943 15.405 13.996 16.0975 14.0057 16.843C14.0176 17.7506 14.2565 18.2805 14.9959 19.2126C15.1445 19.3999 15.4419 19.5059 15.6908 19.4604C16.9294 19.2337 17.5005 18.9926 18.1871 18.334Z" fill="#E74343"/>
<path d="M19.8918 26.869C19.0968 26.6885 18.4362 26.2503 18.0041 25.6169C17.5093 24.8914 17.3813 24.3496 17.4287 23.3328C17.4447 22.9883 17.7281 22.6346 18.0837 22.5153C19.1332 22.1633 19.7394 22.1084 20.6498 22.3151C21.4448 22.4956 22.1054 22.9337 22.5375 23.5672C23.0635 24.3384 23.175 24.9022 23.1019 26.0497C23.0872 26.2803 22.899 26.5152 22.6622 26.5984C21.4838 27.0128 20.8597 27.0887 19.8918 26.869Z" fill="#E74343"/>
<path d="M30.295 13.3267C30.8589 12.7858 31.1572 12.0933 31.1474 11.3478C31.1363 10.4941 30.9242 9.97458 30.2837 9.14024C30.0667 8.85752 29.6188 8.69782 29.2485 8.77107C28.1555 8.98726 27.6119 9.23735 26.9661 9.85679C26.4022 10.3977 26.1039 11.0902 26.1136 11.8356C26.1255 12.7433 26.3644 13.2732 27.1039 14.2052C27.2524 14.3925 27.5498 14.4986 27.7987 14.453C29.0373 14.2263 29.6084 13.9852 30.295 13.3267Z" fill="#E74343"/>
<path d="M26.5683 20.2209C27.377 20.341 28.0751 20.7279 28.5633 21.3267C29.1223 22.0125 29.2991 22.5428 29.3443 23.5597C29.3596 23.9042 29.1093 24.278 28.7658 24.4236C27.7519 24.8534 27.1528 24.9537 26.2267 24.8162C25.418 24.6961 24.7198 24.3091 24.2317 23.7104C23.6374 22.9813 23.4751 22.4279 23.4436 21.2788C23.4373 21.0478 23.6035 20.7997 23.8319 20.6989C24.9687 20.1973 25.5837 20.0747 26.5683 20.2209Z" fill="#E74343"/>
<path d="M32.6067 22.5939C31.7879 22.5635 31.0436 22.256 30.4796 21.7152C29.8337 21.0958 29.5879 20.5887 29.4082 19.5843C29.3473 19.2439 29.5462 18.8454 29.8679 18.6631C30.8174 18.1252 31.3988 17.9599 32.3364 17.9947C33.1551 18.0251 33.8995 18.3326 34.4635 18.8735C35.1501 19.5319 35.3847 20.0635 35.5682 21.2008C35.6051 21.4293 35.4731 21.6939 35.2597 21.8191C34.1977 22.4418 33.6035 22.631 32.6067 22.5939Z" fill="#E74343"/>
<path d="M44.2243 16.1733C43.8822 16.0451 43.643 15.7333 43.6079 15.3697C43.5998 15.2865 43.6027 15.2025 43.6165 15.12L43.6335 15.0187C43.6769 14.7588 43.7803 14.5125 43.9354 14.2995L43.98 14.2382C44.0138 14.1917 44.052 14.1486 44.094 14.1094C44.3448 13.8752 44.7066 13.8033 45.0279 13.9237L62.7696 20.5716C63.3873 20.803 63.7003 21.4913 63.4689 22.109C63.2375 22.7266 62.5492 23.0397 61.9315 22.8083L44.2243 16.1733Z" fill="#E74343"/>
<path d="M15.1501 20.5035C14.8128 20.6439 14.585 20.9641 14.5629 21.3287C14.5579 21.4122 14.5638 21.496 14.5805 21.5779L14.6011 21.6786C14.6539 21.9368 14.766 22.1792 14.9287 22.3865L14.9755 22.4462C15.0109 22.4914 15.0506 22.5331 15.094 22.5708C15.3531 22.7958 15.7172 22.8546 16.034 22.7228L33.5253 15.4415C34.1342 15.188 34.4224 14.4889 34.1689 13.88C33.9154 13.271 33.2163 12.9829 32.6074 13.2364L15.1501 20.5035Z" fill="#E74343"/>
</svg>
