<svg width="1009" height="1389" viewBox="0 0 1009 1389" fill="none" xmlns="http://www.w3.org/2000/svg">
<path d="M581.313 7.20276C577.142 12.4147 570.364 22.3174 566.715 29.614C558.373 44.7286 555.766 133.331 563.065 143.234C566.715 147.403 564.108 152.615 554.723 159.912C547.424 165.645 540.646 177.111 539.603 184.929C538.039 196.917 534.911 199.523 517.184 202.65C505.714 204.735 480.688 206.298 461.397 206.298C418.123 206.819 415.516 203.171 415.516 144.797V102.581H379.019H342.523V154.7C342.523 183.366 340.438 206.819 337.831 206.819C335.745 206.819 327.403 202.129 319.583 195.874C307.591 186.493 305.505 186.493 302.899 193.268C300.813 198.48 293.514 201.607 281.522 201.607C256.496 201.607 264.317 209.947 293.514 214.637C307.07 216.201 320.625 219.328 324.275 220.37C333.138 224.019 332.617 271.968 323.754 289.689C317.497 301.676 317.497 304.282 324.796 309.494C330.532 313.664 332.096 322.524 331.053 340.766C329.489 362.656 327.925 365.783 319.061 364.219C313.326 363.177 306.548 361.613 303.42 361.613C300.813 361.092 299.249 366.825 299.77 374.122C300.813 381.419 298.728 393.406 296.121 401.224C291.95 411.127 292.471 430.411 296.121 463.767C302.377 513.28 302.377 515.886 298.728 571.654L296.642 605.531L265.881 608.658C240.334 611.264 229.385 616.476 194.974 639.93C163.17 661.82 150.657 667.553 135.016 667.032C124.588 666.511 111.554 668.595 106.861 671.201C95.9126 677.456 95.9126 686.316 102.69 540.382C105.297 481.488 109.99 415.817 113.118 394.448C125.631 311.058 132.409 234.964 128.238 224.019C123.024 210.468 92.263 199.523 70.8866 204.213C50.553 208.904 41.6896 228.188 36.9972 281.35C34.3903 311.579 35.4331 323.566 40.6468 329.821C47.9461 338.681 47.9461 354.317 39.6041 430.932C34.9117 472.106 35.4331 485.657 42.7323 511.717C46.9033 528.916 52.1171 574.781 54.2026 613.349L57.3308 683.71L36.4758 695.176C14.0567 707.685 -10.448 731.138 4.67193 725.405C11.4498 722.799 12.4926 724.363 10.9284 731.66C9.3643 737.393 13.0139 747.295 18.7491 754.592L29.6979 767.101L32.8262 755.635C34.3903 748.859 38.04 744.69 40.1255 746.253C42.7323 747.817 41.6896 756.156 38.5613 764.495C33.8689 776.482 33.8689 782.737 38.5613 790.554C43.7751 798.372 43.2537 805.669 35.4331 828.601C29.6979 845.28 22.9201 886.975 19.7918 929.191C14.0567 1000.59 14.0567 1001.64 25.5269 1011.02C31.7834 1016.23 42.7323 1019.88 50.0316 1018.84L63.5873 1017.27V936.488C64.1087 847.885 69.8438 817.135 90.1775 798.372C100.084 789.512 102.69 781.694 102.69 762.931C102.69 741.562 104.255 739.478 117.289 735.829C125.11 734.266 135.016 728.533 139.187 723.321C143.879 717.588 168.905 707.685 201.752 699.346C255.453 685.274 279.958 675.892 295.599 662.862C299.77 659.214 309.155 654.523 315.933 652.439C327.925 648.79 327.925 649.311 324.275 676.413C322.19 691.528 315.933 708.206 310.719 714.46C298.728 726.969 278.915 786.906 266.924 847.885C262.231 872.382 257.539 896.878 255.975 902.611C253.889 910.95 254.932 910.429 260.667 900.526C267.445 889.06 267.966 892.187 266.402 931.797C265.881 955.772 262.753 989.65 260.146 1006.85C257.018 1026.65 257.018 1056.36 260.146 1087.11C263.274 1120.99 263.274 1144.44 259.103 1164.25C253.368 1191.87 249.197 1197.61 224.171 1216.89C217.914 1221.58 211.137 1234.61 209.572 1245.03C206.444 1262.23 206.966 1264.32 218.436 1265.88C224.692 1266.92 229.906 1270.57 228.863 1274.22C226.778 1284.64 240.855 1281.52 255.975 1267.44C263.795 1260.15 273.702 1254.42 278.394 1254.42C283.086 1254.42 292.471 1249.2 299.249 1242.95L311.241 1232L323.232 1242.95C335.745 1254.94 347.737 1258.06 347.737 1249.2C347.737 1246.6 339.916 1229.92 330.01 1212.72C313.848 1183.01 312.805 1178.32 314.89 1143.4C316.454 1122.55 321.147 1095.97 325.318 1083.99C332.096 1065.22 332.096 1058.45 326.361 1034.47C318.54 1003.2 319.583 981.311 329.489 965.675C333.138 959.421 339.395 944.827 343.045 932.319C346.694 920.331 352.429 910.429 356.6 910.429C374.327 910.429 431.157 976.62 431.157 997.989C431.157 1002.68 434.285 1012.06 438.456 1017.79C443.67 1024.57 444.191 1030.82 441.063 1036.04C433.764 1047.5 435.849 1089.2 444.713 1114.21C449.405 1126.72 453.055 1149.13 453.055 1163.73C453.576 1210.64 438.978 1237.74 403.003 1256.5C391.532 1262.23 385.276 1271.09 378.498 1292.98C370.677 1318.52 370.677 1322.17 377.455 1322.17C381.626 1322.17 392.054 1316.44 399.874 1309.66C413.43 1298.72 417.08 1297.67 438.456 1302.89C451.491 1306.01 460.875 1310.18 459.311 1312.79C454.097 1321.13 486.423 1316.44 498.936 1306.53C506.235 1300.8 516.141 1296.11 521.355 1296.11C534.389 1296.11 532.825 1272.66 518.748 1252.85C502.585 1230.44 498.414 1150.7 511.449 1118.38C517.705 1102.75 519.269 1089.2 516.663 1066.79C514.577 1046.98 515.098 1035.51 519.269 1033.43C527.611 1028.22 526.569 1011.02 514.056 930.755L502.585 859.873L530.218 824.953C544.817 806.19 559.415 790.554 562.022 790.554C564.629 790.554 567.757 796.809 569.321 804.627C571.407 812.966 574.535 822.868 577.663 827.038C580.27 831.207 586.527 842.674 591.219 851.534C595.912 860.915 602.69 868.733 605.818 868.733C608.946 868.733 617.288 856.746 624.066 842.674C630.844 828.08 638.143 816.614 639.707 816.614C649.613 816.614 649.613 857.267 639.707 886.975C633.972 904.174 624.587 947.954 619.373 984.438C612.074 1031.35 605.296 1057.4 596.433 1073.04C589.134 1085.55 578.185 1111.61 571.928 1131.94C565.15 1151.74 555.766 1177.28 550.552 1187.7C543.253 1201.77 540.646 1218.45 540.646 1248.16C540.646 1296.11 544.295 1301.32 579.749 1305.49C625.63 1310.18 640.229 1285.69 619.373 1238.26C606.86 1211.16 608.946 1198.13 631.886 1142.36C641.793 1119.43 652.22 1093.37 655.87 1085.03C662.648 1069.91 662.648 1069.91 666.297 1103.27C668.383 1122.03 669.947 1185.1 670.468 1243.99C670.99 1337.81 672.032 1353.44 680.896 1369.08C700.708 1406.08 728.341 1388.88 728.341 1339.37C728.341 1324.25 724.691 1288.81 721.042 1260.67C716.871 1233.05 710.614 1179.36 707.486 1142.36C704.358 1104.83 700.708 1069.39 699.144 1062.62C694.452 1039.16 705.922 1052.19 714.785 1079.82C719.478 1095.45 726.255 1109.52 728.862 1111.61C739.811 1118.38 799.769 1120.47 810.718 1114.21C819.06 1109.52 822.189 1101.71 824.795 1074.6C828.445 1042.29 828.966 1040.73 840.958 1043.85C849.821 1045.94 854.514 1044.37 856.599 1038.64C859.206 1031.87 864.42 1036.56 877.454 1057.4C887.36 1072.52 896.745 1088.68 898.309 1093.89C899.873 1099.1 903.002 1103.27 905.609 1103.27C918.122 1103.27 928.028 1138.71 929.07 1186.66C929.592 1213.76 930.635 1237.74 931.156 1239.82C932.72 1249.2 965.045 1260.15 985.379 1258.58C1005.19 1257.02 1007.28 1255.46 1008.84 1241.91C1009.88 1234.09 1005.71 1215.33 998.935 1200.21C987.464 1173.11 977.037 1137.67 967.131 1090.24C962.438 1068.35 949.404 1030.3 914.993 940.658C912.386 932.84 911.344 917.725 912.908 906.78C931.156 784.821 942.626 686.837 939.498 672.765C937.934 662.341 925.942 643.057 912.908 627.421C857.121 561.751 849.821 552.891 843.565 541.425C840.437 535.17 835.223 529.958 832.616 529.958C829.488 529.958 826.881 535.17 826.881 541.425C826.359 548.2 824.274 537.255 821.667 517.45C818.018 483.051 806.026 457.513 792.47 453.343C780.478 449.174 770.051 467.937 770.051 493.996C770.051 508.068 767.965 519.535 764.837 519.535C762.23 519.535 759.623 513.28 759.623 505.984C759.623 495.56 757.538 492.954 748.153 494.517C737.726 496.081 736.683 498.687 738.247 528.395C739.811 564.357 737.204 567.484 700.708 573.739C689.759 575.823 677.246 578.95 673.075 580.514C667.861 582.599 665.776 579.472 665.776 569.569C665.776 560.188 669.947 553.933 681.417 548.2C703.315 536.734 701.751 527.874 678.81 532.043L660.562 535.692V509.111C660.562 483.572 661.083 483.051 681.417 474.712C692.887 470.021 702.272 463.246 702.272 459.076C702.272 450.216 697.058 450.216 678.289 456.992C661.605 463.246 662.648 464.288 657.955 442.398L654.306 425.199L679.853 426.762C702.272 428.326 704.879 427.284 706.443 416.86C708.007 406.436 705.4 404.872 681.939 401.745L655.348 398.097V375.686V353.274L695.494 354.317C728.862 355.359 736.162 353.796 737.726 347.02C738.768 340.245 732.512 337.639 703.836 335.033C653.263 329.821 653.263 330.342 657.955 279.265C661.083 246.43 665.776 227.667 677.246 204.735C699.144 160.954 705.4 121.344 694.452 92.1571C689.759 79.1273 684.024 58.8008 681.939 46.8134C675.682 11.3723 671.511 8.76636 613.117 0.948486C594.347 -1.13623 588.091 -0.0938721 581.313 7.20276ZM553.159 226.103C581.834 263.108 604.775 331.906 587.57 331.906C579.228 331.906 581.313 343.372 592.262 354.838C597.476 361.092 605.296 381.94 609.989 402.266C624.587 466.373 624.587 466.894 607.382 475.754C590.176 484.615 592.783 496.081 611.031 491.39C622.502 488.263 623.023 490.348 626.151 518.492C632.408 582.599 631.886 593.023 621.459 600.841C607.382 611.264 603.211 609.701 603.211 593.544C602.69 577.387 583.399 518.492 581.834 529.958C581.313 534.128 579.228 518.492 577.663 495.039C575.057 465.852 571.407 449.174 565.15 442.398C555.244 431.974 557.851 425.72 572.971 425.72C578.185 425.72 582.356 423.635 582.356 421.029C582.356 418.423 586.527 415.296 591.741 413.733C598.518 412.169 596.433 409.563 582.877 403.83C571.928 398.618 567.757 394.448 571.407 391.843C576.099 389.237 575.578 385.067 569.843 375.686C565.15 368.91 561.501 360.05 561.501 355.359C561.501 350.147 556.287 347.541 546.381 347.541C508.321 347.541 472.867 325.13 456.183 290.731C449.926 277.701 442.627 265.193 440.02 263.629C429.593 256.333 443.149 248.515 465.568 248.515C490.594 248.515 492.679 246.43 479.645 231.837C471.824 222.976 472.346 222.455 491.637 221.934C502.585 221.413 515.62 221.413 520.833 221.934C525.526 222.455 530.74 220.37 532.825 217.243C537.518 209.425 540.646 210.468 553.159 226.103ZM465.046 337.639C461.918 342.329 459.311 341.287 453.576 334.511C449.926 328.778 446.798 320.96 446.798 316.791C446.798 310.536 449.405 311.058 457.747 319.918C464.525 326.693 467.132 333.469 465.046 337.639ZM535.953 598.756C542.21 617.519 543.253 629.506 540.124 637.845C533.347 655.566 534.389 660.256 544.295 660.256C551.595 660.256 552.116 661.299 544.817 669.117C534.911 680.583 523.962 711.854 528.133 718.109C533.868 727.49 521.876 722.278 512.492 711.333C497.372 693.613 495.807 656.087 508.842 621.688C514.577 605.531 519.791 585.726 519.791 578.429C519.791 559.666 524.483 565.921 535.953 598.756Z" fill="white"/>
</svg>
