<svg width="114" height="117" viewBox="0 0 114 117" fill="none" xmlns="http://www.w3.org/2000/svg">
<ellipse cx="56.4545" cy="62.1817" rx="56.4545" ry="54.5454" fill="#EAEAEA"/>
<path d="M82.1093 67.0633C79.5604 63.8542 76.0957 61.9803 72.415 61.9803H41.719C38.0384 61.9803 34.5736 63.8542 32.0247 67.0633C31.712 67.4579 31.4092 67.8649 31.1263 68.3042C31.0791 68.3737 31.0345 68.4531 30.9873 68.5276H83.1467C83.0971 68.4531 83.0549 68.3737 83.0077 68.3042C82.7248 67.8699 82.422 67.4579 82.1093 67.0633Z" fill="#030104"/>
<path d="M89.2134 89.5715C88.8312 89.0379 88.5383 88.4422 88.3671 87.797L86.7662 81.6617C86.389 80.2073 86.111 77.986 85.9348 76.4398C85.6767 74.1217 84.9991 71.9153 83.9741 69.9199L83.7706 69.5476H30.3628L30.189 69.8628C29.1342 71.9129 28.4592 74.1217 28.1986 76.4398C28.0248 77.986 27.7469 80.2098 27.3671 81.6617L25.7663 87.797C25.5975 88.4422 25.3022 89.0379 24.9225 89.5715C23.8627 91.0631 22.1006 92.0534 20.2565 92.0534H18.75C28.134 100.42 41.9135 105.351 56.6857 105.351C71.4579 105.351 85.2349 100.42 94.6214 92.0534H93.8793C92.0353 92.0534 90.2731 91.0631 89.2134 89.5715Z" fill="#E74343"/>
<path d="M77.1819 55.7645C71.8106 50.404 64.7428 47.4545 57.2729 47.4545H57.2224C49.7087 47.4678 42.5072 50.462 37.1989 55.7798C31.8906 61.0976 28.9092 68.3043 28.9093 75.8181V89.5458C28.9008 91.7289 29.5506 93.8638 30.774 95.672C31.9973 97.4801 33.7374 98.8775 35.767 99.6817L39.0002 100.966C39.3378 101.1 39.6364 101.317 39.8687 101.596C40.101 101.875 40.2595 102.208 40.3297 102.564L41.6933 109.4C41.8931 110.388 42.4279 111.277 43.2073 111.916C43.9868 112.556 44.963 112.906 45.9711 112.909H47.4547C47.744 112.909 48.0215 112.794 48.2261 112.589C48.4307 112.385 48.5456 112.107 48.5456 111.818V106.425C48.5456 105.251 49.4483 104.243 50.6224 104.184C50.9174 104.17 51.2122 104.216 51.489 104.319C51.7658 104.422 52.0187 104.58 52.2325 104.784C52.4464 104.988 52.6166 105.233 52.7329 105.504C52.8492 105.776 52.9092 106.068 52.9092 106.363V111.818C52.9092 112.107 53.0242 112.385 53.2287 112.589C53.4333 112.794 53.7108 112.909 54.0001 112.909C54.2895 112.909 54.5669 112.794 54.7715 112.589C54.9761 112.385 55.091 112.107 55.091 111.818V106.425C55.091 105.251 55.9938 104.243 57.1679 104.184C57.4629 104.17 57.7577 104.216 58.0344 104.319C58.3112 104.422 58.5642 104.58 58.778 104.784C58.9918 104.988 59.162 105.233 59.2783 105.504C59.3947 105.776 59.4546 106.068 59.4547 106.363V111.818C59.4547 112.107 59.5696 112.385 59.7742 112.589C59.9788 112.794 60.2563 112.909 60.5456 112.909C60.8349 112.909 61.1124 112.794 61.317 112.589C61.5216 112.385 61.6365 112.107 61.6365 111.818V106.425C61.6365 105.251 62.5392 104.243 63.7133 104.184C64.0083 104.17 64.3031 104.216 64.5799 104.319C64.8567 104.422 65.1096 104.58 65.3234 104.784C65.5372 104.988 65.7075 105.233 65.8238 105.504C65.9401 105.776 66.0001 106.068 66.0001 106.363V111.818C66.0001 112.107 66.1151 112.385 66.3196 112.589C66.5242 112.794 66.8017 112.909 67.091 112.909H68.5747C69.5828 112.907 70.5592 112.556 71.3388 111.917C72.1185 111.278 72.6536 110.39 72.8537 109.402L74.2174 102.564C74.2884 102.209 74.4471 101.876 74.679 101.597C74.9109 101.318 75.2087 101.101 75.5456 100.966L78.7787 99.6817C80.8083 98.8775 82.5484 97.4801 83.7717 95.672C84.9951 93.8638 85.6449 91.7289 85.6365 89.5458V76.0458C85.6365 68.4094 82.6365 61.2081 77.1819 55.7645ZM45.772 91.0744C44.2224 91.1759 42.6787 90.8026 41.3468 90.0042C40.0148 89.2058 38.958 88.0203 38.3171 86.6058C37.6762 85.1913 37.4818 83.6151 37.7599 82.0873C38.0379 80.5595 38.7751 79.1527 39.8731 78.0547C40.9712 76.9566 42.3779 76.2194 43.9057 75.9414C45.4335 75.6634 47.0098 75.8578 48.4243 76.4986C49.8388 77.1395 51.0242 78.1964 51.8226 79.5283C52.621 80.8603 52.9944 82.4039 52.8929 83.9535C52.7718 85.8023 51.9827 87.544 50.6726 88.8541C49.3625 90.1642 47.6208 90.9533 45.772 91.0744ZM60.6819 99.443C60.3068 99.6933 59.8647 99.824 59.4138 99.818H55.132C54.682 99.8235 54.2409 99.6927 53.8665 99.443C53.5008 99.1952 53.219 98.8422 53.0583 98.4307C52.8976 98.0192 52.8656 97.5686 52.9665 97.1385L55.136 90.6476C55.5001 89.7271 56.0797 89.0453 57.0001 88.9267C58.1265 88.7903 58.9092 89.3181 59.4015 90.5931L61.5833 97.1385C61.6841 97.5687 61.6519 98.0194 61.4909 98.4309C61.33 98.8424 61.0479 99.1954 60.6819 99.443ZM69.7747 91.0744C68.2251 91.1759 66.6814 90.8026 65.3495 90.0042C64.0175 89.2058 62.9607 88.0203 62.3198 86.6058C61.6789 85.1913 61.4845 83.6151 61.7626 82.0873C62.0406 80.5595 62.7778 79.1527 63.8758 78.0547C64.9739 76.9566 66.3806 76.2194 67.9084 75.9414C69.4362 75.6634 71.0125 75.8578 72.427 76.4986C73.8415 77.1395 75.0269 78.1964 75.8253 79.5283C76.6237 80.8603 76.9971 82.4039 76.8956 83.9535C76.7744 85.8027 75.9849 87.5448 74.6742 88.855C73.3636 90.1651 71.6212 90.954 69.7719 91.0744H69.7747Z" fill="#A8A8A8"/>
<path d="M112.334 39.4622C107.819 36.9654 105.407 35.8783 100.336 34.1137C98.358 33.4262 95.9109 33.9449 94.9851 35.1983C92.9922 37.906 91.4137 40.2365 90.0586 42.4553L98.5839 61.0124C102.525 53.7752 105.928 49.6156 113.359 43.0783C114.495 42.0756 114.098 40.4351 112.334 39.4622ZM106.106 42.5198C104.955 43.7707 102.552 44.0934 100.589 43.3116C98.6286 42.5298 97.7649 40.8619 98.8172 39.5044C99.867 38.1468 102.52 37.6975 104.58 38.586C106.648 39.4746 107.263 41.269 106.106 42.5198Z" fill="#E74343"/>
<path d="M85.1429 67.0657C85.1578 67.093 85.1777 67.1178 85.195 67.1476C85.4407 67.5298 85.6914 67.9045 85.9123 68.3066H87.3096H99.1904L98.6221 67.0657L98.0612 65.8222L97.0907 63.7101L88.5381 45.091L87.5553 42.9566C87.1359 42.0407 86.6792 41.1646 86.2002 40.3134C82.2168 45.771 76.6697 49.8761 70.0629 52.0328C66.2384 53.2812 61.5699 53.9638 56.9189 53.9638C55.9162 53.9638 54.9259 53.9315 53.9728 53.867C45.11 53.2614 35.6565 48.8387 29.3028 42.2641C28.7692 41.7107 28.2729 41.1324 27.7988 40.5367C27.3695 41.3185 26.9599 42.1227 26.5777 42.9566L25.5353 45.2275L16.9902 63.8243L16.0694 65.8272L15.4986 67.0681L14.9277 68.3091H26.8085H28.2083C28.4441 67.8772 28.7146 67.4752 28.9752 67.0681C29.2507 66.6363 29.5411 66.2243 29.8439 65.8272C30.5736 64.8667 31.3628 63.9757 32.2414 63.2088C32.2563 63.1939 32.2712 63.184 32.2836 63.1716C32.7998 62.7248 33.3359 62.3079 33.8943 61.9356C33.9713 61.8835 34.0557 61.8462 34.1326 61.7966C34.6364 61.474 35.1477 61.1662 35.6813 60.9106C35.855 60.8237 36.0437 60.7691 36.2199 60.6897C36.6716 60.4936 37.1183 60.2951 37.5874 60.1437C37.91 60.0419 38.2501 59.9898 38.5802 59.9054C38.9202 59.826 39.2552 59.7217 39.6027 59.6671C40.2927 59.5555 40.995 59.5033 41.7098 59.5033H72.4059C73.1206 59.5033 73.823 59.5604 74.5155 59.6671C74.8654 59.7193 75.198 59.8235 75.538 59.9054C75.8681 59.9873 76.2081 60.0419 76.5283 60.1437C76.9949 60.2951 77.4466 60.4936 77.8983 60.6897C78.0745 60.7666 78.2606 60.8237 78.4368 60.9106C78.968 61.1687 79.4743 61.474 79.9731 61.7916C80.055 61.8438 80.1419 61.8835 80.2263 61.9356C80.7897 62.3104 81.3258 62.7298 81.8445 63.179C81.8544 63.1889 81.8668 63.1989 81.8792 63.2088C82.7578 63.9757 83.5471 64.8667 84.2767 65.8272C84.5795 66.2218 84.8674 66.6338 85.1429 67.0657Z" fill="#E74343"/>
<path d="M23.3665 87.174L24.9673 81.0363V81.0338C25.3123 79.7084 25.5779 77.5219 25.7318 76.1594C25.7367 76.1072 25.7491 76.0601 25.7566 76.008C25.7789 75.8293 25.8162 75.6555 25.8435 75.4743C25.9353 74.8439 26.0494 74.2235 26.1934 73.6154C26.253 73.3623 26.32 73.1141 26.3895 72.8634C26.5384 72.3174 26.7096 71.7838 26.8983 71.2601C26.9553 71.1013 27.0099 70.9399 27.072 70.7836H27.0546H25.7516H14.9355H13.7914L9.25449 80.6565C9.14529 80.8948 9.05594 81.1281 8.94922 81.3639C10.1306 83.8085 11.6173 86.144 13.3918 88.3305C13.7293 88.7475 14.0594 89.1645 14.4193 89.5715H20.2567C21.6267 89.5715 23.0191 88.4968 23.3665 87.174Z" fill="#E74343"/>
<path d="M99.2029 70.7885L88.3892 70.786H87.0838H87.0664C87.1285 70.9424 87.1831 71.1037 87.2401 71.2625C87.4288 71.7862 87.6 72.3198 87.7489 72.8658C87.8159 73.1165 87.8854 73.3622 87.9425 73.6154C88.0889 74.2234 88.2006 74.8464 88.2949 75.4793C88.3198 75.658 88.3595 75.8317 88.3793 76.0104C88.3843 76.0625 88.3967 76.1121 88.4041 76.1643C88.558 77.5268 88.8236 79.7134 89.171 81.0412L89.9727 84.1063L90.7744 87.1739C91.1243 88.4993 92.5092 89.5739 93.8842 89.5739H98.9571C99.317 89.1719 99.6397 88.7499 99.9797 88.333C101.96 85.9007 103.596 83.2923 104.829 80.5398L100.347 70.7885H99.2029Z" fill="#E74343"/>
<path d="M24.0212 42.5819C22.6512 40.3259 21.0479 37.9581 19.0127 35.1983C18.0895 33.9449 15.6398 33.4262 13.6618 34.1137C8.59374 35.8758 6.18134 36.9654 1.6643 39.4622C-0.0978443 40.4351 -0.497429 42.0756 0.641759 43.0808C8.1197 49.6528 11.5174 53.8273 15.4909 61.1464L24.0212 42.5819ZM13.4086 43.3116C11.4454 44.0934 9.04544 43.7682 7.89136 42.5198C6.73977 41.269 7.35031 39.4746 9.41524 38.586C11.4802 37.6975 14.1308 38.1468 15.1832 39.5044C16.233 40.8619 15.3718 42.5298 13.4086 43.3116Z" fill="#E74343"/>
<path d="M49.0434 35.8633C49.2246 36.0023 49.314 36.0718 49.4952 36.2132C54.0047 39.7226 55.8637 40.7427 56.576 41.0355C56.9284 40.8643 57.2784 40.6955 57.6631 40.5392C63.5129 37.278 69.2808 33.3665 72.6065 26.9384C67.7693 24.3969 62.4184 23.1262 57.0674 23.1262C51.704 23.1262 46.3431 24.4044 41.501 26.9558C41.568 27.0972 41.6151 27.2536 41.6846 27.3926C43.3003 30.5198 45.7748 33.3665 49.0434 35.8633Z" fill="#E74343"/>
<path d="M24.2872 12.474C23.086 20.0785 23.9348 29.0555 27.7966 35.9179C28.0225 36.3175 28.2359 36.7245 28.4816 37.1092C28.7174 37.479 28.9631 37.8364 29.2187 38.1889C29.8069 39.0004 30.4125 39.7971 31.1074 40.5169C36.9349 46.5528 45.6786 50.8068 54.1493 51.3876C55.0453 51.4496 55.9735 51.4794 56.9191 51.4794C61.0539 51.4794 65.5387 50.8912 69.2715 49.6701C75.7443 47.5506 81.0803 43.3884 84.7659 37.9705C85.0116 37.6106 85.2822 37.2706 85.513 36.8983C85.7562 36.5061 85.9548 36.0867 86.1831 35.6822C87.1188 34.0069 87.9427 32.2547 88.5682 30.3957C90.1045 25.8117 90.8317 21.5304 90.0697 16.6758C89.2507 11.4589 88.6699 6.10545 92.2761 2.69533C93.0232 1.99048 93.9489 1.36752 95.0881 0.848807C95.0881 0.848807 93.9018 0.208479 91.4372 0C90.236 0.00992757 88.6501 0.0074455 86.8954 0.77435C85.173 1.47673 83.113 2.86907 81.8596 5.13752C78.3726 11.4539 78.5339 19.2495 75.8237 25.9556C75.7641 26.1045 75.7219 26.2584 75.6549 26.4073C75.5531 26.6506 75.4216 26.8615 75.3099 27.0998C75.1412 27.4721 74.9525 27.8294 74.7664 28.1868C71.2669 34.8929 65.3526 39.1047 58.7309 42.7804C58.1303 43.0161 57.6314 43.2892 57.0631 43.5473C56.9737 43.5895 56.8645 43.6068 56.7379 43.6068C54.7524 43.6068 48.6966 38.7299 47.5276 37.8364C44.2242 35.3148 41.3899 32.2522 39.4764 28.5492C39.4218 28.4425 39.387 28.3184 39.3349 28.2092C39.1587 27.8468 39.0172 27.4572 38.8634 27.0774C38.7045 26.6903 38.5184 26.3205 38.3794 25.9184C36.0663 19.1701 36.4261 10.5431 32.269 5.14C31.0181 2.87403 28.9556 1.47921 27.2332 0.776832C25.4884 0.0148915 23.9124 0.0124096 22.7112 0.00248201C22.6417 0.00248201 22.5722 0.00248183 22.5027 0.00496372C21.3486 0.0347464 20.1127 0.399584 19.043 0.823988C23.8901 3.43494 25.136 7.09821 24.2872 12.474Z" fill="#E74343"/>
</svg>
