<svg width="209" height="207" viewBox="0 0 209 207" fill="none" xmlns="http://www.w3.org/2000/svg">
<path d="M150.535 122.949C145.862 117.066 139.51 113.631 132.762 113.631H76.4855C69.7375 113.631 63.3855 117.066 58.7125 122.949C58.1395 123.673 57.5845 124.419 57.0655 125.224C56.9785 125.352 56.8965 125.497 56.8105 125.634H152.437C152.346 125.497 152.268 125.352 152.182 125.224C151.663 124.428 151.108 123.673 150.535 122.949Z" fill="#030104"/>
<path d="M163.558 164.215C162.857 163.236 162.32 162.144 162.006 160.961L159.072 149.713C158.38 147.047 157.87 142.974 157.547 140.14C157.074 135.89 155.832 131.845 153.953 128.187L153.58 127.504H55.665L55.347 128.082C53.413 131.84 52.175 135.89 51.697 140.14C51.379 142.974 50.869 147.051 50.173 149.713L47.238 160.961C46.929 162.144 46.387 163.236 45.691 164.215C43.748 166.949 40.518 168.765 37.137 168.765H34.375C51.579 184.103 76.841 193.144 103.924 193.144C131.006 193.144 156.264 184.103 173.473 168.765H172.112C168.732 168.765 165.501 166.949 163.558 164.215Z" fill="#E74343"/>
<path d="M141.5 102.235C131.653 92.408 118.695 87 105 87H104.908C91.1321 87.0245 77.9301 92.514 68.1981 102.263C58.4661 112.012 53.0001 125.225 53.0001 139V164.168C52.9851 168.17 54.1761 172.084 56.4191 175.399C58.6621 178.714 61.8521 181.276 65.5731 182.75L71.5001 185.105C72.1191 185.351 72.6671 185.747 73.0921 186.259C73.5181 186.771 73.8091 187.382 73.9381 188.035L76.4381 200.568C76.8041 202.379 77.7841 204.008 79.2131 205.18C80.6421 206.352 82.4321 206.995 84.2801 207H87.0001C87.5311 207 88.0391 206.789 88.4141 206.414C88.7891 206.039 89.0001 205.53 89.0001 205V195.113C89.0001 192.96 90.6551 191.113 92.8081 191.005C93.3481 190.979 93.8891 191.063 94.3961 191.252C94.9041 191.441 95.3681 191.731 95.7601 192.105C96.1521 192.478 96.4641 192.927 96.6771 193.425C96.8901 193.923 97.0001 194.459 97.0001 195V205C97.0001 205.53 97.2111 206.039 97.5861 206.414C97.9611 206.789 98.4701 207 99.0001 207C99.5311 207 100.039 206.789 100.414 206.414C100.789 206.039 101 205.53 101 205V195.113C101 192.96 102.655 191.113 104.808 191.005C105.348 190.979 105.889 191.063 106.396 191.252C106.904 191.441 107.368 191.731 107.76 192.105C108.152 192.478 108.464 192.927 108.677 193.425C108.89 193.923 109 194.459 109 195V205C109 205.53 109.211 206.039 109.586 206.414C109.961 206.789 110.47 207 111 207C111.531 207 112.039 206.789 112.414 206.414C112.789 206.039 113 205.53 113 205V195.113C113 192.96 114.655 191.113 116.808 191.005C117.348 190.979 117.889 191.063 118.396 191.252C118.904 191.441 119.368 191.731 119.76 192.105C120.152 192.478 120.464 192.927 120.677 193.425C120.89 193.923 121 194.459 121 195V205C121 205.53 121.211 206.039 121.586 206.414C121.961 206.789 122.47 207 123 207H125.72C127.568 206.996 129.358 206.354 130.788 205.182C132.217 204.011 133.198 202.381 133.565 200.57L136.065 188.035C136.195 187.383 136.486 186.773 136.911 186.262C137.337 185.75 137.883 185.352 138.5 185.105L144.428 182.75C148.149 181.276 151.339 178.714 153.581 175.399C155.824 172.084 157.016 168.17 157 164.168V139.418C157 125.418 151.5 112.215 141.5 102.235ZM83.9151 166.97C81.0741 167.156 78.2441 166.472 75.8021 165.008C73.3601 163.544 71.4231 161.371 70.2481 158.778C69.0731 156.184 68.7171 153.295 69.2261 150.494C69.7361 147.693 71.0871 145.114 73.1011 143.1C75.1141 141.087 77.6931 139.736 80.4941 139.226C83.2951 138.716 86.1841 139.073 88.7781 140.248C91.3711 141.423 93.5441 143.36 95.0081 145.802C96.4721 148.244 97.1561 151.074 96.9701 153.915C96.7481 157.304 95.3011 160.498 92.9001 162.899C90.4981 165.301 87.3051 166.748 83.9151 166.97ZM111.25 182.313C110.562 182.771 109.752 183.011 108.925 183H101.075C100.25 183.01 99.4421 182.77 98.7551 182.313C98.0851 181.858 97.5681 181.211 97.2731 180.457C96.9791 179.702 96.9201 178.876 97.1051 178.088L101.083 166.188C101.75 164.5 102.813 163.25 104.5 163.033C106.565 162.783 108 163.75 108.903 166.088L112.903 178.088C113.087 178.876 113.028 179.703 112.733 180.457C112.438 181.211 111.921 181.858 111.25 182.313ZM127.92 166.97C125.079 167.156 122.249 166.472 119.807 165.008C117.365 163.544 115.428 161.371 114.253 158.778C113.078 156.184 112.722 153.295 113.231 150.494C113.741 147.693 115.092 145.114 117.106 143.1C119.119 141.087 121.698 139.736 124.499 139.226C127.3 138.716 130.189 139.073 132.783 140.248C135.376 141.423 137.549 143.36 139.013 145.802C140.477 148.244 141.161 151.074 140.975 153.915C140.753 157.305 139.306 160.499 136.903 162.901C134.5 165.303 131.305 166.749 127.915 166.97H127.92Z" fill="#C9C9C9"/>
<path d="M205.946 72.3474C197.67 67.77 193.247 65.777 183.951 62.5419C180.325 61.2815 175.838 62.2324 174.141 64.5303C170.487 69.4945 167.593 73.767 165.109 77.8349L180.739 111.856C187.964 98.5881 194.202 90.962 207.826 78.977C209.91 77.1387 209.182 74.1311 205.946 72.3474ZM194.53 77.9532C192.419 80.2464 188.014 80.838 184.415 79.4047C180.821 77.9714 179.237 74.9137 181.166 72.4248C183.091 69.9358 187.955 69.1122 191.732 70.7412C195.522 72.3701 196.65 75.6599 194.53 77.9532Z" fill="#E74343"/>
<path d="M156.095 122.954C156.122 123.004 156.159 123.049 156.191 123.104C156.641 123.805 157.101 124.492 157.506 125.229H160.067H181.849L180.807 122.954L179.779 120.674L178 116.802L162.32 82.667L160.518 78.7539C159.749 77.0749 158.912 75.4687 158.034 73.908C150.731 83.9138 140.561 91.4397 128.449 95.3941C121.437 97.6821 112.878 98.9341 104.351 98.9341C102.513 98.9341 100.697 98.8751 98.9502 98.7561C82.7012 97.6461 65.3702 89.5378 53.7222 77.4844C52.7432 76.4698 51.8332 75.4096 50.9642 74.3175C50.1772 75.7508 49.4262 77.2251 48.7262 78.7539L46.8142 82.9173L31.1482 117.011L29.4602 120.683L28.4142 122.958L27.3672 125.233H49.1492H51.7152C52.1472 124.442 52.6432 123.705 53.1212 122.958C53.6262 122.167 54.1582 121.411 54.7142 120.683C56.0512 118.922 57.4982 117.289 59.1092 115.883C59.1362 115.856 59.1642 115.837 59.1862 115.815C60.1332 114.996 61.1162 114.231 62.1392 113.549C62.2802 113.453 62.4352 113.385 62.5762 113.294C63.5002 112.702 64.4372 112.138 65.4152 111.67C65.7342 111.51 66.0802 111.41 66.4032 111.265C67.2312 110.905 68.0502 110.541 68.9102 110.264C69.5012 110.077 70.1252 109.981 70.7302 109.827C71.3532 109.681 71.9682 109.49 72.6052 109.39C73.8702 109.185 75.1572 109.09 76.4682 109.09H132.744C134.054 109.09 135.342 109.194 136.611 109.39C137.253 109.485 137.863 109.677 138.486 109.827C139.091 109.977 139.715 110.077 140.302 110.264C141.157 110.541 141.985 110.905 142.813 111.265C143.136 111.406 143.478 111.51 143.801 111.67C144.774 112.143 145.703 112.702 146.617 113.285C146.767 113.38 146.927 113.453 147.081 113.549C148.114 114.236 149.097 115.005 150.048 115.828C150.066 115.847 150.089 115.865 150.112 115.883C151.722 117.289 153.169 118.922 154.507 120.683C155.062 121.407 155.59 122.162 156.095 122.954Z" fill="#E74343"/>
<path d="M42.8382 159.819L45.7732 148.567V148.562C46.4052 146.132 46.8922 142.124 47.1742 139.626C47.1832 139.53 47.2062 139.444 47.2202 139.348C47.2612 139.02 47.3292 138.702 47.3792 138.37C47.5472 137.214 47.7572 136.076 48.0212 134.962C48.1302 134.498 48.2532 134.043 48.3802 133.583C48.6532 132.582 48.9672 131.604 49.3132 130.644C49.4182 130.352 49.5182 130.057 49.6312 129.77H49.6003H47.2112H27.3812H25.2842L16.9662 147.87C16.7662 148.307 16.6022 148.735 16.4062 149.167C18.5722 153.649 21.2982 157.931 24.5512 161.939C25.1702 162.704 25.7752 163.468 26.4352 164.215H37.1372C39.6482 164.215 42.2012 162.244 42.8382 159.819Z" fill="#E74343"/>
<path d="M181.872 129.779L162.047 129.775H159.653H159.622C159.735 130.061 159.835 130.357 159.94 130.648C160.286 131.608 160.6 132.587 160.873 133.588C160.996 134.047 161.123 134.498 161.228 134.962C161.496 136.077 161.701 137.219 161.874 138.379C161.919 138.706 161.992 139.025 162.029 139.353C162.038 139.448 162.06 139.539 162.074 139.635C162.356 142.133 162.843 146.141 163.48 148.576L164.95 154.195L166.419 159.819C167.061 162.249 169.6 164.219 172.121 164.219H181.421C182.081 163.482 182.673 162.708 183.296 161.944C186.927 157.485 189.926 152.703 192.187 147.657L183.969 129.779H181.872Z" fill="#E74343"/>
<path d="M44.0388 78.0669C41.5268 73.9308 38.5878 69.59 34.8568 64.5303C33.1638 62.2324 28.6728 61.2815 25.0468 62.5419C15.7548 65.7725 11.3318 67.77 3.05082 72.3474C-0.179175 74.1311 -0.912176 77.1387 1.17682 78.9815C14.8858 91.0303 21.1148 98.6841 28.3998 112.102L44.0388 78.0669ZM24.5818 79.4047C20.9828 80.838 16.5828 80.2419 14.4678 77.9532C12.3558 75.6599 13.4758 72.3701 17.2608 70.7412C21.0468 69.1122 25.9068 69.9358 27.8358 72.4248C29.7608 74.9137 28.1818 77.9714 24.5818 79.4047Z" fill="#E74343"/>
<path d="M89.9139 65.7495C90.2459 66.0043 90.4099 66.1317 90.7419 66.391C99.0099 72.8249 102.418 74.695 103.723 75.232C104.37 74.918 105.011 74.6086 105.716 74.3219C116.441 68.343 127.016 61.172 133.113 49.3872C124.245 44.7278 114.435 42.3982 104.624 42.3982C94.7919 42.3982 84.9629 44.7415 76.0859 49.419C76.2089 49.6784 76.2949 49.965 76.4229 50.2198C79.3849 55.953 83.9209 61.172 89.9139 65.7495Z" fill="#E74343"/>
<path d="M44.5271 22.869C42.3241 36.8107 43.8801 53.2685 50.9601 65.8497C51.3751 66.5822 51.7661 67.3284 52.2161 68.0337C52.6491 68.7117 53.0991 69.3669 53.5681 70.013C54.6461 71.5009 55.7561 72.9615 57.0301 74.2811C67.7141 85.347 83.7441 93.146 99.2741 94.211C100.916 94.324 102.618 94.379 104.352 94.379C111.932 94.379 120.154 93.301 126.998 91.062C138.865 87.1761 148.647 79.5456 155.404 69.6126C155.855 68.9529 156.351 68.3295 156.774 67.6469C157.22 66.928 157.584 66.1591 158.002 65.4174C159.718 62.346 161.229 59.1336 162.375 55.7256C165.192 47.3215 166.525 39.4725 165.128 30.5724C163.626 21.008 162.562 11.1934 169.173 4.94147C170.543 3.64917 172.24 2.50717 174.328 1.55615C174.328 1.55615 172.153 0.38221 167.635 0C165.433 0.0182 162.525 0.0136505 159.308 1.41964C156.151 2.70737 152.374 5.25997 150.076 9.41877C143.683 20.9989 143.979 35.2909 139.01 47.5854C138.901 47.8584 138.824 48.1405 138.701 48.4135C138.514 48.8594 138.273 49.2462 138.068 49.683C137.759 50.3655 137.413 51.0207 137.072 51.676C130.656 63.9704 119.813 71.692 107.673 78.4308C106.572 78.863 105.658 79.3636 104.616 79.8368C104.452 79.9141 104.252 79.946 104.02 79.946C100.38 79.946 89.2771 71.005 87.1341 69.3669C81.0781 64.744 75.8821 59.1291 72.3731 52.3403C72.2731 52.1446 72.2101 51.9171 72.1141 51.7169C71.7911 51.0526 71.5321 50.3382 71.2501 49.6421C70.9581 48.9322 70.6171 48.2543 70.3621 47.5171C66.1221 35.1453 66.7811 19.329 59.1601 9.42337C56.8671 5.26907 53.0851 2.71187 49.9281 1.42419C46.7291 0.0273005 43.8391 0.02275 41.6371 0.00454998C41.5101 0.00454998 41.3821 0.00454996 41.2551 0.00909996C39.1391 0.0637 36.8731 0.732571 34.9121 1.51065C43.7991 6.29737 46.0831 13.0134 44.5271 22.869Z" fill="#E74343"/>
</svg>
