<svg width="209" height="214" viewBox="0 0 209 214" fill="none" xmlns="http://www.w3.org/2000/svg">
<ellipse cx="103.5" cy="114" rx="103.5" ry="100" fill="#EAEAEA"/>
<path d="M150.535 122.949C145.862 117.066 139.51 113.631 132.762 113.631H76.4858C69.738 113.631 63.386 117.066 58.713 122.949C58.1397 123.673 57.5846 124.419 57.0658 125.224C56.9794 125.352 56.8975 125.497 56.811 125.634H152.437C152.346 125.497 152.268 125.352 152.182 125.224C151.663 124.428 151.108 123.673 150.535 122.949Z" fill="#030104"/>
<path d="M163.558 164.215C162.857 163.236 162.32 162.144 162.006 160.961L159.072 149.713C158.38 147.047 157.87 142.974 157.547 140.14C157.074 135.89 155.832 131.845 153.953 128.187L153.58 127.504H55.6651L55.3466 128.082C53.4128 131.84 52.1751 135.89 51.6974 140.14C51.3789 142.974 50.8693 147.051 50.1731 149.713L47.2382 160.961C46.9288 162.144 46.3874 163.236 45.6912 164.215C43.7483 166.949 40.5177 168.765 37.1369 168.765H34.375C51.5791 184.103 76.8414 193.144 103.924 193.144C131.006 193.144 156.264 184.103 173.473 168.765H172.112C168.732 168.765 165.501 166.949 163.558 164.215Z" fill="#E74343"/>
<path d="M141.5 102.235C131.653 92.4075 118.695 87 105 87H104.908C91.1324 87.0245 77.9298 92.5139 68.1979 102.263C58.466 112.012 53.0001 125.225 53.0001 139V164.168C52.9846 168.17 54.176 172.084 56.4188 175.399C58.6617 178.714 61.8517 181.276 65.5726 182.75L71.5001 185.105C72.1191 185.351 72.6666 185.747 73.0924 186.259C73.5183 186.771 73.8089 187.382 73.9376 188.035L76.4376 200.568C76.8039 202.379 77.7844 204.008 79.2133 205.18C80.6423 206.352 82.432 206.995 84.2801 207H87.0001C87.5306 207 88.0393 206.789 88.4144 206.414C88.7894 206.039 89.0001 205.53 89.0001 205V195.113C89.0001 192.96 90.6551 191.113 92.8076 191.005C93.3485 190.979 93.889 191.063 94.3964 191.252C94.9038 191.441 95.3675 191.731 95.7595 192.105C96.1515 192.478 96.4636 192.927 96.6769 193.425C96.8901 193.923 97.0001 194.459 97.0001 195V205C97.0001 205.53 97.2109 206.039 97.5859 206.414C97.961 206.789 98.4697 207 99.0001 207C99.5306 207 100.039 206.789 100.414 206.414C100.789 206.039 101 205.53 101 205V195.113C101 192.96 102.655 191.113 104.808 191.005C105.348 190.979 105.889 191.063 106.396 191.252C106.904 191.441 107.368 191.731 107.76 192.105C108.152 192.478 108.464 192.927 108.677 193.425C108.89 193.923 109 194.459 109 195V205C109 205.53 109.211 206.039 109.586 206.414C109.961 206.789 110.47 207 111 207C111.531 207 112.039 206.789 112.414 206.414C112.789 206.039 113 205.53 113 205V195.113C113 192.96 114.655 191.113 116.808 191.005C117.348 190.979 117.889 191.063 118.396 191.252C118.904 191.441 119.368 191.731 119.76 192.105C120.152 192.478 120.464 192.927 120.677 193.425C120.89 193.923 121 194.459 121 195V205C121 205.53 121.211 206.039 121.586 206.414C121.961 206.789 122.47 207 123 207H125.72C127.568 206.996 129.358 206.354 130.788 205.182C132.217 204.011 133.198 202.381 133.565 200.57L136.065 188.035C136.195 187.383 136.486 186.773 136.911 186.262C137.337 185.75 137.883 185.352 138.5 185.105L144.428 182.75C148.149 181.276 151.339 178.714 153.581 175.399C155.824 172.084 157.016 168.17 157 164.168V139.418C157 125.418 151.5 112.215 141.5 102.235ZM83.9151 166.97C81.0743 167.156 78.2442 166.472 75.8023 165.008C73.3604 163.544 71.4228 161.371 70.2479 158.778C69.073 156.184 68.7166 153.295 69.2263 150.494C69.736 147.693 71.0875 145.114 73.1006 143.1C75.1137 141.087 77.6927 139.736 80.4937 139.226C83.2947 138.716 86.1845 139.073 88.7777 140.248C91.3709 141.423 93.5443 143.36 95.0081 145.802C96.4718 148.244 97.1562 151.074 96.9701 153.915C96.7481 157.304 95.3014 160.498 92.8996 162.899C90.4977 165.301 87.3046 166.748 83.9151 166.97ZM111.25 182.313C110.562 182.771 109.752 183.011 108.925 183H101.075C100.25 183.01 99.4415 182.77 98.7551 182.313C98.0847 181.858 97.568 181.211 97.2734 180.457C96.9788 179.702 96.9201 178.876 97.1051 178.088L101.083 166.188C101.75 164.5 102.813 163.25 104.5 163.033C106.565 162.783 108 163.75 108.903 166.088L112.903 178.088C113.087 178.876 113.028 179.703 112.733 180.457C112.438 181.211 111.921 181.858 111.25 182.313ZM127.92 166.97C125.079 167.156 122.249 166.472 119.807 165.008C117.365 163.544 115.428 161.371 114.253 158.778C113.078 156.184 112.722 153.295 113.231 150.494C113.741 147.693 115.092 145.114 117.106 143.1C119.119 141.087 121.698 139.736 124.499 139.226C127.3 138.716 130.189 139.073 132.783 140.248C135.376 141.423 137.549 143.36 139.013 145.802C140.477 148.244 141.161 151.074 140.975 153.915C140.753 157.305 139.306 160.499 136.903 162.901C134.5 165.303 131.305 166.749 127.915 166.97H127.92Z" fill="#C9C9C9"/>
<path d="M205.946 72.3473C197.67 67.7699 193.247 65.7769 183.951 62.5418C180.325 61.2814 175.838 62.2323 174.141 64.5302C170.487 69.4944 167.593 73.7669 165.109 77.8348L180.739 111.856C187.964 98.588 194.202 90.9619 207.826 78.9769C209.91 77.1386 209.182 74.131 205.946 72.3473ZM194.53 77.9531C192.419 80.2463 188.014 80.8379 184.415 79.4046C180.821 77.9713 179.237 74.9136 181.166 72.4247C183.091 69.9357 187.955 69.1121 191.732 70.7411C195.522 72.37 196.65 75.6598 194.53 77.9531Z" fill="#E74343"/>
<path d="M156.095 122.954C156.122 123.004 156.159 123.049 156.191 123.104C156.641 123.805 157.101 124.492 157.506 125.229H160.067H181.849L180.807 122.954L179.779 120.674L178 116.802L162.32 82.6669L160.518 78.7538C159.749 77.0748 158.912 75.4686 158.034 73.9079C150.731 83.9137 140.561 91.4396 128.449 95.3937C121.437 97.6824 112.878 98.9337 104.351 98.9337C102.513 98.9337 100.697 98.8745 98.95 98.7562C82.7014 97.646 65.3699 89.5377 53.7216 77.4843C52.7433 76.4697 51.8333 75.4095 50.9642 74.3174C50.177 75.7507 49.4263 77.225 48.7255 78.7538L46.8145 82.9172L31.1484 117.011L29.4603 120.683L28.4137 122.958L27.3672 125.233H49.1487H51.715C52.1472 124.442 52.6432 123.705 53.121 122.958C53.626 122.167 54.1584 121.411 54.7135 120.683C56.0513 118.922 57.4982 117.289 59.109 115.883C59.1363 115.856 59.1636 115.837 59.1863 115.815C60.1327 114.996 61.1156 114.231 62.1393 113.549C62.2804 113.453 62.4351 113.385 62.5762 113.294C63.4998 112.702 64.4372 112.138 65.4154 111.67C65.734 111.51 66.0798 111.41 66.4028 111.265C67.231 110.905 68.05 110.541 68.91 110.264C69.5015 110.077 70.1248 109.981 70.73 109.827C71.3534 109.681 71.9676 109.49 72.6047 109.39C73.8696 109.185 75.1573 109.09 76.4677 109.09H132.744C134.054 109.09 135.342 109.194 136.611 109.39C137.253 109.485 137.863 109.677 138.486 109.827C139.091 109.977 139.715 110.077 140.302 110.264C141.157 110.541 141.985 110.905 142.813 111.265C143.136 111.406 143.478 111.51 143.801 111.67C144.774 112.143 145.703 112.702 146.617 113.285C146.767 113.38 146.927 113.453 147.081 113.549C148.114 114.236 149.097 115.005 150.048 115.828C150.066 115.847 150.089 115.865 150.112 115.883C151.722 117.289 153.169 118.922 154.507 120.683C155.062 121.407 155.59 122.162 156.095 122.954Z" fill="#E74343"/>
<path d="M42.838 159.819L45.7729 148.567V148.562C46.4053 146.132 46.8922 142.124 47.1743 139.626C47.1834 139.53 47.2061 139.444 47.2198 139.348C47.2607 139.02 47.329 138.702 47.379 138.37C47.5474 137.214 47.7567 136.076 48.0206 134.962C48.1298 134.498 48.2527 134.043 48.3801 133.583C48.6531 132.582 48.967 131.604 49.3129 130.644C49.4175 130.352 49.5176 130.057 49.6314 129.77H49.5995H47.2107H27.3812H25.2836L16.9659 147.87C16.7657 148.307 16.6019 148.735 16.4062 149.167C18.5721 153.649 21.2976 157.931 24.551 161.939C25.1698 162.704 25.775 163.468 26.4348 164.215H37.1367C39.6484 164.215 42.201 162.244 42.838 159.819Z" fill="#E74343"/>
<path d="M181.872 129.779L162.047 129.775H159.653H159.622C159.735 130.061 159.835 130.357 159.94 130.648C160.286 131.608 160.6 132.587 160.873 133.588C160.996 134.047 161.123 134.498 161.228 134.962C161.496 136.077 161.701 137.219 161.874 138.379C161.919 138.706 161.992 139.025 162.029 139.353C162.038 139.448 162.06 139.539 162.074 139.635C162.356 142.133 162.843 146.141 163.48 148.576L164.95 154.195L166.419 159.819C167.061 162.249 169.6 164.219 172.121 164.219H181.421C182.081 163.482 182.673 162.708 183.296 161.944C186.927 157.485 189.926 152.703 192.187 147.657L183.969 129.779H181.872Z" fill="#E74343"/>
<path d="M44.0389 78.0668C41.5272 73.9307 38.5878 69.5899 34.8567 64.5302C33.164 62.2323 28.673 61.2814 25.0466 62.5418C15.7552 65.7724 11.3325 67.7699 3.05122 72.3473C-0.179381 74.131 -0.911954 77.1386 1.17656 78.9814C14.8861 91.0302 21.1153 98.6835 28.4 112.102L44.0389 78.0668ZM24.5825 79.4046C20.9833 80.8379 16.5833 80.2418 14.4675 77.9531C12.3563 75.6598 13.4756 72.37 17.2613 70.7411C21.047 69.1121 25.9066 69.9357 27.8358 72.4247C29.7605 74.9136 28.1816 77.9713 24.5825 79.4046Z" fill="#E74343"/>
<path d="M89.9138 65.7496C90.246 66.0044 90.4098 66.1318 90.7419 66.3911C99.0095 72.825 102.418 74.6951 103.723 75.2321C104.37 74.9181 105.011 74.6087 105.716 74.322C116.441 68.3431 127.016 61.1721 133.113 49.3873C124.245 44.7279 114.435 42.3983 104.624 42.3983C94.7916 42.3983 84.9633 44.7416 76.0859 49.4191C76.2088 49.6785 76.2952 49.9651 76.4226 50.2199C79.3848 55.9531 83.9213 61.1721 89.9138 65.7496Z" fill="#E74343"/>
<path d="M44.5266 22.869C42.3243 36.8107 43.8804 53.2685 50.9604 65.8497C51.3745 66.5822 51.7658 67.3284 52.2163 68.0337C52.6486 68.7117 53.099 69.3669 53.5677 70.013C54.6461 71.5009 55.7563 72.9615 57.0303 74.2811C67.7141 85.347 83.7442 93.1459 99.2738 94.2107C100.916 94.3244 102.618 94.379 104.352 94.379C111.932 94.379 120.154 93.3006 126.998 91.062C138.865 87.1761 148.647 79.5456 155.404 69.6126C155.855 68.9529 156.351 68.3295 156.774 67.6469C157.22 66.928 157.584 66.1591 158.002 65.4174C159.718 62.346 161.229 59.1336 162.375 55.7256C165.192 47.3215 166.525 39.4725 165.128 30.5724C163.626 21.008 162.562 11.1934 169.173 4.94148C170.543 3.64924 172.24 2.50716 174.328 1.55618C174.328 1.55618 172.153 0.382242 167.635 3.05176e-05C165.433 0.0182311 162.525 0.0136806 159.308 1.41967C156.151 2.70736 152.374 5.25999 150.076 9.41882C143.683 20.9989 143.979 35.2909 139.01 47.5854C138.901 47.8584 138.824 48.1405 138.701 48.4135C138.514 48.8594 138.273 49.2462 138.068 49.683C137.759 50.3655 137.413 51.0207 137.072 51.676C130.656 63.9704 119.813 71.692 107.673 78.4308C106.572 78.863 105.658 79.3636 104.616 79.8368C104.452 79.9141 104.252 79.946 104.02 79.946C100.38 79.946 89.2772 71.005 87.1341 69.3669C81.0778 64.744 75.8816 59.1291 72.3734 52.3403C72.2733 52.1446 72.2096 51.9171 72.114 51.7169C71.791 51.0526 71.5316 50.3382 71.2495 49.6421C70.9583 48.9322 70.6171 48.2543 70.3622 47.5171C66.1215 35.1453 66.7813 19.329 59.1598 9.42337C56.8665 5.26909 53.0854 2.71191 49.9276 1.42422C46.7288 0.0273317 43.8395 0.0227814 41.6372 0.00458087C41.5098 0.00458087 41.3824 0.00458054 41.255 0.00913068C39.1392 0.0637324 36.8732 0.732602 34.9121 1.51068C43.7985 6.29742 46.0827 13.0134 44.5266 22.869Z" fill="#E74343"/>
</svg>
