<svg width="6233" height="6233" viewBox="0 0 6233 6233" fill="none" xmlns="http://www.w3.org/2000/svg">
<path d="M6028.33 23.5876C6035.61 27.856 6042.89 32.1245 6050.39 36.5223C6054.36 107.5 6057.2 178.412 6059.09 249.475C6059.87 273.545 6060.95 297.607 6062.33 321.65C6070.1 460.213 6067.64 561.468 5974.16 670.18C5953.71 692.465 5932.87 714.084 5911.36 735.341C5883.8 763.207 5860.06 793.231 5835.83 824.017C5790.62 879.244 5744.58 933.732 5698.37 988.114C5663.31 1029.42 5628.79 1071.09 5594.63 1113.15C5546.48 1172.32 5496.97 1230.22 5447.16 1287.99C5409.39 1331.88 5372.38 1376.28 5335.94 1421.3C5292.7 1474.59 5247.4 1525.52 5201.17 1576.23C5173.33 1607.56 5146.91 1639.73 5120.62 1672.38C5075.78 1727.83 5028.64 1780.29 4980.09 1832.45C4944.17 1871.27 4910.19 1911.09 4877.14 1952.38C4821.03 2022.11 4760.29 2086.93 4699.1 2152.15C4664.95 2188.58 4631.95 2225.86 4599.33 2263.67C4564.43 2303.4 4528.45 2342.13 4492.63 2381.02C4462.3 2414.01 4432.35 2447.22 4403.12 2481.18C4354.2 2537.64 4302.8 2591.79 4251.71 2646.28C4212.18 2688.49 4173 2730.92 4134.54 2774.11C4083.68 2830.99 4031.58 2886.67 3979.32 2942.26C3971.17 2950.95 3963.02 2959.63 3954.62 2968.58C3917.05 3008.45 3879.21 3047.87 3840.18 3086.3C3811.47 3114.75 3784.56 3144.01 3758.29 3174.71C3693.66 3249.58 3621.96 3317.64 3551.57 3387.04C3497.18 3440.96 3444.77 3495.35 3394.95 3553.49C3350.88 3603 3303.6 3649.45 3256.64 3696.2C3239.03 3713.75 3221.47 3731.37 3203.93 3748.99C3148.1 3804.86 3091.46 3858.85 3031.49 3910.25C2980.47 3955.75 2933.16 4005.2 2885.2 4053.89C2820.64 4119.43 2756.12 4183.88 2686.06 4243.58C2661.94 4264.41 2639.44 4286.55 2617.37 4309.54C2637.6 4375.1 2666.58 4432.79 2698.45 4493.33C2713.84 4526.66 2723.92 4553.01 2726.94 4589.53C2718.9 4601.59 2710.87 4613.64 2702.59 4626.06C2633.99 4636.06 2585.27 4615.93 2522.84 4588.01C2494.84 4575.14 2494.84 4575.14 2459.11 4577.36C2429.17 4602.41 2429.17 4602.41 2397.72 4635.61C2391.79 4641.63 2385.86 4647.64 2379.74 4653.83C2360.71 4673.15 2341.81 4692.58 2322.92 4712.03C2298.19 4737.33 2273.41 4762.58 2248.59 4787.79C2239.57 4796.96 2239.57 4796.96 2230.37 4806.33C2189.23 4847.91 2146.67 4886.99 2102.16 4924.91C2073.55 4949.65 2047.23 4976.36 2020.86 5003.44C1978.41 5046.35 1935.14 5087.04 1889.32 5126.28C1855.48 5155.72 1822.53 5186.09 1789.55 5216.49C1733.46 5268.08 1676.89 5318.95 1619.12 5368.66C1613.13 5373.82 1607.14 5378.97 1600.97 5384.29C1557.59 5421.62 1514.12 5458.86 1470.59 5496.03C1456.47 5508.1 1442.35 5520.18 1428.26 5532.27C1341.67 5606.56 1253.57 5678.39 1163.55 5748.47C1127.18 5776.82 1091.25 5805.68 1055.4 5834.68C946.024 5923.04 833.788 6007.37 720.83 6091.08C697.491 6108.58 674.49 6126.39 651.633 6144.5C606 6179.97 572.382 6205.66 515.866 6219.31C387.912 6186.13 276.836 6069.06 206.194 5961.37C180.574 5916.13 165.228 5880.72 176.093 5828.32C204.983 5776.42 250.162 5749.91 298.259 5716.37C319.312 5701.29 340.346 5686.19 361.363 5671.06C372.111 5663.35 382.858 5655.64 393.932 5647.7C444.3 5611.06 493.45 5572.91 542.496 5534.53C551.706 5527.33 560.916 5520.13 570.405 5512.71C636.28 5461.08 701.891 5409.14 766.951 5356.49C773.938 5350.86 780.926 5345.24 788.125 5339.44C884.005 5262.27 978.955 5184.25 1072.05 5103.72C1113.77 5067.68 1156.09 5032.61 1199.12 4998.12C1268.22 4942.08 1332.69 4881.54 1397.52 4820.69C1426 4794 1454.83 4767.9 1484.45 4742.47C1591.21 4650.23 1693.89 4552.59 1792.79 4452.01C1814.05 4431.13 1836.1 4411.79 1858.79 4392.47C1933.16 4328.68 2000.79 4257.5 2069.55 4187.8C2054.71 4140.1 2037.23 4097.64 2013.25 4053.89C1989.62 4007.48 1973.73 3972.98 1984.33 3919.97C2020.86 3895.63 2020.86 3895.63 2047.49 3897.15C2103.34 3914.53 2153.29 3942.87 2204.89 3970.1C2213.21 3974.4 2221.52 3978.7 2230.09 3983.13C2241.27 3989.03 2241.27 3989.03 2252.68 3995.06C2281.92 4007.49 2305.52 4015.13 2337.38 4017.36C2363.12 4001.49 2363.12 4001.49 2385.17 3976.28C2398.22 3962.79 2398.22 3962.79 2411.54 3949.03C2420.46 3939.44 2429.38 3929.85 2438.57 3919.97C2456.25 3901.43 2473.95 3882.92 2491.69 3864.43C2499.46 3856.13 2507.23 3847.83 2515.24 3839.27C2538.33 3816.36 2561.55 3795.45 2586.25 3774.38C2662.02 3708.67 2731.88 3636.79 2802.69 3565.84C2818.18 3550.36 2833.66 3534.89 2849.15 3519.41C2881.47 3487.11 2913.77 3454.78 2946.06 3422.44C2987.22 3381.21 3028.43 3340.04 3069.66 3298.88C3101.62 3266.97 3133.54 3235.04 3165.45 3203.09C3180.63 3187.91 3195.81 3172.73 3211.01 3157.57C3316.62 3052.34 3316.62 3052.34 3416.08 2941.34C3446.15 2906.51 3479.26 2874.73 3512.15 2842.59C3562.86 2792.51 3611.59 2741.82 3657.76 2687.47C3683.52 2658.04 3711.4 2631.02 3739.31 2603.64C3760.82 2581.76 3780.91 2559.23 3800.9 2535.96C3855.17 2473.53 3912.16 2413.81 3969.14 2353.88C4016.21 2304.17 4062.07 2253.71 4106.92 2202C4136.76 2167.87 4167.56 2134.68 4198.45 2101.51C4301.48 1990.34 4402.94 1877.85 4501.27 1762.5C4558.99 1694.83 4616.81 1627.53 4677.03 1562.06C4726.05 1508.66 4771.91 1453.34 4817.41 1396.95C4846 1362.48 4875.73 1329.46 4906.05 1296.51C4954.97 1243.31 5000.98 1188.47 5046.38 1132.26C5081.56 1089.47 5117.72 1047.63 5154.09 1005.86C5264.29 879.267 5372.32 751.088 5478.22 620.866C5495.21 600.062 5512.2 579.265 5529.2 558.475C5538.19 547.475 5547.18 536.474 5556.45 525.14C5580.17 496.185 5604.01 467.329 5627.88 438.496C5696.6 355.422 5764.93 272.173 5831.26 187.173C5976.54 1.39342 5976.54 1.39342 6028.33 23.5876ZM5928.65 243.477C5917.6 255.764 5907.05 268.494 5896.7 281.378C5890.16 289.48 5883.62 297.583 5876.88 305.931C5866.35 319.082 5866.35 319.082 5855.61 332.498C5841.09 350.507 5826.57 368.514 5812.05 386.52C5804.92 395.386 5797.79 404.253 5790.44 413.388C5764.64 445.398 5738.63 477.225 5712.57 509.019C5686.5 540.828 5660.44 572.65 5634.49 604.555C5579.41 672.178 5523.55 739.044 5467.07 805.492C5432.02 846.802 5397.49 888.477 5363.33 930.538C5309.57 996.568 5254.19 1061.12 5198.65 1125.65C5164.02 1165.91 5129.73 1206.45 5095.51 1247.06C5040.67 1312.05 4985.13 1376.41 4929.34 1440.59C4890.21 1485.61 4851.31 1530.82 4812.62 1576.22C4752.56 1646.66 4691.47 1715.85 4628.91 1784.08C4598.13 1817.82 4568.08 1852.14 4538.13 1886.61C4503.66 1925.93 4468.5 1964.64 4433.46 2003.45C4410.68 2028.84 4388.19 2054.43 4365.84 2080.2C4324.31 2127.88 4281.59 2174.43 4238.78 2220.96C4203.29 2259.55 4168.03 2298.34 4133.01 2337.38C4070.64 2406.84 4007.53 2475.62 3944.32 2544.33C3938.63 2550.53 3932.93 2556.72 3927.06 2563.11C3648.07 2866.63 3648.07 2866.63 3540.49 2972.11C3518.8 2994.19 3498.62 3016.98 3478.5 3040.49C3435.65 3089.74 3390.65 3136.25 3344.43 3182.32C3336.02 3190.75 3327.62 3199.17 3318.96 3207.85C3291.46 3235.4 3263.93 3262.91 3236.38 3290.41C3217.09 3309.71 3197.79 3329.02 3178.49 3348.33C3138.17 3388.68 3097.82 3429 3057.45 3469.31C3005.91 3520.78 2954.41 3572.32 2902.94 3623.87C2863.14 3663.71 2823.31 3703.53 2783.47 3743.33C2764.48 3762.32 2745.5 3781.31 2726.52 3800.31C2699.94 3826.93 2673.31 3853.51 2646.67 3880.08C2635.1 3891.68 2635.1 3891.68 2623.3 3903.52C2577.23 3949.37 2529.74 3992.76 2480.22 4034.87C2453.44 4059 2431.59 4085.64 2410.42 4114.75C2418.45 4121.28 2426.49 4127.81 2434.77 4134.54C2459.11 4163.45 2459.11 4163.45 2462.16 4203.02C2461.15 4214.06 2460.15 4225.11 2459.11 4236.49C2417.02 4240.05 2393.75 4241.81 2358.39 4217.33C2349.95 4208.84 2341.51 4200.35 2332.81 4191.6C2286.21 4147.29 2238.64 4104.35 2179.12 4078.23C2171.08 4082.25 2163.05 4086.27 2154.77 4090.41C2255.82 4244.97 2361.83 4357.41 2519.98 4455.62C2524 4447.59 2528.02 4439.55 2532.16 4431.27C2517.62 4406.33 2500.82 4383.62 2483.84 4360.28C2471.29 4333.88 2471.29 4333.88 2472.86 4302.69C2485.16 4268.26 2496.75 4256.56 2525.31 4234.21C2576.93 4191.82 2623.3 4145.85 2669.87 4098.02C2695.32 4073.16 2720.97 4049.93 2747.9 4026.78C2796.06 3984.78 2841.7 3940.85 2886.79 3895.61C2898.9 3883.53 2898.9 3883.53 2911.25 3871.21C2937.61 3844.91 2963.93 3818.55 2990.24 3792.2C3008.73 3773.72 3027.22 3755.24 3045.71 3736.76C3084.34 3698.15 3122.94 3659.52 3161.53 3620.88C3210.8 3571.54 3260.12 3522.26 3309.46 3473C3347.61 3434.89 3385.73 3396.75 3423.85 3358.6C3442.02 3340.43 3460.19 3322.26 3478.38 3304.1C3503.86 3278.65 3529.3 3253.16 3554.74 3227.66C3562.13 3220.29 3569.53 3212.92 3577.15 3205.33C3622 3160.25 3664.48 3113.68 3705.91 3065.43C3735.12 3032.14 3766.54 3001.31 3798.23 2970.41C3846.79 2922.52 3893.09 2873.76 3937.33 2821.81C3957.07 2799.32 3977.76 2778.34 3999.1 2757.37C4027.02 2729.88 4053.45 2701.86 4078.99 2672.16C4121.58 2622.74 4166.01 2575.17 4210.62 2527.59C4267.74 2466.65 4324.31 2405.32 4379.96 2343.03C4411.51 2307.93 4443.44 2273.19 4475.4 2238.46C4537.95 2170.36 4599.09 2101.26 4659.01 2030.84C4718.71 1960.76 4778.71 1891.25 4841.38 1823.79C4892.79 1768.44 4940.91 1711.02 4988.27 1652.17C5016.69 1617.82 5046.29 1584.96 5076.49 1552.16C5125.41 1498.96 5171.42 1444.12 5216.82 1387.91C5251.99 1345.12 5288.15 1303.28 5324.53 1261.51C5425 1146.09 5523.87 1029.51 5620.46 910.803C5652.04 872.403 5684.16 834.492 5716.37 796.626C5764.43 740.119 5811.45 682.943 5857.42 624.718C5879.96 596.518 5879.96 596.518 5912.91 565.561C5957.92 511.755 5947.29 445.303 5944.63 378.911C5944.36 365.886 5944.08 352.861 5943.8 339.441C5943.09 307.436 5942.09 275.465 5940.83 243.477C5936.81 243.477 5932.79 243.477 5928.65 243.477ZM2118.17 4296.25C2107.64 4306.93 2097.1 4317.6 2086.24 4328.61C2077.7 4337.22 2077.7 4337.22 2068.98 4346.01C2044.57 4370.62 2020.22 4395.3 1995.87 4419.98C1931.6 4485.06 1867.19 4549.08 1797.59 4608.55C1771.23 4631.38 1746.87 4655.82 1722.6 4680.84C1682.6 4721.31 1641.55 4759.32 1598.39 4796.35C1562.05 4828.18 1526.7 4861.02 1491.29 4893.88C1433.27 4947.63 1374.79 5000.61 1314.77 5052.14C1301.74 5063.39 1288.71 5074.65 1275.68 5085.9C1200.3 5150.9 1124.44 5215.16 1047.14 5277.88C1019.25 5300.6 991.494 5323.46 963.825 5346.45C816.934 5468.39 667.005 5585.95 514.962 5701.39C503.338 5710.22 491.714 5719.05 479.737 5728.15C457.069 5745.34 434.378 5762.51 411.663 5779.64C396.227 5791.33 396.227 5791.33 380.48 5803.26C371.355 5810.14 362.231 5817.02 352.83 5824.12C330.994 5841.6 311.459 5859.74 292.172 5879.96C352.879 5969.47 424.699 6051.65 523.475 6099.09C529.093 6094.69 534.711 6090.29 540.499 6085.76C639.862 6008.05 739.375 5930.68 840.755 5855.61C937.339 5783.89 1029.72 5707.43 1122.15 5630.48C1150.28 5607.22 1178.83 5584.53 1207.49 5561.92C1263.84 5517.16 1318.29 5470.32 1372.73 5423.29C1415.42 5386.47 1458.66 5350.6 1502.71 5315.4C1575.55 5256.35 1643.15 5192.03 1711.33 5127.75C1740.94 5099.87 1770.86 5072.55 1801.73 5046.05C1911.69 4951.25 2016.81 4850.37 2118.67 4746.99C2141.64 4724.39 2165.29 4703.29 2189.77 4682.36C2232.47 4645.62 2272.96 4607.02 2313.03 4567.47C2319.04 4561.62 2325.04 4555.77 2331.23 4549.74C2345.94 4535.07 2359.98 4519.74 2373.9 4504.32C2373.9 4496.28 2373.9 4488.25 2373.9 4479.97C2352.96 4462.12 2352.96 4462.12 2325.96 4443.45C2268.42 4400.32 2222.8 4351.09 2176.07 4296.65C2169.04 4288.85 2162.01 4281.05 2154.77 4273.01C2138.45 4271.62 2138.45 4271.62 2118.17 4296.25Z" fill="#6B6B6B"/>
<path d="M1683.79 4827.68C1731.65 4835.47 1748.46 4855.87 1777.38 4893.88C1781.94 4933.44 1781.94 4933.44 1777.38 4966.92C1765.2 4979.1 1765.2 4979.1 1731.73 4983.66C1692.16 4979.1 1692.16 4979.1 1657.16 4952.47C1631.29 4918.23 1631.29 4918.23 1625.97 4885.51C1633.33 4846.58 1644.86 4835.05 1683.79 4827.68Z" fill="#828282"/>
<path d="M986.08 5405.18C1029.6 5406.36 1047.35 5417.67 1081.95 5444.74C1107.82 5478.22 1107.82 5478.22 1106.3 5511.7C1095.64 5539.09 1095.64 5539.09 1083.47 5551.27C1040.1 5556.09 1018.02 5556.46 981.515 5531.48C956.332 5494.68 956.025 5473.28 961.732 5429.53C969.767 5421.49 977.802 5413.46 986.08 5405.18Z" fill="#828282"/>
<path d="M2128.9 4432.03C2167.67 4449.14 2189.4 4471.34 2215.64 4504.32C2213.32 4555.33 2213.32 4555.33 2191.29 4577.36C2147.91 4582.18 2125.84 4582.55 2089.33 4557.58C2064.04 4520.61 2062.87 4499.54 2069.55 4455.62C2106.07 4431.27 2106.07 4431.27 2128.9 4432.03Z" fill="#828282"/>
<path d="M1509.55 5039.97C1544.55 5072.68 1544.55 5072.68 1570.42 5113.01C1568.14 5148.01 1568.14 5148.01 1558.25 5173.88C1525.53 5183.77 1525.53 5183.77 1485.21 5186.05C1450.21 5160.94 1450.21 5160.94 1424.34 5125.18C1420.53 5084.86 1420.53 5084.86 1424.34 5052.14C1456.89 5035.86 1473.38 5034.08 1509.55 5039.97Z" fill="#828282"/>
<path d="M789.777 5587.79C830.063 5606.75 849.602 5637.87 876.516 5673C868.481 5693.09 860.446 5713.18 852.168 5733.87C809.112 5737.79 786.476 5738.9 750.212 5714.09C724.922 5677.13 723.747 5656.05 730.43 5612.13C766.951 5587.79 766.951 5587.79 789.777 5587.79Z" fill="#828282"/>
<path d="M1272.17 5230.94C1306.42 5248.93 1321.44 5261.23 1339.12 5295.62C1334.13 5349.31 1334.13 5349.31 1314.77 5368.66C1287.38 5373.22 1287.38 5373.22 1253.9 5368.66C1218.9 5342.79 1218.9 5342.79 1193.04 5307.79C1195.32 5267.46 1195.32 5267.46 1205.21 5234.75C1241.73 5222.57 1241.73 5222.57 1272.17 5230.94Z" fill="#828282"/>
<path d="M1886.94 4638.23C1921.12 4638.23 1940.66 4643.39 1965.31 4667.57C1980.39 4685.69 1994.6 4704.54 2008.68 4723.45C2000.65 4743.53 1992.61 4763.62 1984.33 4784.31C1941.28 4788.23 1918.64 4789.34 1882.38 4764.53C1857.2 4727.73 1856.89 4706.33 1862.6 4662.58C1870.63 4654.54 1878.67 4646.51 1886.94 4638.23Z" fill="#828282"/>
<path d="M544.779 5777.24C588.493 5783.13 592.83 5786.89 619.343 5819.09C632.149 5837.17 632.149 5837.17 645.213 5855.61C637.178 5875.7 629.143 5895.78 620.865 5916.48C577.809 5920.39 555.173 5921.51 518.909 5896.7C493.933 5860.19 494.307 5838.12 499.127 5794.74C511.301 5782.57 511.301 5782.57 544.779 5777.24Z" fill="#828282"/>
</svg>
