<svg width="46" height="41" viewBox="0 0 46 41" fill="none" xmlns="http://www.w3.org/2000/svg">
<path d="M20.8866 14.9299C21.9728 13.888 22.5474 12.5541 22.5286 11.1182C22.5071 9.47376 22.0986 8.47296 20.8649 6.86581C20.4469 6.32122 19.5842 6.01359 18.8708 6.1547C16.7653 6.57113 15.7182 7.05288 14.4743 8.24607C13.3881 9.28799 12.8135 10.6219 12.8323 12.0578C12.8551 13.8061 13.3154 14.8269 14.7397 16.6223C15.0259 16.9831 15.5988 17.1873 16.0782 17.0996C18.4641 16.6629 19.5641 16.1985 20.8866 14.9299Z" fill="#E74343"/>
<path d="M9.99155 19.5991C11.0777 18.5572 11.6524 17.2233 11.6336 15.7874C11.6121 14.1429 11.2036 13.1421 9.9699 11.535C9.55185 10.9904 8.68917 10.6828 7.97574 10.8239C5.87032 11.2403 4.82321 11.7221 3.57932 12.9153C2.49313 13.9572 1.9185 15.2911 1.93727 16.727C1.96013 18.4753 2.42039 19.4961 3.84468 21.2915C4.1309 21.6522 4.70377 21.8565 5.18321 21.7688C7.56905 21.3321 8.66909 20.8677 9.99155 19.5991Z" fill="#E74343"/>
<path d="M13.3947 38.2465C11.8633 37.8988 10.5909 37.0548 9.75861 35.8346C8.80552 34.4373 8.55891 33.3936 8.65014 31.435C8.68106 30.7713 9.2269 30.0901 9.91192 29.8603C11.9335 29.1821 13.1011 29.0765 14.8548 29.4746C16.3863 29.8223 17.6587 30.6663 18.491 31.8864C19.5043 33.372 19.719 34.4579 19.5782 36.6684C19.5499 37.1126 19.1874 37.565 18.7313 37.7254C16.4613 38.5236 15.2592 38.6697 13.3947 38.2465Z" fill="#E74343"/>
<path d="M33.3377 10.2608C34.4239 9.21883 34.9985 7.88494 34.9798 6.449C34.9583 4.80457 34.5498 3.80377 33.3161 2.19662C32.898 1.65203 32.0354 1.3444 31.3219 1.48551C29.2165 1.90194 28.1694 2.38369 26.9255 3.57688C25.8393 4.6188 25.2647 5.95268 25.2835 7.38863C25.3063 9.13691 25.7666 10.1577 27.1909 11.9531C27.4771 12.3139 28.05 12.5182 28.5294 12.4304C30.9152 11.9937 32.0153 11.5293 33.3377 10.2608Z" fill="#E74343"/>
<path d="M26.1359 24.5782C27.6936 24.8094 29.0384 25.5549 29.9787 26.7083C31.0555 28.0291 31.3961 29.0508 31.4831 31.0095C31.5126 31.6732 31.0305 32.3931 30.3687 32.6737C28.4157 33.5016 27.2617 33.6947 25.4778 33.4298C23.92 33.1985 22.5752 32.4531 21.635 31.2997C20.4901 29.8954 20.1775 28.8294 20.1169 26.6159C20.1048 26.1711 20.4249 25.693 20.8649 25.4988C23.0547 24.5327 24.2393 24.2966 26.1359 24.5782Z" fill="#E74343"/>
<path d="M37.7679 29.1494C36.1909 29.0908 34.7571 28.4985 33.6707 27.4567C32.4266 26.2637 31.953 25.2869 31.6069 23.3521C31.4896 22.6964 31.8727 21.9288 32.4924 21.5777C34.3214 20.5415 35.4414 20.2231 37.2474 20.2902C38.8245 20.3488 40.2582 20.9411 41.3446 21.9829C42.6673 23.2512 43.119 24.2751 43.4727 26.4658C43.5437 26.9061 43.2893 27.4158 42.8783 27.6568C40.8327 28.8563 39.688 29.2207 37.7679 29.1494Z" fill="#E74343"/>
<path d="M4.14174 25.1218C3.49214 25.3922 3.0533 26.009 3.0108 26.7114C3.00107 26.8722 3.01247 27.0336 3.04472 27.1914L3.08431 27.3853C3.18593 27.8826 3.40196 28.3495 3.71529 28.7489L3.80546 28.8639C3.87377 28.951 3.95023 29.0313 4.0338 29.1039C4.53286 29.5373 5.23428 29.6507 5.84448 29.3967L39.537 15.3711C40.71 14.8828 41.265 13.5361 40.7767 12.3632C40.2884 11.1903 38.9418 10.6352 37.7688 11.1235L4.14174 25.1218Z" fill="#E74343"/>
</svg>
