<svg width="44" height="20" viewBox="0 0 44 20" fill="none" xmlns="http://www.w3.org/2000/svg">
<path d="M34.7768 7.52346C34.2903 7.00376 34.033 6.33843 34.0414 5.6222C34.051 4.80198 34.234 4.3028 34.7865 3.50117C34.9738 3.22953 35.3602 3.07609 35.6797 3.14648C36.6227 3.35419 37.0917 3.59448 37.6488 4.18963C38.1353 4.70932 38.3927 5.37465 38.3843 6.09088C38.374 6.9629 38.1679 7.47206 37.53 8.36757C37.4018 8.54753 37.1452 8.64942 36.9304 8.60565C35.8619 8.38783 35.3692 8.15619 34.7768 7.52346Z" fill="#E74343"/>
<path d="M39.5249 9.92873C39.0384 9.40903 38.781 8.74371 38.7894 8.02747C38.7991 7.20725 38.982 6.70807 39.5346 5.90644C39.7218 5.63481 40.1082 5.48137 40.4277 5.55175C41.3707 5.75946 41.8397 5.99975 42.3969 6.5949C42.8834 7.11459 43.1407 7.77992 43.1323 8.49615C43.1221 9.36817 42.9159 9.87733 42.278 10.7728C42.1498 10.9528 41.8932 11.0547 41.6785 11.0109C40.6099 10.7931 40.1172 10.5615 39.5249 9.92873Z" fill="#E74343"/>
<path d="M38.055 18.1287C38.7409 17.9553 39.3108 17.5343 39.6835 16.9257C40.1104 16.2287 40.2209 15.7081 40.18 14.7312C40.1662 14.4002 39.9217 14.0604 39.6149 13.9458C38.7094 13.6075 38.1865 13.5548 37.401 13.7534C36.7151 13.9268 36.1452 14.3478 35.7724 14.9564C35.3186 15.6974 35.2224 16.239 35.2854 17.3416C35.2981 17.5632 35.4605 17.7888 35.6648 17.8688C36.6815 18.2669 37.2199 18.3398 38.055 18.1287Z" fill="#E74343"/>
<path d="M29.0796 5.11794C28.5931 4.59824 28.3357 3.93291 28.3441 3.21668C28.3538 2.39646 28.5367 1.89728 29.0893 1.09565C29.2765 0.824016 29.6629 0.670576 29.9824 0.74096C30.9254 0.94867 31.3944 1.18896 31.9515 1.78411C32.438 2.3038 32.6954 2.96913 32.687 3.68536C32.6768 4.55738 32.4706 5.06654 31.8327 5.96205C31.7045 6.14201 31.4479 6.2439 31.2332 6.20013C30.1646 5.98231 29.6719 5.75068 29.0796 5.11794Z" fill="#E74343"/>
<path d="M32.2938 11.7418C31.5961 11.8571 30.9938 12.229 30.5727 12.8043C30.0904 13.4631 29.9378 13.9727 29.8989 14.9496C29.8857 15.2807 30.1016 15.6398 30.398 15.7797C31.2727 16.1927 31.7896 16.289 32.5886 16.1569C33.2863 16.0415 33.8886 15.6697 34.3098 15.0944C34.8225 14.394 34.9625 13.8622 34.9897 12.7582C34.9951 12.5363 34.8517 12.2978 34.6546 12.201C33.6739 11.7191 33.1433 11.6013 32.2938 11.7418Z" fill="#E74343"/>
<path d="M27.0846 14.0218C27.7909 13.9926 28.4331 13.6971 28.9197 13.1775C29.4769 12.5825 29.689 12.0953 29.8441 11.1302C29.8966 10.8032 29.725 10.4203 29.4474 10.2451C28.6283 9.72828 28.1266 9.56948 27.3177 9.60294C26.6114 9.63216 25.9692 9.92761 25.4826 10.4472C24.8902 11.0799 24.6879 11.5906 24.5295 12.6833C24.4977 12.9029 24.6116 13.1571 24.7957 13.2773C25.7119 13.8756 26.2246 14.0574 27.0846 14.0218Z" fill="#E74343"/>
<path d="M9.22316 7.52346C9.70966 7.00376 9.96702 6.33843 9.95861 5.6222C9.94898 4.80198 9.76603 4.3028 9.21347 3.50117C9.02623 3.22953 8.63984 3.07609 8.3203 3.14648C7.3773 3.35419 6.90832 3.59448 6.35119 4.18963C5.8647 4.70932 5.60732 5.37465 5.61573 6.09088C5.62597 6.9629 5.83211 7.47206 6.47004 8.36757C6.59824 8.54753 6.85482 8.64942 7.06956 8.60565C8.13815 8.38783 8.63085 8.15619 9.22316 7.52346Z" fill="#E74343"/>
<path d="M4.47512 9.92873C4.96161 9.40903 5.21898 8.74371 5.21057 8.02747C5.20094 7.20725 5.01798 6.70807 4.46542 5.90644C4.27818 5.63481 3.8918 5.48137 3.57226 5.55175C2.62926 5.75946 2.16027 5.99975 1.60314 6.5949C1.11665 7.11459 0.859276 7.77992 0.867685 8.49615C0.877922 9.36817 1.08407 9.87733 1.722 10.7728C1.85019 10.9528 2.10677 11.0547 2.32151 11.0109C3.3901 10.7931 3.8828 10.5615 4.47512 9.92873Z" fill="#E74343"/>
<path d="M5.94602 18.1287C5.26011 17.9553 4.69021 17.5343 4.31744 16.9257C3.89056 16.2287 3.78011 15.7081 3.82097 14.7312C3.83482 14.4002 4.07929 14.0604 4.38611 13.9458C5.29155 13.6075 5.8145 13.5548 6.6 13.7534C7.2859 13.9268 7.85582 14.3478 8.22858 14.9564C8.68242 15.6974 8.7786 16.239 8.71554 17.3416C8.70287 17.5632 8.54052 17.7888 8.33621 17.8688C7.31949 18.2669 6.78112 18.3398 5.94602 18.1287Z" fill="#E74343"/>
<path d="M14.9204 5.11794C15.4069 4.59824 15.6643 3.93291 15.6559 3.21668C15.6462 2.39646 15.4633 1.89728 14.9107 1.09565C14.7235 0.824016 14.3371 0.670576 14.0176 0.74096C13.0746 0.94867 12.6056 1.18896 12.0485 1.78411C11.562 2.3038 11.3046 2.96913 11.313 3.68536C11.3232 4.55738 11.5294 5.06654 12.1673 5.96205C12.2955 6.14201 12.5521 6.2439 12.7668 6.20013C13.8354 5.98231 14.3281 5.75068 14.9204 5.11794Z" fill="#E74343"/>
<path d="M11.7062 11.7418C12.4039 11.8571 13.0062 12.229 13.4273 12.8043C13.9096 13.4631 14.0622 13.9727 14.1011 14.9496C14.1143 15.2807 13.8984 15.6398 13.602 15.7797C12.7273 16.1927 12.2104 16.289 11.4114 16.1569C10.7137 16.0415 10.1114 15.6697 9.69024 15.0944C9.1775 14.394 9.03745 13.8622 9.01034 12.7582C9.0049 12.5363 9.14828 12.2978 9.34537 12.201C10.3261 11.7191 10.8567 11.6013 11.7062 11.7418Z" fill="#E74343"/>
<path d="M16.9154 14.0218C16.2091 13.9926 15.5669 13.6971 15.0803 13.1775C14.5231 12.5825 14.311 12.0953 14.1559 11.1302C14.1034 10.8032 14.275 10.4203 14.5526 10.2451C15.3717 9.72828 15.8734 9.56948 16.6823 9.60294C17.3886 9.63216 18.0308 9.92761 18.5174 10.4472C19.1098 11.0799 19.3121 11.5906 19.4705 12.6833C19.5023 12.9029 19.3884 13.1571 19.2043 13.2773C18.2881 13.8756 17.7754 14.0574 16.9154 14.0218Z" fill="#E74343"/>
<path d="M26.9807 7.87034C26.6617 7.73724 26.4369 7.42453 26.4063 7.0712V7.0712C26.3999 6.99757 26.4021 6.92388 26.4129 6.85179L26.4296 6.74053C26.4669 6.49231 26.5551 6.25827 26.6885 6.05428L26.7321 5.98763C26.7586 5.94699 26.7887 5.90912 26.8221 5.87448V5.87448C27.04 5.64794 27.3709 5.58248 27.6691 5.70691L42.8574 12.0447C43.4352 12.2859 43.7418 12.9624 43.5421 13.5558V13.5558C43.3425 14.1492 42.7122 14.4348 42.1344 14.1937L26.9807 7.87034Z" fill="#E74343"/>
<path d="M1.8932 11.995C1.58034 12.14 1.36703 12.4606 1.34779 12.8147V12.8147C1.34376 12.8889 1.3484 12.9629 1.36162 13.035L1.38174 13.1446C1.42699 13.3913 1.52284 13.6218 1.66271 13.8204L1.70806 13.8847C1.7361 13.9245 1.76761 13.9614 1.80222 13.9949V13.9949C2.02722 14.2124 2.35875 14.2649 2.65133 14.1293L17.6332 7.1839C18.1999 6.92121 18.482 6.23398 18.2633 5.64893V5.64893C18.0446 5.06389 17.4079 4.80257 16.8413 5.06526L1.8932 11.995Z" fill="#E74343"/>
</svg>
