<svg width="157" height="67" viewBox="0 0 157 67" fill="none" xmlns="http://www.w3.org/2000/svg">
<path d="M123.546 25.9717C121.818 24.1776 120.904 21.8807 120.934 19.4082C120.968 16.5766 121.618 14.8533 123.581 12.0859C124.246 11.1482 125.619 10.6185 126.754 10.8615C130.104 11.5785 131.77 12.408 133.749 14.4626C135.477 16.2567 136.392 18.5536 136.362 21.0261C136.325 24.0365 135.593 25.7943 133.327 28.8858C132.871 29.507 131.96 29.8588 131.197 29.7077C127.401 28.9557 125.651 28.156 123.546 25.9717Z" fill="#E74343"/>
<path d="M140.414 34.2757C138.686 32.4816 137.771 30.1847 137.801 27.7121C137.836 24.8806 138.485 23.1573 140.448 20.3899C141.114 19.4521 142.486 18.9224 143.621 19.1654C146.971 19.8825 148.638 20.712 150.617 22.7666C152.345 24.5607 153.259 26.8575 153.23 29.3301C153.193 32.3405 152.461 34.0982 150.195 37.1897C149.739 37.811 148.828 38.1627 148.065 38.0116C144.269 37.2596 142.518 36.46 140.414 34.2757Z" fill="#E74343"/>
<path d="M135.19 62.5847C137.626 61.9861 139.651 60.5328 140.975 58.4317C142.492 56.0256 142.884 54.2284 142.739 50.8559C142.69 49.7131 141.821 48.5402 140.731 48.1445C137.515 46.9767 135.657 46.7948 132.867 47.4803C130.43 48.079 128.405 49.5322 127.081 51.6333C125.469 54.1914 125.127 56.0612 125.351 59.8675C125.396 60.6324 125.973 61.4113 126.699 61.6875C130.31 63.0619 132.223 63.3136 135.19 62.5847Z" fill="#E74343"/>
<path d="M103.305 17.6677C101.577 15.8736 100.663 13.5768 100.692 11.1042C100.727 8.27264 101.377 6.54935 103.34 3.78197C104.005 2.84423 105.377 2.31452 106.513 2.5575C109.863 3.27455 111.529 4.10408 113.508 6.15866C115.236 7.95276 116.151 10.2496 116.121 12.7222C116.084 15.7326 115.352 17.4903 113.086 20.5818C112.63 21.203 111.719 21.5548 110.956 21.4037C107.16 20.6517 105.409 19.8521 103.305 17.6677Z" fill="#E74343"/>
<path d="M114.726 40.5349C112.247 40.9331 110.107 42.2167 108.611 44.2028C106.898 46.4772 106.356 48.2363 106.218 51.6091C106.171 52.752 106.938 53.9916 107.991 54.4747C111.098 55.9002 112.934 56.2328 115.773 55.7767C118.252 55.3785 120.391 54.0949 121.887 52.1089C123.709 49.6908 124.206 47.8552 124.303 44.0437C124.322 43.2777 123.813 42.4545 123.113 42.1202C119.628 40.4565 117.744 40.05 114.726 40.5349Z" fill="#E74343"/>
<path d="M96.2186 48.4063C98.728 48.3054 101.009 47.2855 102.738 45.4916C104.717 43.4373 105.471 41.7554 106.022 38.4238C106.208 37.2948 105.599 35.9731 104.613 35.3685C101.703 33.5842 99.9205 33.0359 97.0469 33.1514C94.5375 33.2523 92.2562 34.2723 90.5276 36.0661C88.423 38.2501 87.7042 40.0132 87.1416 43.7854C87.0285 44.5435 87.4333 45.4212 88.0873 45.8362C91.3422 47.9017 93.1635 48.5291 96.2186 48.4063Z" fill="#E74343"/>
<path d="M32.7657 25.9717C34.494 24.1776 35.4083 21.8807 35.3784 19.4082C35.3442 16.5766 34.6942 14.8533 32.7312 12.0859C32.0661 11.1482 30.6934 10.6185 29.5582 10.8615C26.2082 11.5785 24.5421 12.408 22.5629 14.4626C20.8346 16.2567 19.9203 18.5536 19.9502 21.0261C19.9865 24.0365 20.7189 25.7943 22.9851 28.8858C23.4405 29.507 24.3521 29.8588 25.1149 29.7077C28.9111 28.9557 30.6615 28.156 32.7657 25.9717Z" fill="#E74343"/>
<path d="M15.898 34.2757C17.6263 32.4816 18.5406 30.1847 18.5107 27.7121C18.4765 24.8806 17.8266 23.1573 15.8636 20.3899C15.1984 19.4521 13.8257 18.9224 12.6906 19.1654C9.34053 19.8825 7.67444 20.712 5.69522 22.7666C3.96693 24.5607 3.05261 26.8575 3.08248 29.3301C3.11885 32.3405 3.85119 34.0982 6.11745 37.1897C6.57287 37.811 7.48439 38.1627 8.24725 38.0116C12.0435 37.2596 13.7938 36.46 15.898 34.2757Z" fill="#E74343"/>
<path d="M21.1227 62.5847C18.686 61.9861 16.6614 60.5328 15.3371 58.4317C13.8206 56.0256 13.4282 54.2284 13.5734 50.8559C13.6226 49.7131 14.4911 48.5402 15.5811 48.1445C18.7977 46.9767 20.6555 46.7948 23.446 47.4803C25.8827 48.079 27.9073 49.5322 29.2316 51.6333C30.8439 54.1914 31.1856 56.0612 30.9615 59.8675C30.9165 60.6324 30.3398 61.4113 29.6139 61.6875C26.002 63.0619 24.0895 63.3136 21.1227 62.5847Z" fill="#E74343"/>
<path d="M53.0079 17.6677C54.7362 15.8736 55.6505 13.5768 55.6206 11.1042C55.5864 8.27264 54.9364 6.54935 52.9734 3.78197C52.3082 2.84423 50.9356 2.31452 49.8004 2.5575C46.4504 3.27455 44.7843 4.10408 42.8051 6.15866C41.0768 7.95276 40.1625 10.2496 40.1923 12.7222C40.2287 15.7326 40.9611 17.4903 43.2273 20.5818C43.6827 21.203 44.5942 21.5548 45.3571 21.4037C49.1533 20.6517 50.9037 19.8521 53.0079 17.6677Z" fill="#E74343"/>
<path d="M41.5862 40.5349C44.0649 40.9331 46.2046 42.2167 47.7007 44.2028C49.414 46.4772 49.956 48.2363 50.0945 51.6091C50.1414 52.752 49.3743 53.9916 48.3213 54.4747C45.2138 55.9002 43.3776 56.2328 40.5391 55.7767C38.0604 55.3785 35.9207 54.0949 34.4246 52.1089C32.603 49.6908 32.1055 47.8552 32.0092 44.0437C31.9899 43.2777 32.4993 42.4545 33.1994 42.1202C36.6836 40.4565 38.5685 40.05 41.5862 40.5349Z" fill="#E74343"/>
<path d="M60.0939 48.4063C57.5845 48.3054 55.3032 47.2855 53.5746 45.4916C51.5951 43.4373 50.8415 41.7554 50.2908 38.4238C50.1041 37.2948 50.7137 35.9731 51.6998 35.3685C54.61 33.5842 56.392 33.0359 59.2656 33.1514C61.775 33.2523 64.0563 34.2723 65.7849 36.0661C67.8895 38.2501 68.6083 40.0132 69.1709 43.7854C69.284 44.5435 68.8792 45.4212 68.2252 45.8362C64.9703 47.9017 63.149 48.5291 60.0939 48.4063Z" fill="#E74343"/>
<path d="M95.8079 27.1528C94.698 26.7027 93.9174 25.6354 93.8087 24.4191C93.7855 24.1592 93.7937 23.8987 93.8331 23.6435L93.8905 23.2716C94.023 22.4134 94.3375 21.6032 94.8116 20.8984L94.9618 20.6751C95.0586 20.5313 95.1682 20.3974 95.2892 20.2751C96.062 19.4944 97.2193 19.2648 98.2583 19.6861L152.33 41.6123C154.339 42.427 155.393 44.7481 154.684 46.7967C153.974 48.8454 151.771 49.8457 149.762 49.031L95.8079 27.1528Z" fill="#E74343"/>
<path d="M6.6889 41.4266C5.59873 41.9177 4.85726 43.0124 4.78909 44.2314C4.77446 44.4931 4.79138 44.7543 4.83946 45.009L4.90876 45.3761C5.06975 46.2288 5.41107 47.0267 5.90839 47.7127L6.06499 47.9288C6.16693 48.0694 6.28138 48.1995 6.40693 48.3175C7.20492 49.0673 8.36589 49.2525 9.38655 48.7927L62.7157 24.7682C64.6887 23.8794 65.6584 21.5216 64.8815 19.5019C64.1045 17.4822 61.8753 16.5654 59.9023 17.4542L6.6889 41.4266Z" fill="#E74343"/>
</svg>
